  0
SECTION
  2
HEADER
  9
$ACADVER
  1
AC1009
  9
$LIMMIN
 10
2.707200000000001
 20
2.055600000000001
  9
$LIMMAX
 10
5.151250000000001
 20
3.628866666666668
  9
$GRIDMODE
 70
216
  9
$GRIDUNIT
 10
0.003933333333333335
 20
0.003933333333333335
  9
$SNAPMODE
 70
1
  9
$SNAPSTYLE
 70
0
  9
$SNAPUNIT
 10
0.003933333333333335
 20
0.003933333333333335
  9
$FILLMODE
 70
1
  9
$CECOLOR
 62
256
  0
ENDSEC
  0
SECTION
  2
ENTITIES
 0
SOLID
  8
SMT
 10
0.7360
 20
0.6320
 11
0.7740
 21
0.6320
 12
0.7360
 22
0.6760
 13
0.7740
 23
0.6760
 0
SOLID
  8
SPT
 10
0.7400
 20
0.6360
 11
0.7700
 21
0.6360
 12
0.7400
 22
0.6720
 13
0.7700
 23
0.6720
 0
SOLID
  8
SMT
 10
0.6810
 20
0.6320
 11
0.7170
 21
0.6320
 12
0.6810
 22
0.6760
 13
0.7170
 23
0.6760
 0
SOLID
  8
SPT
 10
0.6840
 20
0.6360
 11
0.7140
 21
0.6360
 12
0.6840
 22
0.6720
 13
0.7140
 23
0.6720
 0
SOLID
  8
SMT
 10
0.5160
 20
1.1430
 11
0.5600
 21
1.1430
 12
0.5160
 22
1.1810
 13
0.5600
 23
1.1810
 0
SOLID
  8
SPT
 10
0.5200
 20
1.1470
 11
0.5560
 21
1.1470
 12
0.5200
 22
1.1770
 13
0.5560
 23
1.1770
 0
SOLID
  8
SMT
 10
0.5160
 20
1.0880
 11
0.5600
 21
1.0880
 12
0.5160
 22
1.1240
 13
0.5600
 23
1.1240
 0
SOLID
  8
SPT
 10
0.5200
 20
1.0910
 11
0.5560
 21
1.0910
 12
0.5200
 22
1.1210
 13
0.5560
 23
1.1210
 0
SOLID
  8
SMT
 10
1.2630
 20
0.6320
 11
1.3010
 21
0.6320
 12
1.2630
 22
0.6760
 13
1.3010
 23
0.6760
 0
SOLID
  8
SPT
 10
1.2670
 20
0.6360
 11
1.2970
 21
0.6360
 12
1.2670
 22
0.6720
 13
1.2970
 23
0.6720
 0
SOLID
  8
SMT
 10
1.2080
 20
0.6320
 11
1.2440
 21
0.6320
 12
1.2080
 22
0.6760
 13
1.2440
 23
0.6760
 0
SOLID
  8
SPT
 10
1.2110
 20
0.6360
 11
1.2410
 21
0.6360
 12
1.2110
 22
0.6720
 13
1.2410
 23
0.6720
 0
SOLID
  8
SMT
 10
1.5030
 20
1.0100
 11
1.5470
 21
1.0100
 12
1.5030
 22
1.0480
 13
1.5470
 23
1.0480
 0
SOLID
  8
SPT
 10
1.5070
 20
1.0140
 11
1.5430
 21
1.0140
 12
1.5070
 22
1.0440
 13
1.5430
 23
1.0440
 0
SOLID
  8
SMT
 10
1.5030
 20
0.9550
 11
1.5470
 21
0.9550
 12
1.5030
 22
0.9910
 13
1.5470
 23
0.9910
 0
SOLID
  8
SPT
 10
1.5070
 20
0.9580
 11
1.5430
 21
0.9580
 12
1.5070
 22
0.9880
 13
1.5430
 23
0.9880
 0
SOLID
  8
SMT
 10
1.5030
 20
1.0790
 11
1.5470
 21
1.0790
 12
1.5030
 22
1.1170
 13
1.5470
 23
1.1170
 0
SOLID
  8
SPT
 10
1.5070
 20
1.0830
 11
1.5430
 21
1.0830
 12
1.5070
 22
1.1130
 13
1.5430
 23
1.1130
 0
SOLID
  8
SMT
 10
1.5030
 20
1.1360
 11
1.5470
 21
1.1360
 12
1.5030
 22
1.1720
 13
1.5470
 23
1.1720
 0
SOLID
  8
SPT
 10
1.5070
 20
1.1390
 11
1.5430
 21
1.1390
 12
1.5070
 22
1.1690
 13
1.5430
 23
1.1690
 0
SOLID
  8
SMT
 10
1.8990
 20
0.7030
 11
1.9370
 21
0.7030
 12
1.8990
 22
0.7470
 13
1.9370
 23
0.7470
 0
SOLID
  8
SPT
 10
1.9030
 20
0.7070
 11
1.9330
 21
0.7070
 12
1.9030
 22
0.7430
 13
1.9330
 23
0.7430
 0
SOLID
  8
SMT
 10
1.9560
 20
0.7030
 11
1.9920
 21
0.7030
 12
1.9560
 22
0.7470
 13
1.9920
 23
0.7470
 0
SOLID
  8
SPT
 10
1.9590
 20
0.7070
 11
1.9890
 21
0.7070
 12
1.9590
 22
0.7430
 13
1.9890
 23
0.7430
 0
SOLID
  8
SMT
 10
0.5160
 20
0.9580
 11
0.5600
 21
0.9580
 12
0.5160
 22
0.9960
 13
0.5600
 23
0.9960
 0
SOLID
  8
SPT
 10
0.5200
 20
0.9620
 11
0.5560
 21
0.9620
 12
0.5200
 22
0.9920
 13
0.5560
 23
0.9920
 0
SOLID
  8
SMT
 10
0.5160
 20
1.0150
 11
0.5600
 21
1.0150
 12
0.5160
 22
1.0510
 13
0.5600
 23
1.0510
 0
SOLID
  8
SPT
 10
0.5200
 20
1.0180
 11
0.5560
 21
1.0180
 12
0.5200
 22
1.0480
 13
0.5560
 23
1.0480
 0
SOLID
  8
SMT
 10
1.8530
 20
1.0130
 11
1.8810
 21
1.0130
 12
1.8530
 22
1.0890
 13
1.8810
 23
1.0890
 0
SOLID
  8
SPT
 10
1.8560
 20
1.0160
 11
1.8780
 21
1.0160
 12
1.8560
 22
1.0860
 13
1.8780
 23
1.0860
 0
SOLID
  8
SMT
 10
1.9030
 20
1.0130
 11
1.9310
 21
1.0130
 12
1.9030
 22
1.0890
 13
1.9310
 23
1.0890
 0
SOLID
  8
SPT
 10
1.9060
 20
1.0160
 11
1.9280
 21
1.0160
 12
1.9060
 22
1.0860
 13
1.9280
 23
1.0860
 0
SOLID
  8
SMT
 10
1.9530
 20
1.0130
 11
1.9810
 21
1.0130
 12
1.9530
 22
1.0890
 13
1.9810
 23
1.0890
 0
SOLID
  8
SPT
 10
1.9560
 20
1.0160
 11
1.9780
 21
1.0160
 12
1.9560
 22
1.0860
 13
1.9780
 23
1.0860
 0
SOLID
  8
SMT
 10
2.0030
 20
1.0130
 11
2.0310
 21
1.0130
 12
2.0030
 22
1.0890
 13
2.0310
 23
1.0890
 0
SOLID
  8
SPT
 10
2.0060
 20
1.0160
 11
2.0280
 21
1.0160
 12
2.0060
 22
1.0860
 13
2.0280
 23
1.0860
 0
SOLID
  8
SMT
 10
2.0030
 20
0.8030
 11
2.0310
 21
0.8030
 12
2.0030
 22
0.8790
 13
2.0310
 23
0.8790
 0
SOLID
  8
SPT
 10
2.0060
 20
0.8060
 11
2.0280
 21
0.8060
 12
2.0060
 22
0.8760
 13
2.0280
 23
0.8760
 0
SOLID
  8
SMT
 10
1.9530
 20
0.8030
 11
1.9810
 21
0.8030
 12
1.9530
 22
0.8790
 13
1.9810
 23
0.8790
 0
SOLID
  8
SPT
 10
1.9560
 20
0.8060
 11
1.9780
 21
0.8060
 12
1.9560
 22
0.8760
 13
1.9780
 23
0.8760
 0
SOLID
  8
SMT
 10
1.9030
 20
0.8030
 11
1.9310
 21
0.8030
 12
1.9030
 22
0.8790
 13
1.9310
 23
0.8790
 0
SOLID
  8
SPT
 10
1.9060
 20
0.8060
 11
1.9280
 21
0.8060
 12
1.9060
 22
0.8760
 13
1.9280
 23
0.8760
 0
SOLID
  8
SMT
 10
1.8530
 20
0.8030
 11
1.8810
 21
0.8030
 12
1.8530
 22
0.8790
 13
1.8810
 23
0.8790
 0
SOLID
  8
SPT
 10
1.8560
 20
0.8060
 11
1.8780
 21
0.8060
 12
1.8560
 22
0.8760
 13
1.8780
 23
0.8760
 0
SOLID
  8
SMT
 10
0.6160
 20
0.7380
 11
0.7080
 21
0.7380
 12
0.6160
 22
0.7680
 13
0.7080
 23
0.7680
 0
SOLID
  8
SPT
 10
0.6200
 20
0.7420
 11
0.7040
 21
0.7420
 12
0.6200
 22
0.7640
 13
0.7040
 23
0.7640
 0
SOLID
  8
SMT
 10
0.6160
 20
0.7880
 11
0.7080
 21
0.7880
 12
0.6160
 22
0.8180
 13
0.7080
 23
0.8180
 0
SOLID
  8
SPT
 10
0.6200
 20
0.7920
 11
0.7040
 21
0.7920
 12
0.6200
 22
0.8140
 13
0.7040
 23
0.8140
 0
SOLID
  8
SMT
 10
0.6160
 20
0.8380
 11
0.7080
 21
0.8380
 12
0.6160
 22
0.8680
 13
0.7080
 23
0.8680
 0
SOLID
  8
SPT
 10
0.6200
 20
0.8420
 11
0.7040
 21
0.8420
 12
0.6200
 22
0.8640
 13
0.7040
 23
0.8640
 0
SOLID
  8
SMT
 10
0.6160
 20
0.8880
 11
0.7080
 21
0.8880
 12
0.6160
 22
0.9180
 13
0.7080
 23
0.9180
 0
SOLID
  8
SPT
 10
0.6200
 20
0.8920
 11
0.7040
 21
0.8920
 12
0.6200
 22
0.9140
 13
0.7040
 23
0.9140
 0
SOLID
  8
SMT
 10
0.6160
 20
0.9380
 11
0.7080
 21
0.9380
 12
0.6160
 22
0.9680
 13
0.7080
 23
0.9680
 0
SOLID
  8
SPT
 10
0.6200
 20
0.9420
 11
0.7040
 21
0.9420
 12
0.6200
 22
0.9640
 13
0.7040
 23
0.9640
 0
SOLID
  8
SMT
 10
0.6160
 20
0.9880
 11
0.7080
 21
0.9880
 12
0.6160
 22
1.0180
 13
0.7080
 23
1.0180
 0
SOLID
  8
SPT
 10
0.6200
 20
0.9920
 11
0.7040
 21
0.9920
 12
0.6200
 22
1.0140
 13
0.7040
 23
1.0140
 0
SOLID
  8
SMT
 10
0.6160
 20
1.0380
 11
0.7080
 21
1.0380
 12
0.6160
 22
1.0680
 13
0.7080
 23
1.0680
 0
SOLID
  8
SPT
 10
0.6200
 20
1.0420
 11
0.7040
 21
1.0420
 12
0.6200
 22
1.0640
 13
0.7040
 23
1.0640
 0
SOLID
  8
SMT
 10
0.6160
 20
1.0880
 11
0.7080
 21
1.0880
 12
0.6160
 22
1.1180
 13
0.7080
 23
1.1180
 0
SOLID
  8
SPT
 10
0.6200
 20
1.0920
 11
0.7040
 21
1.0920
 12
0.6200
 22
1.1140
 13
0.7040
 23
1.1140
 0
SOLID
  8
SMT
 10
0.6160
 20
1.1380
 11
0.7080
 21
1.1380
 12
0.6160
 22
1.1680
 13
0.7080
 23
1.1680
 0
SOLID
  8
SPT
 10
0.6200
 20
1.1420
 11
0.7040
 21
1.1420
 12
0.6200
 22
1.1640
 13
0.7040
 23
1.1640
 0
SOLID
  8
SMT
 10
0.6160
 20
1.1880
 11
0.7080
 21
1.1880
 12
0.6160
 22
1.2180
 13
0.7080
 23
1.2180
 0
SOLID
  8
SPT
 10
0.6200
 20
1.1920
 11
0.7040
 21
1.1920
 12
0.6200
 22
1.2140
 13
0.7040
 23
1.2140
 0
SOLID
  8
SMT
 10
0.9010
 20
1.1880
 11
0.9930
 21
1.1880
 12
0.9010
 22
1.2180
 13
0.9930
 23
1.2180
 0
SOLID
  8
SPT
 10
0.9050
 20
1.1920
 11
0.9890
 21
1.1920
 12
0.9050
 22
1.2140
 13
0.9890
 23
1.2140
 0
SOLID
  8
SMT
 10
0.9010
 20
1.1380
 11
0.9930
 21
1.1380
 12
0.9010
 22
1.1680
 13
0.9930
 23
1.1680
 0
SOLID
  8
SPT
 10
0.9050
 20
1.1420
 11
0.9890
 21
1.1420
 12
0.9050
 22
1.1640
 13
0.9890
 23
1.1640
 0
SOLID
  8
SMT
 10
0.9010
 20
1.0880
 11
0.9930
 21
1.0880
 12
0.9010
 22
1.1180
 13
0.9930
 23
1.1180
 0
SOLID
  8
SPT
 10
0.9050
 20
1.0920
 11
0.9890
 21
1.0920
 12
0.9050
 22
1.1140
 13
0.9890
 23
1.1140
 0
SOLID
  8
SMT
 10
0.9010
 20
1.0380
 11
0.9930
 21
1.0380
 12
0.9010
 22
1.0680
 13
0.9930
 23
1.0680
 0
SOLID
  8
SPT
 10
0.9050
 20
1.0420
 11
0.9890
 21
1.0420
 12
0.9050
 22
1.0640
 13
0.9890
 23
1.0640
 0
SOLID
  8
SMT
 10
0.9010
 20
0.9880
 11
0.9930
 21
0.9880
 12
0.9010
 22
1.0180
 13
0.9930
 23
1.0180
 0
SOLID
  8
SPT
 10
0.9050
 20
0.9920
 11
0.9890
 21
0.9920
 12
0.9050
 22
1.0140
 13
0.9890
 23
1.0140
 0
SOLID
  8
SMT
 10
0.9010
 20
0.9380
 11
0.9930
 21
0.9380
 12
0.9010
 22
0.9680
 13
0.9930
 23
0.9680
 0
SOLID
  8
SPT
 10
0.9050
 20
0.9420
 11
0.9890
 21
0.9420
 12
0.9050
 22
0.9640
 13
0.9890
 23
0.9640
 0
SOLID
  8
SMT
 10
0.9010
 20
0.8880
 11
0.9930
 21
0.8880
 12
0.9010
 22
0.9180
 13
0.9930
 23
0.9180
 0
SOLID
  8
SPT
 10
0.9050
 20
0.8920
 11
0.9890
 21
0.8920
 12
0.9050
 22
0.9140
 13
0.9890
 23
0.9140
 0
SOLID
  8
SMT
 10
0.9010
 20
0.8380
 11
0.9930
 21
0.8380
 12
0.9010
 22
0.8680
 13
0.9930
 23
0.8680
 0
SOLID
  8
SPT
 10
0.9050
 20
0.8420
 11
0.9890
 21
0.8420
 12
0.9050
 22
0.8640
 13
0.9890
 23
0.8640
 0
SOLID
  8
SMT
 10
0.9010
 20
0.7880
 11
0.9930
 21
0.7880
 12
0.9010
 22
0.8180
 13
0.9930
 23
0.8180
 0
SOLID
  8
SPT
 10
0.9050
 20
0.7920
 11
0.9890
 21
0.7920
 12
0.9050
 22
0.8140
 13
0.9890
 23
0.8140
 0
SOLID
  8
SMT
 10
0.9010
 20
0.7380
 11
0.9930
 21
0.7380
 12
0.9010
 22
0.7680
 13
0.9930
 23
0.7680
 0
SOLID
  8
SPT
 10
0.9050
 20
0.7420
 11
0.9890
 21
0.7420
 12
0.9050
 22
0.7640
 13
0.9890
 23
0.7640
 0
SOLID
  8
SMT
 10
1.0880
 20
0.7380
 11
1.1800
 21
0.7380
 12
1.0880
 22
0.7680
 13
1.1800
 23
0.7680
 0
SOLID
  8
SPT
 10
1.0920
 20
0.7420
 11
1.1760
 21
0.7420
 12
1.0920
 22
0.7640
 13
1.1760
 23
0.7640
 0
SOLID
  8
SMT
 10
1.0880
 20
0.7880
 11
1.1800
 21
0.7880
 12
1.0880
 22
0.8180
 13
1.1800
 23
0.8180
 0
SOLID
  8
SPT
 10
1.0920
 20
0.7920
 11
1.1760
 21
0.7920
 12
1.0920
 22
0.8140
 13
1.1760
 23
0.8140
 0
SOLID
  8
SMT
 10
1.0880
 20
0.8380
 11
1.1800
 21
0.8380
 12
1.0880
 22
0.8680
 13
1.1800
 23
0.8680
 0
SOLID
  8
SPT
 10
1.0920
 20
0.8420
 11
1.1760
 21
0.8420
 12
1.0920
 22
0.8640
 13
1.1760
 23
0.8640
 0
SOLID
  8
SMT
 10
1.0880
 20
0.8880
 11
1.1800
 21
0.8880
 12
1.0880
 22
0.9180
 13
1.1800
 23
0.9180
 0
SOLID
  8
SPT
 10
1.0920
 20
0.8920
 11
1.1760
 21
0.8920
 12
1.0920
 22
0.9140
 13
1.1760
 23
0.9140
 0
SOLID
  8
SMT
 10
1.0880
 20
0.9380
 11
1.1800
 21
0.9380
 12
1.0880
 22
0.9680
 13
1.1800
 23
0.9680
 0
SOLID
  8
SPT
 10
1.0920
 20
0.9420
 11
1.1760
 21
0.9420
 12
1.0920
 22
0.9640
 13
1.1760
 23
0.9640
 0
SOLID
  8
SMT
 10
1.0880
 20
0.9880
 11
1.1800
 21
0.9880
 12
1.0880
 22
1.0180
 13
1.1800
 23
1.0180
 0
SOLID
  8
SPT
 10
1.0920
 20
0.9920
 11
1.1760
 21
0.9920
 12
1.0920
 22
1.0140
 13
1.1760
 23
1.0140
 0
SOLID
  8
SMT
 10
1.0880
 20
1.0380
 11
1.1800
 21
1.0380
 12
1.0880
 22
1.0680
 13
1.1800
 23
1.0680
 0
SOLID
  8
SPT
 10
1.0920
 20
1.0420
 11
1.1760
 21
1.0420
 12
1.0920
 22
1.0640
 13
1.1760
 23
1.0640
 0
SOLID
  8
SMT
 10
1.0880
 20
1.0880
 11
1.1800
 21
1.0880
 12
1.0880
 22
1.1180
 13
1.1800
 23
1.1180
 0
SOLID
  8
SPT
 10
1.0920
 20
1.0920
 11
1.1760
 21
1.0920
 12
1.0920
 22
1.1140
 13
1.1760
 23
1.1140
 0
SOLID
  8
SMT
 10
1.0880
 20
1.1380
 11
1.1800
 21
1.1380
 12
1.0880
 22
1.1680
 13
1.1800
 23
1.1680
 0
SOLID
  8
SPT
 10
1.0920
 20
1.1420
 11
1.1760
 21
1.1420
 12
1.0920
 22
1.1640
 13
1.1760
 23
1.1640
 0
SOLID
  8
SMT
 10
1.3730
 20
1.1380
 11
1.4650
 21
1.1380
 12
1.3730
 22
1.1680
 13
1.4650
 23
1.1680
 0
SOLID
  8
SPT
 10
1.3770
 20
1.1420
 11
1.4610
 21
1.1420
 12
1.3770
 22
1.1640
 13
1.4610
 23
1.1640
 0
SOLID
  8
SMT
 10
1.3730
 20
1.0880
 11
1.4650
 21
1.0880
 12
1.3730
 22
1.1180
 13
1.4650
 23
1.1180
 0
SOLID
  8
SPT
 10
1.3770
 20
1.0920
 11
1.4610
 21
1.0920
 12
1.3770
 22
1.1140
 13
1.4610
 23
1.1140
 0
SOLID
  8
SMT
 10
1.3730
 20
1.0380
 11
1.4650
 21
1.0380
 12
1.3730
 22
1.0680
 13
1.4650
 23
1.0680
 0
SOLID
  8
SPT
 10
1.3770
 20
1.0420
 11
1.4610
 21
1.0420
 12
1.3770
 22
1.0640
 13
1.4610
 23
1.0640
 0
SOLID
  8
SMT
 10
1.3730
 20
0.9880
 11
1.4650
 21
0.9880
 12
1.3730
 22
1.0180
 13
1.4650
 23
1.0180
 0
SOLID
  8
SPT
 10
1.3770
 20
0.9920
 11
1.4610
 21
0.9920
 12
1.3770
 22
1.0140
 13
1.4610
 23
1.0140
 0
SOLID
  8
SMT
 10
1.3730
 20
0.9380
 11
1.4650
 21
0.9380
 12
1.3730
 22
0.9680
 13
1.4650
 23
0.9680
 0
SOLID
  8
SPT
 10
1.3770
 20
0.9420
 11
1.4610
 21
0.9420
 12
1.3770
 22
0.9640
 13
1.4610
 23
0.9640
 0
SOLID
  8
SMT
 10
1.3730
 20
0.8880
 11
1.4650
 21
0.8880
 12
1.3730
 22
0.9180
 13
1.4650
 23
0.9180
 0
SOLID
  8
SPT
 10
1.3770
 20
0.8920
 11
1.4610
 21
0.8920
 12
1.3770
 22
0.9140
 13
1.4610
 23
0.9140
 0
SOLID
  8
SMT
 10
1.3730
 20
0.8380
 11
1.4650
 21
0.8380
 12
1.3730
 22
0.8680
 13
1.4650
 23
0.8680
 0
SOLID
  8
SPT
 10
1.3770
 20
0.8420
 11
1.4610
 21
0.8420
 12
1.3770
 22
0.8640
 13
1.4610
 23
0.8640
 0
SOLID
  8
SMT
 10
1.3730
 20
0.7880
 11
1.4650
 21
0.7880
 12
1.3730
 22
0.8180
 13
1.4650
 23
0.8180
 0
SOLID
  8
SPT
 10
1.3770
 20
0.7920
 11
1.4610
 21
0.7920
 12
1.3770
 22
0.8140
 13
1.4610
 23
0.8140
 0
SOLID
  8
SMT
 10
1.3730
 20
0.7380
 11
1.4650
 21
0.7380
 12
1.3730
 22
0.7680
 13
1.4650
 23
0.7680
 0
SOLID
  8
SPT
 10
1.3770
 20
0.7420
 11
1.4610
 21
0.7420
 12
1.3770
 22
0.7640
 13
1.4610
 23
0.7640
 0
SOLID
  8
SMT
 10
0.4130
 20
1.1860
 11
0.4630
 21
1.1860
 12
0.4130
 22
1.2720
 13
0.4630
 23
1.2720
 0
SOLID
  8
SPT
 10
0.4160
 20
1.1890
 11
0.4600
 21
1.1890
 12
0.4160
 22
1.2690
 13
0.4600
 23
1.2690
 0
SOLID
  8
SMT
 10
0.3000
 20
1.1860
 11
0.3500
 21
1.1860
 12
0.3000
 22
1.2720
 13
0.3500
 23
1.2720
 0
SOLID
  8
SPT
 10
0.3030
 20
1.1890
 11
0.3470
 21
1.1890
 12
0.3030
 22
1.2690
 13
0.3470
 23
1.2690
 0
SOLID
  8
SMT
 10
1.3290
 20
1.2090
 11
1.3790
 21
1.2090
 12
1.3290
 22
1.2950
 13
1.3790
 23
1.2950
 0
SOLID
  8
SPT
 10
1.3320
 20
1.2120
 11
1.3760
 21
1.2120
 12
1.3320
 22
1.2920
 13
1.3760
 23
1.2920
 0
SOLID
  8
SMT
 10
1.2170
 20
1.2090
 11
1.2670
 21
1.2090
 12
1.2170
 22
1.2950
 13
1.2670
 23
1.2950
 0
SOLID
  8
SPT
 10
1.2200
 20
1.2120
 11
1.2640
 21
1.2120
 12
1.2200
 22
1.2920
 13
1.2640
 23
1.2920
  0
POLYLINE
  8
SMT
 66
      1
 70
1
 40
0.0340
 41
0.0340
  0
VERTEX
  8
SMT
 10
0.9950
 20
0.6540
 30
 0.0
 42
1.0
  0
VERTEX
  8
SMT
 10
1.0290
 20
0.6540
 30
 0.0
 42
1.0
  0
SEQEND
  8
SMT
  0
POLYLINE
  8
SMB
 66
      1
 70
1
 40
0.0340
 41
0.0340
  0
VERTEX
  8
SMB
 10
0.9950
 20
0.6540
 30
 0.0
 42
1.0
  0
VERTEX
  8
SMB
 10
1.0290
 20
0.6540
 30
 0.0
 42
1.0
  0
SEQEND
  8
SMB
  0
POLYLINE
  8
DRL
 66
      1
 70
1
 40
0.0210
 41
0.0210
  0
VERTEX
  8
DRL
 10
1.0020
 20
0.6540
 30
 0.0
 42
1.0
  0
VERTEX
  8
DRL
 10
1.0220
 20
0.6540
 30
 0.0
 42
1.0
  0
SEQEND
  8
DRL
 0
SOLID
  8
SMT
 10
1.0780
 20
0.6200
 11
1.1460
 21
0.6200
 12
1.0780
 22
0.6880
 13
1.1460
 23
0.6880
 0
SOLID
  8
SMB
 10
1.0780
 20
0.6200
 11
1.1460
 21
0.6200
 12
1.0780
 22
0.6880
 13
1.1460
 23
0.6880
  0
POLYLINE
  8
DRL
 66
      1
 70
1
 40
0.0210
 41
0.0210
  0
VERTEX
  8
DRL
 10
1.1020
 20
0.6540
 30
 0.0
 42
1.0
  0
VERTEX
  8
DRL
 10
1.1220
 20
0.6540
 30
 0.0
 42
1.0
  0
SEQEND
  8
DRL
  0
POLYLINE
  8
SMT
 66
      1
 70
1
 40
0.0340
 41
0.0340
  0
VERTEX
  8
SMT
 10
2.0490
 20
1.2410
 30
 0.0
 42
1.0
  0
VERTEX
  8
SMT
 10
2.0830
 20
1.2410
 30
 0.0
 42
1.0
  0
SEQEND
  8
SMT
  0
POLYLINE
  8
SMB
 66
      1
 70
1
 40
0.0340
 41
0.0340
  0
VERTEX
  8
SMB
 10
2.0490
 20
1.2410
 30
 0.0
 42
1.0
  0
VERTEX
  8
SMB
 10
2.0830
 20
1.2410
 30
 0.0
 42
1.0
  0
SEQEND
  8
SMB
  0
POLYLINE
  8
DRL
 66
      1
 70
1
 40
0.0210
 41
0.0210
  0
VERTEX
  8
DRL
 10
2.0560
 20
1.2410
 30
 0.0
 42
1.0
  0
VERTEX
  8
DRL
 10
2.0760
 20
1.2410
 30
 0.0
 42
1.0
  0
SEQEND
  8
DRL
 0
SOLID
  8
SMT
 10
2.1320
 20
1.2070
 11
2.2000
 21
1.2070
 12
2.1320
 22
1.2750
 13
2.2000
 23
1.2750
 0
SOLID
  8
SMB
 10
2.1320
 20
1.2070
 11
2.2000
 21
1.2070
 12
2.1320
 22
1.2750
 13
2.2000
 23
1.2750
  0
POLYLINE
  8
DRL
 66
      1
 70
1
 40
0.0210
 41
0.0210
  0
VERTEX
  8
DRL
 10
2.1560
 20
1.2410
 30
 0.0
 42
1.0
  0
VERTEX
  8
DRL
 10
2.1760
 20
1.2410
 30
 0.0
 42
1.0
  0
SEQEND
  8
DRL
  0
POLYLINE
  8
IN1
 66
      1
 70
1
 40
0.0490
 41
0.0490
  0
VERTEX
  8
IN1
 10
0.0840
 20
0.5560
 30
 0.0
 42
1.0
  0
VERTEX
  8
IN1
 10
0.1320
 20
0.5560
 30
 0.0
 42
1.0
  0
SEQEND
  8
IN1
  0
POLYLINE
  8
SMT
 66
      1
 70
1
 40
0.0560
 41
0.0560
  0
VERTEX
  8
SMT
 10
0.0800
 20
0.5560
 30
 0.0
 42
1.0
  0
VERTEX
  8
SMT
 10
0.1360
 20
0.5560
 30
 0.0
 42
1.0
  0
SEQEND
  8
SMT
  0
POLYLINE
  8
SMB
 66
      1
 70
1
 40
0.0560
 41
0.0560
  0
VERTEX
  8
SMB
 10
0.0800
 20
0.5560
 30
 0.0
 42
1.0
  0
VERTEX
  8
SMB
 10
0.1360
 20
0.5560
 30
 0.0
 42
1.0
  0
SEQEND
  8
SMB
  0
POLYLINE
  8
DRL
 66
      1
 70
1
 40
0.0380
 41
0.0380
  0
VERTEX
  8
DRL
 10
0.0890
 20
0.5560
 30
 0.0
 42
1.0
  0
VERTEX
  8
DRL
 10
0.1270
 20
0.5560
 30
 0.0
 42
1.0
  0
SEQEND
  8
DRL
  0
POLYLINE
  8
IN1
 66
      1
 70
1
 40
0.0490
 41
0.0490
  0
VERTEX
  8
IN1
 10
2.2890
 20
0.5560
 30
 0.0
 42
1.0
  0
VERTEX
  8
IN1
 10
2.3370
 20
0.5560
 30
 0.0
 42
1.0
  0
SEQEND
  8
IN1
  0
POLYLINE
  8
SMT
 66
      1
 70
1
 40
0.0560
 41
0.0560
  0
VERTEX
  8
SMT
 10
2.2850
 20
0.5560
 30
 0.0
 42
1.0
  0
VERTEX
  8
SMT
 10
2.3410
 20
0.5560
 30
 0.0
 42
1.0
  0
SEQEND
  8
SMT
  0
POLYLINE
  8
SMB
 66
      1
 70
1
 40
0.0560
 41
0.0560
  0
VERTEX
  8
SMB
 10
2.2850
 20
0.5560
 30
 0.0
 42
1.0
  0
VERTEX
  8
SMB
 10
2.3410
 20
0.5560
 30
 0.0
 42
1.0
  0
SEQEND
  8
SMB
  0
POLYLINE
  8
DRL
 66
      1
 70
1
 40
0.0380
 41
0.0380
  0
VERTEX
  8
DRL
 10
2.2940
 20
0.5560
 30
 0.0
 42
1.0
  0
VERTEX
  8
DRL
 10
2.3320
 20
0.5560
 30
 0.0
 42
1.0
  0
SEQEND
  8
DRL
  0
POLYLINE
  8
IN1
 66
      1
 70
1
 40
0.0490
 41
0.0490
  0
VERTEX
  8
IN1
 10
2.2890
 20
1.2880
 30
 0.0
 42
1.0
  0
VERTEX
  8
IN1
 10
2.3370
 20
1.2880
 30
 0.0
 42
1.0
  0
SEQEND
  8
IN1
  0
POLYLINE
  8
SMT
 66
      1
 70
1
 40
0.0560
 41
0.0560
  0
VERTEX
  8
SMT
 10
2.2850
 20
1.2880
 30
 0.0
 42
1.0
  0
VERTEX
  8
SMT
 10
2.3410
 20
1.2880
 30
 0.0
 42
1.0
  0
SEQEND
  8
SMT
  0
POLYLINE
  8
SMB
 66
      1
 70
1
 40
0.0560
 41
0.0560
  0
VERTEX
  8
SMB
 10
2.2850
 20
1.2880
 30
 0.0
 42
1.0
  0
VERTEX
  8
SMB
 10
2.3410
 20
1.2880
 30
 0.0
 42
1.0
  0
SEQEND
  8
SMB
  0
POLYLINE
  8
DRL
 66
      1
 70
1
 40
0.0380
 41
0.0380
  0
VERTEX
  8
DRL
 10
2.2940
 20
1.2880
 30
 0.0
 42
1.0
  0
VERTEX
  8
DRL
 10
2.3320
 20
1.2880
 30
 0.0
 42
1.0
  0
SEQEND
  8
DRL
  0
POLYLINE
  8
IN1
 66
      1
 70
1
 40
0.0490
 41
0.0490
  0
VERTEX
  8
IN1
 10
0.0840
 20
1.2880
 30
 0.0
 42
1.0
  0
VERTEX
  8
IN1
 10
0.1320
 20
1.2880
 30
 0.0
 42
1.0
  0
SEQEND
  8
IN1
  0
POLYLINE
  8
SMT
 66
      1
 70
1
 40
0.0560
 41
0.0560
  0
VERTEX
  8
SMT
 10
0.0800
 20
1.2880
 30
 0.0
 42
1.0
  0
VERTEX
  8
SMT
 10
0.1360
 20
1.2880
 30
 0.0
 42
1.0
  0
SEQEND
  8
SMT
  0
POLYLINE
  8
SMB
 66
      1
 70
1
 40
0.0560
 41
0.0560
  0
VERTEX
  8
SMB
 10
0.0800
 20
1.2880
 30
 0.0
 42
1.0
  0
VERTEX
  8
SMB
 10
0.1360
 20
1.2880
 30
 0.0
 42
1.0
  0
SEQEND
  8
SMB
  0
POLYLINE
  8
DRL
 66
      1
 70
1
 40
0.0380
 41
0.0380
  0
VERTEX
  8
DRL
 10
0.0890
 20
1.2880
 30
 0.0
 42
1.0
  0
VERTEX
  8
DRL
 10
0.1270
 20
1.2880
 30
 0.0
 42
1.0
  0
SEQEND
  8
DRL
 0
SOLID
  8
SMT
 10
0.2010
 20
1.1790
 11
0.2450
 21
1.1790
 12
0.2010
 22
1.2150
 13
0.2450
 23
1.2150
 0
SOLID
  8
SPT
 10
0.2050
 20
1.1820
 11
0.2410
 21
1.1820
 12
0.2050
 22
1.2120
 13
0.2410
 23
1.2120
 0
SOLID
  8
SMT
 10
0.2010
 20
1.2350
 11
0.2450
 21
1.2350
 12
0.2010
 22
1.2710
 13
0.2450
 23
1.2710
 0
SOLID
  8
SPT
 10
0.2050
 20
1.2380
 11
0.2410
 21
1.2380
 12
0.2050
 22
1.2680
 13
0.2410
 23
1.2680
 0
SOLID
  8
SMT
 10
0.8300
 20
0.6320
 11
0.8660
 21
0.6320
 12
0.8300
 22
0.6760
 13
0.8660
 23
0.6760
 0
SOLID
  8
SPT
 10
0.8330
 20
0.6360
 11
0.8630
 21
0.6360
 12
0.8330
 22
0.6720
 13
0.8630
 23
0.6720
 0
SOLID
  8
SMT
 10
0.8860
 20
0.6320
 11
0.9220
 21
0.6320
 12
0.8860
 22
0.6760
 13
0.9220
 23
0.6760
 0
SOLID
  8
SPT
 10
0.8890
 20
0.6360
 11
0.9190
 21
0.6360
 12
0.8890
 22
0.6720
 13
0.9190
 23
0.6720
 0
SOLID
  8
SMT
 10
1.0660
 20
1.2340
 11
1.1020
 21
1.2340
 12
1.0660
 22
1.2780
 13
1.1020
 23
1.2780
 0
SOLID
  8
SPT
 10
1.0690
 20
1.2380
 11
1.0990
 21
1.2380
 12
1.0690
 22
1.2740
 13
1.0990
 23
1.2740
 0
SOLID
  8
SMT
 10
1.1220
 20
1.2340
 11
1.1580
 21
1.2340
 12
1.1220
 22
1.2780
 13
1.1580
 23
1.2780
 0
SOLID
  8
SPT
 10
1.1250
 20
1.2380
 11
1.1550
 21
1.2380
 12
1.1250
 22
1.2740
 13
1.1550
 23
1.2740
 0
SOLID
  8
SMT
 10
1.3530
 20
0.6320
 11
1.3890
 21
0.6320
 12
1.3530
 22
0.6760
 13
1.3890
 23
0.6760
 0
SOLID
  8
SPT
 10
1.3560
 20
0.6360
 11
1.3860
 21
0.6360
 12
1.3560
 22
0.6720
 13
1.3860
 23
0.6720
 0
SOLID
  8
SMT
 10
1.4090
 20
0.6320
 11
1.4450
 21
0.6320
 12
1.4090
 22
0.6760
 13
1.4450
 23
0.6760
 0
SOLID
  8
SPT
 10
1.4120
 20
0.6360
 11
1.4420
 21
0.6360
 12
1.4120
 22
0.6720
 13
1.4420
 23
0.6720
 0
SOLID
  8
SMT
 10
1.9240
 20
1.1240
 11
1.9680
 21
1.1240
 12
1.9240
 22
1.1600
 13
1.9680
 23
1.1600
 0
SOLID
  8
SPT
 10
1.9280
 20
1.1270
 11
1.9640
 21
1.1270
 12
1.9280
 22
1.1570
 13
1.9640
 23
1.1570
 0
SOLID
  8
SMT
 10
1.9240
 20
1.1800
 11
1.9680
 21
1.1800
 12
1.9240
 22
1.2160
 13
1.9680
 23
1.2160
 0
SOLID
  8
SPT
 10
1.9280
 20
1.1830
 11
1.9640
 21
1.1830
 12
1.9280
 22
1.2130
 13
1.9640
 23
1.2130
 0
SOLID
  8
SMT
 10
1.8450
 20
1.1240
 11
1.8890
 21
1.1240
 12
1.8450
 22
1.1600
 13
1.8890
 23
1.1600
 0
SOLID
  8
SPT
 10
1.8490
 20
1.1270
 11
1.8850
 21
1.1270
 12
1.8490
 22
1.1570
 13
1.8850
 23
1.1570
 0
SOLID
  8
SMT
 10
1.8450
 20
1.1800
 11
1.8890
 21
1.1800
 12
1.8450
 22
1.2160
 13
1.8890
 23
1.2160
 0
SOLID
  8
SPT
 10
1.8490
 20
1.1830
 11
1.8850
 21
1.1830
 12
1.8490
 22
1.2130
 13
1.8850
 23
1.2130
  0
POLYLINE
  8
DRL
 66
      1
 70
1
 40
0.0190
 41
0.0190
  0
VERTEX
  8
DRL
 10
0.2690
 20
0.8270
 30
 0.0
 42
1.0
  0
VERTEX
  8
DRL
 10
0.2870
 20
0.8270
 30
 0.0
 42
1.0
  0
SEQEND
  8
DRL
  0
POLYLINE
  8
DRL
 66
      1
 70
1
 40
0.0190
 41
0.0190
  0
VERTEX
  8
DRL
 10
0.2690
 20
1.0010
 30
 0.0
 42
1.0
  0
VERTEX
  8
DRL
 10
0.2870
 20
1.0010
 30
 0.0
 42
1.0
  0
SEQEND
  8
DRL
 0
SOLID
  8
SMT
 10
0.3280
 20
0.6980
 11
0.4620
 21
0.6980
 12
0.3280
 22
0.7800
 13
0.4620
 23
0.7800
 0
SOLID
  8
SPT
 10
0.3280
 20
0.6980
 11
0.4620
 21
0.6980
 12
0.3280
 22
0.7800
 13
0.4620
 23
0.7800
 0
SOLID
  8
SST
 10
0.3280
 20
0.6980
 11
0.4620
 21
0.6980
 12
0.3280
 22
0.7800
 13
0.4620
 23
0.7800
 0
SOLID
  8
SMT
 10
0.3280
 20
1.0480
 11
0.4620
 21
1.0480
 12
0.3280
 22
1.1300
 13
0.4620
 23
1.1300
 0
SOLID
  8
SPT
 10
0.3280
 20
1.0480
 11
0.4620
 21
1.0480
 12
0.3280
 22
1.1300
 13
0.4620
 23
1.1300
 0
SOLID
  8
SST
 10
0.3280
 20
1.0480
 11
0.4620
 21
1.0480
 12
0.3280
 22
1.1300
 13
0.4620
 23
1.1300
 0
SOLID
  8
SMT
 10
0.1110
 20
0.6980
 11
0.2130
 21
0.6980
 12
0.1110
 22
0.7800
 13
0.2130
 23
0.7800
 0
SOLID
  8
SPT
 10
0.1110
 20
0.6980
 11
0.2130
 21
0.6980
 12
0.1110
 22
0.7800
 13
0.2130
 23
0.7800
 0
SOLID
  8
SMT
 10
0.1110
 20
1.0480
 11
0.2130
 21
1.0480
 12
0.1110
 22
1.1300
 13
0.2130
 23
1.1300
 0
SOLID
  8
SPT
 10
0.1110
 20
1.0480
 11
0.2130
 21
1.0480
 12
0.1110
 22
1.1300
 13
0.2130
 23
1.1300
 0
SOLID
  8
SMT
 10
0.3350
 20
0.8390
 11
0.4610
 21
0.8390
 12
0.3350
 22
0.8630
 13
0.4610
 23
0.8630
 0
SOLID
  8
SPT
 10
0.3350
 20
0.8390
 11
0.4610
 21
0.8390
 12
0.3350
 22
0.8630
 13
0.4610
 23
0.8630
 0
SOLID
  8
SMT
 10
0.3350
 20
0.8710
 11
0.4610
 21
0.8710
 12
0.3350
 22
0.8950
 13
0.4610
 23
0.8950
 0
SOLID
  8
SPT
 10
0.3350
 20
0.8710
 11
0.4610
 21
0.8710
 12
0.3350
 22
0.8950
 13
0.4610
 23
0.8950
 0
SOLID
  8
SMT
 10
0.3350
 20
0.9020
 11
0.4610
 21
0.9020
 12
0.3350
 22
0.9260
 13
0.4610
 23
0.9260
 0
SOLID
  8
SPT
 10
0.3350
 20
0.9020
 11
0.4610
 21
0.9020
 12
0.3350
 22
0.9260
 13
0.4610
 23
0.9260
 0
SOLID
  8
SMT
 10
0.3350
 20
0.9340
 11
0.4610
 21
0.9340
 12
0.3350
 22
0.9580
 13
0.4610
 23
0.9580
 0
SOLID
  8
SPT
 10
0.3350
 20
0.9340
 11
0.4610
 21
0.9340
 12
0.3350
 22
0.9580
 13
0.4610
 23
0.9580
 0
SOLID
  8
SMT
 10
0.3350
 20
0.9650
 11
0.4610
 21
0.9650
 12
0.3350
 22
0.9890
 13
0.4610
 23
0.9890
 0
SOLID
  8
SPT
 10
0.3350
 20
0.9650
 11
0.4610
 21
0.9650
 12
0.3350
 22
0.9890
 13
0.4610
 23
0.9890
  0
POLYLINE
  8
IN1
 66
      1
 70
1
 40
0.0330
 41
0.0330
  0
VERTEX
  8
IN1
 10
2.2170
 20
0.7750
 30
 0.0
 42
1.0
  0
VERTEX
  8
IN1
 10
2.2490
 20
0.7750
 30
 0.0
 42
1.0
  0
SEQEND
  8
IN1
  0
POLYLINE
  8
SMT
 66
      1
 70
1
 40
0.0360
 41
0.0360
  0
VERTEX
  8
SMT
 10
2.2150
 20
0.7750
 30
 0.0
 42
1.0
  0
VERTEX
  8
SMT
 10
2.2510
 20
0.7750
 30
 0.0
 42
1.0
  0
SEQEND
  8
SMT
  0
POLYLINE
  8
SMB
 66
      1
 70
1
 40
0.0360
 41
0.0360
  0
VERTEX
  8
SMB
 10
2.2150
 20
0.7750
 30
 0.0
 42
1.0
  0
VERTEX
  8
SMB
 10
2.2510
 20
0.7750
 30
 0.0
 42
1.0
  0
SEQEND
  8
SMB
  0
POLYLINE
  8
DRL
 66
      1
 70
1
 40
0.0230
 41
0.0230
  0
VERTEX
  8
DRL
 10
2.2220
 20
0.7750
 30
 0.0
 42
1.0
  0
VERTEX
  8
DRL
 10
2.2440
 20
0.7750
 30
 0.0
 42
1.0
  0
SEQEND
  8
DRL
  0
POLYLINE
  8
IN1
 66
      1
 70
1
 40
0.0330
 41
0.0330
  0
VERTEX
  8
IN1
 10
2.2170
 20
0.9250
 30
 0.0
 42
1.0
  0
VERTEX
  8
IN1
 10
2.2490
 20
0.9250
 30
 0.0
 42
1.0
  0
SEQEND
  8
IN1
  0
POLYLINE
  8
SMT
 66
      1
 70
1
 40
0.0360
 41
0.0360
  0
VERTEX
  8
SMT
 10
2.2150
 20
0.9250
 30
 0.0
 42
1.0
  0
VERTEX
  8
SMT
 10
2.2510
 20
0.9250
 30
 0.0
 42
1.0
  0
SEQEND
  8
SMT
  0
POLYLINE
  8
SMB
 66
      1
 70
1
 40
0.0360
 41
0.0360
  0
VERTEX
  8
SMB
 10
2.2150
 20
0.9250
 30
 0.0
 42
1.0
  0
VERTEX
  8
SMB
 10
2.2510
 20
0.9250
 30
 0.0
 42
1.0
  0
SEQEND
  8
SMB
  0
POLYLINE
  8
DRL
 66
      1
 70
1
 40
0.0230
 41
0.0230
  0
VERTEX
  8
DRL
 10
2.2220
 20
0.9250
 30
 0.0
 42
1.0
  0
VERTEX
  8
DRL
 10
2.2440
 20
0.9250
 30
 0.0
 42
1.0
  0
SEQEND
  8
DRL
  0
POLYLINE
  8
IN1
 66
      1
 70
1
 40
0.0330
 41
0.0330
  0
VERTEX
  8
IN1
 10
2.2170
 20
1.0750
 30
 0.0
 42
1.0
  0
VERTEX
  8
IN1
 10
2.2490
 20
1.0750
 30
 0.0
 42
1.0
  0
SEQEND
  8
IN1
  0
POLYLINE
  8
SMT
 66
      1
 70
1
 40
0.0360
 41
0.0360
  0
VERTEX
  8
SMT
 10
2.2150
 20
1.0750
 30
 0.0
 42
1.0
  0
VERTEX
  8
SMT
 10
2.2510
 20
1.0750
 30
 0.0
 42
1.0
  0
SEQEND
  8
SMT
  0
POLYLINE
  8
SMB
 66
      1
 70
1
 40
0.0360
 41
0.0360
  0
VERTEX
  8
SMB
 10
2.2150
 20
1.0750
 30
 0.0
 42
1.0
  0
VERTEX
  8
SMB
 10
2.2510
 20
1.0750
 30
 0.0
 42
1.0
  0
SEQEND
  8
SMB
  0
POLYLINE
  8
DRL
 66
      1
 70
1
 40
0.0230
 41
0.0230
  0
VERTEX
  8
DRL
 10
2.2220
 20
1.0750
 30
 0.0
 42
1.0
  0
VERTEX
  8
DRL
 10
2.2440
 20
1.0750
 30
 0.0
 42
1.0
  0
SEQEND
  8
DRL
  0
POLYLINE
  8
IN1
 66
      1
 70
1
 40
0.0240
 41
0.0240
  0
VERTEX
  8
IN1
 10
1.6740
 20
0.9610
 30
 0.0
 42
1.0
  0
VERTEX
  8
IN1
 10
1.6980
 20
0.9610
 30
 0.0
 42
1.0
  0
SEQEND
  8
IN1
  0
POLYLINE
  8
SMT
 66
      1
 70
1
 40
0.0260
 41
0.0260
  0
VERTEX
  8
SMT
 10
1.6730
 20
0.9610
 30
 0.0
 42
1.0
  0
VERTEX
  8
SMT
 10
1.6990
 20
0.9610
 30
 0.0
 42
1.0
  0
SEQEND
  8
SMT
  0
POLYLINE
  8
SMB
 66
      1
 70
1
 40
0.0260
 41
0.0260
  0
VERTEX
  8
SMB
 10
1.6730
 20
0.9610
 30
 0.0
 42
1.0
  0
VERTEX
  8
SMB
 10
1.6990
 20
0.9610
 30
 0.0
 42
1.0
  0
SEQEND
  8
SMB
  0
POLYLINE
  8
DRL
 66
      1
 70
1
 40
0.0160
 41
0.0160
  0
VERTEX
  8
DRL
 10
1.6780
 20
0.9610
 30
 0.0
 42
1.0
  0
VERTEX
  8
DRL
 10
1.6940
 20
0.9610
 30
 0.0
 42
1.0
  0
SEQEND
  8
DRL
  0
POLYLINE
  8
IN1
 66
      1
 70
1
 40
0.0240
 41
0.0240
  0
VERTEX
  8
IN1
 10
1.6740
 20
1.1510
 30
 0.0
 42
1.0
  0
VERTEX
  8
IN1
 10
1.6980
 20
1.1510
 30
 0.0
 42
1.0
  0
SEQEND
  8
IN1
  0
POLYLINE
  8
SMT
 66
      1
 70
1
 40
0.0260
 41
0.0260
  0
VERTEX
  8
SMT
 10
1.6730
 20
1.1510
 30
 0.0
 42
1.0
  0
VERTEX
  8
SMT
 10
1.6990
 20
1.1510
 30
 0.0
 42
1.0
  0
SEQEND
  8
SMT
  0
POLYLINE
  8
SMB
 66
      1
 70
1
 40
0.0260
 41
0.0260
  0
VERTEX
  8
SMB
 10
1.6730
 20
1.1510
 30
 0.0
 42
1.0
  0
VERTEX
  8
SMB
 10
1.6990
 20
1.1510
 30
 0.0
 42
1.0
  0
SEQEND
  8
SMB
  0
POLYLINE
  8
DRL
 66
      1
 70
1
 40
0.0160
 41
0.0160
  0
VERTEX
  8
DRL
 10
1.6780
 20
1.1510
 30
 0.0
 42
1.0
  0
VERTEX
  8
DRL
 10
1.6940
 20
1.1510
 30
 0.0
 42
1.0
  0
SEQEND
  8
DRL
  0
POLYLINE
  8
DRL
 66
      1
 70
1
 40
0.0070
 41
0.0070
  0
VERTEX
  8
DRL
 10
0.5470
 20
1.2090
 30
 0.0
 42
1.0
  0
VERTEX
  8
DRL
 10
0.5530
 20
1.2090
 30
 0.0
 42
1.0
  0
SEQEND
  8
DRL
  0
POLYLINE
  8
DRL
 66
      1
 70
1
 40
0.0070
 41
0.0070
  0
VERTEX
  8
DRL
 10
0.4880
 20
1.2290
 30
 0.0
 42
1.0
  0
VERTEX
  8
DRL
 10
0.4940
 20
1.2290
 30
 0.0
 42
1.0
  0
SEQEND
  8
DRL
  0
POLYLINE
  8
DRL
 66
      1
 70
1
 40
0.0070
 41
0.0070
  0
VERTEX
  8
DRL
 10
0.1610
 20
0.9380
 30
 0.0
 42
1.0
  0
VERTEX
  8
DRL
 10
0.1670
 20
0.9380
 30
 0.0
 42
1.0
  0
SEQEND
  8
DRL
  0
POLYLINE
  8
DRL
 66
      1
 70
1
 40
0.0070
 41
0.0070
  0
VERTEX
  8
DRL
 10
0.7310
 20
0.7530
 30
 0.0
 42
1.0
  0
VERTEX
  8
DRL
 10
0.7370
 20
0.7530
 30
 0.0
 42
1.0
  0
SEQEND
  8
DRL
  0
POLYLINE
  8
DRL
 66
      1
 70
1
 40
0.0070
 41
0.0070
  0
VERTEX
  8
DRL
 10
0.2830
 20
0.8750
 30
 0.0
 42
1.0
  0
VERTEX
  8
DRL
 10
0.2890
 20
0.8750
 30
 0.0
 42
1.0
  0
SEQEND
  8
DRL
  0
POLYLINE
  8
DRL
 66
      1
 70
1
 40
0.0070
 41
0.0070
  0
VERTEX
  8
DRL
 10
0.5350
 20
1.0670
 30
 0.0
 42
1.0
  0
VERTEX
  8
DRL
 10
0.5410
 20
1.0670
 30
 0.0
 42
1.0
  0
SEQEND
  8
DRL
  0
POLYLINE
  8
DRL
 66
      1
 70
1
 40
0.0070
 41
0.0070
  0
VERTEX
  8
DRL
 10
0.5350
 20
0.9380
 30
 0.0
 42
1.0
  0
VERTEX
  8
DRL
 10
0.5410
 20
0.9380
 30
 0.0
 42
1.0
  0
SEQEND
  8
DRL
  0
POLYLINE
  8
DRL
 66
      1
 70
1
 40
0.0070
 41
0.0070
  0
VERTEX
  8
DRL
 10
0.7870
 20
0.6540
 30
 0.0
 42
1.0
  0
VERTEX
  8
DRL
 10
0.7930
 20
0.6540
 30
 0.0
 42
1.0
  0
SEQEND
  8
DRL
  0
POLYLINE
  8
DRL
 66
      1
 70
1
 40
0.0070
 41
0.0070
  0
VERTEX
  8
DRL
 10
1.3180
 20
0.6540
 30
 0.0
 42
1.0
  0
VERTEX
  8
DRL
 10
1.3240
 20
0.6540
 30
 0.0
 42
1.0
  0
SEQEND
  8
DRL
  0
POLYLINE
  8
DRL
 66
      1
 70
1
 40
0.0070
 41
0.0070
  0
VERTEX
  8
DRL
 10
1.1640
 20
0.6540
 30
 0.0
 42
1.0
  0
VERTEX
  8
DRL
 10
1.1700
 20
0.6540
 30
 0.0
 42
1.0
  0
SEQEND
  8
DRL
  0
POLYLINE
  8
DRL
 66
      1
 70
1
 40
0.0070
 41
0.0070
  0
VERTEX
  8
DRL
 10
1.2100
 20
1.0530
 30
 0.0
 42
1.0
  0
VERTEX
  8
DRL
 10
1.2160
 20
1.0530
 30
 0.0
 42
1.0
  0
SEQEND
  8
DRL
  0
POLYLINE
  8
DRL
 66
      1
 70
1
 40
0.0070
 41
0.0070
  0
VERTEX
  8
DRL
 10
0.8340
 20
1.0520
 30
 0.0
 42
1.0
  0
VERTEX
  8
DRL
 10
0.8400
 20
1.0520
 30
 0.0
 42
1.0
  0
SEQEND
  8
DRL
  0
POLYLINE
  8
DRL
 66
      1
 70
1
 40
0.0070
 41
0.0070
  0
VERTEX
  8
DRL
 10
0.7710
 20
1.1030
 30
 0.0
 42
1.0
  0
VERTEX
  8
DRL
 10
0.7770
 20
1.1030
 30
 0.0
 42
1.0
  0
SEQEND
  8
DRL
  0
POLYLINE
  8
DRL
 66
      1
 70
1
 40
0.0070
 41
0.0070
  0
VERTEX
  8
DRL
 10
1.2150
 20
0.9020
 30
 0.0
 42
1.0
  0
VERTEX
  8
DRL
 10
1.2210
 20
0.9020
 30
 0.0
 42
1.0
  0
SEQEND
  8
DRL
  0
POLYLINE
  8
DRL
 66
      1
 70
1
 40
0.0070
 41
0.0070
  0
VERTEX
  8
DRL
 10
1.2110
 20
1.1030
 30
 0.0
 42
1.0
  0
VERTEX
  8
DRL
 10
1.2170
 20
1.1030
 30
 0.0
 42
1.0
  0
SEQEND
  8
DRL
  0
POLYLINE
  8
DRL
 66
      1
 70
1
 40
0.0070
 41
0.0070
  0
VERTEX
  8
DRL
 10
0.8530
 20
1.1030
 30
 0.0
 42
1.0
  0
VERTEX
  8
DRL
 10
0.8590
 20
1.1030
 30
 0.0
 42
1.0
  0
SEQEND
  8
DRL
  0
POLYLINE
  8
DRL
 66
      1
 70
1
 40
0.0070
 41
0.0070
  0
VERTEX
  8
DRL
 10
1.2090
 20
1.0030
 30
 0.0
 42
1.0
  0
VERTEX
  8
DRL
 10
1.2150
 20
1.0030
 30
 0.0
 42
1.0
  0
SEQEND
  8
DRL
  0
POLYLINE
  8
DRL
 66
      1
 70
1
 40
0.0070
 41
0.0070
  0
VERTEX
  8
DRL
 10
0.7980
 20
1.1970
 30
 0.0
 42
1.0
  0
VERTEX
  8
DRL
 10
0.8040
 20
1.1970
 30
 0.0
 42
1.0
  0
SEQEND
  8
DRL
  0
POLYLINE
  8
DRL
 66
      1
 70
1
 40
0.0070
 41
0.0070
  0
VERTEX
  8
DRL
 10
0.8550
 20
0.8030
 30
 0.0
 42
1.0
  0
VERTEX
  8
DRL
 10
0.8610
 20
0.8030
 30
 0.0
 42
1.0
  0
SEQEND
  8
DRL
  0
POLYLINE
  8
DRL
 66
      1
 70
1
 40
0.0070
 41
0.0070
  0
VERTEX
  8
DRL
 10
1.2940
 20
0.8510
 30
 0.0
 42
1.0
  0
VERTEX
  8
DRL
 10
1.3000
 20
0.8510
 30
 0.0
 42
1.0
  0
SEQEND
  8
DRL
  0
POLYLINE
  8
DRL
 66
      1
 70
1
 40
0.0070
 41
0.0070
  0
VERTEX
  8
DRL
 10
1.9150
 20
0.7760
 30
 0.0
 42
1.0
  0
VERTEX
  8
DRL
 10
1.9210
 20
0.7760
 30
 0.0
 42
1.0
  0
SEQEND
  8
DRL
  0
POLYLINE
  8
DRL
 66
      1
 70
1
 40
0.0070
 41
0.0070
  0
VERTEX
  8
DRL
 10
1.3490
 20
1.1820
 30
 0.0
 42
1.0
  0
VERTEX
  8
DRL
 10
1.3550
 20
1.1820
 30
 0.0
 42
1.0
  0
SEQEND
  8
DRL
  0
POLYLINE
  8
DRL
 66
      1
 70
1
 40
0.0070
 41
0.0070
  0
VERTEX
  8
DRL
 10
1.8140
 20
1.1980
 30
 0.0
 42
1.0
  0
VERTEX
  8
DRL
 10
1.8200
 20
1.1980
 30
 0.0
 42
1.0
  0
SEQEND
  8
DRL
  0
POLYLINE
  8
DRL
 66
      1
 70
1
 40
0.0070
 41
0.0070
  0
VERTEX
  8
DRL
 10
0.5270
 20
0.8000
 30
 0.0
 42
1.0
  0
VERTEX
  8
DRL
 10
0.5330
 20
0.8000
 30
 0.0
 42
1.0
  0
SEQEND
  8
DRL
  0
POLYLINE
  8
SST
 66
      1
 70
0
 40
0.0080
 41
0.0080
  0
VERTEX
  8
SST
 10
1.3510
 20
0.7530
 30
 0.0
  0
VERTEX
  8
SST
 10
1.2010
 20
0.7530
 30
 0.0
  0
SEQEND
  8
SST
  0
POLYLINE
  8
SST
 66
      1
 70
1
 40
0.0040
 41
0.0040
  0
VERTEX
  8
SST
 10
1.3490
 20
0.7530
 30
 0.0
 42
1.0
  0
VERTEX
  8
SST
 10
1.3530
 20
0.7530
 30
 0.0
 42
1.0
  0
SEQEND
  8
SST
  0
POLYLINE
  8
SST
 66
      1
 70
1
 40
0.0040
 41
0.0040
  0
VERTEX
  8
SST
 10
1.1990
 20
0.7530
 30
 0.0
 42
1.0
  0
VERTEX
  8
SST
 10
1.2030
 20
0.7530
 30
 0.0
 42
1.0
  0
SEQEND
  8
SST
  0
POLYLINE
  8
SST
 66
      1
 70
1
 40
0.0080
 41
0.0080
  0
VERTEX
  8
SST
 10
1.2010
 20
0.7280
 30
 0.0
  0
VERTEX
  8
SST
 10
1.3510
 20
0.7280
 30
 0.0
  0
VERTEX
  8
SST
 10
1.3510
 20
0.7280
 30
 0.0
  0
VERTEX
  8
SST
 10
1.3510
 20
1.1780
 30
 0.0
  0
VERTEX
  8
SST
 10
1.2010
 20
1.1780
 30
 0.0
  0
VERTEX
  8
SST
 10
1.2010
 20
0.7280
 30
 0.0
  0
SEQEND
  8
SST
  0
POLYLINE
  8
SST
 66
      1
 70
1
 40
0.0040
 41
0.0040
  0
VERTEX
  8
SST
 10
1.1990
 20
0.7280
 30
 0.0
 42
1.0
  0
VERTEX
  8
SST
 10
1.2030
 20
0.7280
 30
 0.0
 42
1.0
  0
SEQEND
  8
SST
  0
POLYLINE
  8
SST
 66
      1
 70
1
 40
0.0040
 41
0.0040
  0
VERTEX
  8
SST
 10
1.3490
 20
0.7280
 30
 0.0
 42
1.0
  0
VERTEX
  8
SST
 10
1.3530
 20
0.7280
 30
 0.0
 42
1.0
  0
SEQEND
  8
SST
  0
POLYLINE
  8
SST
 66
      1
 70
1
 40
0.0040
 41
0.0040
  0
VERTEX
  8
SST
 10
1.3490
 20
0.7280
 30
 0.0
 42
1.0
  0
VERTEX
  8
SST
 10
1.3530
 20
0.7280
 30
 0.0
 42
1.0
  0
SEQEND
  8
SST
  0
POLYLINE
  8
SST
 66
      1
 70
1
 40
0.0040
 41
0.0040
  0
VERTEX
  8
SST
 10
1.3490
 20
1.1780
 30
 0.0
 42
1.0
  0
VERTEX
  8
SST
 10
1.3530
 20
1.1780
 30
 0.0
 42
1.0
  0
SEQEND
  8
SST
  0
POLYLINE
  8
SST
 66
      1
 70
1
 40
0.0040
 41
0.0040
  0
VERTEX
  8
SST
 10
1.1990
 20
1.1780
 30
 0.0
 42
1.0
  0
VERTEX
  8
SST
 10
1.2030
 20
1.1780
 30
 0.0
 42
1.0
  0
SEQEND
  8
SST
  0
POLYLINE
  8
SST
 66
      1
 70
1
 40
0.0040
 41
0.0040
  0
VERTEX
  8
SST
 10
1.1990
 20
0.7280
 30
 0.0
 42
1.0
  0
VERTEX
  8
SST
 10
1.2030
 20
0.7280
 30
 0.0
 42
1.0
  0
SEQEND
  8
SST
  0
POLYLINE
  8
SST
 66
      1
 70
0
 40
0.0080
 41
0.0080
  0
VERTEX
  8
SST
 10
0.8790
 20
0.7530
 30
 0.0
  0
VERTEX
  8
SST
 10
0.7290
 20
0.7530
 30
 0.0
  0
SEQEND
  8
SST
  0
POLYLINE
  8
SST
 66
      1
 70
1
 40
0.0040
 41
0.0040
  0
VERTEX
  8
SST
 10
0.8770
 20
0.7530
 30
 0.0
 42
1.0
  0
VERTEX
  8
SST
 10
0.8810
 20
0.7530
 30
 0.0
 42
1.0
  0
SEQEND
  8
SST
  0
POLYLINE
  8
SST
 66
      1
 70
1
 40
0.0040
 41
0.0040
  0
VERTEX
  8
SST
 10
0.7270
 20
0.7530
 30
 0.0
 42
1.0
  0
VERTEX
  8
SST
 10
0.7310
 20
0.7530
 30
 0.0
 42
1.0
  0
SEQEND
  8
SST
  0
POLYLINE
  8
SST
 66
      1
 70
1
 40
0.0080
 41
0.0080
  0
VERTEX
  8
SST
 10
0.7290
 20
0.7280
 30
 0.0
  0
VERTEX
  8
SST
 10
0.8790
 20
0.7280
 30
 0.0
  0
VERTEX
  8
SST
 10
0.8790
 20
0.7280
 30
 0.0
  0
VERTEX
  8
SST
 10
0.8790
 20
1.2280
 30
 0.0
  0
VERTEX
  8
SST
 10
0.7290
 20
1.2280
 30
 0.0
  0
VERTEX
  8
SST
 10
0.7290
 20
0.7280
 30
 0.0
  0
SEQEND
  8
SST
  0
POLYLINE
  8
SST
 66
      1
 70
1
 40
0.0040
 41
0.0040
  0
VERTEX
  8
SST
 10
0.7270
 20
0.7280
 30
 0.0
 42
1.0
  0
VERTEX
  8
SST
 10
0.7310
 20
0.7280
 30
 0.0
 42
1.0
  0
SEQEND
  8
SST
  0
POLYLINE
  8
SST
 66
      1
 70
1
 40
0.0040
 41
0.0040
  0
VERTEX
  8
SST
 10
0.8770
 20
0.7280
 30
 0.0
 42
1.0
  0
VERTEX
  8
SST
 10
0.8810
 20
0.7280
 30
 0.0
 42
1.0
  0
SEQEND
  8
SST
  0
POLYLINE
  8
SST
 66
      1
 70
1
 40
0.0040
 41
0.0040
  0
VERTEX
  8
SST
 10
0.8770
 20
0.7280
 30
 0.0
 42
1.0
  0
VERTEX
  8
SST
 10
0.8810
 20
0.7280
 30
 0.0
 42
1.0
  0
SEQEND
  8
SST
  0
POLYLINE
  8
SST
 66
      1
 70
1
 40
0.0040
 41
0.0040
  0
VERTEX
  8
SST
 10
0.8770
 20
1.2280
 30
 0.0
 42
1.0
  0
VERTEX
  8
SST
 10
0.8810
 20
1.2280
 30
 0.0
 42
1.0
  0
SEQEND
  8
SST
  0
POLYLINE
  8
SST
 66
      1
 70
1
 40
0.0040
 41
0.0040
  0
VERTEX
  8
SST
 10
0.7270
 20
1.2280
 30
 0.0
 42
1.0
  0
VERTEX
  8
SST
 10
0.7310
 20
1.2280
 30
 0.0
 42
1.0
  0
SEQEND
  8
SST
  0
POLYLINE
  8
SST
 66
      1
 70
1
 40
0.0040
 41
0.0040
  0
VERTEX
  8
SST
 10
0.7270
 20
0.7280
 30
 0.0
 42
1.0
  0
VERTEX
  8
SST
 10
0.7310
 20
0.7280
 30
 0.0
 42
1.0
  0
SEQEND
  8
SST
  0
POLYLINE
  8
SST
 66
      1
 70
1
 40
0.0100
 41
0.0100
  0
VERTEX
  8
SST
 10
2.0950
 20
1.1500
 30
 0.0
  0
VERTEX
  8
SST
 10
2.3830
 20
1.1500
 30
 0.0
  0
VERTEX
  8
SST
 10
2.3830
 20
0.7010
 30
 0.0
  0
VERTEX
  8
SST
 10
2.0950
 20
0.7010
 30
 0.0
  0
VERTEX
  8
SST
 10
2.0950
 20
1.1500
 30
 0.0
  0
SEQEND
  8
SST
  0
POLYLINE
  8
SST
 66
      1
 70
1
 40
0.0050
 41
0.0050
  0
VERTEX
  8
SST
 10
2.0925
 20
1.1500
 30
 0.0
 42
1.0
  0
VERTEX
  8
SST
 10
2.0975
 20
1.1500
 30
 0.0
 42
1.0
  0
SEQEND
  8
SST
  0
POLYLINE
  8
SST
 66
      1
 70
1
 40
0.0050
 41
0.0050
  0
VERTEX
  8
SST
 10
2.3805
 20
1.1500
 30
 0.0
 42
1.0
  0
VERTEX
  8
SST
 10
2.3855
 20
1.1500
 30
 0.0
 42
1.0
  0
SEQEND
  8
SST
  0
POLYLINE
  8
SST
 66
      1
 70
1
 40
0.0050
 41
0.0050
  0
VERTEX
  8
SST
 10
2.3805
 20
0.7010
 30
 0.0
 42
1.0
  0
VERTEX
  8
SST
 10
2.3855
 20
0.7010
 30
 0.0
 42
1.0
  0
SEQEND
  8
SST
  0
POLYLINE
  8
SST
 66
      1
 70
1
 40
0.0050
 41
0.0050
  0
VERTEX
  8
SST
 10
2.0925
 20
0.7010
 30
 0.0
 42
1.0
  0
VERTEX
  8
SST
 10
2.0975
 20
0.7010
 30
 0.0
 42
1.0
  0
SEQEND
  8
SST
  0
POLYLINE
  8
SST
 66
      1
 70
1
 40
0.0050
 41
0.0050
  0
VERTEX
  8
SST
 10
2.0925
 20
1.1500
 30
 0.0
 42
1.0
  0
VERTEX
  8
SST
 10
2.0975
 20
1.1500
 30
 0.0
 42
1.0
  0
SEQEND
  8
SST
  0
POLYLINE
  8
SST
 66
      1
 70
0
 40
0.0100
 41
0.0100
  0
VERTEX
  8
SST
 10
2.3530
 20
1.1500
 30
 0.0
  0
VERTEX
  8
SST
 10
2.3530
 20
0.7010
 30
 0.0
  0
SEQEND
  8
SST
  0
POLYLINE
  8
SST
 66
      1
 70
1
 40
0.0050
 41
0.0050
  0
VERTEX
  8
SST
 10
2.3505
 20
1.1500
 30
 0.0
 42
1.0
  0
VERTEX
  8
SST
 10
2.3555
 20
1.1500
 30
 0.0
 42
1.0
  0
SEQEND
  8
SST
  0
POLYLINE
  8
SST
 66
      1
 70
1
 40
0.0050
 41
0.0050
  0
VERTEX
  8
SST
 10
2.3505
 20
0.7010
 30
 0.0
 42
1.0
  0
VERTEX
  8
SST
 10
2.3555
 20
0.7010
 30
 0.0
 42
1.0
  0
SEQEND
  8
SST
  0
POLYLINE
  8
SST
 66
      1
 70
0
 40
0.0100
 41
0.0100
  0
VERTEX
  8
SST
 10
2.1540
 20
1.1500
 30
 0.0
  0
VERTEX
  8
SST
 10
2.1540
 20
0.7010
 30
 0.0
  0
SEQEND
  8
SST
  0
POLYLINE
  8
SST
 66
      1
 70
1
 40
0.0050
 41
0.0050
  0
VERTEX
  8
SST
 10
2.1515
 20
1.1500
 30
 0.0
 42
1.0
  0
VERTEX
  8
SST
 10
2.1565
 20
1.1500
 30
 0.0
 42
1.0
  0
SEQEND
  8
SST
  0
POLYLINE
  8
SST
 66
      1
 70
1
 40
0.0050
 41
0.0050
  0
VERTEX
  8
SST
 10
2.1515
 20
0.7010
 30
 0.0
 42
1.0
  0
VERTEX
  8
SST
 10
2.1565
 20
0.7010
 30
 0.0
 42
1.0
  0
SEQEND
  8
SST
  0
POLYLINE
  8
SMT
 66
      1
 70
0
 40
0.0100
 41
0.0100
  0
VERTEX
  8
SMT
 10
1.6510
 20
1.3360
 30
 0.0
  0
VERTEX
  8
SMT
 10
1.7210
 20
1.3360
 30
 0.0
  0
SEQEND
  8
SMT
  0
POLYLINE
  8
SMT
 66
      1
 70
1
 40
0.0050
 41
0.0050
  0
VERTEX
  8
SMT
 10
1.6485
 20
1.3360
 30
 0.0
 42
1.0
  0
VERTEX
  8
SMT
 10
1.6535
 20
1.3360
 30
 0.0
 42
1.0
  0
SEQEND
  8
SMT
  0
POLYLINE
  8
SMT
 66
      1
 70
1
 40
0.0050
 41
0.0050
  0
VERTEX
  8
SMT
 10
1.7185
 20
1.3360
 30
 0.0
 42
1.0
  0
VERTEX
  8
SMT
 10
1.7235
 20
1.3360
 30
 0.0
 42
1.0
  0
SEQEND
  8
SMT
  0
POLYLINE
  8
SMT
 66
      1
 70
0
 40
0.0100
 41
0.0100
  0
VERTEX
  8
SMT
 10
1.6510
 20
1.1210
 30
 0.0
  0
VERTEX
  8
SMT
 10
1.6510
 20
1.3360
 30
 0.0
  0
SEQEND
  8
SMT
  0
POLYLINE
  8
SMT
 66
      1
 70
1
 40
0.0050
 41
0.0050
  0
VERTEX
  8
SMT
 10
1.6485
 20
1.1210
 30
 0.0
 42
1.0
  0
VERTEX
  8
SMT
 10
1.6535
 20
1.1210
 30
 0.0
 42
1.0
  0
SEQEND
  8
SMT
  0
POLYLINE
  8
SMT
 66
      1
 70
1
 40
0.0050
 41
0.0050
  0
VERTEX
  8
SMT
 10
1.6485
 20
1.3360
 30
 0.0
 42
1.0
  0
VERTEX
  8
SMT
 10
1.6535
 20
1.3360
 30
 0.0
 42
1.0
  0
SEQEND
  8
SMT
  0
POLYLINE
  8
SMT
 66
      1
 70
0
 40
0.0100
 41
0.0100
  0
VERTEX
  8
SMT
 10
1.6510
 20
1.1210
 30
 0.0
  0
VERTEX
  8
SMT
 10
1.7210
 20
1.1210
 30
 0.0
  0
SEQEND
  8
SMT
  0
POLYLINE
  8
SMT
 66
      1
 70
1
 40
0.0050
 41
0.0050
  0
VERTEX
  8
SMT
 10
1.6485
 20
1.1210
 30
 0.0
 42
1.0
  0
VERTEX
  8
SMT
 10
1.6535
 20
1.1210
 30
 0.0
 42
1.0
  0
SEQEND
  8
SMT
  0
POLYLINE
  8
SMT
 66
      1
 70
1
 40
0.0050
 41
0.0050
  0
VERTEX
  8
SMT
 10
1.7185
 20
1.1210
 30
 0.0
 42
1.0
  0
VERTEX
  8
SMT
 10
1.7235
 20
1.1210
 30
 0.0
 42
1.0
  0
SEQEND
  8
SMT
  0
POLYLINE
  8
SMT
 66
      1
 70
0
 40
0.0100
 41
0.0100
  0
VERTEX
  8
SMT
 10
1.6510
 20
1.1250
 30
 0.0
  0
VERTEX
  8
SMT
 10
1.7210
 20
1.1250
 30
 0.0
  0
SEQEND
  8
SMT
  0
POLYLINE
  8
SMT
 66
      1
 70
1
 40
0.0050
 41
0.0050
  0
VERTEX
  8
SMT
 10
1.6485
 20
1.1250
 30
 0.0
 42
1.0
  0
VERTEX
  8
SMT
 10
1.6535
 20
1.1250
 30
 0.0
 42
1.0
  0
SEQEND
  8
SMT
  0
POLYLINE
  8
SMT
 66
      1
 70
1
 40
0.0050
 41
0.0050
  0
VERTEX
  8
SMT
 10
1.7185
 20
1.1250
 30
 0.0
 42
1.0
  0
VERTEX
  8
SMT
 10
1.7235
 20
1.1250
 30
 0.0
 42
1.0
  0
SEQEND
  8
SMT
  0
POLYLINE
  8
SMT
 66
      1
 70
0
 40
0.0100
 41
0.0100
  0
VERTEX
  8
SMT
 10
1.6510
 20
1.3320
 30
 0.0
  0
VERTEX
  8
SMT
 10
1.7210
 20
1.3320
 30
 0.0
  0
SEQEND
  8
SMT
  0
POLYLINE
  8
SMT
 66
      1
 70
1
 40
0.0050
 41
0.0050
  0
VERTEX
  8
SMT
 10
1.6485
 20
1.3320
 30
 0.0
 42
1.0
  0
VERTEX
  8
SMT
 10
1.6535
 20
1.3320
 30
 0.0
 42
1.0
  0
SEQEND
  8
SMT
  0
POLYLINE
  8
SMT
 66
      1
 70
1
 40
0.0050
 41
0.0050
  0
VERTEX
  8
SMT
 10
1.7185
 20
1.3320
 30
 0.0
 42
1.0
  0
VERTEX
  8
SMT
 10
1.7235
 20
1.3320
 30
 0.0
 42
1.0
  0
SEQEND
  8
SMT
  0
POLYLINE
  8
SMT
 66
      1
 70
0
 40
0.0100
 41
0.0100
  0
VERTEX
  8
SMT
 10
1.6550
 20
1.1210
 30
 0.0
  0
VERTEX
  8
SMT
 10
1.6550
 20
1.3360
 30
 0.0
  0
SEQEND
  8
SMT
  0
POLYLINE
  8
SMT
 66
      1
 70
1
 40
0.0050
 41
0.0050
  0
VERTEX
  8
SMT
 10
1.6525
 20
1.1210
 30
 0.0
 42
1.0
  0
VERTEX
  8
SMT
 10
1.6575
 20
1.1210
 30
 0.0
 42
1.0
  0
SEQEND
  8
SMT
  0
POLYLINE
  8
SMT
 66
      1
 70
1
 40
0.0050
 41
0.0050
  0
VERTEX
  8
SMT
 10
1.6525
 20
1.3360
 30
 0.0
 42
1.0
  0
VERTEX
  8
SMT
 10
1.6575
 20
1.3360
 30
 0.0
 42
1.0
  0
SEQEND
  8
SMT
  0
POLYLINE
  8
SMT
 66
      1
 70
0
 40
0.0100
 41
0.0100
  0
VERTEX
  8
SMT
 10
1.6640
 20
1.1210
 30
 0.0
  0
VERTEX
  8
SMT
 10
1.6640
 20
1.3360
 30
 0.0
  0
SEQEND
  8
SMT
  0
POLYLINE
  8
SMT
 66
      1
 70
1
 40
0.0050
 41
0.0050
  0
VERTEX
  8
SMT
 10
1.6615
 20
1.1210
 30
 0.0
 42
1.0
  0
VERTEX
  8
SMT
 10
1.6665
 20
1.1210
 30
 0.0
 42
1.0
  0
SEQEND
  8
SMT
  0
POLYLINE
  8
SMT
 66
      1
 70
1
 40
0.0050
 41
0.0050
  0
VERTEX
  8
SMT
 10
1.6615
 20
1.3360
 30
 0.0
 42
1.0
  0
VERTEX
  8
SMT
 10
1.6665
 20
1.3360
 30
 0.0
 42
1.0
  0
SEQEND
  8
SMT
  0
POLYLINE
  8
SMT
 66
      1
 70
0
 40
0.0100
 41
0.0100
  0
VERTEX
  8
SMT
 10
1.6730
 20
1.1210
 30
 0.0
  0
VERTEX
  8
SMT
 10
1.6730
 20
1.3360
 30
 0.0
  0
SEQEND
  8
SMT
  0
POLYLINE
  8
SMT
 66
      1
 70
1
 40
0.0050
 41
0.0050
  0
VERTEX
  8
SMT
 10
1.6705
 20
1.1210
 30
 0.0
 42
1.0
  0
VERTEX
  8
SMT
 10
1.6755
 20
1.1210
 30
 0.0
 42
1.0
  0
SEQEND
  8
SMT
  0
POLYLINE
  8
SMT
 66
      1
 70
1
 40
0.0050
 41
0.0050
  0
VERTEX
  8
SMT
 10
1.6705
 20
1.3360
 30
 0.0
 42
1.0
  0
VERTEX
  8
SMT
 10
1.6755
 20
1.3360
 30
 0.0
 42
1.0
  0
SEQEND
  8
SMT
  0
POLYLINE
  8
SMT
 66
      1
 70
0
 40
0.0100
 41
0.0100
  0
VERTEX
  8
SMT
 10
1.6820
 20
1.1210
 30
 0.0
  0
VERTEX
  8
SMT
 10
1.6820
 20
1.3360
 30
 0.0
  0
SEQEND
  8
SMT
  0
POLYLINE
  8
SMT
 66
      1
 70
1
 40
0.0050
 41
0.0050
  0
VERTEX
  8
SMT
 10
1.6795
 20
1.1210
 30
 0.0
 42
1.0
  0
VERTEX
  8
SMT
 10
1.6845
 20
1.1210
 30
 0.0
 42
1.0
  0
SEQEND
  8
SMT
  0
POLYLINE
  8
SMT
 66
      1
 70
1
 40
0.0050
 41
0.0050
  0
VERTEX
  8
SMT
 10
1.6795
 20
1.3360
 30
 0.0
 42
1.0
  0
VERTEX
  8
SMT
 10
1.6845
 20
1.3360
 30
 0.0
 42
1.0
  0
SEQEND
  8
SMT
  0
POLYLINE
  8
SMT
 66
      1
 70
0
 40
0.0100
 41
0.0100
  0
VERTEX
  8
SMT
 10
1.6910
 20
1.1210
 30
 0.0
  0
VERTEX
  8
SMT
 10
1.6910
 20
1.3360
 30
 0.0
  0
SEQEND
  8
SMT
  0
POLYLINE
  8
SMT
 66
      1
 70
1
 40
0.0050
 41
0.0050
  0
VERTEX
  8
SMT
 10
1.6885
 20
1.1210
 30
 0.0
 42
1.0
  0
VERTEX
  8
SMT
 10
1.6935
 20
1.1210
 30
 0.0
 42
1.0
  0
SEQEND
  8
SMT
  0
POLYLINE
  8
SMT
 66
      1
 70
1
 40
0.0050
 41
0.0050
  0
VERTEX
  8
SMT
 10
1.6885
 20
1.3360
 30
 0.0
 42
1.0
  0
VERTEX
  8
SMT
 10
1.6935
 20
1.3360
 30
 0.0
 42
1.0
  0
SEQEND
  8
SMT
  0
POLYLINE
  8
SMT
 66
      1
 70
0
 40
0.0100
 41
0.0100
  0
VERTEX
  8
SMT
 10
1.7000
 20
1.1210
 30
 0.0
  0
VERTEX
  8
SMT
 10
1.7000
 20
1.3360
 30
 0.0
  0
SEQEND
  8
SMT
  0
POLYLINE
  8
SMT
 66
      1
 70
1
 40
0.0050
 41
0.0050
  0
VERTEX
  8
SMT
 10
1.6975
 20
1.1210
 30
 0.0
 42
1.0
  0
VERTEX
  8
SMT
 10
1.7025
 20
1.1210
 30
 0.0
 42
1.0
  0
SEQEND
  8
SMT
  0
POLYLINE
  8
SMT
 66
      1
 70
1
 40
0.0050
 41
0.0050
  0
VERTEX
  8
SMT
 10
1.6975
 20
1.3360
 30
 0.0
 42
1.0
  0
VERTEX
  8
SMT
 10
1.7025
 20
1.3360
 30
 0.0
 42
1.0
  0
SEQEND
  8
SMT
  0
POLYLINE
  8
SMT
 66
      1
 70
0
 40
0.0100
 41
0.0100
  0
VERTEX
  8
SMT
 10
1.7090
 20
1.1210
 30
 0.0
  0
VERTEX
  8
SMT
 10
1.7090
 20
1.3360
 30
 0.0
  0
SEQEND
  8
SMT
  0
POLYLINE
  8
SMT
 66
      1
 70
1
 40
0.0050
 41
0.0050
  0
VERTEX
  8
SMT
 10
1.7065
 20
1.1210
 30
 0.0
 42
1.0
  0
VERTEX
  8
SMT
 10
1.7115
 20
1.1210
 30
 0.0
 42
1.0
  0
SEQEND
  8
SMT
  0
POLYLINE
  8
SMT
 66
      1
 70
1
 40
0.0050
 41
0.0050
  0
VERTEX
  8
SMT
 10
1.7065
 20
1.3360
 30
 0.0
 42
1.0
  0
VERTEX
  8
SMT
 10
1.7115
 20
1.3360
 30
 0.0
 42
1.0
  0
SEQEND
  8
SMT
  0
POLYLINE
  8
SMT
 66
      1
 70
0
 40
0.0100
 41
0.0100
  0
VERTEX
  8
SMT
 10
1.7180
 20
1.1210
 30
 0.0
  0
VERTEX
  8
SMT
 10
1.7180
 20
1.3360
 30
 0.0
  0
SEQEND
  8
SMT
  0
POLYLINE
  8
SMT
 66
      1
 70
1
 40
0.0050
 41
0.0050
  0
VERTEX
  8
SMT
 10
1.7155
 20
1.1210
 30
 0.0
 42
1.0
  0
VERTEX
  8
SMT
 10
1.7205
 20
1.1210
 30
 0.0
 42
1.0
  0
SEQEND
  8
SMT
  0
POLYLINE
  8
SMT
 66
      1
 70
1
 40
0.0050
 41
0.0050
  0
VERTEX
  8
SMT
 10
1.7155
 20
1.3360
 30
 0.0
 42
1.0
  0
VERTEX
  8
SMT
 10
1.7205
 20
1.3360
 30
 0.0
 42
1.0
  0
SEQEND
  8
SMT
  0
POLYLINE
  8
SMT
 66
      1
 70
0
 40
0.0100
 41
0.0100
  0
VERTEX
  8
SMT
 10
1.7210
 20
1.1210
 30
 0.0
  0
VERTEX
  8
SMT
 10
1.7210
 20
1.3360
 30
 0.0
  0
SEQEND
  8
SMT
  0
POLYLINE
  8
SMT
 66
      1
 70
1
 40
0.0050
 41
0.0050
  0
VERTEX
  8
SMT
 10
1.7185
 20
1.1210
 30
 0.0
 42
1.0
  0
VERTEX
  8
SMT
 10
1.7235
 20
1.1210
 30
 0.0
 42
1.0
  0
SEQEND
  8
SMT
  0
POLYLINE
  8
SMT
 66
      1
 70
1
 40
0.0050
 41
0.0050
  0
VERTEX
  8
SMT
 10
1.7185
 20
1.3360
 30
 0.0
 42
1.0
  0
VERTEX
  8
SMT
 10
1.7235
 20
1.3360
 30
 0.0
 42
1.0
  0
SEQEND
  8
SMT
  0
POLYLINE
  8
SMT
 66
      1
 70
0
 40
0.0100
 41
0.0100
  0
VERTEX
  8
SMT
 10
1.6510
 20
1.2330
 30
 0.0
  0
VERTEX
  8
SMT
 10
1.7210
 20
1.2330
 30
 0.0
  0
SEQEND
  8
SMT
  0
POLYLINE
  8
SMT
 66
      1
 70
1
 40
0.0050
 41
0.0050
  0
VERTEX
  8
SMT
 10
1.6485
 20
1.2330
 30
 0.0
 42
1.0
  0
VERTEX
  8
SMT
 10
1.6535
 20
1.2330
 30
 0.0
 42
1.0
  0
SEQEND
  8
SMT
  0
POLYLINE
  8
SMT
 66
      1
 70
1
 40
0.0050
 41
0.0050
  0
VERTEX
  8
SMT
 10
1.7185
 20
1.2330
 30
 0.0
 42
1.0
  0
VERTEX
  8
SMT
 10
1.7235
 20
1.2330
 30
 0.0
 42
1.0
  0
SEQEND
  8
SMT
  0
POLYLINE
  8
SMT
 66
      1
 70
0
 40
0.0100
 41
0.0100
  0
VERTEX
  8
SMT
 10
1.6510
 20
1.2420
 30
 0.0
  0
VERTEX
  8
SMT
 10
1.7210
 20
1.2420
 30
 0.0
  0
SEQEND
  8
SMT
  0
POLYLINE
  8
SMT
 66
      1
 70
1
 40
0.0050
 41
0.0050
  0
VERTEX
  8
SMT
 10
1.6485
 20
1.2420
 30
 0.0
 42
1.0
  0
VERTEX
  8
SMT
 10
1.6535
 20
1.2420
 30
 0.0
 42
1.0
  0
SEQEND
  8
SMT
  0
POLYLINE
  8
SMT
 66
      1
 70
1
 40
0.0050
 41
0.0050
  0
VERTEX
  8
SMT
 10
1.7185
 20
1.2420
 30
 0.0
 42
1.0
  0
VERTEX
  8
SMT
 10
1.7235
 20
1.2420
 30
 0.0
 42
1.0
  0
SEQEND
  8
SMT
  0
POLYLINE
  8
SMT
 66
      1
 70
0
 40
0.0100
 41
0.0100
  0
VERTEX
  8
SMT
 10
1.6510
 20
1.2510
 30
 0.0
  0
VERTEX
  8
SMT
 10
1.7210
 20
1.2510
 30
 0.0
  0
SEQEND
  8
SMT
  0
POLYLINE
  8
SMT
 66
      1
 70
1
 40
0.0050
 41
0.0050
  0
VERTEX
  8
SMT
 10
1.6485
 20
1.2510
 30
 0.0
 42
1.0
  0
VERTEX
  8
SMT
 10
1.6535
 20
1.2510
 30
 0.0
 42
1.0
  0
SEQEND
  8
SMT
  0
POLYLINE
  8
SMT
 66
      1
 70
1
 40
0.0050
 41
0.0050
  0
VERTEX
  8
SMT
 10
1.7185
 20
1.2510
 30
 0.0
 42
1.0
  0
VERTEX
  8
SMT
 10
1.7235
 20
1.2510
 30
 0.0
 42
1.0
  0
SEQEND
  8
SMT
  0
POLYLINE
  8
SMT
 66
      1
 70
0
 40
0.0100
 41
0.0100
  0
VERTEX
  8
SMT
 10
1.6510
 20
1.2600
 30
 0.0
  0
VERTEX
  8
SMT
 10
1.7210
 20
1.2600
 30
 0.0
  0
SEQEND
  8
SMT
  0
POLYLINE
  8
SMT
 66
      1
 70
1
 40
0.0050
 41
0.0050
  0
VERTEX
  8
SMT
 10
1.6485
 20
1.2600
 30
 0.0
 42
1.0
  0
VERTEX
  8
SMT
 10
1.6535
 20
1.2600
 30
 0.0
 42
1.0
  0
SEQEND
  8
SMT
  0
POLYLINE
  8
SMT
 66
      1
 70
1
 40
0.0050
 41
0.0050
  0
VERTEX
  8
SMT
 10
1.7185
 20
1.2600
 30
 0.0
 42
1.0
  0
VERTEX
  8
SMT
 10
1.7235
 20
1.2600
 30
 0.0
 42
1.0
  0
SEQEND
  8
SMT
  0
POLYLINE
  8
SMT
 66
      1
 70
0
 40
0.0100
 41
0.0100
  0
VERTEX
  8
SMT
 10
1.6510
 20
1.2690
 30
 0.0
  0
VERTEX
  8
SMT
 10
1.7210
 20
1.2690
 30
 0.0
  0
SEQEND
  8
SMT
  0
POLYLINE
  8
SMT
 66
      1
 70
1
 40
0.0050
 41
0.0050
  0
VERTEX
  8
SMT
 10
1.6485
 20
1.2690
 30
 0.0
 42
1.0
  0
VERTEX
  8
SMT
 10
1.6535
 20
1.2690
 30
 0.0
 42
1.0
  0
SEQEND
  8
SMT
  0
POLYLINE
  8
SMT
 66
      1
 70
1
 40
0.0050
 41
0.0050
  0
VERTEX
  8
SMT
 10
1.7185
 20
1.2690
 30
 0.0
 42
1.0
  0
VERTEX
  8
SMT
 10
1.7235
 20
1.2690
 30
 0.0
 42
1.0
  0
SEQEND
  8
SMT
  0
POLYLINE
  8
SMT
 66
      1
 70
0
 40
0.0100
 41
0.0100
  0
VERTEX
  8
SMT
 10
1.6510
 20
1.2780
 30
 0.0
  0
VERTEX
  8
SMT
 10
1.7210
 20
1.2780
 30
 0.0
  0
SEQEND
  8
SMT
  0
POLYLINE
  8
SMT
 66
      1
 70
1
 40
0.0050
 41
0.0050
  0
VERTEX
  8
SMT
 10
1.6485
 20
1.2780
 30
 0.0
 42
1.0
  0
VERTEX
  8
SMT
 10
1.6535
 20
1.2780
 30
 0.0
 42
1.0
  0
SEQEND
  8
SMT
  0
POLYLINE
  8
SMT
 66
      1
 70
1
 40
0.0050
 41
0.0050
  0
VERTEX
  8
SMT
 10
1.7185
 20
1.2780
 30
 0.0
 42
1.0
  0
VERTEX
  8
SMT
 10
1.7235
 20
1.2780
 30
 0.0
 42
1.0
  0
SEQEND
  8
SMT
  0
POLYLINE
  8
SMT
 66
      1
 70
0
 40
0.0100
 41
0.0100
  0
VERTEX
  8
SMT
 10
1.6510
 20
1.2870
 30
 0.0
  0
VERTEX
  8
SMT
 10
1.7210
 20
1.2870
 30
 0.0
  0
SEQEND
  8
SMT
  0
POLYLINE
  8
SMT
 66
      1
 70
1
 40
0.0050
 41
0.0050
  0
VERTEX
  8
SMT
 10
1.6485
 20
1.2870
 30
 0.0
 42
1.0
  0
VERTEX
  8
SMT
 10
1.6535
 20
1.2870
 30
 0.0
 42
1.0
  0
SEQEND
  8
SMT
  0
POLYLINE
  8
SMT
 66
      1
 70
1
 40
0.0050
 41
0.0050
  0
VERTEX
  8
SMT
 10
1.7185
 20
1.2870
 30
 0.0
 42
1.0
  0
VERTEX
  8
SMT
 10
1.7235
 20
1.2870
 30
 0.0
 42
1.0
  0
SEQEND
  8
SMT
  0
POLYLINE
  8
SMT
 66
      1
 70
0
 40
0.0100
 41
0.0100
  0
VERTEX
  8
SMT
 10
1.6510
 20
1.2960
 30
 0.0
  0
VERTEX
  8
SMT
 10
1.7210
 20
1.2960
 30
 0.0
  0
SEQEND
  8
SMT
  0
POLYLINE
  8
SMT
 66
      1
 70
1
 40
0.0050
 41
0.0050
  0
VERTEX
  8
SMT
 10
1.6485
 20
1.2960
 30
 0.0
 42
1.0
  0
VERTEX
  8
SMT
 10
1.6535
 20
1.2960
 30
 0.0
 42
1.0
  0
SEQEND
  8
SMT
  0
POLYLINE
  8
SMT
 66
      1
 70
1
 40
0.0050
 41
0.0050
  0
VERTEX
  8
SMT
 10
1.7185
 20
1.2960
 30
 0.0
 42
1.0
  0
VERTEX
  8
SMT
 10
1.7235
 20
1.2960
 30
 0.0
 42
1.0
  0
SEQEND
  8
SMT
  0
POLYLINE
  8
SMT
 66
      1
 70
0
 40
0.0100
 41
0.0100
  0
VERTEX
  8
SMT
 10
1.6510
 20
1.3050
 30
 0.0
  0
VERTEX
  8
SMT
 10
1.7210
 20
1.3050
 30
 0.0
  0
SEQEND
  8
SMT
  0
POLYLINE
  8
SMT
 66
      1
 70
1
 40
0.0050
 41
0.0050
  0
VERTEX
  8
SMT
 10
1.6485
 20
1.3050
 30
 0.0
 42
1.0
  0
VERTEX
  8
SMT
 10
1.6535
 20
1.3050
 30
 0.0
 42
1.0
  0
SEQEND
  8
SMT
  0
POLYLINE
  8
SMT
 66
      1
 70
1
 40
0.0050
 41
0.0050
  0
VERTEX
  8
SMT
 10
1.7185
 20
1.3050
 30
 0.0
 42
1.0
  0
VERTEX
  8
SMT
 10
1.7235
 20
1.3050
 30
 0.0
 42
1.0
  0
SEQEND
  8
SMT
  0
POLYLINE
  8
SMT
 66
      1
 70
0
 40
0.0100
 41
0.0100
  0
VERTEX
  8
SMT
 10
1.6510
 20
1.3140
 30
 0.0
  0
VERTEX
  8
SMT
 10
1.7210
 20
1.3140
 30
 0.0
  0
SEQEND
  8
SMT
  0
POLYLINE
  8
SMT
 66
      1
 70
1
 40
0.0050
 41
0.0050
  0
VERTEX
  8
SMT
 10
1.6485
 20
1.3140
 30
 0.0
 42
1.0
  0
VERTEX
  8
SMT
 10
1.6535
 20
1.3140
 30
 0.0
 42
1.0
  0
SEQEND
  8
SMT
  0
POLYLINE
  8
SMT
 66
      1
 70
1
 40
0.0050
 41
0.0050
  0
VERTEX
  8
SMT
 10
1.7185
 20
1.3140
 30
 0.0
 42
1.0
  0
VERTEX
  8
SMT
 10
1.7235
 20
1.3140
 30
 0.0
 42
1.0
  0
SEQEND
  8
SMT
  0
POLYLINE
  8
SMT
 66
      1
 70
0
 40
0.0100
 41
0.0100
  0
VERTEX
  8
SMT
 10
1.6510
 20
1.3230
 30
 0.0
  0
VERTEX
  8
SMT
 10
1.7210
 20
1.3230
 30
 0.0
  0
SEQEND
  8
SMT
  0
POLYLINE
  8
SMT
 66
      1
 70
1
 40
0.0050
 41
0.0050
  0
VERTEX
  8
SMT
 10
1.6485
 20
1.3230
 30
 0.0
 42
1.0
  0
VERTEX
  8
SMT
 10
1.6535
 20
1.3230
 30
 0.0
 42
1.0
  0
SEQEND
  8
SMT
  0
POLYLINE
  8
SMT
 66
      1
 70
1
 40
0.0050
 41
0.0050
  0
VERTEX
  8
SMT
 10
1.7185
 20
1.3230
 30
 0.0
 42
1.0
  0
VERTEX
  8
SMT
 10
1.7235
 20
1.3230
 30
 0.0
 42
1.0
  0
SEQEND
  8
SMT
  0
POLYLINE
  8
SMT
 66
      1
 70
0
 40
0.0100
 41
0.0100
  0
VERTEX
  8
SMT
 10
1.6510
 20
1.1340
 30
 0.0
  0
VERTEX
  8
SMT
 10
1.7210
 20
1.1340
 30
 0.0
  0
SEQEND
  8
SMT
  0
POLYLINE
  8
SMT
 66
      1
 70
1
 40
0.0050
 41
0.0050
  0
VERTEX
  8
SMT
 10
1.6485
 20
1.1340
 30
 0.0
 42
1.0
  0
VERTEX
  8
SMT
 10
1.6535
 20
1.1340
 30
 0.0
 42
1.0
  0
SEQEND
  8
SMT
  0
POLYLINE
  8
SMT
 66
      1
 70
1
 40
0.0050
 41
0.0050
  0
VERTEX
  8
SMT
 10
1.7185
 20
1.1340
 30
 0.0
 42
1.0
  0
VERTEX
  8
SMT
 10
1.7235
 20
1.1340
 30
 0.0
 42
1.0
  0
SEQEND
  8
SMT
  0
POLYLINE
  8
SMT
 66
      1
 70
0
 40
0.0100
 41
0.0100
  0
VERTEX
  8
SMT
 10
1.6510
 20
1.1430
 30
 0.0
  0
VERTEX
  8
SMT
 10
1.7210
 20
1.1430
 30
 0.0
  0
SEQEND
  8
SMT
  0
POLYLINE
  8
SMT
 66
      1
 70
1
 40
0.0050
 41
0.0050
  0
VERTEX
  8
SMT
 10
1.6485
 20
1.1430
 30
 0.0
 42
1.0
  0
VERTEX
  8
SMT
 10
1.6535
 20
1.1430
 30
 0.0
 42
1.0
  0
SEQEND
  8
SMT
  0
POLYLINE
  8
SMT
 66
      1
 70
1
 40
0.0050
 41
0.0050
  0
VERTEX
  8
SMT
 10
1.7185
 20
1.1430
 30
 0.0
 42
1.0
  0
VERTEX
  8
SMT
 10
1.7235
 20
1.1430
 30
 0.0
 42
1.0
  0
SEQEND
  8
SMT
  0
POLYLINE
  8
SMT
 66
      1
 70
0
 40
0.0100
 41
0.0100
  0
VERTEX
  8
SMT
 10
1.6510
 20
1.1520
 30
 0.0
  0
VERTEX
  8
SMT
 10
1.7210
 20
1.1520
 30
 0.0
  0
SEQEND
  8
SMT
  0
POLYLINE
  8
SMT
 66
      1
 70
1
 40
0.0050
 41
0.0050
  0
VERTEX
  8
SMT
 10
1.6485
 20
1.1520
 30
 0.0
 42
1.0
  0
VERTEX
  8
SMT
 10
1.6535
 20
1.1520
 30
 0.0
 42
1.0
  0
SEQEND
  8
SMT
  0
POLYLINE
  8
SMT
 66
      1
 70
1
 40
0.0050
 41
0.0050
  0
VERTEX
  8
SMT
 10
1.7185
 20
1.1520
 30
 0.0
 42
1.0
  0
VERTEX
  8
SMT
 10
1.7235
 20
1.1520
 30
 0.0
 42
1.0
  0
SEQEND
  8
SMT
  0
POLYLINE
  8
SMT
 66
      1
 70
0
 40
0.0100
 41
0.0100
  0
VERTEX
  8
SMT
 10
1.6510
 20
1.1610
 30
 0.0
  0
VERTEX
  8
SMT
 10
1.7210
 20
1.1610
 30
 0.0
  0
SEQEND
  8
SMT
  0
POLYLINE
  8
SMT
 66
      1
 70
1
 40
0.0050
 41
0.0050
  0
VERTEX
  8
SMT
 10
1.6485
 20
1.1610
 30
 0.0
 42
1.0
  0
VERTEX
  8
SMT
 10
1.6535
 20
1.1610
 30
 0.0
 42
1.0
  0
SEQEND
  8
SMT
  0
POLYLINE
  8
SMT
 66
      1
 70
1
 40
0.0050
 41
0.0050
  0
VERTEX
  8
SMT
 10
1.7185
 20
1.1610
 30
 0.0
 42
1.0
  0
VERTEX
  8
SMT
 10
1.7235
 20
1.1610
 30
 0.0
 42
1.0
  0
SEQEND
  8
SMT
  0
POLYLINE
  8
SMT
 66
      1
 70
0
 40
0.0100
 41
0.0100
  0
VERTEX
  8
SMT
 10
1.6510
 20
1.1700
 30
 0.0
  0
VERTEX
  8
SMT
 10
1.7210
 20
1.1700
 30
 0.0
  0
SEQEND
  8
SMT
  0
POLYLINE
  8
SMT
 66
      1
 70
1
 40
0.0050
 41
0.0050
  0
VERTEX
  8
SMT
 10
1.6485
 20
1.1700
 30
 0.0
 42
1.0
  0
VERTEX
  8
SMT
 10
1.6535
 20
1.1700
 30
 0.0
 42
1.0
  0
SEQEND
  8
SMT
  0
POLYLINE
  8
SMT
 66
      1
 70
1
 40
0.0050
 41
0.0050
  0
VERTEX
  8
SMT
 10
1.7185
 20
1.1700
 30
 0.0
 42
1.0
  0
VERTEX
  8
SMT
 10
1.7235
 20
1.1700
 30
 0.0
 42
1.0
  0
SEQEND
  8
SMT
  0
POLYLINE
  8
SMT
 66
      1
 70
0
 40
0.0100
 41
0.0100
  0
VERTEX
  8
SMT
 10
1.6510
 20
1.1790
 30
 0.0
  0
VERTEX
  8
SMT
 10
1.7210
 20
1.1790
 30
 0.0
  0
SEQEND
  8
SMT
  0
POLYLINE
  8
SMT
 66
      1
 70
1
 40
0.0050
 41
0.0050
  0
VERTEX
  8
SMT
 10
1.6485
 20
1.1790
 30
 0.0
 42
1.0
  0
VERTEX
  8
SMT
 10
1.6535
 20
1.1790
 30
 0.0
 42
1.0
  0
SEQEND
  8
SMT
  0
POLYLINE
  8
SMT
 66
      1
 70
1
 40
0.0050
 41
0.0050
  0
VERTEX
  8
SMT
 10
1.7185
 20
1.1790
 30
 0.0
 42
1.0
  0
VERTEX
  8
SMT
 10
1.7235
 20
1.1790
 30
 0.0
 42
1.0
  0
SEQEND
  8
SMT
  0
POLYLINE
  8
SMT
 66
      1
 70
0
 40
0.0100
 41
0.0100
  0
VERTEX
  8
SMT
 10
1.6510
 20
1.1880
 30
 0.0
  0
VERTEX
  8
SMT
 10
1.7210
 20
1.1880
 30
 0.0
  0
SEQEND
  8
SMT
  0
POLYLINE
  8
SMT
 66
      1
 70
1
 40
0.0050
 41
0.0050
  0
VERTEX
  8
SMT
 10
1.6485
 20
1.1880
 30
 0.0
 42
1.0
  0
VERTEX
  8
SMT
 10
1.6535
 20
1.1880
 30
 0.0
 42
1.0
  0
SEQEND
  8
SMT
  0
POLYLINE
  8
SMT
 66
      1
 70
1
 40
0.0050
 41
0.0050
  0
VERTEX
  8
SMT
 10
1.7185
 20
1.1880
 30
 0.0
 42
1.0
  0
VERTEX
  8
SMT
 10
1.7235
 20
1.1880
 30
 0.0
 42
1.0
  0
SEQEND
  8
SMT
  0
POLYLINE
  8
SMT
 66
      1
 70
0
 40
0.0100
 41
0.0100
  0
VERTEX
  8
SMT
 10
1.6510
 20
1.1970
 30
 0.0
  0
VERTEX
  8
SMT
 10
1.7210
 20
1.1970
 30
 0.0
  0
SEQEND
  8
SMT
  0
POLYLINE
  8
SMT
 66
      1
 70
1
 40
0.0050
 41
0.0050
  0
VERTEX
  8
SMT
 10
1.6485
 20
1.1970
 30
 0.0
 42
1.0
  0
VERTEX
  8
SMT
 10
1.6535
 20
1.1970
 30
 0.0
 42
1.0
  0
SEQEND
  8
SMT
  0
POLYLINE
  8
SMT
 66
      1
 70
1
 40
0.0050
 41
0.0050
  0
VERTEX
  8
SMT
 10
1.7185
 20
1.1970
 30
 0.0
 42
1.0
  0
VERTEX
  8
SMT
 10
1.7235
 20
1.1970
 30
 0.0
 42
1.0
  0
SEQEND
  8
SMT
  0
POLYLINE
  8
SMT
 66
      1
 70
0
 40
0.0100
 41
0.0100
  0
VERTEX
  8
SMT
 10
1.6510
 20
1.2060
 30
 0.0
  0
VERTEX
  8
SMT
 10
1.7210
 20
1.2060
 30
 0.0
  0
SEQEND
  8
SMT
  0
POLYLINE
  8
SMT
 66
      1
 70
1
 40
0.0050
 41
0.0050
  0
VERTEX
  8
SMT
 10
1.6485
 20
1.2060
 30
 0.0
 42
1.0
  0
VERTEX
  8
SMT
 10
1.6535
 20
1.2060
 30
 0.0
 42
1.0
  0
SEQEND
  8
SMT
  0
POLYLINE
  8
SMT
 66
      1
 70
1
 40
0.0050
 41
0.0050
  0
VERTEX
  8
SMT
 10
1.7185
 20
1.2060
 30
 0.0
 42
1.0
  0
VERTEX
  8
SMT
 10
1.7235
 20
1.2060
 30
 0.0
 42
1.0
  0
SEQEND
  8
SMT
  0
POLYLINE
  8
SMT
 66
      1
 70
0
 40
0.0100
 41
0.0100
  0
VERTEX
  8
SMT
 10
1.6510
 20
1.2150
 30
 0.0
  0
VERTEX
  8
SMT
 10
1.7210
 20
1.2150
 30
 0.0
  0
SEQEND
  8
SMT
  0
POLYLINE
  8
SMT
 66
      1
 70
1
 40
0.0050
 41
0.0050
  0
VERTEX
  8
SMT
 10
1.6485
 20
1.2150
 30
 0.0
 42
1.0
  0
VERTEX
  8
SMT
 10
1.6535
 20
1.2150
 30
 0.0
 42
1.0
  0
SEQEND
  8
SMT
  0
POLYLINE
  8
SMT
 66
      1
 70
1
 40
0.0050
 41
0.0050
  0
VERTEX
  8
SMT
 10
1.7185
 20
1.2150
 30
 0.0
 42
1.0
  0
VERTEX
  8
SMT
 10
1.7235
 20
1.2150
 30
 0.0
 42
1.0
  0
SEQEND
  8
SMT
  0
POLYLINE
  8
SMT
 66
      1
 70
0
 40
0.0100
 41
0.0100
  0
VERTEX
  8
SMT
 10
1.6510
 20
1.2240
 30
 0.0
  0
VERTEX
  8
SMT
 10
1.7210
 20
1.2240
 30
 0.0
  0
SEQEND
  8
SMT
  0
POLYLINE
  8
SMT
 66
      1
 70
1
 40
0.0050
 41
0.0050
  0
VERTEX
  8
SMT
 10
1.6485
 20
1.2240
 30
 0.0
 42
1.0
  0
VERTEX
  8
SMT
 10
1.6535
 20
1.2240
 30
 0.0
 42
1.0
  0
SEQEND
  8
SMT
  0
POLYLINE
  8
SMT
 66
      1
 70
1
 40
0.0050
 41
0.0050
  0
VERTEX
  8
SMT
 10
1.7185
 20
1.2240
 30
 0.0
 42
1.0
  0
VERTEX
  8
SMT
 10
1.7235
 20
1.2240
 30
 0.0
 42
1.0
  0
SEQEND
  8
SMT
  0
POLYLINE
  8
SMT
 66
      1
 70
0
 40
0.0100
 41
0.0100
  0
VERTEX
  8
SMT
 10
1.6510
 20
0.7760
 30
 0.0
  0
VERTEX
  8
SMT
 10
1.6510
 20
0.9910
 30
 0.0
  0
SEQEND
  8
SMT
  0
POLYLINE
  8
SMT
 66
      1
 70
1
 40
0.0050
 41
0.0050
  0
VERTEX
  8
SMT
 10
1.6485
 20
0.7760
 30
 0.0
 42
1.0
  0
VERTEX
  8
SMT
 10
1.6535
 20
0.7760
 30
 0.0
 42
1.0
  0
SEQEND
  8
SMT
  0
POLYLINE
  8
SMT
 66
      1
 70
1
 40
0.0050
 41
0.0050
  0
VERTEX
  8
SMT
 10
1.6485
 20
0.9910
 30
 0.0
 42
1.0
  0
VERTEX
  8
SMT
 10
1.6535
 20
0.9910
 30
 0.0
 42
1.0
  0
SEQEND
  8
SMT
  0
POLYLINE
  8
SMT
 66
      1
 70
0
 40
0.0100
 41
0.0100
  0
VERTEX
  8
SMT
 10
1.6510
 20
0.9910
 30
 0.0
  0
VERTEX
  8
SMT
 10
1.7210
 20
0.9910
 30
 0.0
  0
SEQEND
  8
SMT
  0
POLYLINE
  8
SMT
 66
      1
 70
1
 40
0.0050
 41
0.0050
  0
VERTEX
  8
SMT
 10
1.6485
 20
0.9910
 30
 0.0
 42
1.0
  0
VERTEX
  8
SMT
 10
1.6535
 20
0.9910
 30
 0.0
 42
1.0
  0
SEQEND
  8
SMT
  0
POLYLINE
  8
SMT
 66
      1
 70
1
 40
0.0050
 41
0.0050
  0
VERTEX
  8
SMT
 10
1.7185
 20
0.9910
 30
 0.0
 42
1.0
  0
VERTEX
  8
SMT
 10
1.7235
 20
0.9910
 30
 0.0
 42
1.0
  0
SEQEND
  8
SMT
  0
POLYLINE
  8
SMT
 66
      1
 70
0
 40
0.0100
 41
0.0100
  0
VERTEX
  8
SMT
 10
1.7210
 20
0.7760
 30
 0.0
  0
VERTEX
  8
SMT
 10
1.7210
 20
0.9910
 30
 0.0
  0
SEQEND
  8
SMT
  0
POLYLINE
  8
SMT
 66
      1
 70
1
 40
0.0050
 41
0.0050
  0
VERTEX
  8
SMT
 10
1.7185
 20
0.7760
 30
 0.0
 42
1.0
  0
VERTEX
  8
SMT
 10
1.7235
 20
0.7760
 30
 0.0
 42
1.0
  0
SEQEND
  8
SMT
  0
POLYLINE
  8
SMT
 66
      1
 70
1
 40
0.0050
 41
0.0050
  0
VERTEX
  8
SMT
 10
1.7185
 20
0.9910
 30
 0.0
 42
1.0
  0
VERTEX
  8
SMT
 10
1.7235
 20
0.9910
 30
 0.0
 42
1.0
  0
SEQEND
  8
SMT
  0
POLYLINE
  8
SMT
 66
      1
 70
0
 40
0.0100
 41
0.0100
  0
VERTEX
  8
SMT
 10
1.6510
 20
0.7800
 30
 0.0
  0
VERTEX
  8
SMT
 10
1.7210
 20
0.7800
 30
 0.0
  0
SEQEND
  8
SMT
  0
POLYLINE
  8
SMT
 66
      1
 70
1
 40
0.0050
 41
0.0050
  0
VERTEX
  8
SMT
 10
1.6485
 20
0.7800
 30
 0.0
 42
1.0
  0
VERTEX
  8
SMT
 10
1.6535
 20
0.7800
 30
 0.0
 42
1.0
  0
SEQEND
  8
SMT
  0
POLYLINE
  8
SMT
 66
      1
 70
1
 40
0.0050
 41
0.0050
  0
VERTEX
  8
SMT
 10
1.7185
 20
0.7800
 30
 0.0
 42
1.0
  0
VERTEX
  8
SMT
 10
1.7235
 20
0.7800
 30
 0.0
 42
1.0
  0
SEQEND
  8
SMT
  0
POLYLINE
  8
SMT
 66
      1
 70
0
 40
0.0100
 41
0.0100
  0
VERTEX
  8
SMT
 10
1.6510
 20
0.9870
 30
 0.0
  0
VERTEX
  8
SMT
 10
1.7210
 20
0.9870
 30
 0.0
  0
SEQEND
  8
SMT
  0
POLYLINE
  8
SMT
 66
      1
 70
1
 40
0.0050
 41
0.0050
  0
VERTEX
  8
SMT
 10
1.6485
 20
0.9870
 30
 0.0
 42
1.0
  0
VERTEX
  8
SMT
 10
1.6535
 20
0.9870
 30
 0.0
 42
1.0
  0
SEQEND
  8
SMT
  0
POLYLINE
  8
SMT
 66
      1
 70
1
 40
0.0050
 41
0.0050
  0
VERTEX
  8
SMT
 10
1.7185
 20
0.9870
 30
 0.0
 42
1.0
  0
VERTEX
  8
SMT
 10
1.7235
 20
0.9870
 30
 0.0
 42
1.0
  0
SEQEND
  8
SMT
  0
POLYLINE
  8
SMT
 66
      1
 70
0
 40
0.0100
 41
0.0100
  0
VERTEX
  8
SMT
 10
1.6550
 20
0.7760
 30
 0.0
  0
VERTEX
  8
SMT
 10
1.6550
 20
0.9910
 30
 0.0
  0
SEQEND
  8
SMT
  0
POLYLINE
  8
SMT
 66
      1
 70
1
 40
0.0050
 41
0.0050
  0
VERTEX
  8
SMT
 10
1.6525
 20
0.7760
 30
 0.0
 42
1.0
  0
VERTEX
  8
SMT
 10
1.6575
 20
0.7760
 30
 0.0
 42
1.0
  0
SEQEND
  8
SMT
  0
POLYLINE
  8
SMT
 66
      1
 70
1
 40
0.0050
 41
0.0050
  0
VERTEX
  8
SMT
 10
1.6525
 20
0.9910
 30
 0.0
 42
1.0
  0
VERTEX
  8
SMT
 10
1.6575
 20
0.9910
 30
 0.0
 42
1.0
  0
SEQEND
  8
SMT
  0
POLYLINE
  8
SMT
 66
      1
 70
0
 40
0.0100
 41
0.0100
  0
VERTEX
  8
SMT
 10
1.6640
 20
0.7760
 30
 0.0
  0
VERTEX
  8
SMT
 10
1.6640
 20
0.9910
 30
 0.0
  0
SEQEND
  8
SMT
  0
POLYLINE
  8
SMT
 66
      1
 70
1
 40
0.0050
 41
0.0050
  0
VERTEX
  8
SMT
 10
1.6615
 20
0.7760
 30
 0.0
 42
1.0
  0
VERTEX
  8
SMT
 10
1.6665
 20
0.7760
 30
 0.0
 42
1.0
  0
SEQEND
  8
SMT
  0
POLYLINE
  8
SMT
 66
      1
 70
1
 40
0.0050
 41
0.0050
  0
VERTEX
  8
SMT
 10
1.6615
 20
0.9910
 30
 0.0
 42
1.0
  0
VERTEX
  8
SMT
 10
1.6665
 20
0.9910
 30
 0.0
 42
1.0
  0
SEQEND
  8
SMT
  0
POLYLINE
  8
SMT
 66
      1
 70
0
 40
0.0100
 41
0.0100
  0
VERTEX
  8
SMT
 10
1.6730
 20
0.7760
 30
 0.0
  0
VERTEX
  8
SMT
 10
1.6730
 20
0.9910
 30
 0.0
  0
SEQEND
  8
SMT
  0
POLYLINE
  8
SMT
 66
      1
 70
1
 40
0.0050
 41
0.0050
  0
VERTEX
  8
SMT
 10
1.6705
 20
0.7760
 30
 0.0
 42
1.0
  0
VERTEX
  8
SMT
 10
1.6755
 20
0.7760
 30
 0.0
 42
1.0
  0
SEQEND
  8
SMT
  0
POLYLINE
  8
SMT
 66
      1
 70
1
 40
0.0050
 41
0.0050
  0
VERTEX
  8
SMT
 10
1.6705
 20
0.9910
 30
 0.0
 42
1.0
  0
VERTEX
  8
SMT
 10
1.6755
 20
0.9910
 30
 0.0
 42
1.0
  0
SEQEND
  8
SMT
  0
POLYLINE
  8
SMT
 66
      1
 70
0
 40
0.0100
 41
0.0100
  0
VERTEX
  8
SMT
 10
1.6820
 20
0.7760
 30
 0.0
  0
VERTEX
  8
SMT
 10
1.6820
 20
0.9910
 30
 0.0
  0
SEQEND
  8
SMT
  0
POLYLINE
  8
SMT
 66
      1
 70
1
 40
0.0050
 41
0.0050
  0
VERTEX
  8
SMT
 10
1.6795
 20
0.7760
 30
 0.0
 42
1.0
  0
VERTEX
  8
SMT
 10
1.6845
 20
0.7760
 30
 0.0
 42
1.0
  0
SEQEND
  8
SMT
  0
POLYLINE
  8
SMT
 66
      1
 70
1
 40
0.0050
 41
0.0050
  0
VERTEX
  8
SMT
 10
1.6795
 20
0.9910
 30
 0.0
 42
1.0
  0
VERTEX
  8
SMT
 10
1.6845
 20
0.9910
 30
 0.0
 42
1.0
  0
SEQEND
  8
SMT
  0
POLYLINE
  8
SMT
 66
      1
 70
0
 40
0.0100
 41
0.0100
  0
VERTEX
  8
SMT
 10
1.6910
 20
0.7760
 30
 0.0
  0
VERTEX
  8
SMT
 10
1.6910
 20
0.9910
 30
 0.0
  0
SEQEND
  8
SMT
  0
POLYLINE
  8
SMT
 66
      1
 70
1
 40
0.0050
 41
0.0050
  0
VERTEX
  8
SMT
 10
1.6885
 20
0.7760
 30
 0.0
 42
1.0
  0
VERTEX
  8
SMT
 10
1.6935
 20
0.7760
 30
 0.0
 42
1.0
  0
SEQEND
  8
SMT
  0
POLYLINE
  8
SMT
 66
      1
 70
1
 40
0.0050
 41
0.0050
  0
VERTEX
  8
SMT
 10
1.6885
 20
0.9910
 30
 0.0
 42
1.0
  0
VERTEX
  8
SMT
 10
1.6935
 20
0.9910
 30
 0.0
 42
1.0
  0
SEQEND
  8
SMT
  0
POLYLINE
  8
SMT
 66
      1
 70
0
 40
0.0100
 41
0.0100
  0
VERTEX
  8
SMT
 10
1.7000
 20
0.7760
 30
 0.0
  0
VERTEX
  8
SMT
 10
1.7000
 20
0.9910
 30
 0.0
  0
SEQEND
  8
SMT
  0
POLYLINE
  8
SMT
 66
      1
 70
1
 40
0.0050
 41
0.0050
  0
VERTEX
  8
SMT
 10
1.6975
 20
0.7760
 30
 0.0
 42
1.0
  0
VERTEX
  8
SMT
 10
1.7025
 20
0.7760
 30
 0.0
 42
1.0
  0
SEQEND
  8
SMT
  0
POLYLINE
  8
SMT
 66
      1
 70
1
 40
0.0050
 41
0.0050
  0
VERTEX
  8
SMT
 10
1.6975
 20
0.9910
 30
 0.0
 42
1.0
  0
VERTEX
  8
SMT
 10
1.7025
 20
0.9910
 30
 0.0
 42
1.0
  0
SEQEND
  8
SMT
  0
POLYLINE
  8
SMT
 66
      1
 70
0
 40
0.0100
 41
0.0100
  0
VERTEX
  8
SMT
 10
1.7090
 20
0.7760
 30
 0.0
  0
VERTEX
  8
SMT
 10
1.7090
 20
0.9910
 30
 0.0
  0
SEQEND
  8
SMT
  0
POLYLINE
  8
SMT
 66
      1
 70
1
 40
0.0050
 41
0.0050
  0
VERTEX
  8
SMT
 10
1.7065
 20
0.7760
 30
 0.0
 42
1.0
  0
VERTEX
  8
SMT
 10
1.7115
 20
0.7760
 30
 0.0
 42
1.0
  0
SEQEND
  8
SMT
  0
POLYLINE
  8
SMT
 66
      1
 70
1
 40
0.0050
 41
0.0050
  0
VERTEX
  8
SMT
 10
1.7065
 20
0.9910
 30
 0.0
 42
1.0
  0
VERTEX
  8
SMT
 10
1.7115
 20
0.9910
 30
 0.0
 42
1.0
  0
SEQEND
  8
SMT
  0
POLYLINE
  8
SMT
 66
      1
 70
0
 40
0.0100
 41
0.0100
  0
VERTEX
  8
SMT
 10
1.7180
 20
0.7760
 30
 0.0
  0
VERTEX
  8
SMT
 10
1.7180
 20
0.9910
 30
 0.0
  0
SEQEND
  8
SMT
  0
POLYLINE
  8
SMT
 66
      1
 70
1
 40
0.0050
 41
0.0050
  0
VERTEX
  8
SMT
 10
1.7155
 20
0.7760
 30
 0.0
 42
1.0
  0
VERTEX
  8
SMT
 10
1.7205
 20
0.7760
 30
 0.0
 42
1.0
  0
SEQEND
  8
SMT
  0
POLYLINE
  8
SMT
 66
      1
 70
1
 40
0.0050
 41
0.0050
  0
VERTEX
  8
SMT
 10
1.7155
 20
0.9910
 30
 0.0
 42
1.0
  0
VERTEX
  8
SMT
 10
1.7205
 20
0.9910
 30
 0.0
 42
1.0
  0
SEQEND
  8
SMT
  0
POLYLINE
  8
SMT
 66
      1
 70
0
 40
0.0100
 41
0.0100
  0
VERTEX
  8
SMT
 10
1.6510
 20
0.7760
 30
 0.0
  0
VERTEX
  8
SMT
 10
1.7210
 20
0.7760
 30
 0.0
  0
SEQEND
  8
SMT
  0
POLYLINE
  8
SMT
 66
      1
 70
1
 40
0.0050
 41
0.0050
  0
VERTEX
  8
SMT
 10
1.6485
 20
0.7760
 30
 0.0
 42
1.0
  0
VERTEX
  8
SMT
 10
1.6535
 20
0.7760
 30
 0.0
 42
1.0
  0
SEQEND
  8
SMT
  0
POLYLINE
  8
SMT
 66
      1
 70
1
 40
0.0050
 41
0.0050
  0
VERTEX
  8
SMT
 10
1.7185
 20
0.7760
 30
 0.0
 42
1.0
  0
VERTEX
  8
SMT
 10
1.7235
 20
0.7760
 30
 0.0
 42
1.0
  0
SEQEND
  8
SMT
  0
POLYLINE
  8
SMT
 66
      1
 70
0
 40
0.0100
 41
0.0100
  0
VERTEX
  8
SMT
 10
1.6510
 20
0.8880
 30
 0.0
  0
VERTEX
  8
SMT
 10
1.7210
 20
0.8880
 30
 0.0
  0
SEQEND
  8
SMT
  0
POLYLINE
  8
SMT
 66
      1
 70
1
 40
0.0050
 41
0.0050
  0
VERTEX
  8
SMT
 10
1.6485
 20
0.8880
 30
 0.0
 42
1.0
  0
VERTEX
  8
SMT
 10
1.6535
 20
0.8880
 30
 0.0
 42
1.0
  0
SEQEND
  8
SMT
  0
POLYLINE
  8
SMT
 66
      1
 70
1
 40
0.0050
 41
0.0050
  0
VERTEX
  8
SMT
 10
1.7185
 20
0.8880
 30
 0.0
 42
1.0
  0
VERTEX
  8
SMT
 10
1.7235
 20
0.8880
 30
 0.0
 42
1.0
  0
SEQEND
  8
SMT
  0
POLYLINE
  8
SMT
 66
      1
 70
0
 40
0.0100
 41
0.0100
  0
VERTEX
  8
SMT
 10
1.6510
 20
0.8970
 30
 0.0
  0
VERTEX
  8
SMT
 10
1.7210
 20
0.8970
 30
 0.0
  0
SEQEND
  8
SMT
  0
POLYLINE
  8
SMT
 66
      1
 70
1
 40
0.0050
 41
0.0050
  0
VERTEX
  8
SMT
 10
1.6485
 20
0.8970
 30
 0.0
 42
1.0
  0
VERTEX
  8
SMT
 10
1.6535
 20
0.8970
 30
 0.0
 42
1.0
  0
SEQEND
  8
SMT
  0
POLYLINE
  8
SMT
 66
      1
 70
1
 40
0.0050
 41
0.0050
  0
VERTEX
  8
SMT
 10
1.7185
 20
0.8970
 30
 0.0
 42
1.0
  0
VERTEX
  8
SMT
 10
1.7235
 20
0.8970
 30
 0.0
 42
1.0
  0
SEQEND
  8
SMT
  0
POLYLINE
  8
SMT
 66
      1
 70
0
 40
0.0100
 41
0.0100
  0
VERTEX
  8
SMT
 10
1.6510
 20
0.9060
 30
 0.0
  0
VERTEX
  8
SMT
 10
1.7210
 20
0.9060
 30
 0.0
  0
SEQEND
  8
SMT
  0
POLYLINE
  8
SMT
 66
      1
 70
1
 40
0.0050
 41
0.0050
  0
VERTEX
  8
SMT
 10
1.6485
 20
0.9060
 30
 0.0
 42
1.0
  0
VERTEX
  8
SMT
 10
1.6535
 20
0.9060
 30
 0.0
 42
1.0
  0
SEQEND
  8
SMT
  0
POLYLINE
  8
SMT
 66
      1
 70
1
 40
0.0050
 41
0.0050
  0
VERTEX
  8
SMT
 10
1.7185
 20
0.9060
 30
 0.0
 42
1.0
  0
VERTEX
  8
SMT
 10
1.7235
 20
0.9060
 30
 0.0
 42
1.0
  0
SEQEND
  8
SMT
  0
POLYLINE
  8
SMT
 66
      1
 70
0
 40
0.0100
 41
0.0100
  0
VERTEX
  8
SMT
 10
1.6510
 20
0.9150
 30
 0.0
  0
VERTEX
  8
SMT
 10
1.7210
 20
0.9150
 30
 0.0
  0
SEQEND
  8
SMT
  0
POLYLINE
  8
SMT
 66
      1
 70
1
 40
0.0050
 41
0.0050
  0
VERTEX
  8
SMT
 10
1.6485
 20
0.9150
 30
 0.0
 42
1.0
  0
VERTEX
  8
SMT
 10
1.6535
 20
0.9150
 30
 0.0
 42
1.0
  0
SEQEND
  8
SMT
  0
POLYLINE
  8
SMT
 66
      1
 70
1
 40
0.0050
 41
0.0050
  0
VERTEX
  8
SMT
 10
1.7185
 20
0.9150
 30
 0.0
 42
1.0
  0
VERTEX
  8
SMT
 10
1.7235
 20
0.9150
 30
 0.0
 42
1.0
  0
SEQEND
  8
SMT
  0
POLYLINE
  8
SMT
 66
      1
 70
0
 40
0.0100
 41
0.0100
  0
VERTEX
  8
SMT
 10
1.6510
 20
0.9240
 30
 0.0
  0
VERTEX
  8
SMT
 10
1.7210
 20
0.9240
 30
 0.0
  0
SEQEND
  8
SMT
  0
POLYLINE
  8
SMT
 66
      1
 70
1
 40
0.0050
 41
0.0050
  0
VERTEX
  8
SMT
 10
1.6485
 20
0.9240
 30
 0.0
 42
1.0
  0
VERTEX
  8
SMT
 10
1.6535
 20
0.9240
 30
 0.0
 42
1.0
  0
SEQEND
  8
SMT
  0
POLYLINE
  8
SMT
 66
      1
 70
1
 40
0.0050
 41
0.0050
  0
VERTEX
  8
SMT
 10
1.7185
 20
0.9240
 30
 0.0
 42
1.0
  0
VERTEX
  8
SMT
 10
1.7235
 20
0.9240
 30
 0.0
 42
1.0
  0
SEQEND
  8
SMT
  0
POLYLINE
  8
SMT
 66
      1
 70
0
 40
0.0100
 41
0.0100
  0
VERTEX
  8
SMT
 10
1.6510
 20
0.9330
 30
 0.0
  0
VERTEX
  8
SMT
 10
1.7210
 20
0.9330
 30
 0.0
  0
SEQEND
  8
SMT
  0
POLYLINE
  8
SMT
 66
      1
 70
1
 40
0.0050
 41
0.0050
  0
VERTEX
  8
SMT
 10
1.6485
 20
0.9330
 30
 0.0
 42
1.0
  0
VERTEX
  8
SMT
 10
1.6535
 20
0.9330
 30
 0.0
 42
1.0
  0
SEQEND
  8
SMT
  0
POLYLINE
  8
SMT
 66
      1
 70
1
 40
0.0050
 41
0.0050
  0
VERTEX
  8
SMT
 10
1.7185
 20
0.9330
 30
 0.0
 42
1.0
  0
VERTEX
  8
SMT
 10
1.7235
 20
0.9330
 30
 0.0
 42
1.0
  0
SEQEND
  8
SMT
  0
POLYLINE
  8
SMT
 66
      1
 70
0
 40
0.0100
 41
0.0100
  0
VERTEX
  8
SMT
 10
1.6510
 20
0.9420
 30
 0.0
  0
VERTEX
  8
SMT
 10
1.7210
 20
0.9420
 30
 0.0
  0
SEQEND
  8
SMT
  0
POLYLINE
  8
SMT
 66
      1
 70
1
 40
0.0050
 41
0.0050
  0
VERTEX
  8
SMT
 10
1.6485
 20
0.9420
 30
 0.0
 42
1.0
  0
VERTEX
  8
SMT
 10
1.6535
 20
0.9420
 30
 0.0
 42
1.0
  0
SEQEND
  8
SMT
  0
POLYLINE
  8
SMT
 66
      1
 70
1
 40
0.0050
 41
0.0050
  0
VERTEX
  8
SMT
 10
1.7185
 20
0.9420
 30
 0.0
 42
1.0
  0
VERTEX
  8
SMT
 10
1.7235
 20
0.9420
 30
 0.0
 42
1.0
  0
SEQEND
  8
SMT
  0
POLYLINE
  8
SMT
 66
      1
 70
0
 40
0.0100
 41
0.0100
  0
VERTEX
  8
SMT
 10
1.6510
 20
0.9510
 30
 0.0
  0
VERTEX
  8
SMT
 10
1.7210
 20
0.9510
 30
 0.0
  0
SEQEND
  8
SMT
  0
POLYLINE
  8
SMT
 66
      1
 70
1
 40
0.0050
 41
0.0050
  0
VERTEX
  8
SMT
 10
1.6485
 20
0.9510
 30
 0.0
 42
1.0
  0
VERTEX
  8
SMT
 10
1.6535
 20
0.9510
 30
 0.0
 42
1.0
  0
SEQEND
  8
SMT
  0
POLYLINE
  8
SMT
 66
      1
 70
1
 40
0.0050
 41
0.0050
  0
VERTEX
  8
SMT
 10
1.7185
 20
0.9510
 30
 0.0
 42
1.0
  0
VERTEX
  8
SMT
 10
1.7235
 20
0.9510
 30
 0.0
 42
1.0
  0
SEQEND
  8
SMT
  0
POLYLINE
  8
SMT
 66
      1
 70
0
 40
0.0100
 41
0.0100
  0
VERTEX
  8
SMT
 10
1.6510
 20
0.9600
 30
 0.0
  0
VERTEX
  8
SMT
 10
1.7210
 20
0.9600
 30
 0.0
  0
SEQEND
  8
SMT
  0
POLYLINE
  8
SMT
 66
      1
 70
1
 40
0.0050
 41
0.0050
  0
VERTEX
  8
SMT
 10
1.6485
 20
0.9600
 30
 0.0
 42
1.0
  0
VERTEX
  8
SMT
 10
1.6535
 20
0.9600
 30
 0.0
 42
1.0
  0
SEQEND
  8
SMT
  0
POLYLINE
  8
SMT
 66
      1
 70
1
 40
0.0050
 41
0.0050
  0
VERTEX
  8
SMT
 10
1.7185
 20
0.9600
 30
 0.0
 42
1.0
  0
VERTEX
  8
SMT
 10
1.7235
 20
0.9600
 30
 0.0
 42
1.0
  0
SEQEND
  8
SMT
  0
POLYLINE
  8
SMT
 66
      1
 70
0
 40
0.0100
 41
0.0100
  0
VERTEX
  8
SMT
 10
1.6510
 20
0.9690
 30
 0.0
  0
VERTEX
  8
SMT
 10
1.7210
 20
0.9690
 30
 0.0
  0
SEQEND
  8
SMT
  0
POLYLINE
  8
SMT
 66
      1
 70
1
 40
0.0050
 41
0.0050
  0
VERTEX
  8
SMT
 10
1.6485
 20
0.9690
 30
 0.0
 42
1.0
  0
VERTEX
  8
SMT
 10
1.6535
 20
0.9690
 30
 0.0
 42
1.0
  0
SEQEND
  8
SMT
  0
POLYLINE
  8
SMT
 66
      1
 70
1
 40
0.0050
 41
0.0050
  0
VERTEX
  8
SMT
 10
1.7185
 20
0.9690
 30
 0.0
 42
1.0
  0
VERTEX
  8
SMT
 10
1.7235
 20
0.9690
 30
 0.0
 42
1.0
  0
SEQEND
  8
SMT
  0
POLYLINE
  8
SMT
 66
      1
 70
0
 40
0.0100
 41
0.0100
  0
VERTEX
  8
SMT
 10
1.6510
 20
0.9780
 30
 0.0
  0
VERTEX
  8
SMT
 10
1.7210
 20
0.9780
 30
 0.0
  0
SEQEND
  8
SMT
  0
POLYLINE
  8
SMT
 66
      1
 70
1
 40
0.0050
 41
0.0050
  0
VERTEX
  8
SMT
 10
1.6485
 20
0.9780
 30
 0.0
 42
1.0
  0
VERTEX
  8
SMT
 10
1.6535
 20
0.9780
 30
 0.0
 42
1.0
  0
SEQEND
  8
SMT
  0
POLYLINE
  8
SMT
 66
      1
 70
1
 40
0.0050
 41
0.0050
  0
VERTEX
  8
SMT
 10
1.7185
 20
0.9780
 30
 0.0
 42
1.0
  0
VERTEX
  8
SMT
 10
1.7235
 20
0.9780
 30
 0.0
 42
1.0
  0
SEQEND
  8
SMT
  0
POLYLINE
  8
SMT
 66
      1
 70
0
 40
0.0100
 41
0.0100
  0
VERTEX
  8
SMT
 10
1.6510
 20
0.7890
 30
 0.0
  0
VERTEX
  8
SMT
 10
1.7210
 20
0.7890
 30
 0.0
  0
SEQEND
  8
SMT
  0
POLYLINE
  8
SMT
 66
      1
 70
1
 40
0.0050
 41
0.0050
  0
VERTEX
  8
SMT
 10
1.6485
 20
0.7890
 30
 0.0
 42
1.0
  0
VERTEX
  8
SMT
 10
1.6535
 20
0.7890
 30
 0.0
 42
1.0
  0
SEQEND
  8
SMT
  0
POLYLINE
  8
SMT
 66
      1
 70
1
 40
0.0050
 41
0.0050
  0
VERTEX
  8
SMT
 10
1.7185
 20
0.7890
 30
 0.0
 42
1.0
  0
VERTEX
  8
SMT
 10
1.7235
 20
0.7890
 30
 0.0
 42
1.0
  0
SEQEND
  8
SMT
  0
POLYLINE
  8
SMT
 66
      1
 70
0
 40
0.0100
 41
0.0100
  0
VERTEX
  8
SMT
 10
1.6510
 20
0.7980
 30
 0.0
  0
VERTEX
  8
SMT
 10
1.7210
 20
0.7980
 30
 0.0
  0
SEQEND
  8
SMT
  0
POLYLINE
  8
SMT
 66
      1
 70
1
 40
0.0050
 41
0.0050
  0
VERTEX
  8
SMT
 10
1.6485
 20
0.7980
 30
 0.0
 42
1.0
  0
VERTEX
  8
SMT
 10
1.6535
 20
0.7980
 30
 0.0
 42
1.0
  0
SEQEND
  8
SMT
  0
POLYLINE
  8
SMT
 66
      1
 70
1
 40
0.0050
 41
0.0050
  0
VERTEX
  8
SMT
 10
1.7185
 20
0.7980
 30
 0.0
 42
1.0
  0
VERTEX
  8
SMT
 10
1.7235
 20
0.7980
 30
 0.0
 42
1.0
  0
SEQEND
  8
SMT
  0
POLYLINE
  8
SMT
 66
      1
 70
0
 40
0.0100
 41
0.0100
  0
VERTEX
  8
SMT
 10
1.6510
 20
0.8070
 30
 0.0
  0
VERTEX
  8
SMT
 10
1.7210
 20
0.8070
 30
 0.0
  0
SEQEND
  8
SMT
  0
POLYLINE
  8
SMT
 66
      1
 70
1
 40
0.0050
 41
0.0050
  0
VERTEX
  8
SMT
 10
1.6485
 20
0.8070
 30
 0.0
 42
1.0
  0
VERTEX
  8
SMT
 10
1.6535
 20
0.8070
 30
 0.0
 42
1.0
  0
SEQEND
  8
SMT
  0
POLYLINE
  8
SMT
 66
      1
 70
1
 40
0.0050
 41
0.0050
  0
VERTEX
  8
SMT
 10
1.7185
 20
0.8070
 30
 0.0
 42
1.0
  0
VERTEX
  8
SMT
 10
1.7235
 20
0.8070
 30
 0.0
 42
1.0
  0
SEQEND
  8
SMT
  0
POLYLINE
  8
SMT
 66
      1
 70
0
 40
0.0100
 41
0.0100
  0
VERTEX
  8
SMT
 10
1.6510
 20
0.8160
 30
 0.0
  0
VERTEX
  8
SMT
 10
1.7210
 20
0.8160
 30
 0.0
  0
SEQEND
  8
SMT
  0
POLYLINE
  8
SMT
 66
      1
 70
1
 40
0.0050
 41
0.0050
  0
VERTEX
  8
SMT
 10
1.6485
 20
0.8160
 30
 0.0
 42
1.0
  0
VERTEX
  8
SMT
 10
1.6535
 20
0.8160
 30
 0.0
 42
1.0
  0
SEQEND
  8
SMT
  0
POLYLINE
  8
SMT
 66
      1
 70
1
 40
0.0050
 41
0.0050
  0
VERTEX
  8
SMT
 10
1.7185
 20
0.8160
 30
 0.0
 42
1.0
  0
VERTEX
  8
SMT
 10
1.7235
 20
0.8160
 30
 0.0
 42
1.0
  0
SEQEND
  8
SMT
  0
POLYLINE
  8
SMT
 66
      1
 70
0
 40
0.0100
 41
0.0100
  0
VERTEX
  8
SMT
 10
1.6510
 20
0.8250
 30
 0.0
  0
VERTEX
  8
SMT
 10
1.7210
 20
0.8250
 30
 0.0
  0
SEQEND
  8
SMT
  0
POLYLINE
  8
SMT
 66
      1
 70
1
 40
0.0050
 41
0.0050
  0
VERTEX
  8
SMT
 10
1.6485
 20
0.8250
 30
 0.0
 42
1.0
  0
VERTEX
  8
SMT
 10
1.6535
 20
0.8250
 30
 0.0
 42
1.0
  0
SEQEND
  8
SMT
  0
POLYLINE
  8
SMT
 66
      1
 70
1
 40
0.0050
 41
0.0050
  0
VERTEX
  8
SMT
 10
1.7185
 20
0.8250
 30
 0.0
 42
1.0
  0
VERTEX
  8
SMT
 10
1.7235
 20
0.8250
 30
 0.0
 42
1.0
  0
SEQEND
  8
SMT
  0
POLYLINE
  8
SMT
 66
      1
 70
0
 40
0.0100
 41
0.0100
  0
VERTEX
  8
SMT
 10
1.6510
 20
0.8340
 30
 0.0
  0
VERTEX
  8
SMT
 10
1.7210
 20
0.8340
 30
 0.0
  0
SEQEND
  8
SMT
  0
POLYLINE
  8
SMT
 66
      1
 70
1
 40
0.0050
 41
0.0050
  0
VERTEX
  8
SMT
 10
1.6485
 20
0.8340
 30
 0.0
 42
1.0
  0
VERTEX
  8
SMT
 10
1.6535
 20
0.8340
 30
 0.0
 42
1.0
  0
SEQEND
  8
SMT
  0
POLYLINE
  8
SMT
 66
      1
 70
1
 40
0.0050
 41
0.0050
  0
VERTEX
  8
SMT
 10
1.7185
 20
0.8340
 30
 0.0
 42
1.0
  0
VERTEX
  8
SMT
 10
1.7235
 20
0.8340
 30
 0.0
 42
1.0
  0
SEQEND
  8
SMT
  0
POLYLINE
  8
SMT
 66
      1
 70
0
 40
0.0100
 41
0.0100
  0
VERTEX
  8
SMT
 10
1.6510
 20
0.8430
 30
 0.0
  0
VERTEX
  8
SMT
 10
1.7210
 20
0.8430
 30
 0.0
  0
SEQEND
  8
SMT
  0
POLYLINE
  8
SMT
 66
      1
 70
1
 40
0.0050
 41
0.0050
  0
VERTEX
  8
SMT
 10
1.6485
 20
0.8430
 30
 0.0
 42
1.0
  0
VERTEX
  8
SMT
 10
1.6535
 20
0.8430
 30
 0.0
 42
1.0
  0
SEQEND
  8
SMT
  0
POLYLINE
  8
SMT
 66
      1
 70
1
 40
0.0050
 41
0.0050
  0
VERTEX
  8
SMT
 10
1.7185
 20
0.8430
 30
 0.0
 42
1.0
  0
VERTEX
  8
SMT
 10
1.7235
 20
0.8430
 30
 0.0
 42
1.0
  0
SEQEND
  8
SMT
  0
POLYLINE
  8
SMT
 66
      1
 70
0
 40
0.0100
 41
0.0100
  0
VERTEX
  8
SMT
 10
1.6510
 20
0.8520
 30
 0.0
  0
VERTEX
  8
SMT
 10
1.7210
 20
0.8520
 30
 0.0
  0
SEQEND
  8
SMT
  0
POLYLINE
  8
SMT
 66
      1
 70
1
 40
0.0050
 41
0.0050
  0
VERTEX
  8
SMT
 10
1.6485
 20
0.8520
 30
 0.0
 42
1.0
  0
VERTEX
  8
SMT
 10
1.6535
 20
0.8520
 30
 0.0
 42
1.0
  0
SEQEND
  8
SMT
  0
POLYLINE
  8
SMT
 66
      1
 70
1
 40
0.0050
 41
0.0050
  0
VERTEX
  8
SMT
 10
1.7185
 20
0.8520
 30
 0.0
 42
1.0
  0
VERTEX
  8
SMT
 10
1.7235
 20
0.8520
 30
 0.0
 42
1.0
  0
SEQEND
  8
SMT
  0
POLYLINE
  8
SMT
 66
      1
 70
0
 40
0.0100
 41
0.0100
  0
VERTEX
  8
SMT
 10
1.6510
 20
0.8610
 30
 0.0
  0
VERTEX
  8
SMT
 10
1.7210
 20
0.8610
 30
 0.0
  0
SEQEND
  8
SMT
  0
POLYLINE
  8
SMT
 66
      1
 70
1
 40
0.0050
 41
0.0050
  0
VERTEX
  8
SMT
 10
1.6485
 20
0.8610
 30
 0.0
 42
1.0
  0
VERTEX
  8
SMT
 10
1.6535
 20
0.8610
 30
 0.0
 42
1.0
  0
SEQEND
  8
SMT
  0
POLYLINE
  8
SMT
 66
      1
 70
1
 40
0.0050
 41
0.0050
  0
VERTEX
  8
SMT
 10
1.7185
 20
0.8610
 30
 0.0
 42
1.0
  0
VERTEX
  8
SMT
 10
1.7235
 20
0.8610
 30
 0.0
 42
1.0
  0
SEQEND
  8
SMT
  0
POLYLINE
  8
SMT
 66
      1
 70
0
 40
0.0100
 41
0.0100
  0
VERTEX
  8
SMT
 10
1.6510
 20
0.8700
 30
 0.0
  0
VERTEX
  8
SMT
 10
1.7210
 20
0.8700
 30
 0.0
  0
SEQEND
  8
SMT
  0
POLYLINE
  8
SMT
 66
      1
 70
1
 40
0.0050
 41
0.0050
  0
VERTEX
  8
SMT
 10
1.6485
 20
0.8700
 30
 0.0
 42
1.0
  0
VERTEX
  8
SMT
 10
1.6535
 20
0.8700
 30
 0.0
 42
1.0
  0
SEQEND
  8
SMT
  0
POLYLINE
  8
SMT
 66
      1
 70
1
 40
0.0050
 41
0.0050
  0
VERTEX
  8
SMT
 10
1.7185
 20
0.8700
 30
 0.0
 42
1.0
  0
VERTEX
  8
SMT
 10
1.7235
 20
0.8700
 30
 0.0
 42
1.0
  0
SEQEND
  8
SMT
  0
POLYLINE
  8
SMT
 66
      1
 70
0
 40
0.0100
 41
0.0100
  0
VERTEX
  8
SMT
 10
1.6510
 20
0.8790
 30
 0.0
  0
VERTEX
  8
SMT
 10
1.7210
 20
0.8790
 30
 0.0
  0
SEQEND
  8
SMT
  0
POLYLINE
  8
SMT
 66
      1
 70
1
 40
0.0050
 41
0.0050
  0
VERTEX
  8
SMT
 10
1.6485
 20
0.8790
 30
 0.0
 42
1.0
  0
VERTEX
  8
SMT
 10
1.6535
 20
0.8790
 30
 0.0
 42
1.0
  0
SEQEND
  8
SMT
  0
POLYLINE
  8
SMT
 66
      1
 70
1
 40
0.0050
 41
0.0050
  0
VERTEX
  8
SMT
 10
1.7185
 20
0.8790
 30
 0.0
 42
1.0
  0
VERTEX
  8
SMT
 10
1.7235
 20
0.8790
 30
 0.0
 42
1.0
  0
SEQEND
  8
SMT
  0
POLYLINE
  8
0
 66
      1
 70
1
 40
0.0010
 41
0.0010
  0
VERTEX
  8
0
 10
1.5860
 20
1.2010
 30
 0.0
  0
VERTEX
  8
0
 10
1.5860
 20
0.9110
 30
 0.0
 42
0.8039140588936162
  0
VERTEX
  8
0
 10
1.7860
 20
0.9110
 30
 0.0
  0
VERTEX
  8
0
 10
1.7860
 20
1.2010
 30
 0.0
 42
0.8039140588936165
  0
VERTEX
  8
0
 10
1.5860
 20
1.2010
 30
 0.0
  0
SEQEND
  8
0
  0
POLYLINE
  8
0
 66
      1
 70
1
 40
0.0005
 41
0.0005
  0
VERTEX
  8
0
 10
1.5857
 20
1.2010
 30
 0.0
 42
1.0
  0
VERTEX
  8
0
 10
1.5862
 20
1.2010
 30
 0.0
 42
1.0
  0
SEQEND
  8
0
  0
POLYLINE
  8
0
 66
      1
 70
1
 40
0.0005
 41
0.0005
  0
VERTEX
  8
0
 10
1.5857
 20
0.9110
 30
 0.0
 42
1.0
  0
VERTEX
  8
0
 10
1.5862
 20
0.9110
 30
 0.0
 42
1.0
  0
SEQEND
  8
0
  0
POLYLINE
  8
0
 66
      1
 70
1
 40
0.0005
 41
0.0005
  0
VERTEX
  8
0
 10
1.7858
 20
0.9110
 30
 0.0
 42
1.0
  0
VERTEX
  8
0
 10
1.7863
 20
0.9110
 30
 0.0
 42
1.0
  0
SEQEND
  8
0
  0
POLYLINE
  8
0
 66
      1
 70
1
 40
0.0005
 41
0.0005
  0
VERTEX
  8
0
 10
1.7858
 20
1.2010
 30
 0.0
 42
1.0
  0
VERTEX
  8
0
 10
1.7863
 20
1.2010
 30
 0.0
 42
1.0
  0
SEQEND
  8
0
  0
POLYLINE
  8
0
 66
      1
 70
1
 40
0.0005
 41
0.0005
  0
VERTEX
  8
0
 10
1.5857
 20
1.2010
 30
 0.0
 42
1.0
  0
VERTEX
  8
0
 10
1.5862
 20
1.2010
 30
 0.0
 42
1.0
  0
SEQEND
  8
0
  0
POLYLINE
  8
SST
 66
      1
 70
1
 40
0.0100
 41
0.0100
  0
VERTEX
  8
SST
 10
1.7860
 20
1.2460
 30
 0.0
 42
0.9999999999999999
  0
VERTEX
  8
SST
 10
1.5860
 20
1.2460
 30
 0.0
  0
VERTEX
  8
SST
 10
1.5860
 20
0.8660
 30
 0.0
 42
0.9999999999999999
  0
VERTEX
  8
SST
 10
1.7860
 20
0.8660
 30
 0.0
  0
VERTEX
  8
SST
 10
1.7860
 20
1.2460
 30
 0.0
  0
SEQEND
  8
SST
  0
POLYLINE
  8
SST
 66
      1
 70
1
 40
0.0050
 41
0.0050
  0
VERTEX
  8
SST
 10
1.7835
 20
1.2460
 30
 0.0
 42
1.0
  0
VERTEX
  8
SST
 10
1.7885
 20
1.2460
 30
 0.0
 42
1.0
  0
SEQEND
  8
SST
  0
POLYLINE
  8
SST
 66
      1
 70
1
 40
0.0050
 41
0.0050
  0
VERTEX
  8
SST
 10
1.5835
 20
1.2460
 30
 0.0
 42
1.0
  0
VERTEX
  8
SST
 10
1.5885
 20
1.2460
 30
 0.0
 42
1.0
  0
SEQEND
  8
SST
  0
POLYLINE
  8
SST
 66
      1
 70
1
 40
0.0050
 41
0.0050
  0
VERTEX
  8
SST
 10
1.5835
 20
0.8660
 30
 0.0
 42
1.0
  0
VERTEX
  8
SST
 10
1.5885
 20
0.8660
 30
 0.0
 42
1.0
  0
SEQEND
  8
SST
  0
POLYLINE
  8
SST
 66
      1
 70
1
 40
0.0050
 41
0.0050
  0
VERTEX
  8
SST
 10
1.7835
 20
0.8660
 30
 0.0
 42
1.0
  0
VERTEX
  8
SST
 10
1.7885
 20
0.8660
 30
 0.0
 42
1.0
  0
SEQEND
  8
SST
  0
POLYLINE
  8
SST
 66
      1
 70
1
 40
0.0050
 41
0.0050
  0
VERTEX
  8
SST
 10
1.7835
 20
1.2460
 30
 0.0
 42
1.0
  0
VERTEX
  8
SST
 10
1.7885
 20
1.2460
 30
 0.0
 42
1.0
  0
SEQEND
  8
SST
  0
POLYLINE
  8
DRL
 66
      1
 70
1
 40
0.0100
 41
0.0100
  0
VERTEX
  8
DRL
 10
0.0290
 20
0.4740
 30
 0.0
  0
VERTEX
  8
DRL
 10
2.3910
 20
0.4740
 30
 0.0
  0
VERTEX
  8
DRL
 10
2.3910
 20
1.3670
 30
 0.0
  0
VERTEX
  8
DRL
 10
0.0290
 20
1.3670
 30
 0.0
  0
VERTEX
  8
DRL
 10
0.0290
 20
0.4740
 30
 0.0
  0
SEQEND
  8
DRL
  0
POLYLINE
  8
DRL
 66
      1
 70
1
 40
0.0050
 41
0.0050
  0
VERTEX
  8
DRL
 10
0.0265
 20
0.4740
 30
 0.0
 42
1.0
  0
VERTEX
  8
DRL
 10
0.0315
 20
0.4740
 30
 0.0
 42
1.0
  0
SEQEND
  8
DRL
  0
POLYLINE
  8
DRL
 66
      1
 70
1
 40
0.0050
 41
0.0050
  0
VERTEX
  8
DRL
 10
2.3885
 20
0.4740
 30
 0.0
 42
1.0
  0
VERTEX
  8
DRL
 10
2.3935
 20
0.4740
 30
 0.0
 42
1.0
  0
SEQEND
  8
DRL
  0
POLYLINE
  8
DRL
 66
      1
 70
1
 40
0.0050
 41
0.0050
  0
VERTEX
  8
DRL
 10
2.3885
 20
1.3670
 30
 0.0
 42
1.0
  0
VERTEX
  8
DRL
 10
2.3935
 20
1.3670
 30
 0.0
 42
1.0
  0
SEQEND
  8
DRL
  0
POLYLINE
  8
DRL
 66
      1
 70
1
 40
0.0050
 41
0.0050
  0
VERTEX
  8
DRL
 10
0.0265
 20
1.3670
 30
 0.0
 42
1.0
  0
VERTEX
  8
DRL
 10
0.0315
 20
1.3670
 30
 0.0
 42
1.0
  0
SEQEND
  8
DRL
  0
POLYLINE
  8
DRL
 66
      1
 70
1
 40
0.0050
 41
0.0050
  0
VERTEX
  8
DRL
 10
0.0265
 20
0.4740
 30
 0.0
 42
1.0
  0
VERTEX
  8
DRL
 10
0.0315
 20
0.4740
 30
 0.0
 42
1.0
  0
SEQEND
  8
DRL
  0
POLYLINE
  8
SST
 66
      1
 70
0
 40
0.0100
 41
0.0100
  0
VERTEX
  8
SST
 10
0.1230
 20
1.0680
 30
 0.0
  0
VERTEX
  8
SST
 10
0.1860
 20
1.0680
 30
 0.0
  0
VERTEX
  8
SST
 10
0.1860
 20
0.9850
 30
 0.0
  0
SEQEND
  8
SST
  0
POLYLINE
  8
SST
 66
      1
 70
1
 40
0.0050
 41
0.0050
  0
VERTEX
  8
SST
 10
0.1205
 20
1.0680
 30
 0.0
 42
1.0
  0
VERTEX
  8
SST
 10
0.1255
 20
1.0680
 30
 0.0
 42
1.0
  0
SEQEND
  8
SST
  0
POLYLINE
  8
SST
 66
      1
 70
1
 40
0.0050
 41
0.0050
  0
VERTEX
  8
SST
 10
0.1835
 20
1.0680
 30
 0.0
 42
1.0
  0
VERTEX
  8
SST
 10
0.1885
 20
1.0680
 30
 0.0
 42
1.0
  0
SEQEND
  8
SST
  0
POLYLINE
  8
SST
 66
      1
 70
1
 40
0.0050
 41
0.0050
  0
VERTEX
  8
SST
 10
0.1835
 20
0.9850
 30
 0.0
 42
1.0
  0
VERTEX
  8
SST
 10
0.1885
 20
0.9850
 30
 0.0
 42
1.0
  0
SEQEND
  8
SST
  0
POLYLINE
  8
SST
 66
      1
 70
0
 40
0.0100
 41
0.0100
  0
VERTEX
  8
SST
 10
0.1860
 20
0.8430
 30
 0.0
  0
VERTEX
  8
SST
 10
0.1860
 20
0.7610
 30
 0.0
  0
VERTEX
  8
SST
 10
0.1230
 20
0.7610
 30
 0.0
  0
SEQEND
  8
SST
  0
POLYLINE
  8
SST
 66
      1
 70
1
 40
0.0050
 41
0.0050
  0
VERTEX
  8
SST
 10
0.1835
 20
0.8430
 30
 0.0
 42
1.0
  0
VERTEX
  8
SST
 10
0.1885
 20
0.8430
 30
 0.0
 42
1.0
  0
SEQEND
  8
SST
  0
POLYLINE
  8
SST
 66
      1
 70
1
 40
0.0050
 41
0.0050
  0
VERTEX
  8
SST
 10
0.1835
 20
0.7610
 30
 0.0
 42
1.0
  0
VERTEX
  8
SST
 10
0.1885
 20
0.7610
 30
 0.0
 42
1.0
  0
SEQEND
  8
SST
  0
POLYLINE
  8
SST
 66
      1
 70
1
 40
0.0050
 41
0.0050
  0
VERTEX
  8
SST
 10
0.1205
 20
0.7610
 30
 0.0
 42
1.0
  0
VERTEX
  8
SST
 10
0.1255
 20
0.7610
 30
 0.0
 42
1.0
  0
SEQEND
  8
SST
  0
POLYLINE
  8
SST
 66
      1
 70
1
 40
0.0100
 41
0.0100
  0
VERTEX
  8
SST
 10
0.0460
 20
0.7620
 30
 0.0
  0
VERTEX
  8
SST
 10
0.1050
 20
0.7620
 30
 0.0
  0
VERTEX
  8
SST
 10
0.1050
 20
0.6920
 30
 0.0
  0
VERTEX
  8
SST
 10
0.2170
 20
0.6920
 30
 0.0
  0
VERTEX
  8
SST
 10
0.2170
 20
0.7620
 30
 0.0
  0
VERTEX
  8
SST
 10
0.3220
 20
0.7620
 30
 0.0
  0
VERTEX
  8
SST
 10
0.3220
 20
0.6920
 30
 0.0
  0
VERTEX
  8
SST
 10
0.4670
 20
0.6920
 30
 0.0
  0
VERTEX
  8
SST
 10
0.4670
 20
1.1380
 30
 0.0
  0
VERTEX
  8
SST
 10
0.3220
 20
1.1380
 30
 0.0
  0
VERTEX
  8
SST
 10
0.3220
 20
1.0660
 30
 0.0
  0
VERTEX
  8
SST
 10
0.2170
 20
1.0660
 30
 0.0
  0
VERTEX
  8
SST
 10
0.2170
 20
1.1380
 30
 0.0
  0
VERTEX
  8
SST
 10
0.1050
 20
1.1380
 30
 0.0
  0
VERTEX
  8
SST
 10
0.1050
 20
1.0680
 30
 0.0
  0
VERTEX
  8
SST
 10
0.0460
 20
1.0680
 30
 0.0
  0
VERTEX
  8
SST
 10
0.0460
 20
0.7620
 30
 0.0
  0
SEQEND
  8
SST
  0
POLYLINE
  8
SST
 66
      1
 70
1
 40
0.0050
 41
0.0050
  0
VERTEX
  8
SST
 10
0.0435
 20
0.7620
 30
 0.0
 42
1.0
  0
VERTEX
  8
SST
 10
0.0485
 20
0.7620
 30
 0.0
 42
1.0
  0
SEQEND
  8
SST
  0
POLYLINE
  8
SST
 66
      1
 70
1
 40
0.0050
 41
0.0050
  0
VERTEX
  8
SST
 10
0.1025
 20
0.7620
 30
 0.0
 42
1.0
  0
VERTEX
  8
SST
 10
0.1075
 20
0.7620
 30
 0.0
 42
1.0
  0
SEQEND
  8
SST
  0
POLYLINE
  8
SST
 66
      1
 70
1
 40
0.0050
 41
0.0050
  0
VERTEX
  8
SST
 10
0.1025
 20
0.6920
 30
 0.0
 42
1.0
  0
VERTEX
  8
SST
 10
0.1075
 20
0.6920
 30
 0.0
 42
1.0
  0
SEQEND
  8
SST
  0
POLYLINE
  8
SST
 66
      1
 70
1
 40
0.0050
 41
0.0050
  0
VERTEX
  8
SST
 10
0.2145
 20
0.6920
 30
 0.0
 42
1.0
  0
VERTEX
  8
SST
 10
0.2195
 20
0.6920
 30
 0.0
 42
1.0
  0
SEQEND
  8
SST
  0
POLYLINE
  8
SST
 66
      1
 70
1
 40
0.0050
 41
0.0050
  0
VERTEX
  8
SST
 10
0.2145
 20
0.7620
 30
 0.0
 42
1.0
  0
VERTEX
  8
SST
 10
0.2195
 20
0.7620
 30
 0.0
 42
1.0
  0
SEQEND
  8
SST
  0
POLYLINE
  8
SST
 66
      1
 70
1
 40
0.0050
 41
0.0050
  0
VERTEX
  8
SST
 10
0.3195
 20
0.7620
 30
 0.0
 42
1.0
  0
VERTEX
  8
SST
 10
0.3245
 20
0.7620
 30
 0.0
 42
1.0
  0
SEQEND
  8
SST
  0
POLYLINE
  8
SST
 66
      1
 70
1
 40
0.0050
 41
0.0050
  0
VERTEX
  8
SST
 10
0.3195
 20
0.6920
 30
 0.0
 42
1.0
  0
VERTEX
  8
SST
 10
0.3245
 20
0.6920
 30
 0.0
 42
1.0
  0
SEQEND
  8
SST
  0
POLYLINE
  8
SST
 66
      1
 70
1
 40
0.0050
 41
0.0050
  0
VERTEX
  8
SST
 10
0.4645
 20
0.6920
 30
 0.0
 42
1.0
  0
VERTEX
  8
SST
 10
0.4695
 20
0.6920
 30
 0.0
 42
1.0
  0
SEQEND
  8
SST
  0
POLYLINE
  8
SST
 66
      1
 70
1
 40
0.0050
 41
0.0050
  0
VERTEX
  8
SST
 10
0.4645
 20
1.1380
 30
 0.0
 42
1.0
  0
VERTEX
  8
SST
 10
0.4695
 20
1.1380
 30
 0.0
 42
1.0
  0
SEQEND
  8
SST
  0
POLYLINE
  8
SST
 66
      1
 70
1
 40
0.0050
 41
0.0050
  0
VERTEX
  8
SST
 10
0.3195
 20
1.1380
 30
 0.0
 42
1.0
  0
VERTEX
  8
SST
 10
0.3245
 20
1.1380
 30
 0.0
 42
1.0
  0
SEQEND
  8
SST
  0
POLYLINE
  8
SST
 66
      1
 70
1
 40
0.0050
 41
0.0050
  0
VERTEX
  8
SST
 10
0.3195
 20
1.0660
 30
 0.0
 42
1.0
  0
VERTEX
  8
SST
 10
0.3245
 20
1.0660
 30
 0.0
 42
1.0
  0
SEQEND
  8
SST
  0
POLYLINE
  8
SST
 66
      1
 70
1
 40
0.0050
 41
0.0050
  0
VERTEX
  8
SST
 10
0.2145
 20
1.0660
 30
 0.0
 42
1.0
  0
VERTEX
  8
SST
 10
0.2195
 20
1.0660
 30
 0.0
 42
1.0
  0
SEQEND
  8
SST
  0
POLYLINE
  8
SST
 66
      1
 70
1
 40
0.0050
 41
0.0050
  0
VERTEX
  8
SST
 10
0.2145
 20
1.1380
 30
 0.0
 42
1.0
  0
VERTEX
  8
SST
 10
0.2195
 20
1.1380
 30
 0.0
 42
1.0
  0
SEQEND
  8
SST
  0
POLYLINE
  8
SST
 66
      1
 70
1
 40
0.0050
 41
0.0050
  0
VERTEX
  8
SST
 10
0.1025
 20
1.1380
 30
 0.0
 42
1.0
  0
VERTEX
  8
SST
 10
0.1075
 20
1.1380
 30
 0.0
 42
1.0
  0
SEQEND
  8
SST
  0
POLYLINE
  8
SST
 66
      1
 70
1
 40
0.0050
 41
0.0050
  0
VERTEX
  8
SST
 10
0.1025
 20
1.0680
 30
 0.0
 42
1.0
  0
VERTEX
  8
SST
 10
0.1075
 20
1.0680
 30
 0.0
 42
1.0
  0
SEQEND
  8
SST
  0
POLYLINE
  8
SST
 66
      1
 70
1
 40
0.0050
 41
0.0050
  0
VERTEX
  8
SST
 10
0.0435
 20
1.0680
 30
 0.0
 42
1.0
  0
VERTEX
  8
SST
 10
0.0485
 20
1.0680
 30
 0.0
 42
1.0
  0
SEQEND
  8
SST
  0
POLYLINE
  8
SST
 66
      1
 70
1
 40
0.0050
 41
0.0050
  0
VERTEX
  8
SST
 10
0.0435
 20
0.7620
 30
 0.0
 42
1.0
  0
VERTEX
  8
SST
 10
0.0485
 20
0.7620
 30
 0.0
 42
1.0
  0
SEQEND
  8
SST
  0
POLYLINE
  8
SST
 66
      1
 70
0
 40
0.0100
 41
0.0100
  0
VERTEX
  8
SST
 10
0.1860
 20
0.8430
 30
 0.0
  0
VERTEX
  8
SST
 10
0.1860
 20
0.7610
 30
 0.0
  0
VERTEX
  8
SST
 10
0.1230
 20
0.7610
 30
 0.0
  0
SEQEND
  8
SST
  0
POLYLINE
  8
SST
 66
      1
 70
1
 40
0.0050
 41
0.0050
  0
VERTEX
  8
SST
 10
0.1835
 20
0.8430
 30
 0.0
 42
1.0
  0
VERTEX
  8
SST
 10
0.1885
 20
0.8430
 30
 0.0
 42
1.0
  0
SEQEND
  8
SST
  0
POLYLINE
  8
SST
 66
      1
 70
1
 40
0.0050
 41
0.0050
  0
VERTEX
  8
SST
 10
0.1835
 20
0.7610
 30
 0.0
 42
1.0
  0
VERTEX
  8
SST
 10
0.1885
 20
0.7610
 30
 0.0
 42
1.0
  0
SEQEND
  8
SST
  0
POLYLINE
  8
SST
 66
      1
 70
1
 40
0.0050
 41
0.0050
  0
VERTEX
  8
SST
 10
0.1205
 20
0.7610
 30
 0.0
 42
1.0
  0
VERTEX
  8
SST
 10
0.1255
 20
0.7610
 30
 0.0
 42
1.0
  0
SEQEND
  8
SST
  0
POLYLINE
  8
SST
 66
      1
 70
1
 40
0.0100
 41
0.0100
  0
VERTEX
  8
SST
 10
1.1960
 20
0.6220
 30
 0.0
  0
VERTEX
  8
SST
 10
1.1960
 20
0.6860
 30
 0.0
  0
VERTEX
  8
SST
 10
1.3110
 20
0.6860
 30
 0.0
  0
VERTEX
  8
SST
 10
1.3110
 20
0.6220
 30
 0.0
  0
VERTEX
  8
SST
 10
1.1960
 20
0.6220
 30
 0.0
  0
SEQEND
  8
SST
  0
POLYLINE
  8
SST
 66
      1
 70
1
 40
0.0050
 41
0.0050
  0
VERTEX
  8
SST
 10
1.1935
 20
0.6220
 30
 0.0
 42
1.0
  0
VERTEX
  8
SST
 10
1.1985
 20
0.6220
 30
 0.0
 42
1.0
  0
SEQEND
  8
SST
  0
POLYLINE
  8
SST
 66
      1
 70
1
 40
0.0050
 41
0.0050
  0
VERTEX
  8
SST
 10
1.1935
 20
0.6860
 30
 0.0
 42
1.0
  0
VERTEX
  8
SST
 10
1.1985
 20
0.6860
 30
 0.0
 42
1.0
  0
SEQEND
  8
SST
  0
POLYLINE
  8
SST
 66
      1
 70
1
 40
0.0050
 41
0.0050
  0
VERTEX
  8
SST
 10
1.3085
 20
0.6860
 30
 0.0
 42
1.0
  0
VERTEX
  8
SST
 10
1.3135
 20
0.6860
 30
 0.0
 42
1.0
  0
SEQEND
  8
SST
  0
POLYLINE
  8
SST
 66
      1
 70
1
 40
0.0050
 41
0.0050
  0
VERTEX
  8
SST
 10
1.3085
 20
0.6220
 30
 0.0
 42
1.0
  0
VERTEX
  8
SST
 10
1.3135
 20
0.6220
 30
 0.0
 42
1.0
  0
SEQEND
  8
SST
  0
POLYLINE
  8
SST
 66
      1
 70
1
 40
0.0050
 41
0.0050
  0
VERTEX
  8
SST
 10
1.1935
 20
0.6220
 30
 0.0
 42
1.0
  0
VERTEX
  8
SST
 10
1.1985
 20
0.6220
 30
 0.0
 42
1.0
  0
SEQEND
  8
SST
  0
POLYLINE
  8
SST
 66
      1
 70
1
 40
0.0100
 41
0.0100
  0
VERTEX
  8
SST
 10
2.0030
 20
0.7580
 30
 0.0
  0
VERTEX
  8
SST
 10
2.0030
 20
0.6930
 30
 0.0
  0
VERTEX
  8
SST
 10
1.8880
 20
0.6930
 30
 0.0
  0
VERTEX
  8
SST
 10
1.8880
 20
0.7580
 30
 0.0
  0
VERTEX
  8
SST
 10
2.0030
 20
0.7580
 30
 0.0
  0
SEQEND
  8
SST
  0
POLYLINE
  8
SST
 66
      1
 70
1
 40
0.0050
 41
0.0050
  0
VERTEX
  8
SST
 10
2.0005
 20
0.7580
 30
 0.0
 42
1.0
  0
VERTEX
  8
SST
 10
2.0055
 20
0.7580
 30
 0.0
 42
1.0
  0
SEQEND
  8
SST
  0
POLYLINE
  8
SST
 66
      1
 70
1
 40
0.0050
 41
0.0050
  0
VERTEX
  8
SST
 10
2.0005
 20
0.6930
 30
 0.0
 42
1.0
  0
VERTEX
  8
SST
 10
2.0055
 20
0.6930
 30
 0.0
 42
1.0
  0
SEQEND
  8
SST
  0
POLYLINE
  8
SST
 66
      1
 70
1
 40
0.0050
 41
0.0050
  0
VERTEX
  8
SST
 10
1.8855
 20
0.6930
 30
 0.0
 42
1.0
  0
VERTEX
  8
SST
 10
1.8905
 20
0.6930
 30
 0.0
 42
1.0
  0
SEQEND
  8
SST
  0
POLYLINE
  8
SST
 66
      1
 70
1
 40
0.0050
 41
0.0050
  0
VERTEX
  8
SST
 10
1.8855
 20
0.7580
 30
 0.0
 42
1.0
  0
VERTEX
  8
SST
 10
1.8905
 20
0.7580
 30
 0.0
 42
1.0
  0
SEQEND
  8
SST
  0
POLYLINE
  8
SST
 66
      1
 70
1
 40
0.0050
 41
0.0050
  0
VERTEX
  8
SST
 10
2.0005
 20
0.7580
 30
 0.0
 42
1.0
  0
VERTEX
  8
SST
 10
2.0055
 20
0.7580
 30
 0.0
 42
1.0
  0
SEQEND
  8
SST
  0
POLYLINE
  8
SST
 66
      1
 70
1
 40
0.0100
 41
0.0100
  0
VERTEX
  8
SST
 10
1.8350
 20
1.2280
 30
 0.0
  0
VERTEX
  8
SST
 10
1.8990
 20
1.2280
 30
 0.0
  0
VERTEX
  8
SST
 10
1.8990
 20
1.1120
 30
 0.0
  0
VERTEX
  8
SST
 10
1.8350
 20
1.1120
 30
 0.0
  0
VERTEX
  8
SST
 10
1.8350
 20
1.2280
 30
 0.0
  0
SEQEND
  8
SST
  0
POLYLINE
  8
SST
 66
      1
 70
1
 40
0.0050
 41
0.0050
  0
VERTEX
  8
SST
 10
1.8325
 20
1.2280
 30
 0.0
 42
1.0
  0
VERTEX
  8
SST
 10
1.8375
 20
1.2280
 30
 0.0
 42
1.0
  0
SEQEND
  8
SST
  0
POLYLINE
  8
SST
 66
      1
 70
1
 40
0.0050
 41
0.0050
  0
VERTEX
  8
SST
 10
1.8965
 20
1.2280
 30
 0.0
 42
1.0
  0
VERTEX
  8
SST
 10
1.9015
 20
1.2280
 30
 0.0
 42
1.0
  0
SEQEND
  8
SST
  0
POLYLINE
  8
SST
 66
      1
 70
1
 40
0.0050
 41
0.0050
  0
VERTEX
  8
SST
 10
1.8965
 20
1.1120
 30
 0.0
 42
1.0
  0
VERTEX
  8
SST
 10
1.9015
 20
1.1120
 30
 0.0
 42
1.0
  0
SEQEND
  8
SST
  0
POLYLINE
  8
SST
 66
      1
 70
1
 40
0.0050
 41
0.0050
  0
VERTEX
  8
SST
 10
1.8325
 20
1.1120
 30
 0.0
 42
1.0
  0
VERTEX
  8
SST
 10
1.8375
 20
1.1120
 30
 0.0
 42
1.0
  0
SEQEND
  8
SST
  0
POLYLINE
  8
SST
 66
      1
 70
1
 40
0.0050
 41
0.0050
  0
VERTEX
  8
SST
 10
1.8325
 20
1.2280
 30
 0.0
 42
1.0
  0
VERTEX
  8
SST
 10
1.8375
 20
1.2280
 30
 0.0
 42
1.0
  0
SEQEND
  8
SST
  0
POLYLINE
  8
SST
 66
      1
 70
1
 40
0.0100
 41
0.0100
  0
VERTEX
  8
SST
 10
1.1700
 20
1.2880
 30
 0.0
  0
VERTEX
  8
SST
 10
1.1700
 20
1.2240
 30
 0.0
  0
VERTEX
  8
SST
 10
1.0540
 20
1.2240
 30
 0.0
  0
VERTEX
  8
SST
 10
1.0540
 20
1.2880
 30
 0.0
  0
VERTEX
  8
SST
 10
1.1700
 20
1.2880
 30
 0.0
  0
SEQEND
  8
SST
  0
POLYLINE
  8
SST
 66
      1
 70
1
 40
0.0050
 41
0.0050
  0
VERTEX
  8
SST
 10
1.1675
 20
1.2880
 30
 0.0
 42
1.0
  0
VERTEX
  8
SST
 10
1.1725
 20
1.2880
 30
 0.0
 42
1.0
  0
SEQEND
  8
SST
  0
POLYLINE
  8
SST
 66
      1
 70
1
 40
0.0050
 41
0.0050
  0
VERTEX
  8
SST
 10
1.1675
 20
1.2240
 30
 0.0
 42
1.0
  0
VERTEX
  8
SST
 10
1.1725
 20
1.2240
 30
 0.0
 42
1.0
  0
SEQEND
  8
SST
  0
POLYLINE
  8
SST
 66
      1
 70
1
 40
0.0050
 41
0.0050
  0
VERTEX
  8
SST
 10
1.0515
 20
1.2240
 30
 0.0
 42
1.0
  0
VERTEX
  8
SST
 10
1.0565
 20
1.2240
 30
 0.0
 42
1.0
  0
SEQEND
  8
SST
  0
POLYLINE
  8
SST
 66
      1
 70
1
 40
0.0050
 41
0.0050
  0
VERTEX
  8
SST
 10
1.0515
 20
1.2880
 30
 0.0
 42
1.0
  0
VERTEX
  8
SST
 10
1.0565
 20
1.2880
 30
 0.0
 42
1.0
  0
SEQEND
  8
SST
  0
POLYLINE
  8
SST
 66
      1
 70
1
 40
0.0050
 41
0.0050
  0
VERTEX
  8
SST
 10
1.1675
 20
1.2880
 30
 0.0
 42
1.0
  0
VERTEX
  8
SST
 10
1.1725
 20
1.2880
 30
 0.0
 42
1.0
  0
SEQEND
  8
SST
  0
POLYLINE
  8
SST
 66
      1
 70
0
 40
0.0080
 41
0.0080
  0
VERTEX
  8
SST
 10
1.3170
 20
1.2520
 30
 0.0
  0
VERTEX
  8
SST
 10
1.2790
 20
1.2770
 30
 0.0
  0
SEQEND
  8
SST
  0
POLYLINE
  8
SST
 66
      1
 70
1
 40
0.0040
 41
0.0040
  0
VERTEX
  8
SST
 10
1.3150
 20
1.2520
 30
 0.0
 42
1.0
  0
VERTEX
  8
SST
 10
1.3190
 20
1.2520
 30
 0.0
 42
1.0
  0
SEQEND
  8
SST
  0
POLYLINE
  8
SST
 66
      1
 70
1
 40
0.0040
 41
0.0040
  0
VERTEX
  8
SST
 10
1.2770
 20
1.2770
 30
 0.0
 42
1.0
  0
VERTEX
  8
SST
 10
1.2810
 20
1.2770
 30
 0.0
 42
1.0
  0
SEQEND
  8
SST
  0
POLYLINE
  8
SST
 66
      1
 70
0
 40
0.0080
 41
0.0080
  0
VERTEX
  8
SST
 10
1.3170
 20
1.2520
 30
 0.0
  0
VERTEX
  8
SST
 10
1.2790
 20
1.2270
 30
 0.0
  0
SEQEND
  8
SST
  0
POLYLINE
  8
SST
 66
      1
 70
1
 40
0.0040
 41
0.0040
  0
VERTEX
  8
SST
 10
1.3150
 20
1.2520
 30
 0.0
 42
1.0
  0
VERTEX
  8
SST
 10
1.3190
 20
1.2520
 30
 0.0
 42
1.0
  0
SEQEND
  8
SST
  0
POLYLINE
  8
SST
 66
      1
 70
1
 40
0.0040
 41
0.0040
  0
VERTEX
  8
SST
 10
1.2770
 20
1.2270
 30
 0.0
 42
1.0
  0
VERTEX
  8
SST
 10
1.2810
 20
1.2270
 30
 0.0
 42
1.0
  0
SEQEND
  8
SST
  0
POLYLINE
  8
SST
 66
      1
 70
1
 40
0.0100
 41
0.0100
  0
VERTEX
  8
SST
 10
1.2020
 20
1.3020
 30
 0.0
  0
VERTEX
  8
SST
 10
1.3920
 20
1.3020
 30
 0.0
  0
VERTEX
  8
SST
 10
1.3920
 20
1.2020
 30
 0.0
  0
VERTEX
  8
SST
 10
1.2020
 20
1.2020
 30
 0.0
  0
VERTEX
  8
SST
 10
1.2020
 20
1.3020
 30
 0.0
  0
SEQEND
  8
SST
  0
POLYLINE
  8
SST
 66
      1
 70
1
 40
0.0050
 41
0.0050
  0
VERTEX
  8
SST
 10
1.1995
 20
1.3020
 30
 0.0
 42
1.0
  0
VERTEX
  8
SST
 10
1.2045
 20
1.3020
 30
 0.0
 42
1.0
  0
SEQEND
  8
SST
  0
POLYLINE
  8
SST
 66
      1
 70
1
 40
0.0050
 41
0.0050
  0
VERTEX
  8
SST
 10
1.3895
 20
1.3020
 30
 0.0
 42
1.0
  0
VERTEX
  8
SST
 10
1.3945
 20
1.3020
 30
 0.0
 42
1.0
  0
SEQEND
  8
SST
  0
POLYLINE
  8
SST
 66
      1
 70
1
 40
0.0050
 41
0.0050
  0
VERTEX
  8
SST
 10
1.3895
 20
1.2020
 30
 0.0
 42
1.0
  0
VERTEX
  8
SST
 10
1.3945
 20
1.2020
 30
 0.0
 42
1.0
  0
SEQEND
  8
SST
  0
POLYLINE
  8
SST
 66
      1
 70
1
 40
0.0050
 41
0.0050
  0
VERTEX
  8
SST
 10
1.1995
 20
1.2020
 30
 0.0
 42
1.0
  0
VERTEX
  8
SST
 10
1.2045
 20
1.2020
 30
 0.0
 42
1.0
  0
SEQEND
  8
SST
  0
POLYLINE
  8
SST
 66
      1
 70
1
 40
0.0050
 41
0.0050
  0
VERTEX
  8
SST
 10
1.1995
 20
1.3020
 30
 0.0
 42
1.0
  0
VERTEX
  8
SST
 10
1.2045
 20
1.3020
 30
 0.0
 42
1.0
  0
SEQEND
  8
SST
  0
POLYLINE
  8
SST
 66
      1
 70
0
 40
0.0080
 41
0.0080
  0
VERTEX
  8
SST
 10
1.3170
 20
1.2770
 30
 0.0
  0
VERTEX
  8
SST
 10
1.3170
 20
1.2270
 30
 0.0
  0
SEQEND
  8
SST
  0
POLYLINE
  8
SST
 66
      1
 70
1
 40
0.0040
 41
0.0040
  0
VERTEX
  8
SST
 10
1.3150
 20
1.2770
 30
 0.0
 42
1.0
  0
VERTEX
  8
SST
 10
1.3190
 20
1.2770
 30
 0.0
 42
1.0
  0
SEQEND
  8
SST
  0
POLYLINE
  8
SST
 66
      1
 70
1
 40
0.0040
 41
0.0040
  0
VERTEX
  8
SST
 10
1.3150
 20
1.2270
 30
 0.0
 42
1.0
  0
VERTEX
  8
SST
 10
1.3190
 20
1.2270
 30
 0.0
 42
1.0
  0
SEQEND
  8
SST
  0
POLYLINE
  8
SST
 66
      1
 70
0
 40
0.0080
 41
0.0080
  0
VERTEX
  8
SST
 10
1.2790
 20
1.2770
 30
 0.0
  0
VERTEX
  8
SST
 10
1.2790
 20
1.2270
 30
 0.0
  0
SEQEND
  8
SST
  0
POLYLINE
  8
SST
 66
      1
 70
1
 40
0.0040
 41
0.0040
  0
VERTEX
  8
SST
 10
1.2770
 20
1.2770
 30
 0.0
 42
1.0
  0
VERTEX
  8
SST
 10
1.2810
 20
1.2770
 30
 0.0
 42
1.0
  0
SEQEND
  8
SST
  0
POLYLINE
  8
SST
 66
      1
 70
1
 40
0.0040
 41
0.0040
  0
VERTEX
  8
SST
 10
1.2770
 20
1.2270
 30
 0.0
 42
1.0
  0
VERTEX
  8
SST
 10
1.2810
 20
1.2270
 30
 0.0
 42
1.0
  0
SEQEND
  8
SST
  0
POLYLINE
  8
SST
 66
      1
 70
1
 40
0.0100
 41
0.0100
  0
VERTEX
  8
SST
 10
2.2160
 20
1.1910
 30
 0.0
  0
VERTEX
  8
SST
 10
2.2160
 20
1.2910
 30
 0.0
  0
VERTEX
  8
SST
 10
2.0160
 20
1.2910
 30
 0.0
  0
VERTEX
  8
SST
 10
2.0160
 20
1.1910
 30
 0.0
  0
VERTEX
  8
SST
 10
2.2160
 20
1.1910
 30
 0.0
  0
SEQEND
  8
SST
  0
POLYLINE
  8
SST
 66
      1
 70
1
 40
0.0050
 41
0.0050
  0
VERTEX
  8
SST
 10
2.2135
 20
1.1910
 30
 0.0
 42
1.0
  0
VERTEX
  8
SST
 10
2.2185
 20
1.1910
 30
 0.0
 42
1.0
  0
SEQEND
  8
SST
  0
POLYLINE
  8
SST
 66
      1
 70
1
 40
0.0050
 41
0.0050
  0
VERTEX
  8
SST
 10
2.2135
 20
1.2910
 30
 0.0
 42
1.0
  0
VERTEX
  8
SST
 10
2.2185
 20
1.2910
 30
 0.0
 42
1.0
  0
SEQEND
  8
SST
  0
POLYLINE
  8
SST
 66
      1
 70
1
 40
0.0050
 41
0.0050
  0
VERTEX
  8
SST
 10
2.0135
 20
1.2910
 30
 0.0
 42
1.0
  0
VERTEX
  8
SST
 10
2.0185
 20
1.2910
 30
 0.0
 42
1.0
  0
SEQEND
  8
SST
  0
POLYLINE
  8
SST
 66
      1
 70
1
 40
0.0050
 41
0.0050
  0
VERTEX
  8
SST
 10
2.0135
 20
1.1910
 30
 0.0
 42
1.0
  0
VERTEX
  8
SST
 10
2.0185
 20
1.1910
 30
 0.0
 42
1.0
  0
SEQEND
  8
SST
  0
POLYLINE
  8
SST
 66
      1
 70
1
 40
0.0050
 41
0.0050
  0
VERTEX
  8
SST
 10
2.2135
 20
1.1910
 30
 0.0
 42
1.0
  0
VERTEX
  8
SST
 10
2.2185
 20
1.1910
 30
 0.0
 42
1.0
  0
SEQEND
  8
SST
  0
POLYLINE
  8
0
 66
      1
 70
1
 40
0.0010
 41
0.0010
  0
VERTEX
  8
0
 10
2.2210
 20
1.2960
 30
 0.0
  0
VERTEX
  8
0
 10
2.0110
 20
1.2960
 30
 0.0
  0
VERTEX
  8
0
 10
2.0110
 20
1.1860
 30
 0.0
  0
VERTEX
  8
0
 10
2.2210
 20
1.1860
 30
 0.0
  0
VERTEX
  8
0
 10
2.2210
 20
1.2960
 30
 0.0
  0
SEQEND
  8
0
  0
POLYLINE
  8
0
 66
      1
 70
1
 40
0.0005
 41
0.0005
  0
VERTEX
  8
0
 10
2.2207
 20
1.2960
 30
 0.0
 42
1.0
  0
VERTEX
  8
0
 10
2.2212
 20
1.2960
 30
 0.0
 42
1.0
  0
SEQEND
  8
0
  0
POLYLINE
  8
0
 66
      1
 70
1
 40
0.0005
 41
0.0005
  0
VERTEX
  8
0
 10
2.0107
 20
1.2960
 30
 0.0
 42
1.0
  0
VERTEX
  8
0
 10
2.0112
 20
1.2960
 30
 0.0
 42
1.0
  0
SEQEND
  8
0
  0
POLYLINE
  8
0
 66
      1
 70
1
 40
0.0005
 41
0.0005
  0
VERTEX
  8
0
 10
2.0107
 20
1.1860
 30
 0.0
 42
1.0
  0
VERTEX
  8
0
 10
2.0112
 20
1.1860
 30
 0.0
 42
1.0
  0
SEQEND
  8
0
  0
POLYLINE
  8
0
 66
      1
 70
1
 40
0.0005
 41
0.0005
  0
VERTEX
  8
0
 10
2.2207
 20
1.1860
 30
 0.0
 42
1.0
  0
VERTEX
  8
0
 10
2.2212
 20
1.1860
 30
 0.0
 42
1.0
  0
SEQEND
  8
0
  0
POLYLINE
  8
0
 66
      1
 70
1
 40
0.0005
 41
0.0005
  0
VERTEX
  8
0
 10
2.2207
 20
1.2960
 30
 0.0
 42
1.0
  0
VERTEX
  8
0
 10
2.2212
 20
1.2960
 30
 0.0
 42
1.0
  0
SEQEND
  8
0
  0
POLYLINE
  8
SST
 66
      1
 70
1
 40
0.0100
 41
0.0100
  0
VERTEX
  8
SST
 10
1.9140
 20
1.2280
 30
 0.0
  0
VERTEX
  8
SST
 10
1.9780
 20
1.2280
 30
 0.0
  0
VERTEX
  8
SST
 10
1.9780
 20
1.1120
 30
 0.0
  0
VERTEX
  8
SST
 10
1.9140
 20
1.1120
 30
 0.0
  0
VERTEX
  8
SST
 10
1.9140
 20
1.2280
 30
 0.0
  0
SEQEND
  8
SST
  0
POLYLINE
  8
SST
 66
      1
 70
1
 40
0.0050
 41
0.0050
  0
VERTEX
  8
SST
 10
1.9115
 20
1.2280
 30
 0.0
 42
1.0
  0
VERTEX
  8
SST
 10
1.9165
 20
1.2280
 30
 0.0
 42
1.0
  0
SEQEND
  8
SST
  0
POLYLINE
  8
SST
 66
      1
 70
1
 40
0.0050
 41
0.0050
  0
VERTEX
  8
SST
 10
1.9755
 20
1.2280
 30
 0.0
 42
1.0
  0
VERTEX
  8
SST
 10
1.9805
 20
1.2280
 30
 0.0
 42
1.0
  0
SEQEND
  8
SST
  0
POLYLINE
  8
SST
 66
      1
 70
1
 40
0.0050
 41
0.0050
  0
VERTEX
  8
SST
 10
1.9755
 20
1.1120
 30
 0.0
 42
1.0
  0
VERTEX
  8
SST
 10
1.9805
 20
1.1120
 30
 0.0
 42
1.0
  0
SEQEND
  8
SST
  0
POLYLINE
  8
SST
 66
      1
 70
1
 40
0.0050
 41
0.0050
  0
VERTEX
  8
SST
 10
1.9115
 20
1.1120
 30
 0.0
 42
1.0
  0
VERTEX
  8
SST
 10
1.9165
 20
1.1120
 30
 0.0
 42
1.0
  0
SEQEND
  8
SST
  0
POLYLINE
  8
SST
 66
      1
 70
1
 40
0.0050
 41
0.0050
  0
VERTEX
  8
SST
 10
1.9115
 20
1.2280
 30
 0.0
 42
1.0
  0
VERTEX
  8
SST
 10
1.9165
 20
1.2280
 30
 0.0
 42
1.0
  0
SEQEND
  8
SST
  0
POLYLINE
  8
SST
 66
      1
 70
0
 40
0.0080
 41
0.0080
  0
VERTEX
  8
SST
 10
0.4000
 20
1.2290
 30
 0.0
  0
VERTEX
  8
SST
 10
0.3630
 20
1.2540
 30
 0.0
  0
SEQEND
  8
SST
  0
POLYLINE
  8
SST
 66
      1
 70
1
 40
0.0040
 41
0.0040
  0
VERTEX
  8
SST
 10
0.3980
 20
1.2290
 30
 0.0
 42
1.0
  0
VERTEX
  8
SST
 10
0.4020
 20
1.2290
 30
 0.0
 42
1.0
  0
SEQEND
  8
SST
  0
POLYLINE
  8
SST
 66
      1
 70
1
 40
0.0040
 41
0.0040
  0
VERTEX
  8
SST
 10
0.3610
 20
1.2540
 30
 0.0
 42
1.0
  0
VERTEX
  8
SST
 10
0.3650
 20
1.2540
 30
 0.0
 42
1.0
  0
SEQEND
  8
SST
  0
POLYLINE
  8
SST
 66
      1
 70
0
 40
0.0080
 41
0.0080
  0
VERTEX
  8
SST
 10
0.4000
 20
1.2290
 30
 0.0
  0
VERTEX
  8
SST
 10
0.3630
 20
1.2040
 30
 0.0
  0
SEQEND
  8
SST
  0
POLYLINE
  8
SST
 66
      1
 70
1
 40
0.0040
 41
0.0040
  0
VERTEX
  8
SST
 10
0.3980
 20
1.2290
 30
 0.0
 42
1.0
  0
VERTEX
  8
SST
 10
0.4020
 20
1.2290
 30
 0.0
 42
1.0
  0
SEQEND
  8
SST
  0
POLYLINE
  8
SST
 66
      1
 70
1
 40
0.0040
 41
0.0040
  0
VERTEX
  8
SST
 10
0.3610
 20
1.2040
 30
 0.0
 42
1.0
  0
VERTEX
  8
SST
 10
0.3650
 20
1.2040
 30
 0.0
 42
1.0
  0
SEQEND
  8
SST
  0
POLYLINE
  8
SST
 66
      1
 70
1
 40
0.0100
 41
0.0100
  0
VERTEX
  8
SST
 10
0.2850
 20
1.2790
 30
 0.0
  0
VERTEX
  8
SST
 10
0.4750
 20
1.2790
 30
 0.0
  0
VERTEX
  8
SST
 10
0.4750
 20
1.1790
 30
 0.0
  0
VERTEX
  8
SST
 10
0.2850
 20
1.1790
 30
 0.0
  0
VERTEX
  8
SST
 10
0.2850
 20
1.2790
 30
 0.0
  0
SEQEND
  8
SST
  0
POLYLINE
  8
SST
 66
      1
 70
1
 40
0.0050
 41
0.0050
  0
VERTEX
  8
SST
 10
0.2825
 20
1.2790
 30
 0.0
 42
1.0
  0
VERTEX
  8
SST
 10
0.2875
 20
1.2790
 30
 0.0
 42
1.0
  0
SEQEND
  8
SST
  0
POLYLINE
  8
SST
 66
      1
 70
1
 40
0.0050
 41
0.0050
  0
VERTEX
  8
SST
 10
0.4725
 20
1.2790
 30
 0.0
 42
1.0
  0
VERTEX
  8
SST
 10
0.4775
 20
1.2790
 30
 0.0
 42
1.0
  0
SEQEND
  8
SST
  0
POLYLINE
  8
SST
 66
      1
 70
1
 40
0.0050
 41
0.0050
  0
VERTEX
  8
SST
 10
0.4725
 20
1.1790
 30
 0.0
 42
1.0
  0
VERTEX
  8
SST
 10
0.4775
 20
1.1790
 30
 0.0
 42
1.0
  0
SEQEND
  8
SST
  0
POLYLINE
  8
SST
 66
      1
 70
1
 40
0.0050
 41
0.0050
  0
VERTEX
  8
SST
 10
0.2825
 20
1.1790
 30
 0.0
 42
1.0
  0
VERTEX
  8
SST
 10
0.2875
 20
1.1790
 30
 0.0
 42
1.0
  0
SEQEND
  8
SST
  0
POLYLINE
  8
SST
 66
      1
 70
1
 40
0.0050
 41
0.0050
  0
VERTEX
  8
SST
 10
0.2825
 20
1.2790
 30
 0.0
 42
1.0
  0
VERTEX
  8
SST
 10
0.2875
 20
1.2790
 30
 0.0
 42
1.0
  0
SEQEND
  8
SST
  0
POLYLINE
  8
SST
 66
      1
 70
0
 40
0.0080
 41
0.0080
  0
VERTEX
  8
SST
 10
0.4000
 20
1.2540
 30
 0.0
  0
VERTEX
  8
SST
 10
0.4000
 20
1.2040
 30
 0.0
  0
SEQEND
  8
SST
  0
POLYLINE
  8
SST
 66
      1
 70
1
 40
0.0040
 41
0.0040
  0
VERTEX
  8
SST
 10
0.3980
 20
1.2540
 30
 0.0
 42
1.0
  0
VERTEX
  8
SST
 10
0.4020
 20
1.2540
 30
 0.0
 42
1.0
  0
SEQEND
  8
SST
  0
POLYLINE
  8
SST
 66
      1
 70
1
 40
0.0040
 41
0.0040
  0
VERTEX
  8
SST
 10
0.3980
 20
1.2040
 30
 0.0
 42
1.0
  0
VERTEX
  8
SST
 10
0.4020
 20
1.2040
 30
 0.0
 42
1.0
  0
SEQEND
  8
SST
  0
POLYLINE
  8
SST
 66
      1
 70
0
 40
0.0080
 41
0.0080
  0
VERTEX
  8
SST
 10
0.3630
 20
1.2540
 30
 0.0
  0
VERTEX
  8
SST
 10
0.3630
 20
1.2040
 30
 0.0
  0
SEQEND
  8
SST
  0
POLYLINE
  8
SST
 66
      1
 70
1
 40
0.0040
 41
0.0040
  0
VERTEX
  8
SST
 10
0.3610
 20
1.2540
 30
 0.0
 42
1.0
  0
VERTEX
  8
SST
 10
0.3650
 20
1.2540
 30
 0.0
 42
1.0
  0
SEQEND
  8
SST
  0
POLYLINE
  8
SST
 66
      1
 70
1
 40
0.0040
 41
0.0040
  0
VERTEX
  8
SST
 10
0.3610
 20
1.2040
 30
 0.0
 42
1.0
  0
VERTEX
  8
SST
 10
0.3650
 20
1.2040
 30
 0.0
 42
1.0
  0
SEQEND
  8
SST
  0
POLYLINE
  8
SST
 66
      1
 70
1
 40
0.0100
 41
0.0100
  0
VERTEX
  8
SST
 10
1.4570
 20
0.6860
 30
 0.0
  0
VERTEX
  8
SST
 10
1.4570
 20
0.6220
 30
 0.0
  0
VERTEX
  8
SST
 10
1.3410
 20
0.6220
 30
 0.0
  0
VERTEX
  8
SST
 10
1.3410
 20
0.6860
 30
 0.0
  0
VERTEX
  8
SST
 10
1.4570
 20
0.6860
 30
 0.0
  0
SEQEND
  8
SST
  0
POLYLINE
  8
SST
 66
      1
 70
1
 40
0.0050
 41
0.0050
  0
VERTEX
  8
SST
 10
1.4545
 20
0.6860
 30
 0.0
 42
1.0
  0
VERTEX
  8
SST
 10
1.4595
 20
0.6860
 30
 0.0
 42
1.0
  0
SEQEND
  8
SST
  0
POLYLINE
  8
SST
 66
      1
 70
1
 40
0.0050
 41
0.0050
  0
VERTEX
  8
SST
 10
1.4545
 20
0.6220
 30
 0.0
 42
1.0
  0
VERTEX
  8
SST
 10
1.4595
 20
0.6220
 30
 0.0
 42
1.0
  0
SEQEND
  8
SST
  0
POLYLINE
  8
SST
 66
      1
 70
1
 40
0.0050
 41
0.0050
  0
VERTEX
  8
SST
 10
1.3385
 20
0.6220
 30
 0.0
 42
1.0
  0
VERTEX
  8
SST
 10
1.3435
 20
0.6220
 30
 0.0
 42
1.0
  0
SEQEND
  8
SST
  0
POLYLINE
  8
SST
 66
      1
 70
1
 40
0.0050
 41
0.0050
  0
VERTEX
  8
SST
 10
1.3385
 20
0.6860
 30
 0.0
 42
1.0
  0
VERTEX
  8
SST
 10
1.3435
 20
0.6860
 30
 0.0
 42
1.0
  0
SEQEND
  8
SST
  0
POLYLINE
  8
SST
 66
      1
 70
1
 40
0.0050
 41
0.0050
  0
VERTEX
  8
SST
 10
1.4545
 20
0.6860
 30
 0.0
 42
1.0
  0
VERTEX
  8
SST
 10
1.4595
 20
0.6860
 30
 0.0
 42
1.0
  0
SEQEND
  8
SST
  0
POLYLINE
  8
SST
 66
      1
 70
1
 40
0.0100
 41
0.0100
  0
VERTEX
  8
SST
 10
0.1910
 20
1.2830
 30
 0.0
  0
VERTEX
  8
SST
 10
0.2550
 20
1.2830
 30
 0.0
  0
VERTEX
  8
SST
 10
0.2550
 20
1.1670
 30
 0.0
  0
VERTEX
  8
SST
 10
0.1910
 20
1.1670
 30
 0.0
  0
VERTEX
  8
SST
 10
0.1910
 20
1.2830
 30
 0.0
  0
SEQEND
  8
SST
  0
POLYLINE
  8
SST
 66
      1
 70
1
 40
0.0050
 41
0.0050
  0
VERTEX
  8
SST
 10
0.1885
 20
1.2830
 30
 0.0
 42
1.0
  0
VERTEX
  8
SST
 10
0.1935
 20
1.2830
 30
 0.0
 42
1.0
  0
SEQEND
  8
SST
  0
POLYLINE
  8
SST
 66
      1
 70
1
 40
0.0050
 41
0.0050
  0
VERTEX
  8
SST
 10
0.2525
 20
1.2830
 30
 0.0
 42
1.0
  0
VERTEX
  8
SST
 10
0.2575
 20
1.2830
 30
 0.0
 42
1.0
  0
SEQEND
  8
SST
  0
POLYLINE
  8
SST
 66
      1
 70
1
 40
0.0050
 41
0.0050
  0
VERTEX
  8
SST
 10
0.2525
 20
1.1670
 30
 0.0
 42
1.0
  0
VERTEX
  8
SST
 10
0.2575
 20
1.1670
 30
 0.0
 42
1.0
  0
SEQEND
  8
SST
  0
POLYLINE
  8
SST
 66
      1
 70
1
 40
0.0050
 41
0.0050
  0
VERTEX
  8
SST
 10
0.1885
 20
1.1670
 30
 0.0
 42
1.0
  0
VERTEX
  8
SST
 10
0.1935
 20
1.1670
 30
 0.0
 42
1.0
  0
SEQEND
  8
SST
  0
POLYLINE
  8
SST
 66
      1
 70
1
 40
0.0050
 41
0.0050
  0
VERTEX
  8
SST
 10
0.1885
 20
1.2830
 30
 0.0
 42
1.0
  0
VERTEX
  8
SST
 10
0.1935
 20
1.2830
 30
 0.0
 42
1.0
  0
SEQEND
  8
SST
  0
POLYLINE
  8
SST
 66
      1
 70
1
 40
0.0100
 41
0.0100
  0
VERTEX
  8
SST
 10
1.1620
 20
0.6040
 30
 0.0
  0
VERTEX
  8
SST
 10
1.1620
 20
0.7040
 30
 0.0
  0
VERTEX
  8
SST
 10
0.9620
 20
0.7040
 30
 0.0
  0
VERTEX
  8
SST
 10
0.9620
 20
0.6040
 30
 0.0
  0
VERTEX
  8
SST
 10
1.1620
 20
0.6040
 30
 0.0
  0
SEQEND
  8
SST
  0
POLYLINE
  8
SST
 66
      1
 70
1
 40
0.0050
 41
0.0050
  0
VERTEX
  8
SST
 10
1.1595
 20
0.6040
 30
 0.0
 42
1.0
  0
VERTEX
  8
SST
 10
1.1645
 20
0.6040
 30
 0.0
 42
1.0
  0
SEQEND
  8
SST
  0
POLYLINE
  8
SST
 66
      1
 70
1
 40
0.0050
 41
0.0050
  0
VERTEX
  8
SST
 10
1.1595
 20
0.7040
 30
 0.0
 42
1.0
  0
VERTEX
  8
SST
 10
1.1645
 20
0.7040
 30
 0.0
 42
1.0
  0
SEQEND
  8
SST
  0
POLYLINE
  8
SST
 66
      1
 70
1
 40
0.0050
 41
0.0050
  0
VERTEX
  8
SST
 10
0.9595
 20
0.7040
 30
 0.0
 42
1.0
  0
VERTEX
  8
SST
 10
0.9645
 20
0.7040
 30
 0.0
 42
1.0
  0
SEQEND
  8
SST
  0
POLYLINE
  8
SST
 66
      1
 70
1
 40
0.0050
 41
0.0050
  0
VERTEX
  8
SST
 10
0.9595
 20
0.6040
 30
 0.0
 42
1.0
  0
VERTEX
  8
SST
 10
0.9645
 20
0.6040
 30
 0.0
 42
1.0
  0
SEQEND
  8
SST
  0
POLYLINE
  8
SST
 66
      1
 70
1
 40
0.0050
 41
0.0050
  0
VERTEX
  8
SST
 10
1.1595
 20
0.6040
 30
 0.0
 42
1.0
  0
VERTEX
  8
SST
 10
1.1645
 20
0.6040
 30
 0.0
 42
1.0
  0
SEQEND
  8
SST
  0
POLYLINE
  8
0
 66
      1
 70
1
 40
0.0010
 41
0.0010
  0
VERTEX
  8
0
 10
1.1670
 20
0.7090
 30
 0.0
  0
VERTEX
  8
0
 10
0.9570
 20
0.7090
 30
 0.0
  0
VERTEX
  8
0
 10
0.9570
 20
0.5990
 30
 0.0
  0
VERTEX
  8
0
 10
1.1670
 20
0.5990
 30
 0.0
  0
VERTEX
  8
0
 10
1.1670
 20
0.7090
 30
 0.0
  0
SEQEND
  8
0
  0
POLYLINE
  8
0
 66
      1
 70
1
 40
0.0005
 41
0.0005
  0
VERTEX
  8
0
 10
1.1668
 20
0.7090
 30
 0.0
 42
1.0
  0
VERTEX
  8
0
 10
1.1673
 20
0.7090
 30
 0.0
 42
1.0
  0
SEQEND
  8
0
  0
POLYLINE
  8
0
 66
      1
 70
1
 40
0.0005
 41
0.0005
  0
VERTEX
  8
0
 10
0.9568
 20
0.7090
 30
 0.0
 42
1.0
  0
VERTEX
  8
0
 10
0.9573
 20
0.7090
 30
 0.0
 42
1.0
  0
SEQEND
  8
0
  0
POLYLINE
  8
0
 66
      1
 70
1
 40
0.0005
 41
0.0005
  0
VERTEX
  8
0
 10
0.9568
 20
0.5990
 30
 0.0
 42
1.0
  0
VERTEX
  8
0
 10
0.9573
 20
0.5990
 30
 0.0
 42
1.0
  0
SEQEND
  8
0
  0
POLYLINE
  8
0
 66
      1
 70
1
 40
0.0005
 41
0.0005
  0
VERTEX
  8
0
 10
1.1668
 20
0.5990
 30
 0.0
 42
1.0
  0
VERTEX
  8
0
 10
1.1673
 20
0.5990
 30
 0.0
 42
1.0
  0
SEQEND
  8
0
  0
POLYLINE
  8
0
 66
      1
 70
1
 40
0.0005
 41
0.0005
  0
VERTEX
  8
0
 10
1.1668
 20
0.7090
 30
 0.0
 42
1.0
  0
VERTEX
  8
0
 10
1.1673
 20
0.7090
 30
 0.0
 42
1.0
  0
SEQEND
  8
0
  0
POLYLINE
  8
SST
 66
      1
 70
1
 40
0.0100
 41
0.0100
  0
VERTEX
  8
SST
 10
0.9340
 20
0.6860
 30
 0.0
  0
VERTEX
  8
SST
 10
0.9340
 20
0.6220
 30
 0.0
  0
VERTEX
  8
SST
 10
0.8180
 20
0.6220
 30
 0.0
  0
VERTEX
  8
SST
 10
0.8180
 20
0.6860
 30
 0.0
  0
VERTEX
  8
SST
 10
0.9340
 20
0.6860
 30
 0.0
  0
SEQEND
  8
SST
  0
POLYLINE
  8
SST
 66
      1
 70
1
 40
0.0050
 41
0.0050
  0
VERTEX
  8
SST
 10
0.9315
 20
0.6860
 30
 0.0
 42
1.0
  0
VERTEX
  8
SST
 10
0.9365
 20
0.6860
 30
 0.0
 42
1.0
  0
SEQEND
  8
SST
  0
POLYLINE
  8
SST
 66
      1
 70
1
 40
0.0050
 41
0.0050
  0
VERTEX
  8
SST
 10
0.9315
 20
0.6220
 30
 0.0
 42
1.0
  0
VERTEX
  8
SST
 10
0.9365
 20
0.6220
 30
 0.0
 42
1.0
  0
SEQEND
  8
SST
  0
POLYLINE
  8
SST
 66
      1
 70
1
 40
0.0050
 41
0.0050
  0
VERTEX
  8
SST
 10
0.8155
 20
0.6220
 30
 0.0
 42
1.0
  0
VERTEX
  8
SST
 10
0.8205
 20
0.6220
 30
 0.0
 42
1.0
  0
SEQEND
  8
SST
  0
POLYLINE
  8
SST
 66
      1
 70
1
 40
0.0050
 41
0.0050
  0
VERTEX
  8
SST
 10
0.8155
 20
0.6860
 30
 0.0
 42
1.0
  0
VERTEX
  8
SST
 10
0.8205
 20
0.6860
 30
 0.0
 42
1.0
  0
SEQEND
  8
SST
  0
POLYLINE
  8
SST
 66
      1
 70
1
 40
0.0050
 41
0.0050
  0
VERTEX
  8
SST
 10
0.9315
 20
0.6860
 30
 0.0
 42
1.0
  0
VERTEX
  8
SST
 10
0.9365
 20
0.6860
 30
 0.0
 42
1.0
  0
SEQEND
  8
SST
  0
POLYLINE
  8
SST
 66
      1
 70
1
 40
0.0100
 41
0.0100
  0
VERTEX
  8
SST
 10
1.5580
 20
0.9430
 30
 0.0
  0
VERTEX
  8
SST
 10
1.4930
 20
0.9430
 30
 0.0
  0
VERTEX
  8
SST
 10
1.4930
 20
1.0580
 30
 0.0
  0
VERTEX
  8
SST
 10
1.5580
 20
1.0580
 30
 0.0
  0
VERTEX
  8
SST
 10
1.5580
 20
0.9430
 30
 0.0
  0
SEQEND
  8
SST
  0
POLYLINE
  8
SST
 66
      1
 70
1
 40
0.0050
 41
0.0050
  0
VERTEX
  8
SST
 10
1.5555
 20
0.9430
 30
 0.0
 42
1.0
  0
VERTEX
  8
SST
 10
1.5605
 20
0.9430
 30
 0.0
 42
1.0
  0
SEQEND
  8
SST
  0
POLYLINE
  8
SST
 66
      1
 70
1
 40
0.0050
 41
0.0050
  0
VERTEX
  8
SST
 10
1.4905
 20
0.9430
 30
 0.0
 42
1.0
  0
VERTEX
  8
SST
 10
1.4955
 20
0.9430
 30
 0.0
 42
1.0
  0
SEQEND
  8
SST
  0
POLYLINE
  8
SST
 66
      1
 70
1
 40
0.0050
 41
0.0050
  0
VERTEX
  8
SST
 10
1.4905
 20
1.0580
 30
 0.0
 42
1.0
  0
VERTEX
  8
SST
 10
1.4955
 20
1.0580
 30
 0.0
 42
1.0
  0
SEQEND
  8
SST
  0
POLYLINE
  8
SST
 66
      1
 70
1
 40
0.0050
 41
0.0050
  0
VERTEX
  8
SST
 10
1.5555
 20
1.0580
 30
 0.0
 42
1.0
  0
VERTEX
  8
SST
 10
1.5605
 20
1.0580
 30
 0.0
 42
1.0
  0
SEQEND
  8
SST
  0
POLYLINE
  8
SST
 66
      1
 70
1
 40
0.0050
 41
0.0050
  0
VERTEX
  8
SST
 10
1.5555
 20
0.9430
 30
 0.0
 42
1.0
  0
VERTEX
  8
SST
 10
1.5605
 20
0.9430
 30
 0.0
 42
1.0
  0
SEQEND
  8
SST
  0
POLYLINE
  8
SST
 66
      1
 70
1
 40
0.0100
 41
0.0100
  0
VERTEX
  8
SST
 10
1.4930
 20
1.1840
 30
 0.0
  0
VERTEX
  8
SST
 10
1.5570
 20
1.1840
 30
 0.0
  0
VERTEX
  8
SST
 10
1.5570
 20
1.0690
 30
 0.0
  0
VERTEX
  8
SST
 10
1.4930
 20
1.0690
 30
 0.0
  0
VERTEX
  8
SST
 10
1.4930
 20
1.1840
 30
 0.0
  0
SEQEND
  8
SST
  0
POLYLINE
  8
SST
 66
      1
 70
1
 40
0.0050
 41
0.0050
  0
VERTEX
  8
SST
 10
1.4905
 20
1.1840
 30
 0.0
 42
1.0
  0
VERTEX
  8
SST
 10
1.4955
 20
1.1840
 30
 0.0
 42
1.0
  0
SEQEND
  8
SST
  0
POLYLINE
  8
SST
 66
      1
 70
1
 40
0.0050
 41
0.0050
  0
VERTEX
  8
SST
 10
1.5545
 20
1.1840
 30
 0.0
 42
1.0
  0
VERTEX
  8
SST
 10
1.5595
 20
1.1840
 30
 0.0
 42
1.0
  0
SEQEND
  8
SST
  0
POLYLINE
  8
SST
 66
      1
 70
1
 40
0.0050
 41
0.0050
  0
VERTEX
  8
SST
 10
1.5545
 20
1.0690
 30
 0.0
 42
1.0
  0
VERTEX
  8
SST
 10
1.5595
 20
1.0690
 30
 0.0
 42
1.0
  0
SEQEND
  8
SST
  0
POLYLINE
  8
SST
 66
      1
 70
1
 40
0.0050
 41
0.0050
  0
VERTEX
  8
SST
 10
1.4905
 20
1.0690
 30
 0.0
 42
1.0
  0
VERTEX
  8
SST
 10
1.4955
 20
1.0690
 30
 0.0
 42
1.0
  0
SEQEND
  8
SST
  0
POLYLINE
  8
SST
 66
      1
 70
1
 40
0.0050
 41
0.0050
  0
VERTEX
  8
SST
 10
1.4905
 20
1.1840
 30
 0.0
 42
1.0
  0
VERTEX
  8
SST
 10
1.4955
 20
1.1840
 30
 0.0
 42
1.0
  0
SEQEND
  8
SST
  0
POLYLINE
  8
SST
 66
      1
 70
1
 40
0.0100
 41
0.0100
  0
VERTEX
  8
SST
 10
0.6690
 20
0.6220
 30
 0.0
  0
VERTEX
  8
SST
 10
0.6690
 20
0.6860
 30
 0.0
  0
VERTEX
  8
SST
 10
0.7840
 20
0.6860
 30
 0.0
  0
VERTEX
  8
SST
 10
0.7840
 20
0.6220
 30
 0.0
  0
VERTEX
  8
SST
 10
0.6690
 20
0.6220
 30
 0.0
  0
SEQEND
  8
SST
  0
POLYLINE
  8
SST
 66
      1
 70
1
 40
0.0050
 41
0.0050
  0
VERTEX
  8
SST
 10
0.6665
 20
0.6220
 30
 0.0
 42
1.0
  0
VERTEX
  8
SST
 10
0.6715
 20
0.6220
 30
 0.0
 42
1.0
  0
SEQEND
  8
SST
  0
POLYLINE
  8
SST
 66
      1
 70
1
 40
0.0050
 41
0.0050
  0
VERTEX
  8
SST
 10
0.6665
 20
0.6860
 30
 0.0
 42
1.0
  0
VERTEX
  8
SST
 10
0.6715
 20
0.6860
 30
 0.0
 42
1.0
  0
SEQEND
  8
SST
  0
POLYLINE
  8
SST
 66
      1
 70
1
 40
0.0050
 41
0.0050
  0
VERTEX
  8
SST
 10
0.7815
 20
0.6860
 30
 0.0
 42
1.0
  0
VERTEX
  8
SST
 10
0.7865
 20
0.6860
 30
 0.0
 42
1.0
  0
SEQEND
  8
SST
  0
POLYLINE
  8
SST
 66
      1
 70
1
 40
0.0050
 41
0.0050
  0
VERTEX
  8
SST
 10
0.7815
 20
0.6220
 30
 0.0
 42
1.0
  0
VERTEX
  8
SST
 10
0.7865
 20
0.6220
 30
 0.0
 42
1.0
  0
SEQEND
  8
SST
  0
POLYLINE
  8
SST
 66
      1
 70
1
 40
0.0050
 41
0.0050
  0
VERTEX
  8
SST
 10
0.6665
 20
0.6220
 30
 0.0
 42
1.0
  0
VERTEX
  8
SST
 10
0.6715
 20
0.6220
 30
 0.0
 42
1.0
  0
SEQEND
  8
SST
  0
POLYLINE
  8
SST
 66
      1
 70
1
 40
0.0100
 41
0.0100
  0
VERTEX
  8
SST
 10
0.5700
 20
1.0770
 30
 0.0
  0
VERTEX
  8
SST
 10
0.5060
 20
1.0770
 30
 0.0
  0
VERTEX
  8
SST
 10
0.5060
 20
1.1920
 30
 0.0
  0
VERTEX
  8
SST
 10
0.5700
 20
1.1920
 30
 0.0
  0
VERTEX
  8
SST
 10
0.5700
 20
1.0770
 30
 0.0
  0
SEQEND
  8
SST
  0
POLYLINE
  8
SST
 66
      1
 70
1
 40
0.0050
 41
0.0050
  0
VERTEX
  8
SST
 10
0.5675
 20
1.0770
 30
 0.0
 42
1.0
  0
VERTEX
  8
SST
 10
0.5725
 20
1.0770
 30
 0.0
 42
1.0
  0
SEQEND
  8
SST
  0
POLYLINE
  8
SST
 66
      1
 70
1
 40
0.0050
 41
0.0050
  0
VERTEX
  8
SST
 10
0.5035
 20
1.0770
 30
 0.0
 42
1.0
  0
VERTEX
  8
SST
 10
0.5085
 20
1.0770
 30
 0.0
 42
1.0
  0
SEQEND
  8
SST
  0
POLYLINE
  8
SST
 66
      1
 70
1
 40
0.0050
 41
0.0050
  0
VERTEX
  8
SST
 10
0.5035
 20
1.1920
 30
 0.0
 42
1.0
  0
VERTEX
  8
SST
 10
0.5085
 20
1.1920
 30
 0.0
 42
1.0
  0
SEQEND
  8
SST
  0
POLYLINE
  8
SST
 66
      1
 70
1
 40
0.0050
 41
0.0050
  0
VERTEX
  8
SST
 10
0.5675
 20
1.1920
 30
 0.0
 42
1.0
  0
VERTEX
  8
SST
 10
0.5725
 20
1.1920
 30
 0.0
 42
1.0
  0
SEQEND
  8
SST
  0
POLYLINE
  8
SST
 66
      1
 70
1
 40
0.0050
 41
0.0050
  0
VERTEX
  8
SST
 10
0.5675
 20
1.0770
 30
 0.0
 42
1.0
  0
VERTEX
  8
SST
 10
0.5725
 20
1.0770
 30
 0.0
 42
1.0
  0
SEQEND
  8
SST
  0
POLYLINE
  8
SST
 66
      1
 70
0
 40
0.0100
 41
0.0100
  0
VERTEX
  8
SST
 10
1.8970
 20
0.9110
 30
 0.0
 42
0.9999999999999999
  0
VERTEX
  8
SST
 10
1.8670
 20
0.9110
 30
 0.0
  0
SEQEND
  8
SST
  0
POLYLINE
  8
SST
 66
      1
 70
1
 40
0.0050
 41
0.0050
  0
VERTEX
  8
SST
 10
1.8945
 20
0.9110
 30
 0.0
 42
1.0
  0
VERTEX
  8
SST
 10
1.8995
 20
0.9110
 30
 0.0
 42
1.0
  0
SEQEND
  8
SST
  0
POLYLINE
  8
SST
 66
      1
 70
1
 40
0.0050
 41
0.0050
  0
VERTEX
  8
SST
 10
1.8645
 20
0.9110
 30
 0.0
 42
1.0
  0
VERTEX
  8
SST
 10
1.8695
 20
0.9110
 30
 0.0
 42
1.0
  0
SEQEND
  8
SST
  0
POLYLINE
  8
SST
 66
      1
 70
0
 40
0.0100
 41
0.0100
  0
VERTEX
  8
SST
 10
1.8670
 20
0.9110
 30
 0.0
 42
0.9999999999999999
  0
VERTEX
  8
SST
 10
1.8970
 20
0.9110
 30
 0.0
  0
SEQEND
  8
SST
  0
POLYLINE
  8
SST
 66
      1
 70
1
 40
0.0050
 41
0.0050
  0
VERTEX
  8
SST
 10
1.8645
 20
0.9110
 30
 0.0
 42
1.0
  0
VERTEX
  8
SST
 10
1.8695
 20
0.9110
 30
 0.0
 42
1.0
  0
SEQEND
  8
SST
  0
POLYLINE
  8
SST
 66
      1
 70
1
 40
0.0050
 41
0.0050
  0
VERTEX
  8
SST
 10
1.8945
 20
0.9110
 30
 0.0
 42
1.0
  0
VERTEX
  8
SST
 10
1.8995
 20
0.9110
 30
 0.0
 42
1.0
  0
SEQEND
  8
SST
  0
POLYLINE
  8
SSB
 66
      1
 70
1
 40
0.0100
 41
0.0100
  0
VERTEX
  8
SSB
 10
2.0420
 20
0.8860
 30
 0.0
  0
VERTEX
  8
SSB
 10
1.8420
 20
0.8860
 30
 0.0
  0
VERTEX
  8
SSB
 10
1.8420
 20
1.0060
 30
 0.0
  0
VERTEX
  8
SSB
 10
2.0420
 20
1.0060
 30
 0.0
  0
VERTEX
  8
SSB
 10
2.0420
 20
0.8860
 30
 0.0
  0
SEQEND
  8
SSB
  0
POLYLINE
  8
SSB
 66
      1
 70
1
 40
0.0050
 41
0.0050
  0
VERTEX
  8
SSB
 10
2.0395
 20
0.8860
 30
 0.0
 42
1.0
  0
VERTEX
  8
SSB
 10
2.0445
 20
0.8860
 30
 0.0
 42
1.0
  0
SEQEND
  8
SSB
  0
POLYLINE
  8
SSB
 66
      1
 70
1
 40
0.0050
 41
0.0050
  0
VERTEX
  8
SSB
 10
1.8395
 20
0.8860
 30
 0.0
 42
1.0
  0
VERTEX
  8
SSB
 10
1.8445
 20
0.8860
 30
 0.0
 42
1.0
  0
SEQEND
  8
SSB
  0
POLYLINE
  8
SSB
 66
      1
 70
1
 40
0.0050
 41
0.0050
  0
VERTEX
  8
SSB
 10
1.8395
 20
1.0060
 30
 0.0
 42
1.0
  0
VERTEX
  8
SSB
 10
1.8445
 20
1.0060
 30
 0.0
 42
1.0
  0
SEQEND
  8
SSB
  0
POLYLINE
  8
SSB
 66
      1
 70
1
 40
0.0050
 41
0.0050
  0
VERTEX
  8
SSB
 10
2.0395
 20
1.0060
 30
 0.0
 42
1.0
  0
VERTEX
  8
SSB
 10
2.0445
 20
1.0060
 30
 0.0
 42
1.0
  0
SEQEND
  8
SSB
  0
POLYLINE
  8
SSB
 66
      1
 70
1
 40
0.0050
 41
0.0050
  0
VERTEX
  8
SSB
 10
2.0395
 20
0.8860
 30
 0.0
 42
1.0
  0
VERTEX
  8
SSB
 10
2.0445
 20
0.8860
 30
 0.0
 42
1.0
  0
SEQEND
  8
SSB
  0
POLYLINE
  8
SSB
 66
      1
 70
0
 40
0.0100
 41
0.0100
  0
VERTEX
  8
SSB
 10
2.0170
 20
0.9110
 30
 0.0
 42
0.9999999999999999
  0
VERTEX
  8
SSB
 10
1.9870
 20
0.9110
 30
 0.0
  0
SEQEND
  8
SSB
  0
POLYLINE
  8
SSB
 66
      1
 70
1
 40
0.0050
 41
0.0050
  0
VERTEX
  8
SSB
 10
2.0145
 20
0.9110
 30
 0.0
 42
1.0
  0
VERTEX
  8
SSB
 10
2.0195
 20
0.9110
 30
 0.0
 42
1.0
  0
SEQEND
  8
SSB
  0
POLYLINE
  8
SSB
 66
      1
 70
1
 40
0.0050
 41
0.0050
  0
VERTEX
  8
SSB
 10
1.9845
 20
0.9110
 30
 0.0
 42
1.0
  0
VERTEX
  8
SSB
 10
1.9895
 20
0.9110
 30
 0.0
 42
1.0
  0
SEQEND
  8
SSB
  0
POLYLINE
  8
SSB
 66
      1
 70
0
 40
0.0100
 41
0.0100
  0
VERTEX
  8
SSB
 10
1.9870
 20
0.9110
 30
 0.0
 42
0.9999999999999999
  0
VERTEX
  8
SSB
 10
2.0170
 20
0.9110
 30
 0.0
  0
SEQEND
  8
SSB
  0
POLYLINE
  8
SSB
 66
      1
 70
1
 40
0.0050
 41
0.0050
  0
VERTEX
  8
SSB
 10
1.9845
 20
0.9110
 30
 0.0
 42
1.0
  0
VERTEX
  8
SSB
 10
1.9895
 20
0.9110
 30
 0.0
 42
1.0
  0
SEQEND
  8
SSB
  0
POLYLINE
  8
SSB
 66
      1
 70
1
 40
0.0050
 41
0.0050
  0
VERTEX
  8
SSB
 10
2.0145
 20
0.9110
 30
 0.0
 42
1.0
  0
VERTEX
  8
SSB
 10
2.0195
 20
0.9110
 30
 0.0
 42
1.0
  0
SEQEND
  8
SSB
  0
POLYLINE
  8
SST
 66
      1
 70
1
 40
0.0100
 41
0.0100
  0
VERTEX
  8
SST
 10
1.8420
 20
0.8860
 30
 0.0
  0
VERTEX
  8
SST
 10
2.0420
 20
0.8860
 30
 0.0
  0
VERTEX
  8
SST
 10
2.0420
 20
1.0060
 30
 0.0
  0
VERTEX
  8
SST
 10
1.8420
 20
1.0060
 30
 0.0
  0
VERTEX
  8
SST
 10
1.8420
 20
0.8860
 30
 0.0
  0
SEQEND
  8
SST
  0
POLYLINE
  8
SST
 66
      1
 70
1
 40
0.0050
 41
0.0050
  0
VERTEX
  8
SST
 10
1.8395
 20
0.8860
 30
 0.0
 42
1.0
  0
VERTEX
  8
SST
 10
1.8445
 20
0.8860
 30
 0.0
 42
1.0
  0
SEQEND
  8
SST
  0
POLYLINE
  8
SST
 66
      1
 70
1
 40
0.0050
 41
0.0050
  0
VERTEX
  8
SST
 10
2.0395
 20
0.8860
 30
 0.0
 42
1.0
  0
VERTEX
  8
SST
 10
2.0445
 20
0.8860
 30
 0.0
 42
1.0
  0
SEQEND
  8
SST
  0
POLYLINE
  8
SST
 66
      1
 70
1
 40
0.0050
 41
0.0050
  0
VERTEX
  8
SST
 10
2.0395
 20
1.0060
 30
 0.0
 42
1.0
  0
VERTEX
  8
SST
 10
2.0445
 20
1.0060
 30
 0.0
 42
1.0
  0
SEQEND
  8
SST
  0
POLYLINE
  8
SST
 66
      1
 70
1
 40
0.0050
 41
0.0050
  0
VERTEX
  8
SST
 10
1.8395
 20
1.0060
 30
 0.0
 42
1.0
  0
VERTEX
  8
SST
 10
1.8445
 20
1.0060
 30
 0.0
 42
1.0
  0
SEQEND
  8
SST
  0
POLYLINE
  8
SST
 66
      1
 70
1
 40
0.0050
 41
0.0050
  0
VERTEX
  8
SST
 10
1.8395
 20
0.8860
 30
 0.0
 42
1.0
  0
VERTEX
  8
SST
 10
1.8445
 20
0.8860
 30
 0.0
 42
1.0
  0
SEQEND
  8
SST
  0
POLYLINE
  8
SST
 66
      1
 70
1
 40
0.0100
 41
0.0100
  0
VERTEX
  8
SST
 10
0.5050
 20
1.0620
 30
 0.0
  0
VERTEX
  8
SST
 10
0.5700
 20
1.0620
 30
 0.0
  0
VERTEX
  8
SST
 10
0.5700
 20
0.9470
 30
 0.0
  0
VERTEX
  8
SST
 10
0.5050
 20
0.9470
 30
 0.0
  0
VERTEX
  8
SST
 10
0.5050
 20
1.0620
 30
 0.0
  0
SEQEND
  8
SST
  0
POLYLINE
  8
SST
 66
      1
 70
1
 40
0.0050
 41
0.0050
  0
VERTEX
  8
SST
 10
0.5025
 20
1.0620
 30
 0.0
 42
1.0
  0
VERTEX
  8
SST
 10
0.5075
 20
1.0620
 30
 0.0
 42
1.0
  0
SEQEND
  8
SST
  0
POLYLINE
  8
SST
 66
      1
 70
1
 40
0.0050
 41
0.0050
  0
VERTEX
  8
SST
 10
0.5675
 20
1.0620
 30
 0.0
 42
1.0
  0
VERTEX
  8
SST
 10
0.5725
 20
1.0620
 30
 0.0
 42
1.0
  0
SEQEND
  8
SST
  0
POLYLINE
  8
SST
 66
      1
 70
1
 40
0.0050
 41
0.0050
  0
VERTEX
  8
SST
 10
0.5675
 20
0.9470
 30
 0.0
 42
1.0
  0
VERTEX
  8
SST
 10
0.5725
 20
0.9470
 30
 0.0
 42
1.0
  0
SEQEND
  8
SST
  0
POLYLINE
  8
SST
 66
      1
 70
1
 40
0.0050
 41
0.0050
  0
VERTEX
  8
SST
 10
0.5025
 20
0.9470
 30
 0.0
 42
1.0
  0
VERTEX
  8
SST
 10
0.5075
 20
0.9470
 30
 0.0
 42
1.0
  0
SEQEND
  8
SST
  0
POLYLINE
  8
SST
 66
      1
 70
1
 40
0.0050
 41
0.0050
  0
VERTEX
  8
SST
 10
0.5025
 20
1.0620
 30
 0.0
 42
1.0
  0
VERTEX
  8
SST
 10
0.5075
 20
1.0620
 30
 0.0
 42
1.0
  0
SEQEND
  8
SST
  0
POLYLINE
  8
SST
 66
      1
 70
0
 40
0.0100
 41
0.0100
  0
VERTEX
  8
SST
 10
0.1780
 20
1.2880
 30
 0.0
 42
0.9999999999999999
  0
VERTEX
  8
SST
 10
0.0380
 20
1.2880
 30
 0.0
  0
SEQEND
  8
SST
  0
POLYLINE
  8
SST
 66
      1
 70
1
 40
0.0050
 41
0.0050
  0
VERTEX
  8
SST
 10
0.1755
 20
1.2880
 30
 0.0
 42
1.0
  0
VERTEX
  8
SST
 10
0.1805
 20
1.2880
 30
 0.0
 42
1.0
  0
SEQEND
  8
SST
  0
POLYLINE
  8
SST
 66
      1
 70
1
 40
0.0050
 41
0.0050
  0
VERTEX
  8
SST
 10
0.0355
 20
1.2880
 30
 0.0
 42
1.0
  0
VERTEX
  8
SST
 10
0.0405
 20
1.2880
 30
 0.0
 42
1.0
  0
SEQEND
  8
SST
  0
POLYLINE
  8
SST
 66
      1
 70
0
 40
0.0100
 41
0.0100
  0
VERTEX
  8
SST
 10
0.0380
 20
1.2880
 30
 0.0
 42
0.9999999999999999
  0
VERTEX
  8
SST
 10
0.1780
 20
1.2880
 30
 0.0
  0
SEQEND
  8
SST
  0
POLYLINE
  8
SST
 66
      1
 70
1
 40
0.0050
 41
0.0050
  0
VERTEX
  8
SST
 10
0.0355
 20
1.2880
 30
 0.0
 42
1.0
  0
VERTEX
  8
SST
 10
0.0405
 20
1.2880
 30
 0.0
 42
1.0
  0
SEQEND
  8
SST
  0
POLYLINE
  8
SST
 66
      1
 70
1
 40
0.0050
 41
0.0050
  0
VERTEX
  8
SST
 10
0.1755
 20
1.2880
 30
 0.0
 42
1.0
  0
VERTEX
  8
SST
 10
0.1805
 20
1.2880
 30
 0.0
 42
1.0
  0
SEQEND
  8
SST
  0
POLYLINE
  8
0
 66
      1
 70
1
 40
0.0010
 41
0.0010
  0
VERTEX
  8
0
 10
0.0290
 20
1.2090
 30
 0.0
  0
VERTEX
  8
0
 10
0.0290
 20
1.3670
 30
 0.0
  0
VERTEX
  8
0
 10
0.1870
 20
1.3670
 30
 0.0
  0
VERTEX
  8
0
 10
0.1870
 20
1.2090
 30
 0.0
  0
VERTEX
  8
0
 10
0.0290
 20
1.2090
 30
 0.0
  0
SEQEND
  8
0
  0
POLYLINE
  8
0
 66
      1
 70
1
 40
0.0005
 41
0.0005
  0
VERTEX
  8
0
 10
0.0287
 20
1.2090
 30
 0.0
 42
1.0
  0
VERTEX
  8
0
 10
0.0292
 20
1.2090
 30
 0.0
 42
1.0
  0
SEQEND
  8
0
  0
POLYLINE
  8
0
 66
      1
 70
1
 40
0.0005
 41
0.0005
  0
VERTEX
  8
0
 10
0.0287
 20
1.3670
 30
 0.0
 42
1.0
  0
VERTEX
  8
0
 10
0.0292
 20
1.3670
 30
 0.0
 42
1.0
  0
SEQEND
  8
0
  0
POLYLINE
  8
0
 66
      1
 70
1
 40
0.0005
 41
0.0005
  0
VERTEX
  8
0
 10
0.1868
 20
1.3670
 30
 0.0
 42
1.0
  0
VERTEX
  8
0
 10
0.1873
 20
1.3670
 30
 0.0
 42
1.0
  0
SEQEND
  8
0
  0
POLYLINE
  8
0
 66
      1
 70
1
 40
0.0005
 41
0.0005
  0
VERTEX
  8
0
 10
0.1868
 20
1.2090
 30
 0.0
 42
1.0
  0
VERTEX
  8
0
 10
0.1873
 20
1.2090
 30
 0.0
 42
1.0
  0
SEQEND
  8
0
  0
POLYLINE
  8
0
 66
      1
 70
1
 40
0.0005
 41
0.0005
  0
VERTEX
  8
0
 10
0.0287
 20
1.2090
 30
 0.0
 42
1.0
  0
VERTEX
  8
0
 10
0.0292
 20
1.2090
 30
 0.0
 42
1.0
  0
SEQEND
  8
0
  0
POLYLINE
  8
SST
 66
      1
 70
0
 40
0.0100
 41
0.0100
  0
VERTEX
  8
SST
 10
0.1780
 20
0.5560
 30
 0.0
 42
0.9999999999999999
  0
VERTEX
  8
SST
 10
0.0380
 20
0.5560
 30
 0.0
  0
SEQEND
  8
SST
  0
POLYLINE
  8
SST
 66
      1
 70
1
 40
0.0050
 41
0.0050
  0
VERTEX
  8
SST
 10
0.1755
 20
0.5560
 30
 0.0
 42
1.0
  0
VERTEX
  8
SST
 10
0.1805
 20
0.5560
 30
 0.0
 42
1.0
  0
SEQEND
  8
SST
  0
POLYLINE
  8
SST
 66
      1
 70
1
 40
0.0050
 41
0.0050
  0
VERTEX
  8
SST
 10
0.0355
 20
0.5560
 30
 0.0
 42
1.0
  0
VERTEX
  8
SST
 10
0.0405
 20
0.5560
 30
 0.0
 42
1.0
  0
SEQEND
  8
SST
  0
POLYLINE
  8
SST
 66
      1
 70
0
 40
0.0100
 41
0.0100
  0
VERTEX
  8
SST
 10
0.0380
 20
0.5560
 30
 0.0
 42
0.9999999999999999
  0
VERTEX
  8
SST
 10
0.1780
 20
0.5560
 30
 0.0
  0
SEQEND
  8
SST
  0
POLYLINE
  8
SST
 66
      1
 70
1
 40
0.0050
 41
0.0050
  0
VERTEX
  8
SST
 10
0.0355
 20
0.5560
 30
 0.0
 42
1.0
  0
VERTEX
  8
SST
 10
0.0405
 20
0.5560
 30
 0.0
 42
1.0
  0
SEQEND
  8
SST
  0
POLYLINE
  8
SST
 66
      1
 70
1
 40
0.0050
 41
0.0050
  0
VERTEX
  8
SST
 10
0.1755
 20
0.5560
 30
 0.0
 42
1.0
  0
VERTEX
  8
SST
 10
0.1805
 20
0.5560
 30
 0.0
 42
1.0
  0
SEQEND
  8
SST
  0
POLYLINE
  8
0
 66
      1
 70
1
 40
0.0010
 41
0.0010
  0
VERTEX
  8
0
 10
0.0290
 20
0.4760
 30
 0.0
  0
VERTEX
  8
0
 10
0.0290
 20
0.6350
 30
 0.0
  0
VERTEX
  8
0
 10
0.1870
 20
0.6350
 30
 0.0
  0
VERTEX
  8
0
 10
0.1870
 20
0.4760
 30
 0.0
  0
VERTEX
  8
0
 10
0.0290
 20
0.4760
 30
 0.0
  0
SEQEND
  8
0
  0
POLYLINE
  8
0
 66
      1
 70
1
 40
0.0005
 41
0.0005
  0
VERTEX
  8
0
 10
0.0287
 20
0.4760
 30
 0.0
 42
1.0
  0
VERTEX
  8
0
 10
0.0292
 20
0.4760
 30
 0.0
 42
1.0
  0
SEQEND
  8
0
  0
POLYLINE
  8
0
 66
      1
 70
1
 40
0.0005
 41
0.0005
  0
VERTEX
  8
0
 10
0.0287
 20
0.6350
 30
 0.0
 42
1.0
  0
VERTEX
  8
0
 10
0.0292
 20
0.6350
 30
 0.0
 42
1.0
  0
SEQEND
  8
0
  0
POLYLINE
  8
0
 66
      1
 70
1
 40
0.0005
 41
0.0005
  0
VERTEX
  8
0
 10
0.1868
 20
0.6350
 30
 0.0
 42
1.0
  0
VERTEX
  8
0
 10
0.1873
 20
0.6350
 30
 0.0
 42
1.0
  0
SEQEND
  8
0
  0
POLYLINE
  8
0
 66
      1
 70
1
 40
0.0005
 41
0.0005
  0
VERTEX
  8
0
 10
0.1868
 20
0.4760
 30
 0.0
 42
1.0
  0
VERTEX
  8
0
 10
0.1873
 20
0.4760
 30
 0.0
 42
1.0
  0
SEQEND
  8
0
  0
POLYLINE
  8
0
 66
      1
 70
1
 40
0.0005
 41
0.0005
  0
VERTEX
  8
0
 10
0.0287
 20
0.4760
 30
 0.0
 42
1.0
  0
VERTEX
  8
0
 10
0.0292
 20
0.4760
 30
 0.0
 42
1.0
  0
SEQEND
  8
0
  0
POLYLINE
  8
SST
 66
      1
 70
0
 40
0.0100
 41
0.0100
  0
VERTEX
  8
SST
 10
2.3830
 20
0.5560
 30
 0.0
 42
0.9999999999999999
  0
VERTEX
  8
SST
 10
2.2430
 20
0.5560
 30
 0.0
  0
SEQEND
  8
SST
  0
POLYLINE
  8
SST
 66
      1
 70
1
 40
0.0050
 41
0.0050
  0
VERTEX
  8
SST
 10
2.3805
 20
0.5560
 30
 0.0
 42
1.0
  0
VERTEX
  8
SST
 10
2.3855
 20
0.5560
 30
 0.0
 42
1.0
  0
SEQEND
  8
SST
  0
POLYLINE
  8
SST
 66
      1
 70
1
 40
0.0050
 41
0.0050
  0
VERTEX
  8
SST
 10
2.2405
 20
0.5560
 30
 0.0
 42
1.0
  0
VERTEX
  8
SST
 10
2.2455
 20
0.5560
 30
 0.0
 42
1.0
  0
SEQEND
  8
SST
  0
POLYLINE
  8
SST
 66
      1
 70
0
 40
0.0100
 41
0.0100
  0
VERTEX
  8
SST
 10
2.2430
 20
0.5560
 30
 0.0
 42
0.9999999999999999
  0
VERTEX
  8
SST
 10
2.3830
 20
0.5560
 30
 0.0
  0
SEQEND
  8
SST
  0
POLYLINE
  8
SST
 66
      1
 70
1
 40
0.0050
 41
0.0050
  0
VERTEX
  8
SST
 10
2.2405
 20
0.5560
 30
 0.0
 42
1.0
  0
VERTEX
  8
SST
 10
2.2455
 20
0.5560
 30
 0.0
 42
1.0
  0
SEQEND
  8
SST
  0
POLYLINE
  8
SST
 66
      1
 70
1
 40
0.0050
 41
0.0050
  0
VERTEX
  8
SST
 10
2.3805
 20
0.5560
 30
 0.0
 42
1.0
  0
VERTEX
  8
SST
 10
2.3855
 20
0.5560
 30
 0.0
 42
1.0
  0
SEQEND
  8
SST
  0
POLYLINE
  8
0
 66
      1
 70
1
 40
0.0010
 41
0.0010
  0
VERTEX
  8
0
 10
2.2330
 20
0.4760
 30
 0.0
  0
VERTEX
  8
0
 10
2.2330
 20
0.6350
 30
 0.0
  0
VERTEX
  8
0
 10
2.3920
 20
0.6350
 30
 0.0
  0
VERTEX
  8
0
 10
2.3920
 20
0.4760
 30
 0.0
  0
VERTEX
  8
0
 10
2.2330
 20
0.4760
 30
 0.0
  0
SEQEND
  8
0
  0
POLYLINE
  8
0
 66
      1
 70
1
 40
0.0005
 41
0.0005
  0
VERTEX
  8
0
 10
2.2328
 20
0.4760
 30
 0.0
 42
1.0
  0
VERTEX
  8
0
 10
2.2333
 20
0.4760
 30
 0.0
 42
1.0
  0
SEQEND
  8
0
  0
POLYLINE
  8
0
 66
      1
 70
1
 40
0.0005
 41
0.0005
  0
VERTEX
  8
0
 10
2.2328
 20
0.6350
 30
 0.0
 42
1.0
  0
VERTEX
  8
0
 10
2.2333
 20
0.6350
 30
 0.0
 42
1.0
  0
SEQEND
  8
0
  0
POLYLINE
  8
0
 66
      1
 70
1
 40
0.0005
 41
0.0005
  0
VERTEX
  8
0
 10
2.3917
 20
0.6350
 30
 0.0
 42
1.0
  0
VERTEX
  8
0
 10
2.3922
 20
0.6350
 30
 0.0
 42
1.0
  0
SEQEND
  8
0
  0
POLYLINE
  8
0
 66
      1
 70
1
 40
0.0005
 41
0.0005
  0
VERTEX
  8
0
 10
2.3917
 20
0.4760
 30
 0.0
 42
1.0
  0
VERTEX
  8
0
 10
2.3922
 20
0.4760
 30
 0.0
 42
1.0
  0
SEQEND
  8
0
  0
POLYLINE
  8
0
 66
      1
 70
1
 40
0.0005
 41
0.0005
  0
VERTEX
  8
0
 10
2.2328
 20
0.4760
 30
 0.0
 42
1.0
  0
VERTEX
  8
0
 10
2.2333
 20
0.4760
 30
 0.0
 42
1.0
  0
SEQEND
  8
0
  0
POLYLINE
  8
SST
 66
      1
 70
0
 40
0.0100
 41
0.0100
  0
VERTEX
  8
SST
 10
2.3830
 20
1.2880
 30
 0.0
 42
0.9999999999999999
  0
VERTEX
  8
SST
 10
2.2430
 20
1.2880
 30
 0.0
  0
SEQEND
  8
SST
  0
POLYLINE
  8
SST
 66
      1
 70
1
 40
0.0050
 41
0.0050
  0
VERTEX
  8
SST
 10
2.3805
 20
1.2880
 30
 0.0
 42
1.0
  0
VERTEX
  8
SST
 10
2.3855
 20
1.2880
 30
 0.0
 42
1.0
  0
SEQEND
  8
SST
  0
POLYLINE
  8
SST
 66
      1
 70
1
 40
0.0050
 41
0.0050
  0
VERTEX
  8
SST
 10
2.2405
 20
1.2880
 30
 0.0
 42
1.0
  0
VERTEX
  8
SST
 10
2.2455
 20
1.2880
 30
 0.0
 42
1.0
  0
SEQEND
  8
SST
  0
POLYLINE
  8
SST
 66
      1
 70
0
 40
0.0100
 41
0.0100
  0
VERTEX
  8
SST
 10
2.2430
 20
1.2880
 30
 0.0
 42
0.9999999999999999
  0
VERTEX
  8
SST
 10
2.3830
 20
1.2880
 30
 0.0
  0
SEQEND
  8
SST
  0
POLYLINE
  8
SST
 66
      1
 70
1
 40
0.0050
 41
0.0050
  0
VERTEX
  8
SST
 10
2.2405
 20
1.2880
 30
 0.0
 42
1.0
  0
VERTEX
  8
SST
 10
2.2455
 20
1.2880
 30
 0.0
 42
1.0
  0
SEQEND
  8
SST
  0
POLYLINE
  8
SST
 66
      1
 70
1
 40
0.0050
 41
0.0050
  0
VERTEX
  8
SST
 10
2.3805
 20
1.2880
 30
 0.0
 42
1.0
  0
VERTEX
  8
SST
 10
2.3855
 20
1.2880
 30
 0.0
 42
1.0
  0
SEQEND
  8
SST
  0
POLYLINE
  8
0
 66
      1
 70
1
 40
0.0010
 41
0.0010
  0
VERTEX
  8
0
 10
2.2330
 20
1.2090
 30
 0.0
  0
VERTEX
  8
0
 10
2.2330
 20
1.3670
 30
 0.0
  0
VERTEX
  8
0
 10
2.3920
 20
1.3670
 30
 0.0
  0
VERTEX
  8
0
 10
2.3920
 20
1.2090
 30
 0.0
  0
VERTEX
  8
0
 10
2.2330
 20
1.2090
 30
 0.0
  0
SEQEND
  8
0
  0
POLYLINE
  8
0
 66
      1
 70
1
 40
0.0005
 41
0.0005
  0
VERTEX
  8
0
 10
2.2328
 20
1.2090
 30
 0.0
 42
1.0
  0
VERTEX
  8
0
 10
2.2333
 20
1.2090
 30
 0.0
 42
1.0
  0
SEQEND
  8
0
  0
POLYLINE
  8
0
 66
      1
 70
1
 40
0.0005
 41
0.0005
  0
VERTEX
  8
0
 10
2.2328
 20
1.3670
 30
 0.0
 42
1.0
  0
VERTEX
  8
0
 10
2.2333
 20
1.3670
 30
 0.0
 42
1.0
  0
SEQEND
  8
0
  0
POLYLINE
  8
0
 66
      1
 70
1
 40
0.0005
 41
0.0005
  0
VERTEX
  8
0
 10
2.3917
 20
1.3670
 30
 0.0
 42
1.0
  0
VERTEX
  8
0
 10
2.3922
 20
1.3670
 30
 0.0
 42
1.0
  0
SEQEND
  8
0
  0
POLYLINE
  8
0
 66
      1
 70
1
 40
0.0005
 41
0.0005
  0
VERTEX
  8
0
 10
2.3917
 20
1.2090
 30
 0.0
 42
1.0
  0
VERTEX
  8
0
 10
2.3922
 20
1.2090
 30
 0.0
 42
1.0
  0
SEQEND
  8
0
  0
POLYLINE
  8
0
 66
      1
 70
1
 40
0.0005
 41
0.0005
  0
VERTEX
  8
0
 10
2.2328
 20
1.2090
 30
 0.0
 42
1.0
  0
VERTEX
  8
0
 10
2.2333
 20
1.2090
 30
 0.0
 42
1.0
  0
SEQEND
  8
0
  0
POLYLINE
  8
SST
 66
      1
 70
0
 40
0.0100
 41
0.0100
  0
VERTEX
  8
SST
 10
2.3120
 20
1.1500
 30
 0.0
  0
VERTEX
  8
SST
 10
2.3120
 20
0.7010
 30
 0.0
  0
SEQEND
  8
SST
  0
POLYLINE
  8
SST
 66
      1
 70
1
 40
0.0050
 41
0.0050
  0
VERTEX
  8
SST
 10
2.3095
 20
1.1500
 30
 0.0
 42
1.0
  0
VERTEX
  8
SST
 10
2.3145
 20
1.1500
 30
 0.0
 42
1.0
  0
SEQEND
  8
SST
  0
POLYLINE
  8
SST
 66
      1
 70
1
 40
0.0050
 41
0.0050
  0
VERTEX
  8
SST
 10
2.3095
 20
0.7010
 30
 0.0
 42
1.0
  0
VERTEX
  8
SST
 10
2.3145
 20
0.7010
 30
 0.0
 42
1.0
  0
SEQEND
  8
SST
  0
TEXT
  8
SST
 10
2.1040
 20
0.6350
 40
0.0500
 41
0.8000
  1
XT1
 50
360.0000
  0
TEXT
  8
SST
 10
0.6890
 20
0.5610
 40
0.0500
 41
0.8000
  1
C2
 50
0.0000
  0
TEXT
  8
SST
 10
1.2010
 20
0.6850
 40
0.0500
 41
0.8000
  1
1
 50
180.0000
  0
TEXT
  8
SST
 10
0.5130
 20
1.2100
 40
0.0500
 41
0.8000
  1
C3
 50
360.0000
  0
TEXT
  8
SSB
 10
0.2860
 20
1.2920
 40
0.0500
 41
0.8000
  1
-
 50
0.0000
  0
TEXT
  8
SST
 10
1.9900
 20
1.0870
 40
0.0500
 41
0.8000
  1
DA1
 50
0.0000
  0
TEXT
  8
SST
 10
0.1930
 20
1.0020
 40
0.0500
 41
0.8000
  1
1
 50
270.0000
  0
TEXT
  8
SST
 10
0.1920
 20
0.8390
 40
0.0500
 41
0.8000
  1
5
 50
270.0000
  0
TEXT
  8
SST
 10
0.3350
 20
0.6310
 40
0.0500
 41
0.8000
  1
XS1
 50
360.0000
  0
TEXT
  8
SST
 10
1.2310
 20
0.5650
 40
0.0500
 41
0.8000
  1
C4
 50
0.0000
  0
TEXT
  8
SST
 10
0.8380
 20
0.5630
 40
0.0500
 41
0.8000
  1
R2
 50
360.0000
  0
TEXT
  8
SST
 10
0.5050
 20
0.8660
 40
0.0500
 41
0.8000
  1
C8
 50
360.0000
  0
TEXT
  8
SST
 10
1.8080
 20
0.6910
 40
0.0500
 41
0.8000
  1
C7
 50
360.0000
  0
TEXT
  8
SST
 10
1.4910
 20
1.1800
 40
0.0500
 41
0.8000
  1
C6
 50
360.0000
  0
TEXT
  8
SST
 10
1.8290
 20
1.2300
 40
0.0500
 41
0.8000
  1
R6
 50
360.0000
  0
TEXT
  8
SST
 10
1.0740
 20
1.2880
 40
0.0500
 41
0.8000
  1
R3
 50
360.0000
  0
TEXT
  8
SST
 10
1.2320
 20
1.3010
 40
0.0500
 41
0.8000
  1
HL2
 50
0.0000
  0
TEXT
  8
SST
 10
1.0800
 20
1.1680
 40
0.0500
 41
0.8000
  1
DD2
 50
360.0000
  0
TEXT
  8
SST
 10
1.4990
 20
0.8790
 40
0.0500
 41
0.8000
  1
C5
 50
360.0000
  0
TEXT
  8
SST
 10
2.0660
 20
1.2900
 40
0.0500
 41
0.8000
  1
J2
 50
360.0000
  0
TEXT
  8
SST
 10
1.9220
 20
1.2260
 40
0.0500
 41
0.8000
  1
R5
 50
360.0000
  0
TEXT
  8
SST
 10
0.7490
 20
1.2340
 40
0.0500
 41
0.8000
  1
DD1
 50
360.0000
  0
TEXT
  8
SST
 10
1.4940
 20
1.2900
 40
0.0500
 41
0.8000
  1
ZQ1
 50
360.0000
  0
TEXT
  8
SST
 10
0.2990
 20
1.2850
 40
0.0500
 41
0.8000
  1
HL1
 50
0.0000
  0
TEXT
  8
SST
 10
1.3730
 20
0.5590
 40
0.0500
 41
0.8000
  1
R4
 50
360.0000
  0
TEXT
  8
SST
 10
1.0280
 20
0.5460
 40
0.0500
 41
0.8000
  1
J1
 50
360.0000
  0
TEXT
  8
SST
 10
0.1180
 20
1.1550
 40
0.0500
 41
0.8000
  1
R1
 50
360.0000
  0
ENDSEC
  0
EOF
