%
T1C0.0140F200S100
X-010463Y002793
X-009243Y002163
X-007198Y005703
X-006805Y001416
X-006726Y002793
X-006726Y004091
X-006608Y005507
X-004759Y000944
X-004366Y004445
X-004208Y-000040
X-004091Y005389
X-003737Y003933
X-003539Y004444
X-003529Y001444
X-000433Y-000039
X000017Y003444
X000029Y003944
X000039Y004444
X000079Y002439
X000865Y001927
X001102Y-000040
X001416Y005231
X006062Y005393
X007075Y001175
T6C0.0764F200S100
X-011023Y-001027
X-011023Y006299
X011023Y-001027
X011023Y006299
T4C0.0430F200S100
X-001983Y-000040
X-000983Y-000040
X008558Y005821
X009558Y005821
T3C0.0394F200S100
X-009320Y001691
X-009320Y003423
T5C0.0470F200S100
X010227Y001169
X010227Y002669
X010227Y004169
T2C0.0320F200S100
X004759Y003023
X004759Y004923
M30
