*
G04 Mass Parameters ***
*
G04 Image ***
*
%INC:\DOLGUNOV\USBTIN\HW\TRUNK\USBTIN.TOP*%
%ICAS*%
%MOIN*%
%IPPOS*%
%ASAXBY*%
G74*%FSLAN2X34Y34*%
*
G04 Aperture Definitions ***
*
%ADD10R,0.0320X0.0380*%
%ADD11R,0.0380X0.0320*%
%ADD12O,0.0250X0.0720*%
%ADD13R,0.0250X0.0720*%
%ADD14O,0.0860X0.0240*%
%ADD15R,0.0860X0.0240*%
%ADD16R,0.0450X0.0800*%
%ADD17C,0.0630*%
%ADD18R,0.0630X0.0630*%
%ADD19C,0.0984*%
%ADD20C,0.0394*%
%ADD21R,0.1299X0.0787*%
%ADD22R,0.0984X0.0787*%
%ADD23R,0.1220X0.0197*%
%ADD24C,0.0670*%
%ADD25R,0.0670X0.0670*%
%ADD26C,0.0480*%
%ADD27C,0.0260*%
%ADD28C,0.0100*%
%ADD29C,0.0080*%
%ADD30C,0.0070*%
*
G04 Plot Data ***
*
G54D28*
G01X0007998Y0005563D02*
X0007675D01*
X0010003Y0006266D02*
X0009113D01*
Y0005376D01*
X0007679Y0007041D02*
Y0005563D01*
X0010003Y0006266D02*
Y0005376D01*
X-0002773Y-0000210D02*
Y-0000359D01*
X-0001486Y0001481D02*
X-0001718D01*
X-0003571Y-0000721D02*
Y-0000976D01*
X-0000538Y0000405D02*
X-0001428D01*
Y-0000381D01*
X-0003571Y-0000359D02*
Y-0000381D01*
X0001795Y0006469D02*
X0001085D01*
Y0005409D01*
X0001795D02*
X0001085D01*
X0001795Y0006469D02*
Y0005409D01*
X0000670Y0006469D02*
X-0000040D01*
X-0000413Y0005769D02*
Y0005659D01*
X0000670Y0005409D02*
X-0000040D01*
X0000670Y0006469D02*
Y0005409D01*
X-0007370Y0006233D02*
X-0008080D01*
Y0005173D01*
X-0007370D02*
X-0008080D01*
X-0007370Y0006233D02*
Y0005173D01*
X-0008495Y0006233D02*
X-0009205D01*
X-0008495Y0005173D02*
X-0009205D01*
X-0008495Y0006233D02*
Y0005173D01*
X0000667Y0000941D02*
X0000007D01*
X-0005371Y0007041D02*
Y0005694D01*
X-0000455Y0001194D02*
X-0001075D01*
X0000757Y0000851D02*
X0000097D01*
X-0000455Y0000694D02*
X-0001075D01*
X-0002058Y0000851D02*
X-0002075D01*
X-0001201Y0002228D02*
X-0001154Y0002181D01*
X-0000455Y0001694D02*
X-0001075D01*
X0009781Y0001301D02*
X0007805D01*
X-0000455Y0001194D02*
X-0001075D01*
X-0000027Y0002201D02*
X-0000395D01*
X-0000455Y0002194D02*
X-0001075D01*
X-0000455Y0001694D02*
X-0001075D01*
X-0001167Y0001211D02*
X-0001718D01*
X-0002851Y0005759D02*
Y0005694D01*
X-0000455Y0002694D02*
X-0001075D01*
X-0000455Y0002194D02*
X-0001075D01*
X-0000071Y0002651D02*
X-0000316D01*
X-0000455Y0003194D02*
X-0001075D01*
X-0000455Y0002694D02*
X-0001075D01*
X-0003154Y0005081D02*
X-0003528D01*
X-0000455Y0003694D02*
X-0001075D01*
X-0000455Y0003194D02*
X-0001075D01*
X-0001256Y0004271D02*
X-0001443D01*
X-0000455Y0004194D02*
X-0001075D01*
X0003089Y0002852D02*
Y0001614D01*
X-0000455Y0003694D02*
X-0001075D01*
X-0002491Y0000694D02*
Y0000130D01*
X-0000455Y0004694D02*
X-0001075D01*
X-0000455Y0004194D02*
X-0001075D01*
X-0000455Y0005194D02*
X-0001075D01*
X-0000455Y0004694D02*
X-0001075D01*
X0002827Y0004274D02*
X0002578D01*
X0002395Y0005194D02*
X0001775D01*
X0002395Y0004694D02*
X0001775D01*
X0002827Y0004114D02*
X0002578D01*
X0001559Y0005409D02*
Y0005071D01*
X0002395Y0004694D02*
X0001775D01*
X0002639Y0004893D02*
Y0004614D01*
X0002395Y0004194D02*
X0001775D01*
X0002189Y0007041D02*
Y0005194D01*
X0001919Y0007041D02*
Y0005194D01*
X0002395Y0004194D02*
X0001775D01*
X0002099Y-0000360D02*
Y-0000385D01*
X0002639Y0003774D02*
Y0003495D01*
X0002395Y0003694D02*
X0001775D01*
X0002279Y0007041D02*
Y0005194D01*
X0002395Y0003694D02*
X0001775D01*
X0002395Y0003194D02*
X0001775D01*
X0001649Y0003228D02*
Y0003160D01*
X0002395Y0003194D02*
X0001775D01*
X0002395Y0002694D02*
X0001775D01*
X0001109Y0001757D02*
Y0000980D01*
X0002395Y0002694D02*
X0001775D01*
X0002395Y0002194D02*
X0001775D01*
X0003237Y0001614D02*
X0002578D01*
X0001199Y0005409D02*
Y0002097D01*
X0002395Y0002194D02*
X0001775D01*
X0002395Y0001694D02*
X0001775D01*
X0003304Y0001114D02*
X0002645D01*
X0002395Y0001694D02*
X0001775D01*
X0003166Y0001274D02*
X0003328Y0001112D01*
X0002395Y0001194D02*
X0001775D01*
X0002645D02*
X0001525D01*
X0003516Y0000491D02*
X0001912D01*
X0005769Y0001481D02*
X0005239D01*
X-0003195Y0000774D02*
X-0003352D01*
X-0005175Y0001194D02*
X-0005795D01*
X-0006091Y0002274D02*
Y0002114D01*
X-0005175Y0000694D02*
X-0005795D01*
X-0009421Y0005680D02*
Y0005172D01*
X-0005011Y0002256D02*
Y0002132D01*
X-0005175Y0001694D02*
X-0005795D01*
X0000299Y0002301D02*
Y0001614D01*
X-0005911Y-0000151D02*
Y-0000976D01*
X-0005175Y0001194D02*
X-0005795D01*
X-0005011Y0002756D02*
Y0002632D01*
X-0005175Y0002194D02*
X-0005795D01*
X-0005979Y0002274D02*
X-0006102D01*
X-0005175Y0001694D02*
X-0005795D01*
X-0008859Y0002381D02*
X-0011761D01*
X-0005175Y0002694D02*
X-0005795D01*
X-0009205Y0006233D02*
Y0005945D01*
X-0005175Y0002194D02*
X-0005795D01*
X0011761Y-0001669D02*
X0000085D01*
X-0005371Y0000694D02*
Y0000280D01*
X-0005175Y0003194D02*
X-0005795D01*
X-0005935Y0002651D02*
X-0006005D01*
X-0005175Y0002694D02*
X-0005795D01*
X-0005408Y-0000210D02*
Y-0000360D01*
X-0003942Y0003774D02*
X-0004992D01*
X-0005175Y0003694D02*
X-0005795D01*
X-0011104Y0003911D02*
X-0011761D01*
X-0005175Y0003194D02*
X-0005795D01*
X-0005911Y0004222D02*
Y0004166D01*
X-0005175Y0004194D02*
X-0005795D01*
X-0002671Y0000694D02*
Y0000130D01*
X-0006345Y0003551D02*
X-0006406D01*
X-0005175Y0003694D02*
X-0005795D01*
X-0003906Y0004774D02*
X-0004992D01*
X-0005175Y0004694D02*
X-0005795D01*
X-0006007Y0004811D02*
X-0006406D01*
X-0005175Y0004194D02*
X-0005795D01*
X-0004201Y0004244D02*
Y0004114D01*
X-0004287Y0005559D02*
X-0004953D01*
X-0005175Y0005194D02*
X-0005795D01*
X0009438Y0004718D02*
X0009762Y0004394D01*
X-0005175Y0004694D02*
X-0005795D01*
X-0004831Y0004774D02*
Y0004615D01*
X-0002851Y0007041D02*
Y0006149D01*
X-0005175Y0005694D02*
X-0005795D01*
X-0006042Y0004901D02*
X-0006406D01*
X-0005175Y0005194D02*
X-0005795D01*
X-0002041Y0005274D02*
Y0005087D01*
X-0001259Y0005114D02*
X-0001373D01*
X-0004471Y0007041D02*
Y0005559D01*
X-0002325Y0005694D02*
X-0002916D01*
X-0002131Y0005274D02*
Y0005101D01*
X-0002325Y0005194D02*
X-0002945D01*
X0001649Y0004728D02*
Y0004660D01*
X-0003121Y0005266D02*
Y0005122D01*
X-0002325Y0005194D02*
X-0002945D01*
X-0001641Y0004901D02*
X-0001711D01*
X-0001771Y0005031D02*
Y0004961D01*
X-0002325Y0004694D02*
X-0002945D01*
X-0003031Y0003709D02*
Y0003679D01*
X-0003121Y0004766D02*
Y0004622D01*
X-0002325Y0004694D02*
X-0002945D01*
X-0001783Y0004361D02*
X-0001918D01*
X-0002221Y0004183D02*
Y0004171D01*
X-0002325Y0004194D02*
X-0002945D01*
X-0002107Y0003614D02*
X-0002142D01*
X-0003121Y0004266D02*
Y0004122D01*
X-0002325Y0004194D02*
X-0002945D01*
X-0002325Y0003694D02*
X-0002945D01*
X-0002058Y0001211D02*
X-0002234D01*
X-0003121Y0003766D02*
Y0003622D01*
X-0002325Y0003694D02*
X-0002945D01*
X0001379Y0001757D02*
Y0000839D01*
X-0002325Y0003194D02*
X-0002945D01*
X-0002129Y0002614D02*
X-0002142D01*
X-0003121Y0003266D02*
Y0003122D01*
X-0002325Y0003194D02*
X-0002945D01*
X-0001771Y0007041D02*
Y0006149D01*
X-0001940Y0003551D02*
X-0001974D01*
X-0002325Y0002694D02*
X-0002945D01*
X-0003121Y0001766D02*
Y0001622D01*
X-0002325Y0002694D02*
X-0002945D01*
X-0005078Y0000581D02*
X-0006128D01*
X-0002041Y0002784D02*
Y0002589D01*
X-0002325Y0002194D02*
X-0002945D01*
X-0003129Y0001274D02*
X-0003332D01*
X-0001251Y0001121D02*
X-0001718D01*
X-0002325Y0002194D02*
X-0002945D01*
X-0002325Y0001694D02*
X-0002945D01*
X-0006545Y0001397D02*
X-0006180Y0001032D01*
X-0002325Y0001694D02*
X-0002945D01*
X-0002325Y0001194D02*
X-0002945D01*
X-0002075D02*
X-0003195D01*
X-0003754Y0000851D02*
X-0004943D01*
X-0002075Y0000694D02*
X-0003195D01*
X-0002075Y0001194D02*
Y0000694D01*
X0006896Y0004544D02*
Y0004346D01*
X0006396Y0004543D02*
X0006249D01*
X0006311Y0004156D02*
Y0003686D01*
X0006329Y0004543D02*
Y0004251D01*
X0007003Y0004721D02*
X0006889D01*
X0006838Y0004271D02*
X0006794D01*
X-0000040Y0005769D02*
Y0005409D01*
X0002999Y0004111D02*
Y0004085D01*
X0007914Y0004361D02*
X0007718D01*
X0007589Y0004543D02*
Y0004410D01*
X0008321Y0004156D02*
Y0003686D01*
X0007762Y0002381D02*
X0006358D01*
X0007402Y0001391D02*
X0007230D01*
X0009862Y0002381D02*
X0008224D01*
X0009956Y0002291D02*
X0008236D01*
X0008321Y0002056D02*
Y0001586D01*
X0007465Y0001301D02*
X0006736D01*
X0006902Y0001391D02*
X0006821D01*
X0007319Y0001522D02*
Y0000989D01*
X0006959Y0001355D02*
Y0000989D01*
X0006311Y0002311D02*
Y0001331D01*
X0006059Y0007041D02*
Y0002563D01*
X0007902Y0001391D02*
X0007805D01*
X0006821Y0002311D02*
X0006311D01*
X-0006631Y0001002D02*
Y-0000976D01*
X-0006991Y0004189D02*
Y0004031D01*
X-0006406D02*
X-0007046D01*
Y0003471D02*
Y0003451D01*
Y0004031D02*
Y0003471D01*
X-0004111Y0000263D02*
Y-0000381D01*
X0011099Y-0001645D02*
Y-0001849D01*
X0006785Y0000989D02*
Y0000406D01*
X0007805Y0001498D02*
Y0000989D01*
X0007465Y0001121D02*
X0006672D01*
X-0006406Y0003471D02*
Y0003451D01*
X0007925Y0000989D02*
Y0000349D01*
X0009388Y0005376D02*
Y0004838D01*
X0004228Y0004631D02*
X0003467D01*
X0002999Y0007041D02*
Y0005251D01*
X0006311Y0004001D02*
X0003088D01*
X0003467Y0005251D02*
X0002827D01*
X0001379Y0005409D02*
Y0002097D01*
X0002827Y0004691D02*
Y0004671D01*
Y0005251D02*
Y0004691D01*
X0002871Y0004111D02*
X0002827D01*
X-0011104Y0004271D02*
X-0011761D01*
X0003467Y0003992D02*
X0003097D01*
X0004619Y0004493D02*
Y0003453D01*
X0006446Y0003461D02*
X0004561D01*
X0003179Y0007041D02*
Y0005251D01*
X0003467Y0002852D02*
X0002827D01*
Y0003432D02*
Y0003412D01*
X0000323Y-0000360D02*
Y-0000385D01*
X0001649Y-0000360D02*
Y-0000385D01*
X-0003301Y0001274D02*
Y0001114D01*
X0001003Y-0000360D02*
X0000443D01*
X-0000137Y0000280D02*
Y-0000360D01*
X0004200Y0003822D02*
X0004570Y0003453D01*
X0001019Y0000184D02*
Y-0000385D01*
X0000443Y-0000360D02*
X0000423D01*
X-0006406Y0005329D02*
X-0007046D01*
Y0004769D01*
X-0006004Y0005081D02*
X-0006406D01*
X-0006901Y0007041D02*
Y0005329D01*
X-0005899Y0005171D02*
X-0006406D01*
Y0004189D02*
X-0007046D01*
Y0004769D02*
Y0004749D01*
X-0005288Y0000310D02*
Y0000280D01*
X-0004268Y0000263D02*
Y-0000360D01*
X-0003751Y-0000359D02*
Y-0000381D01*
X-0004381Y-0000721D02*
Y-0000976D01*
X-0005821Y-0000205D02*
Y-0000976D01*
X-0004041Y0000221D02*
X-0004268D01*
X0000029Y-0000721D02*
Y-0000976D01*
X-0004021Y-0000721D02*
Y-0000976D01*
X0000085Y-0001750D02*
X-0010049D01*
X0000085Y-0000976D02*
Y-0001750D01*
Y-0000976D02*
X-0010049D01*
Y-0001750D01*
X-0011761Y0007041D02*
Y-0001849D01*
X0011761D02*
X-0011761D01*
X0011761Y0007041D02*
Y-0001849D01*
Y0007041D02*
X-0011761D01*
X0007229Y0000066D02*
Y-0001849D01*
X0010735Y-0001579D02*
X0000085D01*
X0011761D02*
X0011311D01*
X0011639Y-0001109D02*
Y-0001849D01*
X0011549Y-0001358D02*
Y-0001849D01*
X0011459Y-0001470D02*
Y-0001849D01*
X0011369Y-0001544D02*
Y-0001849D01*
X0011279Y-0001594D02*
Y-0001849D01*
X0011729Y0007041D02*
Y-0001849D01*
X0011009Y-0001649D02*
Y-0001849D01*
X0010919Y-0001641D02*
Y-0001849D01*
X0010829Y-0001618D02*
Y-0001849D01*
X0010739Y-0001581D02*
Y-0001849D01*
X0010649Y-0001525D02*
Y-0001849D01*
Y0000976D02*
Y-0000530D01*
X0010559Y0000845D02*
Y-0000612D01*
X0010469Y0000773D02*
Y-0000743D01*
Y-0001311D02*
Y-0001849D01*
X0010379Y0000730D02*
Y-0001849D01*
X0009113Y0006161D02*
X0008845D01*
X0010289Y0000709D02*
Y-0001849D01*
X0010199Y0000705D02*
Y-0001849D01*
X0009728Y0005376D02*
Y0004908D01*
X0008309Y0002819D02*
Y0002132D01*
X0008939Y0002819D02*
Y-0001849D01*
X0009749Y0002499D02*
Y-0001849D01*
X0008489Y0002819D02*
Y-0001849D01*
X-0011440Y-0001489D02*
X-0011761D01*
X0009839Y0000913D02*
Y-0001849D01*
X0009029Y0002819D02*
Y-0001849D01*
X0009569Y0002503D02*
Y-0001849D01*
X0008849Y0002819D02*
Y-0001849D01*
X0008759Y0002819D02*
Y-0001849D01*
X0011761Y0004001D02*
X0010691D01*
X0009389Y0002642D02*
Y-0001849D01*
X0008309Y0001510D02*
Y-0001849D01*
X0008219Y0001383D02*
Y-0001849D01*
X0008129Y0001339D02*
Y-0001849D01*
X0007229Y0001390D02*
Y0000989D01*
X0007949Y0001360D02*
Y-0001849D01*
X0007859Y0000349D02*
Y-0001849D01*
X0007499Y0000140D02*
Y-0001849D01*
X0007409Y0000075D02*
Y-0001849D01*
X-0003481Y-0000359D02*
Y-0000381D01*
X-0005101Y0000705D02*
Y0000566D01*
X-0003661Y-0000359D02*
Y-0000381D01*
X0007679Y0000320D02*
Y-0001849D01*
X0007319Y0000066D02*
Y-0001849D01*
X0011761Y0000221D02*
X0007581D01*
X0007139Y0000066D02*
Y-0001849D01*
X0006869Y0001424D02*
Y0000989D01*
X0006959Y0000066D02*
Y-0001849D01*
X-0006721Y0002533D02*
Y0002516D01*
X0006779Y0000066D02*
Y-0001849D01*
X0006689Y0000066D02*
Y-0001849D01*
X0006509Y0000066D02*
Y-0001849D01*
X0006419Y0000066D02*
Y-0001849D01*
X0006329Y0000066D02*
Y-0001849D01*
X0006686Y0001136D02*
X0006022Y0000472D01*
X0006149Y0000599D02*
Y0000406D01*
X0001469Y-0000725D02*
Y-0001849D01*
X0005879Y0000066D02*
Y-0001849D01*
X0005789Y0000066D02*
Y-0001849D01*
X0005699Y0000066D02*
Y-0001849D01*
X0005609Y0000066D02*
Y-0001849D01*
X0005519Y0000066D02*
Y-0001849D01*
X0005429Y0000066D02*
Y-0001849D01*
X0006249Y0005171D02*
X0005239D01*
X-0006280Y0002381D02*
X-0006586D01*
X0005339Y0000066D02*
Y-0001849D01*
X0005249Y0000066D02*
Y-0001849D01*
X0005159Y0000066D02*
Y-0001849D01*
X0005069Y0000066D02*
Y-0001849D01*
X0004979Y0000066D02*
Y-0001849D01*
X0004889Y0000066D02*
Y-0001849D01*
X0004619Y0000066D02*
Y-0001849D01*
X0004529Y0000066D02*
Y-0001849D01*
X0004439Y0000066D02*
Y-0001849D01*
X0004349Y0000066D02*
Y-0001849D01*
X0004259Y0000066D02*
Y-0001849D01*
X0004169Y0000066D02*
Y-0001849D01*
X0005831Y0000761D02*
X0005559D01*
X0004079Y0000066D02*
Y-0001849D01*
X0003989Y0000066D02*
Y-0001849D01*
X0003899Y0000066D02*
Y-0001849D01*
X0003467Y0003432D02*
Y0003412D01*
X0003357Y0001564D02*
X0003846Y0001075D01*
X0003809Y0000066D02*
Y-0001849D01*
X0003629Y0000066D02*
Y-0001849D01*
X0003539Y0000066D02*
Y-0001849D01*
X0005969Y0000066D02*
Y-0001849D01*
X0001739Y-0000725D02*
Y-0001849D01*
X0000749Y-0000725D02*
Y-0001849D01*
X0002999Y-0000193D02*
Y-0001849D01*
X0002932Y0000221D02*
X0002458D01*
X0003359Y0000066D02*
Y-0001849D01*
X0003269Y0000066D02*
Y-0001849D01*
X0002549Y0000694D02*
Y-0000163D01*
X0001829Y0000694D02*
Y0000574D01*
X0011761Y-0000049D02*
X0003143D01*
X0002459Y-0000714D02*
Y-0001849D01*
X0002369Y-0000725D02*
Y-0001849D01*
X0002279Y-0000725D02*
Y-0001849D01*
X0002189Y-0000725D02*
Y-0001849D01*
X0001318Y-0000139D02*
X0001003D01*
X0002099Y-0000725D02*
Y-0001849D01*
X0002009Y-0000725D02*
Y-0001849D01*
X-0002851Y-0000721D02*
Y-0000976D01*
X0002819Y-0000374D02*
Y-0001849D01*
X0001649Y-0000725D02*
Y-0001849D01*
X0000929Y0000679D02*
Y0000524D01*
X0001829Y-0000725D02*
Y-0001849D01*
X0001559Y-0000725D02*
Y-0001849D01*
X-0005821Y0000695D02*
Y0000240D01*
X0000479Y-0000725D02*
Y-0001849D01*
X0003089Y-0000102D02*
Y-0001849D01*
X0001289Y-0000725D02*
Y-0001849D01*
X0011761Y-0000229D02*
X0002964D01*
X0001379Y-0000725D02*
Y-0001849D01*
X-0003661Y0001220D02*
Y0000946D01*
X0000929Y-0000725D02*
Y-0001849D01*
X0000389Y-0000725D02*
Y-0001849D01*
X0000479Y-0000360D02*
Y-0000385D01*
X-0005371Y-0000360D02*
Y-0000976D01*
X0002549Y-0000645D02*
Y-0001849D01*
X-0009451Y0001391D02*
X-0011761D01*
X-0000061Y-0001750D02*
Y-0001849D01*
X-0000151Y-0001750D02*
Y-0001849D01*
X-0000241Y-0001750D02*
Y-0001849D01*
X-0000331Y-0001750D02*
Y-0001849D01*
X-0000421Y-0001750D02*
Y-0001849D01*
X-0000511Y-0001750D02*
Y-0001849D01*
X-0000601Y-0001750D02*
Y-0001849D01*
X-0000691Y-0001750D02*
Y-0001849D01*
X-0000781Y-0001750D02*
Y-0001849D01*
X-0000871Y-0001750D02*
Y-0001849D01*
X-0000961Y-0001750D02*
Y-0001849D01*
X-0001051Y-0001750D02*
Y-0001849D01*
X-0001141Y-0001750D02*
Y-0001849D01*
X-0001231Y-0001750D02*
Y-0001849D01*
X-0001321Y-0001750D02*
Y-0001849D01*
X-0001411Y-0001750D02*
Y-0001849D01*
X-0001501Y-0001750D02*
Y-0001849D01*
X-0001591Y-0001750D02*
Y-0001849D01*
X-0001681Y-0001750D02*
Y-0001849D01*
X-0001771Y-0001750D02*
Y-0001849D01*
X-0001861Y-0001750D02*
Y-0001849D01*
X-0001951Y-0001750D02*
Y-0001849D01*
X-0002041Y-0001750D02*
Y-0001849D01*
X-0002131Y-0001750D02*
Y-0001849D01*
X-0002221Y-0001750D02*
Y-0001849D01*
X-0002311Y-0001750D02*
Y-0001849D01*
X-0002401Y-0001750D02*
Y-0001849D01*
X-0002491Y-0001750D02*
Y-0001849D01*
X-0002581Y-0001750D02*
Y-0001849D01*
X-0002671Y-0001750D02*
Y-0001849D01*
X-0002761Y-0001750D02*
Y-0001849D01*
X-0002851Y-0001750D02*
Y-0001849D01*
X-0002941Y-0001750D02*
Y-0001849D01*
X-0003031Y-0001750D02*
Y-0001849D01*
X-0003121Y-0001750D02*
Y-0001849D01*
X-0003211Y-0001750D02*
Y-0001849D01*
X-0003301Y-0001750D02*
Y-0001849D01*
X-0003391Y-0001750D02*
Y-0001849D01*
X-0003481Y-0001750D02*
Y-0001849D01*
X-0003571Y-0001750D02*
Y-0001849D01*
X-0003661Y-0001750D02*
Y-0001849D01*
X-0003751Y-0001750D02*
Y-0001849D01*
X-0003841Y-0001750D02*
Y-0001849D01*
X-0003931Y-0001750D02*
Y-0001849D01*
X-0004021Y-0001750D02*
Y-0001849D01*
X-0004111Y-0001750D02*
Y-0001849D01*
X-0004201Y-0001750D02*
Y-0001849D01*
X-0004291Y-0001750D02*
Y-0001849D01*
X-0004381Y-0001750D02*
Y-0001849D01*
X-0004471Y-0001750D02*
Y-0001849D01*
X-0004561Y-0001750D02*
Y-0001849D01*
X-0004651Y-0001750D02*
Y-0001849D01*
X-0004741Y-0001750D02*
Y-0001849D01*
X-0004831Y-0001750D02*
Y-0001849D01*
X-0004921Y-0001750D02*
Y-0001849D01*
X-0005011Y-0001750D02*
Y-0001849D01*
X-0005101Y-0001750D02*
Y-0001849D01*
X-0005191Y-0001750D02*
Y-0001849D01*
X-0005281Y-0001750D02*
Y-0001849D01*
X-0005371Y-0001750D02*
Y-0001849D01*
X-0005461Y-0001750D02*
Y-0001849D01*
X-0005551Y-0001750D02*
Y-0001849D01*
X-0005641Y-0001750D02*
Y-0001849D01*
X-0005731Y-0001750D02*
Y-0001849D01*
X-0011581Y-0001302D02*
Y-0001849D01*
X-0005911Y-0001750D02*
Y-0001849D01*
X-0006001Y-0001750D02*
Y-0001849D01*
X-0006091Y-0001750D02*
Y-0001849D01*
X-0006181Y-0001750D02*
Y-0001849D01*
X-0006271Y-0001750D02*
Y-0001849D01*
X-0006361Y-0001750D02*
Y-0001849D01*
X-0006451Y-0001750D02*
Y-0001849D01*
X-0006541Y-0001750D02*
Y-0001849D01*
X-0006631Y-0001750D02*
Y-0001849D01*
X-0006721Y-0001750D02*
Y-0001849D01*
X-0006811Y-0001750D02*
Y-0001849D01*
X-0006901Y-0001750D02*
Y-0001849D01*
X-0006991Y-0001750D02*
Y-0001849D01*
X-0007081Y-0001750D02*
Y-0001849D01*
X-0007171Y-0001750D02*
Y-0001849D01*
X-0007261Y-0001750D02*
Y-0001849D01*
X-0007351Y-0001750D02*
Y-0001849D01*
X-0007441Y-0001750D02*
Y-0001849D01*
X-0007531Y-0001750D02*
Y-0001849D01*
X-0007621Y-0001750D02*
Y-0001849D01*
X-0007711Y-0001750D02*
Y-0001849D01*
X-0006283Y0000221D02*
X-0011761D01*
X-0007891Y-0001750D02*
Y-0001849D01*
X-0007981Y-0001750D02*
Y-0001849D01*
X-0008071Y-0001750D02*
Y-0001849D01*
X-0008161Y-0001750D02*
Y-0001849D01*
X-0008251Y-0001750D02*
Y-0001849D01*
X-0008341Y-0001750D02*
Y-0001849D01*
X-0008431Y-0001750D02*
Y-0001849D01*
X-0008521Y-0001750D02*
Y-0001849D01*
X-0008611Y-0001750D02*
Y-0001849D01*
X-0008701Y-0001750D02*
Y-0001849D01*
X-0008791Y-0001750D02*
Y-0001849D01*
X-0008881Y-0001750D02*
Y-0001849D01*
X-0008971Y-0001750D02*
Y-0001849D01*
X-0009061Y-0001750D02*
Y-0001849D01*
X-0009151Y-0001750D02*
Y-0001849D01*
X-0009241Y-0001750D02*
Y-0001849D01*
X-0009331Y-0001750D02*
Y-0001849D01*
X-0009421Y-0001750D02*
Y-0001849D01*
X-0009511Y-0001750D02*
Y-0001849D01*
X-0009601Y-0001750D02*
Y-0001849D01*
X-0009691Y-0001750D02*
Y-0001849D01*
X-0009781Y-0001750D02*
Y-0001849D01*
X-0009961Y-0001750D02*
Y-0001849D01*
X-0011104Y0000491D02*
X-0011761D01*
X-0009961Y0000281D02*
Y-0000976D01*
X-0010411Y-0001138D02*
Y-0001849D01*
X0010559Y-0001442D02*
Y-0001849D01*
X-0005821Y-0001750D02*
Y-0001849D01*
X-0010051Y0000281D02*
Y-0001849D01*
X-0010231Y0000281D02*
Y-0001849D01*
X-0010321Y0000281D02*
Y-0001849D01*
X-0010681Y-0001547D02*
Y-0001849D01*
X-0010771Y-0001596D02*
Y-0001849D01*
X-0010861Y-0001628D02*
Y-0001849D01*
X-0010951Y-0001645D02*
Y-0001849D01*
X-0011041Y-0001649D02*
Y-0001849D01*
X-0011131Y-0001640D02*
Y-0001849D01*
X-0011221Y-0001617D02*
Y-0001849D01*
X-0011311Y-0001579D02*
Y-0001849D01*
X-0011401Y-0001521D02*
Y-0001849D01*
X-0011640Y-0000949D02*
X-0011761D01*
X-0004651Y-0000360D02*
Y-0000381D01*
X-0010193Y0005531D02*
X-0011761D01*
X0006249Y0004631D02*
X0005234D01*
X-0011558Y0005981D02*
X-0011761D01*
X-0008071Y0007041D02*
Y0006233D01*
X-0011402Y0006791D02*
X-0011761D01*
X0000299Y0007041D02*
Y0006469D01*
X-0011581Y0006024D02*
Y-0000752D01*
Y0007041D02*
Y0006573D01*
X-0009324Y0006064D02*
X-0009205Y0005945D01*
X-0011643Y0006341D02*
X-0011761D01*
X-0009511Y0007041D02*
Y0006114D01*
X-0011629Y0006161D02*
X-0011761D01*
X-0009421Y0007041D02*
Y0006112D01*
X-0011560Y0006611D02*
X-0011761D01*
X-0004201Y0005153D02*
Y0005114D01*
X-0004291Y0004774D02*
Y0004693D01*
X-0011603Y0006521D02*
X-0011761D01*
X-0000017Y-0000360D02*
Y-0000381D01*
X-0010951Y0000281D02*
Y-0000409D01*
X-0010193Y0005621D02*
X-0011761D01*
X-0007046Y0005171D02*
X-0009420D01*
X-0003751Y0007041D02*
Y0005340D01*
X-0006406Y0004769D02*
Y0004749D01*
Y0005329D02*
Y0004769D01*
X-0011104Y0004181D02*
X-0011761D01*
X-0008341Y0007041D02*
Y0004832D01*
X-0008431Y0007041D02*
Y0004832D01*
X-0008859Y0003011D02*
X-0011761D01*
X-0009563Y0003641D02*
X-0011761D01*
X-0006406Y0004238D02*
Y0004189D01*
X0006419Y0002442D02*
Y0002311D01*
X-0006406Y0003451D02*
Y0002891D01*
X0003989Y0004231D02*
Y0003872D01*
X-0011041Y0000281D02*
Y-0000406D01*
X-0010321Y0007041D02*
Y0004832D01*
X-0011104Y0004091D02*
X-0011761D01*
X-0011104Y0004541D02*
X-0011761D01*
X-0006361Y0007041D02*
Y0004643D01*
X0003179Y-0000012D02*
Y-0001849D01*
X-0006091Y0007041D02*
Y0004404D01*
X-0008994Y0003404D02*
X-0008859Y0003269D01*
X-0009643Y0003371D02*
X-0011761D01*
X-0009645Y0003461D02*
X-0011761D01*
X-0006345Y0003101D02*
X-0006406D01*
X-0006345Y0003011D02*
X-0006406D01*
X0001739Y-0000360D02*
Y-0000385D01*
X-0005832Y0003191D02*
X-0006005D01*
X0004279Y0003262D02*
Y0001223D01*
X-0008859Y0002111D02*
X-0011761D01*
X-0008859Y0002291D02*
X-0011761D01*
X-0009379Y0003101D02*
X-0011761D01*
X-0006005Y0002808D02*
Y0002614D01*
X-0008859Y0002471D02*
X-0011761D01*
X-0005979Y0001614D02*
X-0006251D01*
X-0008859Y0002201D02*
X-0011761D01*
X-0003031Y0002209D02*
Y0002179D01*
X-0009610Y0001841D02*
X-0011761D01*
X-0009646Y0001661D02*
X-0011761D01*
X-0009624Y0001571D02*
X-0011761D01*
X-0002941Y-0000721D02*
Y-0000976D01*
X-0006345Y0002831D02*
X-0006469D01*
X0006785Y0000406D02*
X0003186D01*
X-0011104Y0001301D02*
X-0011761D01*
X-0011104Y0001211D02*
X-0011761D01*
X-0011104Y0001121D02*
X-0011761D01*
X-0011104Y0000851D02*
X-0011761D01*
X-0011104Y0000761D02*
X-0011761D01*
X-0003913Y0000094D02*
Y-0000359D01*
X-0004741Y-0000360D02*
Y-0000381D01*
X-0007801Y-0001750D02*
Y-0001849D01*
X-0011104Y0000311D02*
X-0011761D01*
X-0006193Y0000131D02*
X-0011761D01*
X-0006103Y0000041D02*
X-0011761D01*
X-0005923Y-0000139D02*
X-0011761D01*
X-0011104Y0000581D02*
X-0011761D01*
X-0010141Y0000281D02*
Y-0001849D01*
X-0011087Y-0000409D02*
X-0011761D01*
X-0011350Y-0000499D02*
X-0011761D01*
X-0011464Y-0000589D02*
X-0011761D01*
X-0011538Y-0000679D02*
X-0011761D01*
X-0011588Y-0000769D02*
X-0011761D01*
X-0011671Y0007041D02*
Y-0001849D01*
X-0011621Y-0000859D02*
X-0011761D01*
X-0005408Y-0000319D02*
X-0011761D01*
X-0011644Y-0001039D02*
X-0011761D01*
X-0011636Y-0001129D02*
X-0011761D01*
X-0011614Y-0001219D02*
X-0011761D01*
X-0011577Y-0001309D02*
X-0011761D01*
X-0011522Y-0001399D02*
X-0011761D01*
X-0010049Y-0001669D02*
X-0011761D01*
X-0006541Y0007041D02*
Y0005329D01*
X0002009Y0007041D02*
Y0005194D01*
X0001559Y0004817D02*
Y0004571D01*
X0002729Y0004274D02*
Y0004114D01*
X0002827Y0004614D02*
X0002578D01*
X0006315Y0003641D02*
X0004381D01*
X0010109Y0000720D02*
Y-0001849D01*
X0004799Y0000066D02*
Y-0001849D01*
X0007769Y0002374D02*
Y0002210D01*
X0008399Y0002819D02*
Y-0001849D01*
X0007925Y0000989D02*
X0007805D01*
X0007465D02*
X0007365D01*
X0004079Y0004231D02*
Y0003872D01*
X0004169Y0007041D02*
Y0004573D01*
X0006338Y0004271D02*
X0004348D01*
X0006396Y0004361D02*
X0004438D01*
X0002729Y0007041D02*
Y0004614D01*
X0006249Y0004901D02*
X0005239D01*
X0004279Y0004991D02*
X0003467D01*
X0004279Y0004721D02*
X0003467D01*
X0011761Y0001841D02*
X0008321D01*
X0004167Y0004571D02*
X0003467D01*
X0004237Y0004231D02*
X0003467D01*
X0007859Y0007041D02*
Y0005563D01*
X-0001986Y0003564D02*
X-0001940Y0003518D01*
X0009388Y0005261D02*
X0008175D01*
X0009388Y0005351D02*
X0008266D01*
X0008039Y0005223D02*
Y0004410D01*
X0004279Y0005711D02*
X0001795D01*
X0009113Y0005441D02*
X0008789D01*
X0009113Y0005531D02*
X0008895D01*
X0009113Y0005621D02*
X0008955D01*
X0003467Y0004671D02*
Y0004571D01*
X0004079Y0007041D02*
Y0004571D01*
X0003539Y0007041D02*
Y0004571D01*
X0003629Y0007041D02*
Y0004571D01*
X0008131Y0005696D02*
X0007998Y0005563D01*
X0009113Y0005711D02*
X0008989D01*
X0009113Y0005801D02*
X0009002D01*
X0009113Y0005891D02*
X0008997D01*
X0009113Y0005981D02*
X0008973D01*
X0009113Y0006071D02*
X0008926D01*
X0007465Y0001352D02*
Y0000989D01*
X0008039Y0001333D02*
Y-0001849D01*
X0004279Y0001931D02*
X0002644D01*
X0009212Y0002819D02*
X0009480Y0002551D01*
X0008579Y0002819D02*
Y-0001849D01*
X0006821Y0001516D02*
Y0001331D01*
X0007049Y0001332D02*
Y0000989D01*
X0007139Y0001342D02*
Y0000989D01*
X0009764Y0001121D02*
X0007805D01*
X0007859Y0002284D02*
Y0002206D01*
X0010004Y0000761D02*
X0007925D01*
X0001559Y0002317D02*
Y0002097D01*
X-0002058Y0001301D02*
X-0002120D01*
X0000405Y0001614D02*
X-0000272D01*
X0009764Y0001211D02*
X0007805D01*
X-0000061Y0002219D02*
Y0001614D01*
X0001525Y0000941D02*
X0001148D01*
X-0001718Y0001714D02*
X-0001330Y0001326D01*
X0002827Y0004274D02*
Y0004114D01*
X-0003353Y0000281D02*
X-0003453D01*
X0001559Y0001571D02*
X0000517D01*
X0000119Y0002182D02*
Y0001614D01*
X0000209Y0002214D02*
Y0001614D01*
X0000525Y0001564D02*
X0001250Y0000839D01*
X0001525Y0000851D02*
X0001238D01*
X-0002058Y0000941D02*
X-0002075D01*
X0001019Y0001718D02*
Y0001070D01*
X0001495Y0000839D02*
X0001250D01*
X0003449Y0000066D02*
Y-0001849D01*
X0007589Y0000230D02*
Y-0001849D01*
X0003065Y0000356D02*
X0002458Y-0000255D01*
X0002842Y0000131D02*
X0002458D01*
X0000209Y0001274D02*
Y0000739D01*
X0000029Y0002183D02*
Y0001614D01*
X0001710Y0000694D02*
X0002124Y0000280D01*
X-0003195Y0001194D02*
Y0001114D01*
X-0003391Y0001224D02*
Y0001114D01*
X0003426Y0000581D02*
X0001822D01*
X0001919Y0000694D02*
Y0000484D01*
X0009524Y0004631D02*
X0007675D01*
X-0009241Y0007041D02*
Y0005980D01*
X0009388Y0004991D02*
X0007675D01*
X0011761Y0005531D02*
X0010003D01*
X0007949Y0007041D02*
Y0005563D01*
X0009762Y0003945D02*
X0009252Y0003435D01*
X0011761Y0004091D02*
X0010691D01*
X0011761Y0004181D02*
X0010691D01*
X0011761Y0004271D02*
X0010691D01*
X0009388Y0005171D02*
X0007675D01*
X0011761Y0005261D02*
X0009728D01*
Y0004908D02*
X0010002Y0004634D01*
X0009434Y0004721D02*
X0007675D01*
X-0003829Y0005261D02*
X-0003864D01*
X-0006031Y0004361D02*
X-0006049D01*
X-0003919Y0005171D02*
X-0003948D01*
X-0003481Y0001188D02*
Y0001103D01*
X-0005101Y0005205D02*
Y0005183D01*
X-0002311Y0005809D02*
Y0005693D01*
X-0002221Y0007041D02*
Y0006149D01*
X-0002041Y0007041D02*
Y0006149D01*
X-0004021Y0005138D02*
Y0005114D01*
X-0002991Y0006099D02*
X-0003976Y0005114D01*
X-0004561Y0005219D02*
Y0005114D01*
X-0004201Y0007041D02*
Y0005624D01*
X-0001051Y0005659D02*
Y0005194D01*
X-0001411Y0007041D02*
Y0006299D01*
X-0001501Y0007041D02*
Y0006299D01*
X-0003192Y0004901D02*
X-0003708D01*
X-0001553Y0006149D02*
X-0002871D01*
X-0001321Y0001867D02*
Y0001797D01*
X0000620Y0001841D02*
X-0000227D01*
X0000605Y0001931D02*
X-0000206D01*
X0000623Y0002021D02*
X-0000218D01*
X0000682Y0002111D02*
X-0000270D01*
X0001003Y0000184D02*
Y-0000360D01*
X-0002131Y0007041D02*
Y0006149D01*
X-0002058Y0002021D02*
X-0002088D01*
X-0000241Y0007041D02*
Y0006109D01*
X-0003177Y0005351D02*
X-0003258D01*
X-0001303Y0001841D02*
X-0001365D01*
X-0001553Y0005809D02*
Y0005659D01*
X-0001141Y0002203D02*
Y0002185D01*
X-0001908Y0002651D02*
X-0002186D01*
X-0002172Y0002246D02*
X-0002058Y0002132D01*
Y0001931D02*
X-0002076D01*
X-0001475Y0002021D02*
X-0001521D01*
X-0000331Y0002227D02*
Y0002161D01*
X-0001321Y0003396D02*
Y0003201D01*
X-0001553Y0005801D02*
X-0002808D01*
X-0004921Y0007041D02*
Y0005559D01*
X0009388Y0004901D02*
X0007675D01*
X-0001998Y0002741D02*
X-0002179D01*
X0001530Y0001391D02*
X0000698D01*
X-0001314Y0003371D02*
X-0001443D01*
X0001569Y0001301D02*
X0000788D01*
X-0001207Y0003731D02*
X-0001443D01*
X-0001553Y0005711D02*
X-0002898D01*
X-0002176Y0003191D02*
X-0002289D01*
X-0001521Y0002068D02*
Y0001998D01*
X-0003661Y0007041D02*
Y0005430D01*
X-0003031Y0004209D02*
Y0004179D01*
X-0002671Y0005809D02*
Y0005694D01*
X-0004651Y0004774D02*
Y0004615D01*
X-0004561Y0007041D02*
Y0005559D01*
X0009388Y0005081D02*
X0007675D01*
X-0001311Y0004361D02*
X-0001443D01*
X-0001325Y0004451D02*
X-0001443D01*
X-0001681Y0004941D02*
Y0004871D01*
X-0002041Y0004003D02*
Y0003601D01*
X-0002219Y0004181D02*
X-0002247D01*
X0000397Y0001211D02*
X-0000364D01*
X-0001321Y0001317D02*
Y0000992D01*
X-0000151Y0002269D02*
Y0001614D01*
X-0000241Y0001816D02*
Y0001614D01*
X0000487Y0001121D02*
X-0000279D01*
X-0001861Y0002561D02*
X-0002006D01*
X-0002401Y0007041D02*
Y0006149D01*
X-0001385Y0001931D02*
X-0001455D01*
X-0002058Y0001841D02*
X-0002097D01*
X0001651Y0001661D02*
X-0000332D01*
X-0001231Y0001748D02*
Y0001707D01*
X-0001783Y0004271D02*
X-0001828D01*
X-0001231Y0007041D02*
Y0006299D01*
X-0000511Y0007041D02*
Y0006299D01*
X-0001521Y0002068D02*
X-0001309Y0001855D01*
X-0001325Y0000941D02*
X-0001718D01*
X-0001235Y0001751D02*
X-0001275D01*
X-0004111Y0005129D02*
Y0005114D01*
X-0003031Y0002709D02*
Y0002679D01*
X-0004651Y0005219D02*
Y0005114D01*
X-0001521Y0001998D02*
X-0001190Y0001666D01*
X-0003841Y0005317D02*
Y0005250D01*
X-0002176Y0003243D02*
Y0003144D01*
X-0003031Y0003209D02*
Y0003179D01*
X-0001411Y0001957D02*
Y0001887D01*
X-0001861Y0007041D02*
Y0006149D01*
X-0003391Y0007041D02*
Y0005700D01*
X-0001411Y0001406D02*
Y0000405D01*
X-0002039Y0004001D02*
X-0002082D01*
X-0001940Y0003641D02*
X-0002172D01*
X-0004921Y0005219D02*
Y0005114D01*
X0006329Y0007041D02*
Y0005683D01*
X0003336Y0000671D02*
X0001732D01*
X0001683Y0001211D02*
X0000878D01*
X-0004831Y0005219D02*
Y0005114D01*
X-0002491Y0005809D02*
Y0005694D01*
X-0001591Y0001586D02*
Y0000169D01*
X-0002058Y0001661D02*
X-0002202D01*
X-0001951Y0004660D02*
Y0004394D01*
X-0000961Y0005659D02*
Y0005194D01*
X-0000871Y0007041D02*
Y0006299D01*
X-0000781Y0007041D02*
Y0006299D01*
X-0000691Y0007041D02*
Y0006299D01*
X-0000601Y0007041D02*
Y0006299D01*
X-0003481Y0007041D02*
Y0005610D01*
X-0000421Y0007041D02*
Y0006299D01*
X-0002671Y0007041D02*
Y0006149D01*
X0000479Y0001129D02*
Y0000524D01*
X0000209Y0007041D02*
Y0006469D01*
X-0002001Y0005261D02*
X-0002155D01*
X-0000040Y0006109D02*
X-0000413D01*
X-0001051Y0007041D02*
Y0006299D01*
X-0000040Y0005711D02*
X-0000413D01*
X0007414Y0004361D02*
X0007236D01*
X0006896Y0003461D02*
X0006686D01*
X0007306Y0004543D02*
X0007236Y0004474D01*
X0007035Y0005103D02*
Y0004754D01*
X0007236Y0004474D02*
Y0004346D01*
X0009390Y0004811D02*
X0007675D01*
X0006249Y0005081D02*
X0005239D01*
X0009659Y0002499D02*
Y-0001849D01*
X0007035Y0004754D02*
X0006948Y0004666D01*
X0007229Y0004467D02*
Y0004352D01*
X0006889Y0005103D02*
Y0004543D01*
X-0000040Y0006469D02*
Y0006109D01*
X0009839Y0005376D02*
Y0004797D01*
X0006896Y0004541D02*
X0006736D01*
X0004080Y0003461D02*
X0003467D01*
X0001469Y0005409D02*
Y0002097D01*
X0004080Y0003872D02*
X0003467D01*
X0004439Y0004362D02*
Y0003583D01*
X0003089Y0007041D02*
Y0005251D01*
X0006238Y0002741D02*
X0005239D01*
X0006869Y0002465D02*
Y0002219D01*
X0008039Y0002819D02*
Y0002585D01*
X0003719Y0004231D02*
Y0003872D01*
X0006959Y0007041D02*
Y0004678D01*
X-0004741Y0005219D02*
Y0005114D01*
X0004279Y0002741D02*
X0002541D01*
X-0009331Y0007041D02*
Y0006070D01*
X-0009205Y0006071D02*
X-0009332D01*
X-0008080Y0005621D02*
X-0008495D01*
X-0007531Y0000281D02*
Y-0000976D01*
X-0009061Y0007041D02*
Y0006233D01*
X-0009553Y0005774D02*
Y0005674D01*
X-0010193Y0005891D02*
X-0010553D01*
X-0009205Y0005981D02*
X-0009242D01*
X-0009553Y0006234D02*
Y0006114D01*
X-0008971Y0007041D02*
Y0006233D01*
X-0009205Y0005533D02*
Y0005173D01*
X-0008881Y0007041D02*
Y0006233D01*
X-0008791Y0007041D02*
Y0006233D01*
X-0011643Y0006251D02*
X-0011761D01*
X-0009362Y0005621D02*
X-0009553D01*
X-0009492Y0004091D02*
X-0009860D01*
X-0009515Y0005774D02*
X-0009553D01*
X0006350Y0003551D02*
X0004471D01*
X0011761Y0003731D02*
X0010691D01*
X-0000413Y0006299D02*
Y0006109D01*
X0006920Y0004631D02*
X0006889D01*
X0007035Y0004811D02*
X0006889D01*
Y0005683D02*
Y0005123D01*
X0000479Y0005409D02*
Y0001597D01*
X0007035Y0004901D02*
X0006889D01*
X0007035Y0004991D02*
X0006889D01*
X0003629Y0004231D02*
Y0003872D01*
X0006850Y0003551D02*
X0006782D01*
X-0007261Y0007041D02*
Y0003356D01*
X0001527Y0001481D02*
X0000608D01*
X0000569Y0005409D02*
Y0001520D01*
X-0005408Y0000130D02*
X-0005711D01*
X-0005101Y0002205D02*
Y0002183D01*
X-0005979Y0001774D02*
X-0006389D01*
X-0008701Y0003785D02*
Y0003591D01*
X-0007171Y0007041D02*
Y0003356D01*
X-0006295Y0002397D02*
X-0006224Y0002326D01*
X-0005979Y0002114D02*
X-0006318D01*
X-0006181Y0001774D02*
Y0001614D01*
Y0002293D02*
Y0002114D01*
X-0006811Y0001156D02*
Y-0000976D01*
X0004279Y0002651D02*
X0002534D01*
X-0007319Y0002201D02*
X-0007379D01*
X-0004921Y0004275D02*
Y0004114D01*
X0000389Y0005409D02*
Y0001614D01*
X0001535Y0003371D02*
X0000267D01*
X0001525Y0003461D02*
X0000277D01*
X-0000179Y0003274D02*
X-0000272D01*
X0001585Y0003281D02*
X0000220D01*
X-0000185D02*
X-0000265D01*
X-0006413Y0001776D02*
X-0006251Y0001614D01*
X-0005731Y-0000210D02*
Y-0000976D01*
X-0005101Y0001705D02*
Y0001683D01*
X-0005011Y0001756D02*
Y0001632D01*
X-0005979Y0001274D02*
X-0006321D01*
X-0006177Y0002291D02*
X-0006496D01*
X-0008521Y0000281D02*
Y-0000976D01*
X-0008859Y0002958D02*
Y0002785D01*
X-0011104Y0000401D02*
X-0011761D01*
X0000749Y0001695D02*
Y0001340D01*
X0000839Y0001669D02*
Y0001250D01*
X0000929Y0001675D02*
Y0001160D01*
X0000659Y0001769D02*
Y0001430D01*
X-0007261Y0002143D02*
Y-0000976D01*
X-0006545Y0001427D02*
X-0006444Y0001326D01*
X-0007139Y0002021D02*
X-0007379D01*
X-0007229Y0002111D02*
X-0007379D01*
X-0006959Y0001841D02*
X-0007379D01*
X-0003783Y0001391D02*
X-0004931D01*
X-0003121Y0001266D02*
Y0001194D01*
X-0003191Y0004991D02*
X-0003618D01*
X-0003031Y0001709D02*
Y0001679D01*
Y0004709D02*
Y0004679D01*
X-0001943Y0005614D02*
X-0002142D01*
X-0006041Y0004991D02*
X-0006406D01*
X-0001911Y0005171D02*
X-0002221D01*
X-0002581Y0000694D02*
Y0000130D01*
X-0005927Y0003731D02*
X-0006005D01*
X-0002761Y0005809D02*
Y0005694D01*
X-0001591Y0005809D02*
Y0005332D01*
X-0001861Y0002604D02*
Y0002416D01*
X-0001967Y0005087D02*
X-0002120D01*
X-0011497Y0006701D02*
X-0011761D01*
X-0004082Y0000263D02*
X-0004268D01*
X-0002093Y0004536D02*
X-0001783Y0004226D01*
X-0001325Y0003461D02*
X-0001443D01*
X-0001301Y0003551D02*
X-0001443D01*
X-0001306Y0004541D02*
X-0001443D01*
X-0001681Y0005809D02*
Y0005422D01*
X-0001951Y0005211D02*
Y0005086D01*
X-0001846Y0005037D02*
X-0001495Y0004685D01*
X-0003121Y0007041D02*
Y0005970D01*
X-0001293Y0003821D02*
X-0001443D01*
X-0001265Y0003281D02*
X-0001401D01*
X-0002037Y0004747D02*
X-0002172D01*
X-0001861Y0005121D02*
Y0005049D01*
X-0002088Y0002831D02*
X-0002102D01*
X-0002581Y-0000721D02*
Y-0000976D01*
X0009749Y0005376D02*
Y0004887D01*
X-0001861Y0002471D02*
X-0001916D01*
X-0001323Y0003911D02*
X-0001443D01*
X-0001319Y0004001D02*
X-0001443D01*
X-0001940Y0003902D02*
Y0003518D01*
X-0001501Y0004784D02*
Y0004691D01*
X-0003211Y0007041D02*
Y0005880D01*
X0001628Y0002741D02*
X-0000309D01*
X-0001591Y0004851D02*
Y0004781D01*
X-0001222Y0002741D02*
X-0001285D01*
X-0001112Y0003191D02*
X-0001311D01*
X-0001135Y0002201D02*
X-0001174D01*
X-0001259Y0002774D02*
X-0001285D01*
X-0000961Y0007041D02*
Y0006299D01*
X-0001229Y0003641D02*
X-0001443D01*
X-0001154Y0004181D02*
X-0001443D01*
X-0001277Y0004091D02*
X-0001443D01*
X-0000241Y0002816D02*
Y0002609D01*
X-0001832Y0004541D02*
X-0002095D01*
X-0006029Y0001031D02*
X-0006180D01*
X0000209Y0003269D02*
Y0002663D01*
X-0001300Y0001301D02*
X-0001718D01*
X-0002037Y0004747D02*
X-0001783Y0004492D01*
X-0001231Y0002748D02*
Y0002640D01*
X-0001141Y0002703D02*
Y0002685D01*
X0007679Y0002464D02*
Y0002285D01*
X0007049Y0007041D02*
Y0005683D01*
X0006941Y0003281D02*
X0005239D01*
X0009994Y0001571D02*
X0008320D01*
X0008219Y0002819D02*
Y0002391D01*
X0006329Y0003591D02*
Y0002800D01*
X0007678Y0002465D02*
X0007896Y0002248D01*
X0007499Y0002465D02*
Y0002302D01*
X0008236Y0002318D02*
Y0002246D01*
X0002729Y0003774D02*
Y0001614D01*
X0011761Y0002291D02*
X0010497D01*
X-0002012Y0004721D02*
X-0002212D01*
X0006329Y0002352D02*
Y0002311D01*
X0006419Y0003478D02*
Y0002805D01*
X0007749D02*
X0006372D01*
X0004279Y0002381D02*
X0002637D01*
X0006311Y0002291D02*
X0006268D01*
X0006371Y0001301D02*
X0006092D01*
X0004279Y0001481D02*
X0003440D01*
X0007869Y0002755D02*
X0008184Y0002440D01*
X-0006541Y0002610D02*
Y0002336D01*
X-0006271Y0002372D02*
Y0002114D01*
X0006509Y0003438D02*
Y0002805D01*
X0004279Y0001301D02*
X0003620D01*
X0007852Y0002291D02*
X0007665D01*
X0006109Y0002132D02*
Y0001377D01*
X0006191Y0001121D02*
X0005924D01*
X0005769Y0002203D02*
Y0001447D01*
X0006239Y0002262D02*
Y0001170D01*
X-0008859Y0002741D02*
X-0011761D01*
X0005769Y0002201D02*
X0005239D01*
X-0006737Y0002533D02*
X-0006318Y0002114D01*
X0009806Y0002471D02*
X0008153D01*
X0006252Y0002755D02*
X0005821Y0002325D01*
X0006059Y0001256D02*
X0005590Y0000787D01*
X0004357Y0001075D02*
X0003846D01*
X0003246Y0000761D02*
X0002645D01*
X0006059Y0001256D02*
Y0000990D01*
X0006101Y0001031D02*
X0005834D01*
X0004279Y0002201D02*
X0002455D01*
X0002729Y0001274D02*
Y0001114D01*
X0002827Y0003774D02*
Y0003432D01*
X0010691Y0003705D02*
X0010002D01*
X0006311Y0001751D02*
X0006109D01*
X0003539Y0003532D02*
Y0001382D01*
X0004169Y0003372D02*
Y0001075D01*
X0006311Y0001481D02*
X0006109D01*
X0001559Y0001317D02*
Y0001194D01*
X0001608Y0001757D02*
X0001062D01*
X0002369Y0007041D02*
Y0005194D01*
X0003166Y0001274D02*
X0002578D01*
X0004279Y0002291D02*
X0002593D01*
X-0001443Y0003323D02*
X-0001246Y0003126D01*
X0002999Y0002852D02*
Y0001614D01*
X0001525Y0004451D02*
X0000298D01*
X0000119Y0004197D02*
Y0004188D01*
Y0005409D02*
Y0004691D01*
X-0000156Y0004271D02*
X-0000274D01*
X0001696Y0004181D02*
X0000135D01*
X-0000061Y0004204D02*
Y0004188D01*
X0006509Y0002465D02*
Y0002311D01*
X0007049Y0002465D02*
Y0002311D01*
X0006785Y0000581D02*
X0006132D01*
X0006834Y0001481D02*
X0006821D01*
X0006736Y0001331D02*
Y0001256D01*
X0007859Y0001437D02*
Y0000989D01*
X0011761Y0000401D02*
X0007925D01*
X0005921Y0000851D02*
X0005654D01*
X0004259Y0003282D02*
Y0001075D01*
X0006011Y0000941D02*
X0005744D01*
X0006239Y0000066D02*
Y-0001849D01*
X0006785Y0000491D02*
X0006042D01*
X0003179Y0002852D02*
Y0001614D01*
X0006599Y0000066D02*
Y-0001849D01*
X0006869Y0000066D02*
Y-0001849D01*
X0005900Y0000420D02*
X0003658D01*
X0003989Y0003532D02*
Y0001075D01*
X0006311Y0001391D02*
X0006109D01*
X0002909Y0002852D02*
Y0001614D01*
X0006785Y0000851D02*
X0006402D01*
X0002639Y0001893D02*
Y0001614D01*
X0002909Y0001274D02*
Y0001114D01*
X0003234Y0000774D02*
X0003536Y0000472D01*
X0005624Y0001301D02*
X0005239D01*
X0006281Y0001211D02*
X0006014D01*
X0004310Y0001121D02*
X0003800D01*
X-0006013Y-0000049D02*
X-0011761D01*
X0003319Y0001121D02*
X0002645D01*
X0003234Y0000774D02*
X0002645D01*
X-0003913Y-0000229D02*
X-0004268D01*
X-0002330Y-0000319D02*
X-0002773D01*
X-0002941Y0000694D02*
Y0000281D01*
X-0002851Y0000694D02*
Y0000281D01*
X-0002386Y-0000229D02*
X-0002773D01*
X-0002671Y-0000721D02*
Y-0000976D01*
X0002645Y0001194D02*
Y0001114D01*
Y0000774D02*
Y0000694D01*
X-0001681Y0001676D02*
Y0000286D01*
X-0001823Y0005564D02*
X-0001373Y0005114D01*
X-0002394Y0000130D02*
X-0002773D01*
X-0002343Y0000221D02*
X-0002773D01*
X-0002394Y0000131D02*
X-0002773D01*
X-0006811Y0007041D02*
Y0005329D01*
X-0006345Y0003641D02*
X-0006406D01*
X-0006721Y0007041D02*
Y0005329D01*
X-0006631Y0007041D02*
Y0005329D01*
X-0010193Y0005351D02*
X-0011761D01*
X-0006406Y0004238D02*
X-0006345Y0004178D01*
X-0007351Y0007041D02*
Y0003356D01*
X-0005949Y0003641D02*
X-0006005D01*
X-0005997Y0004091D02*
X-0006005D01*
X-0006451Y0007041D02*
Y0005329D01*
X-0006271Y0007041D02*
Y0004584D01*
X-0006001Y0007041D02*
Y0005587D01*
X-0009810Y0005081D02*
X-0011761D01*
X-0006345Y0004091D02*
X-0007380D01*
X-0004471Y0003774D02*
Y0000603D01*
X-0002773Y0000281D02*
Y0000130D01*
X-0006406Y0004749D02*
Y0004649D01*
X-0006045Y0004451D02*
X-0006138D01*
X-0006271Y0000209D02*
Y-0000976D01*
X-0006286Y0004599D02*
X-0006057Y0004370D01*
X-0006345Y0002561D02*
X-0006607D01*
X-0005990Y0003101D02*
X-0006005D01*
X-0005979Y0002614D02*
X-0006005D01*
X-0005461Y-0000210D02*
Y-0000976D01*
X-0005101Y0002705D02*
Y0002683D01*
X-0006345Y0002921D02*
X-0006406D01*
X-0005981Y0002111D02*
X-0006316D01*
X0004279Y0005261D02*
X-0001520D01*
X-0001783Y0004492D02*
Y0004226D01*
X-0001259Y0004774D02*
X-0001443D01*
X-0002009Y0005081D02*
X-0002116D01*
X0001528Y0004901D02*
X-0000209D01*
X-0005966Y0005261D02*
X-0006406D01*
X-0001951Y0005809D02*
Y0005614D01*
X-0002014Y0005274D02*
X-0001566Y0004826D01*
X0001661Y0004721D02*
X-0000342D01*
X-0001731Y0004991D02*
X-0001801D01*
X-0002801Y0005809D02*
X-0002916Y0005694D01*
X0011761Y0004361D02*
X0010691D01*
X-0002041Y0005809D02*
Y0005614D01*
X-0002014Y0005274D02*
X-0002142D01*
X-0005985Y0003281D02*
X-0006005D01*
X-0006414Y0001301D02*
X-0006450D01*
X0001525Y0001121D02*
X0000968D01*
X0001469Y0001757D02*
Y0000839D01*
X-0006001Y0002274D02*
Y0002114D01*
X-0004291Y0005219D02*
Y0005114D01*
X0001549Y0003551D02*
X0000254D01*
X-0000168Y0004114D02*
X-0000272D01*
X0006059Y0000066D02*
Y-0001849D01*
X-0000158Y0004274D02*
X-0000272D01*
X-0001550Y0004811D02*
X-0001621D01*
X-0003931Y0004774D02*
Y0004114D01*
X0000323Y0000555D02*
Y0000524D01*
X0001557Y0003821D02*
X0000258D01*
X-0000241Y0003774D02*
Y0003614D01*
X-0000158Y0004614D02*
X-0000272D01*
X-0000179Y0003614D02*
X-0000272D01*
X-0005855Y0002201D02*
X-0006406D01*
X0001573Y0004091D02*
X0000243D01*
X0004010Y0003532D02*
X0004279Y0003262D01*
X0004010Y0003532D02*
X0003467D01*
X0010019Y0007041D02*
Y0004634D01*
X0006249Y0005621D02*
X0005239D01*
X0004529Y0007041D02*
Y0006903D01*
X0006249Y0005441D02*
X0005239D01*
X0009209Y0002819D02*
Y-0001849D01*
X0009403Y0003109D02*
X0009673Y0002839D01*
X0009704Y0004451D02*
X0007236D01*
X0009762Y0004394D02*
Y0003945D01*
X0010691Y0004634D02*
Y0003705D01*
X0009548Y0003731D02*
X0008321D01*
X-0007046D02*
X-0008840D01*
X0008190Y0006071D02*
X0005239D01*
X-0008938Y0001328D02*
Y0000281D01*
X-0007380D02*
X-0008938D01*
X-0007380Y0001328D02*
Y0000281D01*
Y0001328D02*
X-0008938D01*
Y0004832D02*
Y0003829D01*
X-0007380Y0004832D02*
Y0003785D01*
Y0004832D02*
X-0008938D01*
X-0011104Y0001328D02*
Y0000281D01*
X-0009860D02*
X-0011104D01*
X-0009860Y0001328D02*
Y0000281D01*
Y0001328D02*
X-0011104D01*
Y0004832D02*
Y0003785D01*
X-0009860D02*
X-0011104D01*
X-0009860Y0004832D02*
Y0003785D01*
Y0004832D02*
X-0011104D01*
X-0007379Y0001698D02*
X-0008859D01*
Y0002013D02*
Y0001698D01*
X-0007379Y0002013D02*
Y0001698D01*
X-0006361Y0004193D02*
Y0002156D01*
X-0007379Y0002155D02*
Y0002013D01*
X-0008701Y0000281D02*
Y-0000976D01*
X-0008859Y0002155D02*
Y0002013D01*
X-0006965Y0001211D02*
X-0007380D01*
X-0008859Y0002470D02*
Y0002328D01*
X-0007049Y0001931D02*
X-0007379D01*
X-0008859Y0002328D02*
Y0002155D01*
X-0007351Y0002233D02*
Y-0000976D01*
X-0000241Y0004816D02*
Y0004614D01*
X0009783Y0001031D02*
X0007805D01*
X-0008859Y0002785D02*
Y0002643D01*
X-0008938Y0004181D02*
X-0009152D01*
X-0008859Y0003100D02*
Y0002958D01*
X-0009152Y0004833D02*
Y0004043D01*
X-0007046Y0003641D02*
X-0008750D01*
X0004279Y0005081D02*
X0003467D01*
X0006396Y0004543D02*
Y0004346D01*
X-0009540Y0004811D02*
X-0009860D01*
X0006249Y0005103D02*
Y0004543D01*
X0006889Y0005683D02*
X0006249D01*
X0007035Y0005081D02*
X0006889D01*
X0006249Y0005123D02*
Y0005103D01*
Y0005683D02*
Y0005123D01*
X0008068Y0005223D02*
X0007675D01*
Y0004543D02*
X0007306D01*
X0009614Y0004541D02*
X0007304D01*
X0007675Y0005683D02*
X0007035D01*
X0008039Y0007041D02*
Y0005605D01*
X0007035Y0005123D02*
Y0005103D01*
Y0005683D02*
Y0005123D01*
X0001289Y0000044D02*
Y-0000385D01*
X0002009Y0000694D02*
Y0000394D01*
X0001878Y-0000360D02*
X0001318D01*
X0000029Y-0001750D02*
Y-0001849D01*
X0001292Y0000041D02*
X0001003D01*
X0003021Y0000311D02*
X0002092D01*
X0001898Y-0000360D02*
X0001878D01*
X-0001771Y0005809D02*
Y0005512D01*
X-0000040Y0005769D02*
X-0000413D01*
X-0000993Y0005659D02*
X-0001553D01*
X-0000331Y0005769D02*
Y0005161D01*
X0004279Y0006521D02*
X-0010442D01*
X-0003571Y0007041D02*
Y0005520D01*
X-0002491Y0007041D02*
Y0006149D01*
X-0000973Y0005659D02*
X-0000993D01*
X-0006361Y0001279D02*
Y0001212D01*
X-0002394Y-0000210D02*
X-0002773D01*
X-0003353Y-0000359D02*
X-0003913D01*
X-0003391Y0000735D02*
Y0000281D01*
X-0003913Y-0000319D02*
X-0004268D01*
X0002729Y-0000464D02*
Y-0001849D01*
X-0002311Y-0000721D02*
Y-0000976D01*
X-0003333Y-0000359D02*
X-0003353D01*
X-0009445Y0006114D02*
X-0009553D01*
X-0009205Y0006161D02*
X-0009553D01*
Y0005654D02*
Y0005304D01*
X-0010193Y0005654D02*
Y0005094D01*
X-0009553Y0006234D02*
X-0010193D01*
X-0007046Y0004901D02*
X-0009166D01*
X-0010193Y0005674D02*
Y0005654D01*
Y0006234D02*
Y0005674D01*
X0009458Y0003641D02*
X0008317D01*
X0009368Y0003551D02*
X0008282D01*
X0006959Y0002465D02*
Y0002288D01*
X0007589Y0002465D02*
Y0002310D01*
X0009882Y0001481D02*
X0008298D01*
X0007467Y0002291D02*
X0007165D01*
X0011761Y0001481D02*
X0010571D01*
X0007409Y0002832D02*
Y0002805D01*
X0006599Y0002465D02*
Y0002311D01*
X0007229Y0002465D02*
Y0002252D01*
X0007139Y0002465D02*
Y0002300D01*
X0011761Y0001751D02*
X0008321D01*
X0006821Y0002311D02*
Y0002127D01*
X-0006406Y0004031D02*
Y0003471D01*
X-0006345Y0003911D02*
X-0006406D01*
X-0002127Y0002201D02*
X-0002265D01*
X-0006345Y0003281D02*
X-0006406D01*
X-0006345Y0003191D02*
X-0006406D01*
X-0006451Y0004189D02*
Y0004031D01*
X-0006541Y0004189D02*
Y0004031D01*
X-0006631Y0004189D02*
Y0004031D01*
X-0006721Y0004189D02*
Y0004031D01*
X-0006811Y0004189D02*
Y0004031D01*
X-0006901Y0004189D02*
Y0004031D01*
X0004169Y0004231D02*
Y0003847D01*
X-0006345Y0002741D02*
X-0006471D01*
X-0004471Y-0000360D02*
Y-0000381D01*
X0011761Y0002111D02*
X0008315D01*
X0003467Y0005251D02*
Y0004691D01*
X-0000040Y0005531D02*
X-0001790D01*
X0007035Y0005171D02*
X0006889D01*
X-0001215Y0002651D02*
X-0001285D01*
X-0003109Y0005981D02*
X-0007370D01*
X0007675Y0005123D02*
Y0005103D01*
X0006889Y0005123D02*
Y0005103D01*
X0004709Y0007041D02*
Y0006903D01*
X0003449Y0007041D02*
Y0005251D01*
X0003359Y0007041D02*
Y0005251D01*
X0003269Y0007041D02*
Y0005251D01*
X0002827Y0003412D02*
Y0002852D01*
X0003467Y0003412D02*
Y0002852D01*
X-0011104Y0004811D02*
X-0011761D01*
X-0004741Y0004275D02*
Y0004114D01*
X0007409Y0002465D02*
Y0002257D01*
X0003449Y0004111D02*
Y0003992D01*
X0003359Y0004111D02*
Y0003992D01*
X0002827Y0003774D02*
X0002578D01*
X0003179Y0004111D02*
Y0003992D01*
X0004799Y0004493D02*
Y0003453D01*
X0004529Y0004452D02*
Y0003493D01*
X0004170Y0003371D02*
X0003467D01*
X0009818Y0001391D02*
X0008230D01*
X0004709Y0000066D02*
Y-0001849D01*
X-0003900Y0003731D02*
X-0005044D01*
X0000569Y0001039D02*
Y0000524D01*
X0007465Y0001211D02*
X0006730D01*
X-0000118Y0002609D02*
X-0000267D01*
X0001318Y-0000319D02*
X0001003D01*
X0001525Y0001031D02*
X0001058D01*
X0000659Y-0000725D02*
Y-0001849D01*
X-0009553Y0005674D02*
Y0005654D01*
X0003467Y0004691D02*
Y0004671D01*
X-0002941Y0007041D02*
Y0006134D01*
X-0007046Y0004749D02*
Y0004189D01*
X-0006026Y0004541D02*
X-0006228D01*
X-0001553Y0005809D02*
X-0002801D01*
X-0004561Y0003774D02*
Y0000603D01*
X-0003031Y0005209D02*
Y0005179D01*
X-0006001Y0002801D02*
Y0002614D01*
X0003089Y0001274D02*
Y0001114D01*
X-0005191Y0000694D02*
Y0000478D01*
X-0004471Y-0000721D02*
Y-0000976D01*
X-0006451Y0001333D02*
Y0001302D01*
X-0005909Y0004721D02*
X-0006406D01*
X-0006345Y0003821D02*
X-0006406D01*
X-0006345Y0003371D02*
X-0006406D01*
X-0008859Y0002921D02*
X-0011761D01*
X0011761Y-0000139D02*
X0003053D01*
X-0003913Y0000041D02*
X-0004268D01*
X0000029Y0003184D02*
Y0002694D01*
X-0001443Y0004563D02*
Y0003323D01*
X-0011227Y0005711D02*
X-0011761D01*
X-0002491Y-0000721D02*
Y-0000976D01*
X-0000241Y-0000721D02*
Y-0000976D01*
X-0000331Y-0000721D02*
Y-0000976D01*
X-0000421Y-0000721D02*
Y-0000976D01*
X-0001231Y-0000721D02*
Y-0000976D01*
X0001318Y-0000229D02*
X0001003D01*
X-0003913Y-0000049D02*
X-0004268D01*
X-0001501Y-0000721D02*
Y-0000976D01*
X-0001591Y-0000721D02*
Y-0000976D01*
X-0002671Y-0000210D02*
Y-0000381D01*
X-0000061Y-0000360D02*
Y-0000381D01*
X-0000017Y-0000360D02*
X-0000137D01*
X-0001951Y-0000721D02*
Y-0000976D01*
X-0002041Y-0000721D02*
Y-0000976D01*
X-0002131Y-0000721D02*
Y-0000976D01*
X-0002221Y-0000721D02*
Y-0000976D01*
X0002999Y0001274D02*
Y0001114D01*
X-0000781Y-0000721D02*
Y-0000976D01*
X-0001411Y-0000721D02*
Y-0000976D01*
X-0001681Y-0000721D02*
Y-0000976D01*
X-0003792Y0000761D02*
X-0005005D01*
X-0003391Y-0000721D02*
Y-0000976D01*
X-0003931Y0003760D02*
Y0000582D01*
X-0003031Y-0000721D02*
Y-0000976D01*
X-0004111Y-0000721D02*
Y-0000976D01*
X-0003333Y0000281D02*
X-0003353D01*
X-0002401Y-0000721D02*
Y-0000976D01*
X-0003121Y-0000721D02*
Y-0000976D01*
X-0003481Y-0000721D02*
Y-0000976D01*
X-0003301Y-0000721D02*
Y-0000976D01*
X-0003661Y-0000721D02*
Y-0000976D01*
X-0002058Y0000581D02*
X-0003453D01*
X-0003194Y0005416D02*
X-0003784Y0004826D01*
X-0000118Y0002269D02*
X-0000277D01*
X-0004561Y-0000360D02*
Y-0000381D01*
X-0003931Y0000111D02*
Y-0000381D01*
X-0001861Y-0000721D02*
Y-0000976D01*
X-0001681Y-0000366D02*
Y-0000381D01*
X-0004741Y-0000721D02*
Y-0000976D01*
X-0004201Y-0000721D02*
Y-0000976D01*
X-0003931Y-0000721D02*
Y-0000976D01*
X-0005191Y-0000478D02*
Y-0000976D01*
X-0004201Y0000263D02*
Y-0000381D01*
X-0004268Y-0000360D02*
X-0004828D01*
X-0004021Y0000201D02*
Y-0000381D01*
X-0002270D02*
X-0004807D01*
X-0005011Y-0000658D02*
Y-0000976D01*
X-0005281Y-0000360D02*
Y-0000976D01*
X-0009551Y0003191D02*
X-0011761D01*
X-0009641Y0001751D02*
X-0011761D01*
X-0011104Y0000941D02*
X-0011761D01*
X0009389Y0005376D02*
Y0004859D01*
X-0004741Y0004774D02*
Y0004615D01*
X-0005261Y0000401D02*
X-0005982D01*
X-0006345Y0002651D02*
X-0006508D01*
X-0006345Y0004178D02*
Y0002517D01*
X-0011104Y0004631D02*
X-0011761D01*
X-0008859Y0002651D02*
X-0011761D01*
X0003809Y0003532D02*
Y0001112D01*
X-0006001Y-0000061D02*
Y-0000976D01*
X-0006991Y0001234D02*
Y-0000976D01*
X-0005288Y0000311D02*
X-0005892D01*
X-0007081Y0001963D02*
Y-0000976D01*
X-0007171Y0002053D02*
Y-0000976D01*
X0003809Y0004231D02*
Y0003872D01*
X-0002581Y0007041D02*
Y0006149D01*
X0003467Y0003992D02*
Y0003872D01*
X-0008859Y0002643D02*
Y0002470D01*
Y0002831D02*
X-0011761D01*
X-0009541Y0001931D02*
X-0011761D01*
X-0011104Y0004361D02*
X-0011761D01*
X-0008938Y0000401D02*
X-0009860D01*
X-0007441Y0000281D02*
Y-0000976D01*
X-0007621Y0000281D02*
Y-0000976D01*
X-0007711Y0000281D02*
Y-0000976D01*
X-0007801Y0000281D02*
Y-0000976D01*
X-0007891Y0000281D02*
Y-0000976D01*
X-0008080Y0005351D02*
X-0008495D01*
X-0007981Y0000281D02*
Y-0000976D01*
X-0008071Y0000281D02*
Y-0000976D01*
X-0008161Y0000281D02*
Y-0000976D01*
X-0008251Y0000281D02*
Y-0000976D01*
X-0008938Y0000311D02*
X-0009860D01*
X-0008881Y0003291D02*
Y0001328D01*
X-0009571Y0001481D02*
X-0011761D01*
X-0009061Y0001492D02*
Y-0000976D01*
X-0009151Y0001411D02*
Y-0000976D01*
X-0009241Y0001374D02*
Y-0000976D01*
X-0009331Y0001364D02*
Y-0000976D01*
X-0010193Y0005441D02*
X-0011761D01*
X-0008938Y0004631D02*
X-0009152D01*
X-0009421Y0001380D02*
Y-0000976D01*
X-0009823Y0005094D02*
X-0010193D01*
X-0009691Y0004962D02*
Y-0000976D01*
X0010406Y-0000949D02*
X-0010406D01*
X0010401Y-0001039D02*
X0000085D01*
X0010409Y-0001129D02*
X0000085D01*
X0010431Y-0001219D02*
X0000085D01*
X0010468Y-0001309D02*
X0000085D01*
X0010524Y-0001399D02*
X0000085D01*
X0010605Y-0001489D02*
X0000085D01*
X0011761Y-0000319D02*
X0002874D01*
X-0011311Y-0001579D02*
X-0011761D01*
X0010555Y0001498D02*
X0010227Y0001169D01*
X0009898Y0000841D02*
X0010227Y0001169D01*
X0009898Y0001498D02*
X0010227Y0001169D01*
X0010555Y0000841D02*
X0010227Y0001169D01*
X-0009860Y0000805D02*
X-0010482D01*
X-0011104D02*
X-0010482D01*
Y0001328D02*
Y0000805D01*
Y0000281D02*
Y0000805D01*
X-0009860Y0004308D02*
X-0010482D01*
X-0011104D02*
X-0010482D01*
Y0004832D02*
Y0004308D01*
Y0003785D02*
Y0004308D01*
X-0007379Y0001927D02*
X-0008119D01*
X-0008859D02*
X-0008119D01*
X-0008611Y0000281D02*
Y-0000976D01*
X-0008119Y0001698D02*
Y0001927D01*
X0006569Y0005683D02*
Y0005393D01*
X0006249Y0004991D02*
X0005239D01*
X0006249Y0005393D02*
X0006569D01*
X0006889D02*
X0006569D01*
X-0002761Y-0000721D02*
Y-0000976D01*
X-0000983Y0000405D02*
Y-0000040D01*
X-0000538D02*
X-0000983D01*
X-0001428D02*
X-0000983D01*
X0001440Y0006469D02*
Y0005939D01*
Y0005409D02*
Y0005939D01*
X0001085D02*
X0001440D01*
X0001795D02*
X0001440D01*
X-0007725Y0006233D02*
Y0005703D01*
Y0005173D02*
Y0005703D01*
X-0008080D02*
X-0007725D01*
X-0007370D02*
X-0007725D01*
X0002099Y0007041D02*
Y0005194D01*
X0002085D02*
Y0004944D01*
X0002645D02*
X0002085D01*
X0001525D02*
X0002085D01*
X-0005485Y0000694D02*
Y0000944D01*
X-0005641Y0000694D02*
Y0000130D01*
X-0004925Y0000944D02*
X-0005485D01*
X-0006045D02*
X-0005485D01*
X-0008859Y0002021D02*
X-0011761D01*
X0007334Y0001481D02*
X0007298D01*
X0007066Y0001331D02*
Y0001821D01*
Y0002311D02*
Y0001821D01*
X-0006726Y0004031D02*
Y0003741D01*
X-0007046D02*
X-0006726D01*
X-0006406D02*
X-0006726D01*
X-0011104Y0000671D02*
X-0011761D01*
X0006785Y0000669D02*
X0007075D01*
Y0000989D02*
Y0000669D01*
X0003179Y0000774D02*
Y0000406D01*
X0003147Y0005251D02*
Y0004961D01*
X-0002131Y0004747D02*
Y0004601D01*
X0002827Y0004961D02*
X0003147D01*
X0003467D02*
X0003147D01*
Y0002852D02*
Y0003142D01*
X-0004651Y0007041D02*
Y0005559D01*
X0003467Y0003142D02*
X0003147D01*
X0002827D02*
X0003147D01*
X-0000017Y-0000360D02*
Y-0000381D01*
X0001003Y-0000040D02*
X0000713D01*
X0011761Y0000041D02*
X0003232D01*
X-0003211Y0001274D02*
Y0001114D01*
X-0006541Y0000912D02*
Y-0000976D01*
X-0006726Y0005329D02*
Y0005039D01*
X-0006406D02*
X-0006726D01*
X-0007046D02*
X-0006726D01*
X-0005408Y-0000229D02*
X-0011761D01*
X-0004268Y-0000040D02*
X-0004558D01*
X-0002761Y-0000210D02*
Y-0000381D01*
X0011189Y-0001627D02*
Y-0001849D01*
X0005444Y0001121D02*
X0005208D01*
X0003467Y0003532D02*
Y0003432D01*
X0011761Y-0001759D02*
X-0011761D01*
X0005059Y0003453D02*
X0004570D01*
X0005699Y0000896D02*
Y0000760D01*
X0005239Y0003273D02*
Y0001223D01*
Y0006723D02*
Y0004673D01*
X0005059Y0006903D02*
X0004459D01*
X0003809Y0007041D02*
Y0004571D01*
X0004279Y0006723D02*
Y0004683D01*
X0002827Y0004671D02*
Y0004614D01*
X-0001940Y0003821D02*
X-0002107D01*
X0008113Y0005801D02*
X0005239D01*
X0001527Y0003911D02*
X0000287D01*
X-0000168Y0003774D02*
X-0000272D01*
X0001643Y0003731D02*
X0000178D01*
X-0000121D02*
X-0000324D01*
X-0004291Y0003774D02*
Y0000603D01*
X-0004021Y0003774D02*
Y0000603D01*
Y0004774D02*
Y0004114D01*
X-0003571Y0005039D02*
Y0004702D01*
X-0003645Y0001211D02*
X-0005084D01*
X0001829Y-0000360D02*
Y-0000385D01*
X0000119Y-0000722D02*
Y-0001849D01*
X-0003481Y0003870D02*
Y0001699D01*
X-0004561Y0004272D02*
Y0004114D01*
X-0004471Y0004207D02*
Y0004114D01*
X-0003720Y0004631D02*
X-0004185D01*
X-0003786Y0004361D02*
X-0004120D01*
X-0003129Y0004114D02*
X-0003244D01*
X-0003709Y0004247D02*
Y0004192D01*
X-0005011Y0000756D02*
Y0000602D01*
X-0005101Y0004205D02*
Y0004183D01*
X-0005011Y0004256D02*
Y0004132D01*
X-0003751Y0004292D02*
Y0004193D01*
X-0003793Y0000491D02*
X-0003830D01*
X0011761Y0002201D02*
X0008276D01*
X0007856D02*
X0007776D01*
X0007356D02*
X0007276D01*
X-0008341Y0000281D02*
Y-0000976D01*
X-0008611Y0003785D02*
Y0003501D01*
X-0009411Y0003821D02*
X-0009860D01*
X-0007046Y0003356D02*
X-0007379D01*
X0006856Y0002201D02*
X0006821D01*
X0006967Y0002291D02*
X0006821D01*
X0007409Y0001385D02*
Y0000989D01*
X0006442Y0002465D02*
X0006109Y0002132D01*
X0006149Y0002172D02*
Y0001080D01*
X0006689Y0002465D02*
Y0002311D01*
X0006779Y0002465D02*
Y0002311D01*
X-0008431Y0000281D02*
Y-0000976D01*
X-0008521Y0003785D02*
Y0003415D01*
X-0009492Y0004631D02*
X-0009860D01*
X-0008341Y0003785D02*
Y0003415D01*
X-0004831Y0004275D02*
Y0004114D01*
X-0008161Y0003785D02*
Y0003415D01*
X-0009492Y0004451D02*
X-0009860D01*
X-0008938D02*
X-0009152D01*
X-0008938Y0004541D02*
X-0009152D01*
X-0008071Y0003785D02*
Y0003415D01*
X-0009511Y0001425D02*
Y-0000976D01*
X-0007981Y0003785D02*
Y0003415D01*
X-0007891Y0003785D02*
Y0003415D01*
X-0007801Y0003785D02*
Y0003415D01*
X-0009511Y0004782D02*
Y0003688D01*
Y0005770D02*
Y0005262D01*
X-0009421Y0003831D02*
Y0003733D01*
X0008143Y0005981D02*
X0005239D01*
X-0009630Y0004901D02*
X-0011761D01*
X-0009205Y0005261D02*
X-0009510D01*
X-0009492Y0004271D02*
X-0009860D01*
X-0003211Y-0000721D02*
Y-0000976D01*
X-0009823Y0005094D02*
X-0009492Y0004763D01*
X-0008871Y0003281D02*
X-0009026D01*
X-0008938Y0004091D02*
X-0009152D01*
X-0011602Y0006071D02*
X-0011761D01*
X-0006091Y0000029D02*
Y-0000976D01*
X-0005408Y-0000210D02*
X-0005781D01*
X-0000993Y0006299D02*
X-0001553D01*
X-0003751Y-0000721D02*
Y-0000976D01*
X-0006468Y0000761D02*
X-0007380D01*
X-0005461Y0000694D02*
Y0000130D01*
X-0006181Y0000119D02*
Y-0000976D01*
X-0006128Y0000547D02*
X-0005711Y0000130D01*
X-0006418Y0000356D02*
X-0005904Y-0000158D01*
X-0005641Y-0000210D02*
Y-0000976D01*
X-0008791Y0003785D02*
Y0003681D01*
X-0005177Y0000491D02*
X-0006072D01*
X-0005966Y0000761D02*
X-0006128D01*
X-0006027Y0000851D02*
X-0006128D01*
X-0006373Y0000311D02*
X-0007380D01*
X-0008971Y0005173D02*
Y0003862D01*
X-0006271Y0001774D02*
Y0001634D01*
X-0007379Y0002262D02*
X-0006793Y0001676D01*
X-0006721Y0001092D02*
Y-0000976D01*
X-0005919Y0001661D02*
X-0006298D01*
X-0006468Y0000671D02*
X-0007380D01*
X-0003793D02*
X-0006128D01*
X-0005551Y-0000210D02*
Y-0000976D01*
Y0000694D02*
Y0000130D01*
X-0000024Y0000491D02*
X-0001718D01*
X-0000151Y-0000721D02*
Y-0000976D01*
X-0003195Y0000774D02*
Y0000694D01*
X0000749Y0000859D02*
Y0000524D01*
X0001199Y0000134D02*
Y-0000385D01*
X-0000241Y0000708D02*
Y-0000381D01*
X-0002058Y0001031D02*
X-0002075D01*
X0000937Y0000671D02*
X0000277D01*
X-0000241Y0001274D02*
Y0001114D01*
X-0000114Y0000581D02*
X-0001718D01*
X-0006001Y0000801D02*
Y0000420D01*
X0001027Y0000581D02*
X0000321D01*
X-0000289Y0000757D02*
X-0000017Y0000485D01*
X-0006128Y0000909D02*
Y0000547D01*
X0000334Y0001274D02*
X-0000272D01*
X0000389Y0001219D02*
Y0000524D01*
X0001091D02*
X0000323D01*
X-0000151Y0001274D02*
Y0001091D01*
X-0003665Y0000941D02*
X-0004925D01*
X-0003913Y-0000139D02*
X-0004268D01*
X-0003951Y0000131D02*
X-0004268D01*
X-0000151Y0005769D02*
Y0004622D01*
X-0000040Y0006161D02*
X-0000413D01*
X-0002058Y0000401D02*
X-0003453D01*
X-0002058Y0000491D02*
X-0003453D01*
X-0003751Y0001309D02*
Y0000855D01*
X-0003352Y0000774D02*
X-0003453Y0000672D01*
X-0003542Y0001064D02*
X-0003741Y0000865D01*
X-0005971Y0001121D02*
X-0006270D01*
X-0006541Y0001423D02*
Y0001392D01*
X-0011104Y0001031D02*
X-0011761D01*
X-0000236Y0001114D02*
X-0000272D01*
X-0002058Y0001481D02*
X-0002078D01*
X-0002058Y0000671D02*
X-0003453D01*
X-0003195Y0001114D02*
X-0003422D01*
X0001202Y0000131D02*
X0001003D01*
X0011761Y0005621D02*
X0010003D01*
X0008056D02*
X0007675D01*
X0011761Y0005171D02*
X0009728D01*
X0007139Y0007041D02*
Y0005683D01*
X0007229Y0007041D02*
Y0005683D01*
X0001525Y0001194D02*
Y0000836D01*
X0000119Y0001274D02*
Y0000829D01*
X0001149Y0000184D02*
X0001318Y0000015D01*
X0007409Y0007041D02*
Y0005683D01*
X-0006271Y0001274D02*
Y0001122D01*
X0007499Y0007041D02*
Y0005683D01*
X0007589Y0007041D02*
Y0005683D01*
X0007319Y0007041D02*
Y0005683D01*
X-0000017Y0000401D02*
X-0001718D01*
X-0000017Y0000485D02*
Y0000349D01*
X-0003195Y0000761D02*
X-0003364D01*
X-0000061Y0000528D02*
Y0000280D01*
X0001019Y0000589D02*
Y0000524D01*
X-0007063Y0001391D02*
X-0009189D01*
X0001085Y0005441D02*
X0000670D01*
X-0005911Y0000722D02*
Y0000330D01*
X0000029Y0001274D02*
Y0000919D01*
X-0006509Y0001391D02*
X-0006540D01*
X-0005408Y0000221D02*
X-0005802D01*
X-0006091Y0001274D02*
Y0000510D01*
X-0000116Y0001064D02*
X0000271Y0000678D01*
X0001318Y-0000049D02*
X0001003D01*
X0000423Y-0000360D02*
X0000323D01*
X0000929D02*
Y-0000385D01*
X-0000017Y0000349D02*
Y0000280D01*
X0002458D02*
X0002124D01*
X0001019Y-0000725D02*
Y-0001849D01*
X0000299Y-0000725D02*
Y-0001849D01*
X0000569Y-0000360D02*
Y-0000385D01*
X0000659Y-0000360D02*
Y-0000385D01*
X0001379Y-0000360D02*
Y-0000385D01*
X0002354Y-0000360D02*
X0002329Y-0000385D01*
X0000389Y-0000360D02*
Y-0000385D01*
X0000839Y0000769D02*
Y0000524D01*
X-0001591Y-0000249D02*
Y-0000381D01*
X0002753Y0000041D02*
X0002458D01*
X0010695Y-0000499D02*
X0002695D01*
X0001469Y-0000360D02*
Y-0000385D01*
X-0002401Y0000694D02*
Y0000130D01*
X-0006450Y0000401D02*
X-0007380D01*
X-0011491Y-0001437D02*
Y-0001849D01*
X-0009871Y-0001750D02*
Y-0001849D01*
X-0004291Y-0000721D02*
Y-0000976D01*
X-0005238Y-0000430D02*
X-0005000Y-0000669D01*
X-0004291Y-0000360D02*
Y-0000381D01*
X-0000017Y0000349D02*
Y0000280D01*
X-0001321Y-0000721D02*
Y-0000976D01*
X0011761Y0000311D02*
X0007671D01*
X-0011104Y0004451D02*
X-0011761D01*
X-0003841Y-0000359D02*
Y-0000381D01*
X-0004381Y-0000360D02*
Y-0000381D01*
X-0002256Y0000311D02*
X-0003453D01*
X-0000040Y0006251D02*
X-0000413D01*
Y0006299D02*
X-0000973D01*
X-0000413Y0005659D02*
X-0000973D01*
X-0001141Y0007041D02*
Y0006299D01*
X-0003301Y0007041D02*
Y0005790D01*
X-0004921Y-0000715D02*
Y-0000976D01*
X-0004082Y0000263D02*
X-0003913Y0000094D01*
X-0004381Y0007041D02*
Y0005559D01*
X-0003841Y-0000721D02*
Y-0000976D01*
X0002484Y-0000229D02*
X0002458D01*
X0002663Y-0000049D02*
X0002458D01*
X-0006468Y0000581D02*
X-0007380D01*
X-0000017Y-0000381D02*
X-0000538D01*
X-0005288Y0000280D02*
X-0005408D01*
X-0003793Y0000743D02*
Y0000454D01*
X-0004012Y0000603D02*
X-0004995D01*
X-0005408Y0000131D02*
X-0005712D01*
X-0000691Y-0000721D02*
Y-0000976D01*
X-0004201Y0003774D02*
Y0000603D01*
X0011761Y0004901D02*
X0009735D01*
X-0004921Y0003774D02*
Y0000603D01*
X-0004831Y0003774D02*
Y0000603D01*
X-0000538Y0000405D02*
Y-0000381D01*
X-0004111Y0003774D02*
Y0000603D01*
X-0004381Y0003774D02*
Y0000603D01*
X-0004651Y0003774D02*
Y0000603D01*
X-0005101Y-0000568D02*
Y-0000976D01*
X-0005408Y0000280D02*
Y0000130D01*
X0007345Y0000989D02*
X0006785D01*
X-0001501Y0001496D02*
Y-0000381D01*
X0011761Y0000491D02*
X0007925D01*
X0011761Y0000581D02*
X0007925D01*
X0011761Y0000671D02*
X0007925D01*
X0011761Y0001931D02*
X0008321D01*
X0007365Y0000989D02*
X0007345D01*
X0011761Y0000131D02*
X0007491D01*
X-0003301Y-0000359D02*
Y-0000381D01*
X-0005281Y0000694D02*
Y0000359D01*
X0009888Y0000851D02*
X0007925D01*
X0009822Y0000941D02*
X0007925D01*
X0001919Y-0000725D02*
Y-0001849D01*
X-0003211Y-0000359D02*
Y-0000381D01*
X-0000017Y0000311D02*
X-0000538D01*
X0007769Y0000349D02*
Y-0001849D01*
X0007708Y0000349D02*
X0007478Y0000118D01*
X0007049Y0000066D02*
Y-0001849D01*
X0010582Y-0000589D02*
X0002606D01*
X0001199Y-0000725D02*
Y-0001849D01*
X0002574Y-0000139D02*
X0002458D01*
X0003089Y0000774D02*
Y0000376D01*
X0005969Y0000435D02*
Y0000406D01*
X0006059Y0000509D02*
Y0000406D01*
X0001149Y0000184D02*
X0001003D01*
X-0005080Y-0000589D02*
X-0010582D01*
X0000209Y-0000725D02*
Y-0001849D01*
X0002399Y-0000725D02*
X0000153D01*
X0007355Y0000066D02*
X0003257D01*
X0001559Y-0000360D02*
Y-0000385D01*
X0001109Y-0000725D02*
Y-0001849D01*
X-0002581Y-0000210D02*
Y-0000381D01*
X0002459Y0000694D02*
Y-0000254D01*
X0000113Y-0000721D02*
X-0004877D01*
X0010507Y-0000679D02*
X0002516D01*
X0000659Y0000949D02*
Y0000524D01*
X-0003793Y0000581D02*
X-0003929D01*
X-0005101Y0004705D02*
Y0004683D01*
X-0005011Y0004756D02*
Y0004632D01*
X-0004741Y0003774D02*
Y0000603D01*
X-0004471Y0004774D02*
Y0004683D01*
X-0004111Y0004774D02*
Y0004494D01*
X-0004563Y0004275D02*
X-0004991D01*
X-0004651D02*
Y0004114D01*
X-0003369Y0004247D02*
Y0004240D01*
X-0004381Y0004185D02*
Y0004114D01*
X-0003815Y0004181D02*
X-0005097D01*
X-0003924Y0004114D02*
X-0004992D01*
X-0006001Y0004301D02*
Y0004087D01*
X-0004291Y0004196D02*
Y0004114D01*
X-0003024Y0004181D02*
X-0003311D01*
X-0003369Y0004240D02*
X-0003244Y0004114D01*
X-0003129Y0003774D02*
X-0003314D01*
X-0002581Y0005809D02*
Y0005694D01*
X-0002112Y0004074D02*
X-0001940Y0003902D01*
X-0003780Y0004541D02*
X-0004125D01*
X-0003176D02*
X-0003298D01*
X0001919Y-0000360D02*
Y-0000385D01*
X-0003484Y0003873D02*
X-0003436Y0003826D01*
X-0003301Y0004341D02*
Y0004171D01*
X-0003211Y0003774D02*
Y0001614D01*
X-0003799Y0004451D02*
X-0004106D01*
X-0003432Y0003821D02*
X-0003502D01*
X-0003195Y0004451D02*
X-0003279D01*
X0002329Y-0000385D02*
X0000323D01*
X0000839Y-0000360D02*
Y-0000385D01*
X-0003391Y0003792D02*
Y0001664D01*
X-0003661Y0004949D02*
Y0004674D01*
X0001649Y0001728D02*
Y0001660D01*
X0002549Y0002248D02*
Y0002140D01*
X0002639Y0002393D02*
Y0001995D01*
X-0002058Y0001751D02*
X-0002166D01*
X0005794Y0002291D02*
X0005239D01*
X0004279Y0002021D02*
X0002632D01*
X0004279Y0002111D02*
X0002580D01*
X0000674Y0001751D02*
X-0000296D01*
X0001615D02*
X0001057D01*
X0004279Y0001571D02*
X0003349D01*
X0001199Y0001757D02*
Y0000890D01*
X0004279Y0001661D02*
X0002518D01*
X0002639Y0002893D02*
Y0002495D01*
X-0006468Y0000491D02*
X-0007380D01*
X-0005731Y0007041D02*
Y0005694D01*
X-0005641Y0007041D02*
Y0005694D01*
X-0005551Y0007041D02*
Y0005694D01*
X-0005461Y0007041D02*
Y0005694D01*
X-0002761Y0007041D02*
Y0006149D01*
X-0005281Y0007041D02*
Y0005694D01*
X-0005191Y0007041D02*
Y0005694D01*
X-0004287Y0005219D02*
X-0005067D01*
X-0003379Y0005711D02*
X-0007370D01*
X-0005101Y0007041D02*
Y0005683D01*
X-0004233Y0005171D02*
X-0005071D01*
X-0005011Y0007041D02*
Y0005632D01*
X-0000331Y0007041D02*
Y0006109D01*
X0006396Y0004451D02*
X0004528D01*
X0006311Y0003911D02*
X0003467D01*
X0003269Y0004111D02*
Y0003992D01*
X0002549Y0004748D02*
Y0004640D01*
Y0004248D02*
Y0004140D01*
X0003089Y0004111D02*
Y0004000D01*
X0001559Y0004317D02*
Y0004071D01*
X-0008251Y0007041D02*
Y0004832D01*
X0004570Y0004493D02*
X0004360Y0004283D01*
X0006312Y0004181D02*
X0003467D01*
X0003025Y0004064D02*
X0003097Y0003992D01*
X-0005280Y-0000360D02*
X-0005408D01*
X-0001428Y-0000381D02*
X-0001697D01*
X-0001428Y-0000319D02*
X-0001636D01*
X-0002761Y0000694D02*
Y0000130D01*
X-0002311Y0000694D02*
Y0000261D01*
X-0002221Y0000694D02*
Y0000336D01*
X-0002131Y0000694D02*
Y0000380D01*
X-0001821Y0005081D02*
X-0001924D01*
X-0002098Y0002841D02*
X-0001861Y0002604D01*
X-0001666Y0001661D02*
X-0001718D01*
X-0001681Y0007041D02*
Y0006149D01*
X-0003931Y0005184D02*
Y0005160D01*
X-0000204Y0000671D02*
X-0001718D01*
X-0003121Y0002266D02*
Y0002122D01*
X-0002058Y0000761D02*
X-0002075D01*
X-0002058Y0002132D02*
Y0000399D01*
X-0001246Y0000761D02*
X-0001718D01*
X-0002311Y0007041D02*
Y0006149D01*
X-0001307Y0000851D02*
X-0001718D01*
X-0001951Y0007041D02*
Y0006149D01*
X-0000017Y0000280D02*
X-0000137D01*
X-0005874Y0004181D02*
X-0006005D01*
X0006959Y0003263D02*
Y0002805D01*
X0003539Y0004231D02*
Y0003872D01*
X0007769Y0002819D02*
Y0002804D01*
X0006896Y0003496D02*
Y0003397D01*
X0007499Y0002819D02*
Y0002805D01*
X0007338Y0004271D02*
X0007294D01*
X0004709Y0004493D02*
Y0003453D01*
X0009290Y0002741D02*
X0007883D01*
X0009278Y0003461D02*
X0008186D01*
X0009836Y0002921D02*
X0009591D01*
X0009299Y0002732D02*
Y-0001849D01*
X0007678Y0002465D02*
X0006442D01*
X0004279Y0002831D02*
X0002618D01*
X0009470Y0002561D02*
X0008063D01*
X0009912Y0003011D02*
X0009501D01*
X0011761Y0004631D02*
X0010005D01*
X0007949Y0002819D02*
Y0002675D01*
X0007679Y0002819D02*
Y0002805D01*
X0009479Y0002552D02*
Y-0001849D01*
X0009212Y0002819D02*
X0007473D01*
X0011761Y0002741D02*
X0010686D01*
X0009380Y0002651D02*
X0007973D01*
X0011761Y0002381D02*
X0010591D01*
X0006249Y0004721D02*
X0005239D01*
X0007319Y0002903D02*
Y0002805D01*
X0002354Y-0000360D02*
X0001898D01*
X0002189D02*
Y-0000385D01*
X0004279Y0003011D02*
X0003467D01*
X0002639Y0000694D02*
Y-0000073D01*
X0007838Y0004271D02*
X0007794D01*
X0009479Y0003182D02*
Y0003033D01*
X0009839Y0003542D02*
Y0002926D01*
X0006311Y0003821D02*
X0004201D01*
X0002279Y-0000360D02*
Y-0000385D01*
X0009569Y0003272D02*
Y0002943D01*
X0009638Y0003821D02*
X0008321D01*
X0011761D02*
X0010691D01*
X0011761Y0003911D02*
X0010691D01*
X0011761Y0003461D02*
X0009759D01*
X0007589Y0002819D02*
Y0002805D01*
X0004279Y0002921D02*
X0003467D01*
X0008219Y0003483D02*
Y0003435D01*
X0003467Y0004111D02*
X0002938D01*
X0009659Y0003362D02*
Y0002853D01*
X0007319Y0002465D02*
Y0002121D01*
X-0009553Y0005304D02*
X-0009204Y0004956D01*
X-0008971Y0003381D02*
Y-0000976D01*
X-0009442Y0003852D02*
X-0009338Y0003749D01*
X-0009480Y0003911D02*
X-0009860D01*
X-0008961Y0003371D02*
X-0008998D01*
X-0007046Y0003461D02*
X-0008570D01*
X-0008859Y0003191D02*
X-0009090D01*
X-0008859Y0003269D02*
Y0003100D01*
X-0007380Y0003785D02*
X-0008894D01*
X-0008859Y0003101D02*
X-0009261D01*
X-0006891Y0001661D02*
X-0008995D01*
X-0007038Y0001301D02*
X-0007380D01*
X-0005887Y0001211D02*
X-0006360D01*
X-0006750Y0001121D02*
X-0007380D01*
X-0006660Y0001031D02*
X-0007380D01*
X-0006570Y0000941D02*
X-0007380D01*
X-0006480Y0000851D02*
X-0007380D01*
X0002458Y0000280D02*
Y-0000255D01*
X0000323Y-0000360D02*
Y-0000385D01*
X0000577Y0001031D02*
X-0000083D01*
X-0004831Y-0000721D02*
Y-0000976D01*
X-0007441Y0001698D02*
Y0001328D01*
X-0007531Y0001698D02*
Y0001328D01*
X-0007621Y0001698D02*
Y0001328D01*
X-0007711Y0001698D02*
Y0001328D01*
X-0007801Y0001698D02*
Y0001328D01*
X-0007891Y0001698D02*
Y0001328D01*
X-0007981Y0001698D02*
Y0001328D01*
X-0008071Y0001698D02*
Y0001328D01*
X-0008161Y0001698D02*
Y0001328D01*
X-0008251Y0001698D02*
Y0001328D01*
X-0008341Y0001698D02*
Y0001328D01*
X-0008431Y0001698D02*
Y0001328D01*
X-0008521Y0001698D02*
Y0001328D01*
X-0008611Y0001698D02*
Y0001328D01*
X-0008701Y0001698D02*
Y0001328D01*
X-0008791Y0001698D02*
Y0001328D01*
X-0005115Y0000553D02*
X-0005236Y0000432D01*
X-0008881Y0005173D02*
Y0004832D01*
X-0007046Y0004001D02*
X-0007380D01*
X-0007046Y0003911D02*
X-0007380D01*
X-0006991Y0007041D02*
Y0005329D01*
X-0009615Y0003281D02*
X-0011761D01*
X-0007046Y0004721D02*
X-0007380D01*
X-0007046Y0003821D02*
X-0007380D01*
X-0007441Y0005173D02*
Y0004832D01*
X-0007531Y0005173D02*
Y0004832D01*
X-0007621Y0005173D02*
Y0004832D01*
X-0007711Y0005173D02*
Y0004832D01*
X-0007801Y0005173D02*
Y0004832D01*
X-0007891Y0005173D02*
Y0004832D01*
X-0007981Y0005173D02*
Y0004832D01*
X-0008071Y0005173D02*
Y0004832D01*
X-0006181Y0007041D02*
Y0004494D01*
X-0011104Y0004001D02*
X-0011761D01*
X-0007046Y0004631D02*
X-0007380D01*
X-0011104Y0004721D02*
X-0011761D01*
X-0011104Y0003821D02*
X-0011761D01*
X-0007046Y0004541D02*
X-0007380D01*
X-0008521Y0005173D02*
Y0004832D01*
X-0008611Y0005173D02*
Y0004832D01*
X-0008701Y0005173D02*
Y0004832D01*
X-0008791Y0005173D02*
Y0004832D01*
X-0009492Y0004541D02*
X-0009860D01*
X-0007046Y0004811D02*
X-0007380D01*
X-0007046Y0004451D02*
X-0007380D01*
X-0007046Y0004361D02*
X-0007380D01*
X-0007046Y0004271D02*
X-0007380D01*
X-0009621Y0003551D02*
X-0011761D01*
X-0008938Y0001301D02*
X-0009860D01*
X-0008938Y0001211D02*
X-0009860D01*
X-0008938Y0001121D02*
X-0009860D01*
X-0008938Y0001031D02*
X-0009860D01*
X-0008938Y0000941D02*
X-0009860D01*
X-0008938Y0000851D02*
X-0009860D01*
X-0008938Y0000761D02*
X-0009860D01*
X-0008938Y0000671D02*
X-0009860D01*
X-0008938Y0000581D02*
X-0009860D01*
X-0008938Y0000491D02*
X-0009860D01*
X-0009871Y0003785D02*
Y0001328D01*
X-0009961Y0003785D02*
Y0001328D01*
X-0010051Y0003785D02*
Y0001328D01*
X-0010231Y0003785D02*
Y0001328D01*
X-0010321Y0003785D02*
Y0001328D01*
X-0010411Y0003785D02*
Y0001328D01*
X-0010501Y0003785D02*
Y0001328D01*
X-0010591Y0003785D02*
Y0001328D01*
X-0010681Y0003785D02*
Y0001328D01*
X-0010771Y0003785D02*
Y0001328D01*
X-0010861Y0003785D02*
Y0001328D01*
X-0010951Y0003785D02*
Y0001328D01*
X-0011041Y0003785D02*
Y0001328D01*
X-0010141Y0003785D02*
Y0001328D01*
X-0008881Y0000281D02*
Y-0000976D01*
X-0009871Y0005094D02*
Y0004832D01*
X-0009961Y0005094D02*
Y0004832D01*
X-0010051Y0005094D02*
Y0004832D01*
X-0008161Y0007041D02*
Y0004832D01*
X-0010231Y0007041D02*
Y0004832D01*
X-0010411Y0006187D02*
Y0004832D01*
X-0010501Y0005960D02*
Y0004832D01*
X-0010591Y0005851D02*
Y0004832D01*
X-0010681Y0005779D02*
Y0004832D01*
X-0010771Y0005730D02*
Y0004832D01*
X-0010861Y0005698D02*
Y0004832D01*
X-0010951Y0005681D02*
Y0004832D01*
X-0011041Y0005677D02*
Y0004832D01*
X-0010141Y0005094D02*
Y0004832D01*
X-0008791Y0000281D02*
Y-0000976D01*
X-0008938Y0004721D02*
X-0009152D01*
X-0009492Y0004001D02*
X-0009860D01*
X-0008938Y0003911D02*
X-0009020D01*
X-0009492Y0004181D02*
X-0009860D01*
X-0009601Y0004872D02*
Y0003590D01*
X-0008251Y0003785D02*
Y0003415D01*
X-0008431Y0003785D02*
Y0003415D01*
X-0008894Y0003785D02*
X-0008524Y0003415D01*
X-0009152Y0004043D02*
X-0008938Y0003829D01*
Y0004811D02*
X-0009152D01*
X-0007046Y0003451D02*
Y0003356D01*
X-0009427Y0003731D02*
X-0011761D01*
X-0007081Y0007041D02*
Y0003356D01*
X-0009492Y0004721D02*
X-0009860D01*
X-0007441Y0003785D02*
Y0003415D01*
X-0007531Y0003785D02*
Y0003415D01*
X-0007621Y0003785D02*
Y0003415D01*
X-0007711Y0003785D02*
Y0003415D01*
X-0007046Y0003371D02*
X-0007379D01*
X0011761Y0005081D02*
X0009728D01*
X0006869Y0007041D02*
Y0005683D01*
X0006779Y0007041D02*
Y0005683D01*
X0006689Y0007041D02*
Y0005683D01*
X0006599Y0007041D02*
Y0005683D01*
X0006509Y0007041D02*
Y0005683D01*
X0006419Y0007041D02*
Y0005683D01*
X0007035Y0005621D02*
X0006889D01*
X0007035Y0005531D02*
X0006889D01*
X0007035Y0005441D02*
X0006889D01*
X0007035Y0005351D02*
X0006889D01*
X0007035Y0005261D02*
X0006889D01*
X0001559Y0001757D02*
Y0001571D01*
X0010003Y0005376D02*
X0009728D01*
X0008345Y0005430D02*
X0008190Y0005275D01*
X0011761Y0005351D02*
X0009728D01*
X0010958Y-0000409D02*
X0002785D01*
X-0006045Y0000941D02*
X-0006131D01*
X0002369Y0000694D02*
Y0000280D01*
X0002279Y0000694D02*
Y0000280D01*
X0002189Y0000694D02*
Y0000280D01*
X0001318Y0000015D02*
Y-0000360D01*
X0002099Y0000694D02*
Y0000304D01*
X0001739Y0000694D02*
Y0000664D01*
X-0002773Y-0000359D02*
X-0003333D01*
X-0002773Y0000281D02*
X-0003333D01*
X0001577Y0002097D02*
X0001062D01*
X-0004560Y0004271D02*
X-0004994D01*
X-0003301Y0000774D02*
Y0000281D01*
X-0003453Y0000672D02*
Y0000281D01*
X-0003031Y0000694D02*
Y0000281D01*
X-0003121Y0000694D02*
Y0000281D01*
X-0006339Y0002471D02*
X-0006676D01*
X-0009720Y0004991D02*
X-0011761D01*
X-0009205Y0005531D02*
X-0009553D01*
X-0009205Y0005441D02*
X-0009553D01*
X-0009205Y0005351D02*
X-0009553D01*
X-0010193Y0005261D02*
X-0011761D01*
X-0009601Y0007041D02*
Y0006234D01*
X-0009691Y0007041D02*
Y0006234D01*
X-0009781Y0007041D02*
Y0006234D01*
X-0009871Y0007041D02*
Y0006234D01*
X-0009961Y0007041D02*
Y0006234D01*
X-0010051Y0007041D02*
Y0006234D01*
X-0009781Y0005052D02*
Y-0000976D01*
X-0009515Y0005774D02*
X-0009326Y0005585D01*
X-0010141Y0007041D02*
Y0006234D01*
X-0010411Y0007041D02*
Y0006410D01*
X-0010501Y0007041D02*
Y0006637D01*
X-0010591Y0007041D02*
Y0006746D01*
X-0010681Y0007041D02*
Y0006818D01*
X-0010771Y0007041D02*
Y0006867D01*
X-0010861Y0007041D02*
Y0006899D01*
X-0010951Y0007041D02*
Y0006916D01*
X-0011041Y0007041D02*
Y0006920D01*
X-0011131Y0007041D02*
Y0006911D01*
X-0011221Y0007041D02*
Y0006888D01*
X-0011311Y0007041D02*
Y0006850D01*
X-0011401Y0007041D02*
Y0006793D01*
X-0011491Y0007041D02*
Y0006708D01*
X-0000040Y0006431D02*
X-0010415D01*
X-0000040Y0006341D02*
X-0010402D01*
X-0000973Y0006299D02*
X-0000993D01*
X-0009871Y0000281D02*
Y-0000976D01*
X-0010193Y0006161D02*
X-0010416D01*
X-0010193Y0006071D02*
X-0010444D01*
X-0010193Y0005981D02*
X-0010488D01*
X0005397Y0001075D02*
X0005162D01*
X0004374Y0006881D02*
X-0010805D01*
X0004293Y0006791D02*
X-0010643D01*
X0004279Y0006701D02*
X-0010549D01*
X0004279Y0006611D02*
X-0010485D01*
X-0009151Y0007041D02*
Y0006233D01*
X-0010193Y0005801D02*
X-0010649D01*
X0007769Y0007041D02*
Y0005563D01*
X0011639Y0007041D02*
Y0006380D01*
X0011549Y0007041D02*
Y0006630D01*
X0011459Y0007041D02*
Y0006742D01*
X0011369Y0007041D02*
Y0006815D01*
X0011279Y0007041D02*
Y0006865D01*
X0011189Y0007041D02*
Y0006898D01*
X0011099Y0007041D02*
Y0006916D01*
X0011009Y0007041D02*
Y0006920D01*
X0010919Y0007041D02*
Y0006912D01*
X0010829Y0007041D02*
Y0006890D01*
X0010739Y0007041D02*
Y0006852D01*
X0010649Y0007041D02*
Y0006796D01*
X0010559Y0007041D02*
Y0006714D01*
X0010469Y0007041D02*
Y0006583D01*
X0011761Y0006881D02*
X0011240D01*
X0011761Y0006791D02*
X0011402D01*
X0011761Y0006701D02*
X0011497D01*
X0011761Y0006611D02*
X0011560D01*
X0011761Y0006521D02*
X0011603D01*
X0011761Y0006431D02*
X0011630D01*
X0011761Y0006341D02*
X0011643D01*
X0011761Y0006251D02*
X0011643D01*
X0011761Y0006161D02*
X0011629D01*
X0011761Y0006071D02*
X0011602D01*
X0009119Y0007041D02*
Y0006266D01*
X0011761Y0005891D02*
X0011493D01*
X0011761Y0005801D02*
X0011396D01*
X0005429Y0007041D02*
Y0001107D01*
X0011761Y-0000409D02*
X0011087D01*
X0011761Y-0000499D02*
X0011350D01*
X0011761Y-0000589D02*
X0011464D01*
X0011761Y-0000679D02*
X0011538D01*
X0011761Y-0000769D02*
X0011588D01*
X0011761Y-0000859D02*
X0011621D01*
X0011761Y-0000949D02*
X0011640D01*
X0011761Y-0001039D02*
X0011644D01*
X0011761Y-0001129D02*
X0011636D01*
X0011761Y-0001219D02*
X0011614D01*
X0011761Y-0001309D02*
X0011577D01*
X0011761Y-0001399D02*
X0011522D01*
X0011761Y-0001489D02*
X0011440D01*
X-0011396Y0005801D02*
X-0011761D01*
X0011639Y0006217D02*
Y-0000946D01*
X0011549Y0005968D02*
Y-0000696D01*
X0011459Y0005856D02*
Y-0000584D01*
X0011369Y0005782D02*
Y-0000511D01*
X0011279Y0005732D02*
Y-0000461D01*
X0011189Y0005699D02*
Y-0000428D01*
X0011099Y0005681D02*
Y-0000410D01*
X0011009Y0005677D02*
Y-0000405D01*
X0010919Y0005685D02*
Y-0000414D01*
X0010829Y0005707D02*
Y-0000436D01*
X0010739Y0005745D02*
Y-0000474D01*
X0009794Y0002499D02*
X0009603D01*
X0010055Y0003101D02*
X0009411D01*
X-0010193Y0005711D02*
X-0010818D01*
X-0010501Y-0001365D02*
Y-0001849D01*
X-0010591Y-0001475D02*
Y-0001849D01*
X-0010411Y0000281D02*
Y-0000916D01*
X-0010501Y0000281D02*
Y-0000689D01*
X-0010591Y0000281D02*
Y-0000580D01*
X-0010681Y0000281D02*
Y-0000508D01*
X-0010771Y0000281D02*
Y-0000459D01*
X-0010861Y0000281D02*
Y-0000427D01*
X-0011131Y0005686D02*
Y-0000415D01*
X-0011221Y0005709D02*
Y-0000438D01*
X-0011311Y0005747D02*
Y-0000476D01*
X-0011401Y0005805D02*
Y-0000533D01*
X-0011491Y0005889D02*
Y-0000618D01*
X-0004651Y-0000721D02*
Y-0000976D01*
X-0005170Y-0000499D02*
X-0010695D01*
X0001109Y0000184D02*
Y-0000385D01*
X-0005256Y-0000409D02*
X-0010958D01*
X0000569Y-0000725D02*
Y-0001849D01*
X0010457Y-0000769D02*
X-0010457D01*
X0010424Y-0000859D02*
X-0010424D01*
X-0010049Y-0001039D02*
X-0010401D01*
X-0010049Y-0001129D02*
X-0010409D01*
X-0010049Y-0001219D02*
X-0010431D01*
X-0010049Y-0001309D02*
X-0010468D01*
X-0010049Y-0001399D02*
X-0010524D01*
X-0010049Y-0001489D02*
X-0010605D01*
X-0010049Y-0001579D02*
X-0010735D01*
X0011761Y0005981D02*
X0011558D01*
X0008939Y0007041D02*
Y0006051D01*
X0008849Y0007041D02*
Y0006158D01*
X0008759Y0007041D02*
Y0006218D01*
X0008669Y0007041D02*
Y0006252D01*
X0008579Y0007041D02*
Y0006266D01*
X0008489Y0007041D02*
Y0006261D01*
X0008399Y0007041D02*
Y0006237D01*
X0008309Y0007041D02*
Y0006190D01*
X0008219Y0007041D02*
Y0006110D01*
X0009113Y0006251D02*
X0008672D01*
X0008129Y0007041D02*
Y0005941D01*
X0009929Y0007041D02*
Y0006266D01*
X0009839Y0007041D02*
Y0006266D01*
X0009749Y0007041D02*
Y0006266D01*
X0009659Y0007041D02*
Y0006266D01*
X0009569Y0007041D02*
Y0006266D01*
X0009479Y0007041D02*
Y0006266D01*
X0009389Y0007041D02*
Y0006266D01*
X0009299Y0007041D02*
Y0006266D01*
X0009209Y0007041D02*
Y0006266D01*
X0004279Y0006431D02*
X0001795D01*
X0010402Y0006251D02*
X0010003D01*
X0010416Y0006161D02*
X0010003D01*
X0010444Y0006071D02*
X0010003D01*
X0010488Y0005981D02*
X0010003D01*
X0010553Y0005891D02*
X0010003D01*
X0010649Y0005801D02*
X0010003D01*
X0011761Y0005711D02*
X0011227D01*
X-0004561Y-0000721D02*
Y-0000976D01*
X-0001428Y0000311D02*
X-0001710D01*
X-0004989Y-0000679D02*
X-0010507D01*
X-0001428Y0000221D02*
X-0001623D01*
X-0001428Y0000131D02*
X-0001573D01*
X-0001428Y0000041D02*
X-0001546D01*
X-0001428Y-0000049D02*
X-0001538D01*
X-0001428Y-0000139D02*
X-0001549D01*
X-0001428Y-0000229D02*
X-0001580D01*
X0002645Y0000694D02*
X0001710D01*
X0010818Y0005711D02*
X0010003D01*
X-0000137Y0000221D02*
X-0000538D01*
X-0000137Y0000131D02*
X-0000538D01*
X-0000137Y0000041D02*
X-0000538D01*
X-0000137Y-0000049D02*
X-0000538D01*
X-0000137Y-0000139D02*
X-0000538D01*
X-0000601Y0000694D02*
Y0000405D01*
X-0000691Y0000694D02*
Y0000405D01*
X-0000781Y0000694D02*
Y0000405D01*
X-0000871Y0000694D02*
Y0000405D01*
X-0000961Y0000694D02*
Y0000405D01*
X-0001051Y0000694D02*
Y0000405D01*
X-0001141Y0000703D02*
Y0000405D01*
X-0001231Y0000748D02*
Y0000405D01*
X-0001321Y0000896D02*
Y0000405D01*
X-0000137Y-0000229D02*
X-0000538D01*
X-0000137Y-0000319D02*
X-0000538D01*
X-0000061Y-0000721D02*
Y-0000976D01*
X0004979Y0007041D02*
Y0006903D01*
X0001469Y0007041D02*
Y0006469D01*
X0001379Y0007041D02*
Y0006469D01*
X0001289Y0007041D02*
Y0006469D01*
X0001199Y0007041D02*
Y0006469D01*
X0011761Y0006971D02*
X-0011761D01*
X0005069Y0007041D02*
Y0006902D01*
X-0001951Y0002694D02*
Y0002506D01*
X0008219Y0005304D02*
Y0004360D01*
X0004279Y0006341D02*
X0001795D01*
X0004279Y0006251D02*
X0001795D01*
X0004279Y0006161D02*
X0001795D01*
X0004279Y0006071D02*
X0001795D01*
X0004279Y0005981D02*
X0001795D01*
X0004279Y0005891D02*
X0001795D01*
X0000119Y0007041D02*
Y0006469D01*
X0001559Y0007041D02*
Y0006469D01*
X0001739Y0007041D02*
Y0006469D01*
X0004279Y0005801D02*
X0001795D01*
X0006896Y0004361D02*
X0006736D01*
X0001109Y0007041D02*
Y0006469D01*
X0000659Y0007041D02*
Y0006469D01*
X0000569Y0007041D02*
Y0006469D01*
X0000479Y0007041D02*
Y0006469D01*
X0000029Y0007041D02*
Y0006469D01*
X0000389Y0007041D02*
Y0006469D01*
X0001085Y0006431D02*
X0000670D01*
X0001085Y0006341D02*
X0000670D01*
X0001085Y0006251D02*
X0000670D01*
X0001085Y0006161D02*
X0000670D01*
X0001085Y0006071D02*
X0000670D01*
X0001085Y0005981D02*
X0000670D01*
X0001085Y0005891D02*
X0000670D01*
X0001085Y0005801D02*
X0000670D01*
X0001085Y0005711D02*
X0000670D01*
X0001649Y0005409D02*
Y0005160D01*
X0001085Y0005531D02*
X0000670D01*
X-0011493Y0005891D02*
X-0011761D01*
X-0007441Y0007041D02*
Y0006233D01*
X-0007531Y0007041D02*
Y0006233D01*
X-0007621Y0007041D02*
Y0006233D01*
X-0007711Y0007041D02*
Y0006233D01*
X-0007801Y0007041D02*
Y0006233D01*
X-0007891Y0007041D02*
Y0006233D01*
X-0007981Y0007041D02*
Y0006233D01*
X-0005971Y0005621D02*
X-0007370D01*
X-0007046Y0005261D02*
X-0007370D01*
X-0011630Y0006431D02*
X-0011761D01*
X-0001553Y0006251D02*
X-0010402D01*
X-0001553Y0006161D02*
X-0007370D01*
X-0003157Y0004811D02*
X-0003800D01*
X-0005011Y0005219D02*
Y0005132D01*
X-0006029Y0005531D02*
X-0007370D01*
X-0006045Y0005441D02*
X-0007370D01*
X-0006027Y0005351D02*
X-0007370D01*
X-0011240Y0006881D02*
X-0011761D01*
X-0008521Y0007041D02*
Y0006233D01*
X-0008611Y0007041D02*
Y0006233D01*
X-0008701Y0007041D02*
Y0006233D01*
X-0008080Y0005261D02*
X-0008495D01*
X-0008080Y0006161D02*
X-0008495D01*
X-0008080Y0006071D02*
X-0008495D01*
X-0008080Y0005981D02*
X-0008495D01*
X-0008080Y0005891D02*
X-0008495D01*
X-0008080Y0005801D02*
X-0008495D01*
X-0008080Y0005711D02*
X-0008495D01*
X-0008080Y0005531D02*
X-0008495D01*
X-0008080Y0005441D02*
X-0008495D01*
X-0001771Y-0000721D02*
Y-0000976D01*
X-0000331Y0001227D02*
Y0001161D01*
X-0001141Y0001203D02*
Y0001185D01*
X-0001231Y0001248D02*
Y0001140D01*
X-0001718Y0001714D02*
Y0000317D01*
X-0000061Y0001274D02*
Y0001009D01*
X0000847Y0000761D02*
X0000187D01*
X-0000331Y0001727D02*
Y0001661D01*
X-0001141Y0001703D02*
Y0001685D01*
X-0000151Y0003245D02*
Y0002609D01*
X-0000241Y0002269D02*
Y0002072D01*
X-0000331Y0002727D02*
Y0002661D01*
Y0003227D02*
Y0003161D01*
X-0001141Y0003203D02*
Y0003185D01*
X-0001231Y0003248D02*
Y0003140D01*
X-0001285Y0002774D02*
Y0002580D01*
X-0000061Y0003196D02*
Y0002658D01*
X0001580Y0003101D02*
X-0000261D01*
X0001534Y0003011D02*
X-0000214D01*
X0001526Y0002921D02*
X-0000206D01*
X0001551Y0002831D02*
X-0000232D01*
X-0000241Y0003274D02*
Y0003072D01*
X-0000331Y0003727D02*
Y0003661D01*
X-0001141Y0003703D02*
Y0003685D01*
X-0001231Y0003748D02*
Y0003640D01*
X-0001321Y0003896D02*
Y0003492D01*
X-0000044Y0003191D02*
X-0000419D01*
X-0000152Y0003641D02*
X-0000302D01*
X-0000241Y0004274D02*
Y0004114D01*
X-0000331Y0004227D02*
Y0004161D01*
X-0001141Y0004203D02*
Y0004185D01*
X-0001231Y0004248D02*
Y0004140D01*
X-0001321Y0004396D02*
Y0003992D01*
X0000334Y0001274D02*
X0001058Y0000551D01*
X-0000077Y0004181D02*
X-0000377D01*
X0008127Y0005711D02*
X0005239D01*
X0001531Y0004001D02*
X0000282D01*
X0008118Y0005891D02*
X0005239D01*
X-0000331Y0004727D02*
Y0004661D01*
X-0001141Y0004703D02*
Y0004685D01*
X-0001231Y0004748D02*
Y0004640D01*
X-0001189Y0004721D02*
X-0001531D01*
X0000209Y0005409D02*
Y0004640D01*
X-0000142Y0004631D02*
X-0000290D01*
X-0000151Y0004266D02*
Y0004132D01*
X0001671Y0005171D02*
X-0000351D01*
X0001566Y0005081D02*
X-0000246D01*
X0001529Y0004991D02*
X-0000210D01*
X-0000061Y0007041D02*
Y0006109D01*
X-0000241Y0005769D02*
Y0005072D01*
X-0003199Y0005891D02*
X-0007370D01*
X-0000421Y0005659D02*
Y0005192D01*
X-0000511Y0005659D02*
Y0005194D01*
X-0000601Y0005659D02*
Y0005194D01*
X-0000691Y0005659D02*
Y0005194D01*
X-0000781Y0005659D02*
Y0005194D01*
X-0000871Y0005659D02*
Y0005194D01*
X-0003289Y0005801D02*
X-0007370D01*
X0011761Y0003641D02*
X0009939D01*
X-0001141Y0005659D02*
Y0005185D01*
X-0001231Y0005659D02*
Y0005140D01*
X0001563Y0004811D02*
X-0000243D01*
X0002827Y0005171D02*
X0002499D01*
X0002827Y0005081D02*
X0002603D01*
X0002827Y0004991D02*
X0002640D01*
X0002827Y0004901D02*
X0002641D01*
X0002827Y0004811D02*
X0002606D01*
X0002827Y0004721D02*
X0002508D01*
X0001649Y0007041D02*
Y0006469D01*
X0001085Y0005621D02*
X0000670D01*
X0002639Y0007041D02*
Y0004995D01*
X0002549Y0007041D02*
Y0005140D01*
X0001739Y0005409D02*
Y0005191D01*
X0002827Y0004631D02*
X0002560D01*
X0002819Y0003774D02*
Y0001614D01*
Y0007041D02*
Y0004614D01*
X0003899Y0007041D02*
Y0004571D01*
X0002827Y0004271D02*
X0002575D01*
X0002827Y0004181D02*
X0002473D01*
X0006311Y0004091D02*
X0002989D01*
X0002639Y0004274D02*
Y0004114D01*
X-0004741Y0007041D02*
Y0005559D01*
X0002827Y0003731D02*
X0002526D01*
X-0001783Y0004451D02*
X-0002008D01*
X0011761Y0004811D02*
X0009825D01*
X0002827Y0003641D02*
X0002548D01*
X0002827Y0003551D02*
X0002620D01*
X0002827Y0003461D02*
X0002644D01*
X0002827Y0003371D02*
X0002634D01*
X0002827Y0003281D02*
X0002584D01*
X-0001951Y0003913D02*
Y0003528D01*
X0003989Y0007041D02*
Y0004571D01*
X0001559Y0003817D02*
Y0003571D01*
X0002549Y0003748D02*
Y0003640D01*
X0002639Y0003393D02*
Y0002995D01*
X0002827Y0003191D02*
X0002431D01*
X0002827Y0003101D02*
X0002589D01*
X0002827Y0003011D02*
X0002635D01*
X0002827Y0002921D02*
X0002644D01*
X0007211Y0003011D02*
X0005239D01*
X0004260Y0003281D02*
X0003467D01*
X0001559Y0003317D02*
Y0003071D01*
X0002549Y0003248D02*
Y0003140D01*
X0010019Y0000753D02*
Y-0001849D01*
X0005879Y0007041D02*
Y0002383D01*
X0005159Y0004523D02*
Y0003422D01*
X0005769Y0001751D02*
X0005239D01*
X0004279Y0002471D02*
X0002643D01*
X-0001940Y0003731D02*
X-0002194D01*
X0002549Y0002748D02*
Y0002640D01*
X0001649Y0002228D02*
Y0002160D01*
X0000749Y0007041D02*
Y0002160D01*
X0002819Y0001274D02*
Y0001114D01*
X0003179Y0001261D02*
Y0001114D01*
X0004279Y0002561D02*
X0002615D01*
X0009929Y0000812D02*
Y-0001849D01*
X0005969Y0001166D02*
Y0000900D01*
X-0002058Y0002111D02*
X-0002140D01*
X0002639Y0001274D02*
Y0001194D01*
X0002549Y0001748D02*
Y0001640D01*
X-0001396Y0001391D02*
X-0001718D01*
X0003229Y0001211D02*
X0002486D01*
X0002549Y0001248D02*
Y0001194D01*
X0002459Y0001202D02*
Y0001194D01*
Y0001702D02*
Y0001685D01*
Y0002202D02*
Y0002185D01*
Y0002702D02*
Y0002685D01*
Y0003202D02*
Y0003185D01*
Y0003702D02*
Y0003685D01*
Y0004202D02*
Y0004185D01*
Y0004702D02*
Y0004685D01*
Y0007041D02*
Y0005185D01*
X0001649Y0001228D02*
Y0001194D01*
X0005519Y0007041D02*
Y0001197D01*
X0004279Y0001841D02*
X0002623D01*
X0004279Y0001391D02*
X0003530D01*
X-0005011Y0001256D02*
Y0001132D01*
X-0005101Y0001205D02*
Y0001183D01*
X-0005911Y0001222D02*
Y0001166D01*
X-0006091Y0001774D02*
Y0001614D01*
X-0003195Y0001121D02*
X-0004999D01*
X-0003892Y0000553D02*
X-0003793Y0000454D01*
X-0003571Y0001187D02*
Y0001036D01*
X-0003575Y0001031D02*
X-0004941D01*
X-0005911Y0001722D02*
Y0001666D01*
X-0006001Y0001274D02*
Y0001087D01*
X-0006181Y0001274D02*
Y0001032D01*
X-0003671Y0001661D02*
X-0005052D01*
X-0003755Y0001571D02*
X-0004960D01*
X-0003786Y0001481D02*
X-0004928D01*
X-0003129Y0001614D02*
X-0003332D01*
X-0003746Y0001301D02*
X-0004970D01*
X-0005911Y0002222D02*
Y0002166D01*
X-0003131Y0002111D02*
X-0004990D01*
X-0003183Y0002021D02*
X-0004938D01*
X-0003195Y0001931D02*
X-0004926D01*
X-0003173Y0001841D02*
X-0004947D01*
X-0003105Y0001751D02*
X-0005016D01*
X-0003085Y0002651D02*
X-0005036D01*
X-0005911Y0002722D02*
Y0002666D01*
X-0003166Y0002561D02*
X-0004954D01*
X-0003194Y0002471D02*
X-0004927D01*
X-0003187Y0002381D02*
X-0004933D01*
X-0003143Y0002291D02*
X-0004977D01*
X-0003005Y0002201D02*
X-0005115D01*
X-0005011Y0003256D02*
Y0003132D01*
X-0005101Y0003205D02*
Y0003183D01*
X-0006005Y0003308D02*
Y0003080D01*
X-0005911Y0003222D02*
Y0003166D01*
X-0006001Y0003301D02*
Y0003087D01*
X-0002982Y0003191D02*
X-0005139D01*
X-0003140Y0003101D02*
X-0004981D01*
X-0003186Y0003011D02*
X-0004934D01*
X-0003194Y0002921D02*
X-0004926D01*
X-0003168Y0002831D02*
X-0004952D01*
X-0003092Y0002741D02*
X-0005029D01*
X-0005011Y0003756D02*
Y0003632D01*
X-0005101Y0003705D02*
Y0003683D01*
X-0006005Y0003808D02*
Y0003580D01*
X-0005911Y0003722D02*
Y0003666D01*
X-0006001Y0003801D02*
Y0003587D01*
X-0003099Y0003641D02*
X-0005022D01*
X-0003171Y0003551D02*
X-0004949D01*
X-0003195Y0003461D02*
X-0004926D01*
X-0003184Y0003371D02*
X-0004936D01*
X-0003135Y0003281D02*
X-0004985D01*
X-0006005Y0004248D02*
Y0004080D01*
X-0005911Y0004722D02*
Y0004666D01*
X-0006001Y0004801D02*
Y0004587D01*
X-0004563Y0004615D02*
X-0004993D01*
X-0004547Y0004631D02*
X-0005010D01*
X-0004921Y0004774D02*
Y0004615D01*
X-0004201Y0004774D02*
Y0004645D01*
X-0003469Y0005621D02*
X-0003975D01*
X0010691Y0004634D02*
X0010002D01*
X-0003116Y0005261D02*
X-0003348D01*
X-0004831Y0007041D02*
Y0005559D01*
X-0005911Y0005222D02*
Y0005166D01*
X-0006001Y0005301D02*
Y0005087D01*
X-0003751Y0004859D02*
Y0004595D01*
X-0003059Y0004721D02*
X-0005062D01*
X-0010193Y0005171D02*
X-0011761D01*
X-0005911Y0007041D02*
Y0005666D01*
X-0004381Y0005219D02*
Y0005114D01*
X-0004207Y0005621D02*
X-0004999D01*
X-0004471Y0005219D02*
Y0005114D01*
X-0003031Y0007041D02*
Y0006060D01*
X-0001861Y0005809D02*
Y0005592D01*
X-0003019Y0006071D02*
X-0007370D01*
X-0000040Y0005621D02*
X-0002149D01*
X0004279D02*
X0001795D01*
X0004279Y0005531D02*
X0001795D01*
X-0000040Y0005441D02*
X-0001700D01*
X-0006361Y0001774D02*
Y0001724D01*
X0001649Y0004228D02*
Y0004160D01*
X-0000601Y-0000721D02*
Y-0000976D01*
X-0003049Y0005171D02*
X-0003438D01*
X0011761Y0004991D02*
X0009728D01*
X-0001241Y0004631D02*
X-0001457D01*
X-0006345Y0003461D02*
X-0006406D01*
X-0002245Y0004207D02*
X-0002195Y0004157D01*
X0001649Y0003728D02*
Y0003660D01*
X-0004828Y-0000360D02*
X-0004807Y-0000381D01*
X-0006001Y0001774D02*
Y0001614D01*
X-0001922Y0004631D02*
X-0002160D01*
X-0001949Y0003911D02*
X-0002077D01*
X-0005976Y0004271D02*
X-0006007D01*
X-0006345Y0003731D02*
X-0006406D01*
X0001559Y0002817D02*
Y0002571D01*
X-0000511Y-0000721D02*
Y-0000976D01*
X-0001591Y0007041D02*
Y0006149D01*
X-0001411Y0004774D02*
Y0003291D01*
X-0001501Y0002047D02*
Y0001977D01*
X-0002131Y0003787D02*
Y0003614D01*
X-0002401Y0005809D02*
Y0005694D01*
X0001649Y0002728D02*
Y0002660D01*
X-0000871Y-0000721D02*
Y-0000976D01*
X-0001309Y0001031D02*
X-0001718D01*
X-0001321Y0007041D02*
Y0006299D01*
X-0001861Y0004570D02*
Y0004304D01*
X-0000961Y-0000721D02*
Y-0000976D01*
X-0002009Y0002564D02*
X-0001861Y0002416D01*
X-0002131Y0002205D02*
Y0002101D01*
X-0002058Y0001391D02*
X-0002081D01*
X-0008859Y0002561D02*
X-0011761D01*
X-0000151Y0000618D02*
Y-0000381D01*
X-0002221Y0005809D02*
Y0005671D01*
X-0003121Y0002766D02*
Y0002622D01*
X-0001051Y-0000721D02*
Y-0000976D01*
X-0001553Y0006299D02*
Y0006149D01*
X-0002058Y0001121D02*
X-0002075D01*
X-0002058Y0001571D02*
X-0002110D01*
X-0001576D02*
X-0001718D01*
X-0009601Y0001523D02*
Y-0000976D01*
X-0002131Y0001787D02*
Y0001601D01*
X-0002221Y0005217D02*
Y0005171D01*
X-0009492Y0004361D02*
X-0009860D01*
X-0002131Y0001287D02*
Y0001194D01*
X-0002221Y0001217D02*
Y0001194D01*
Y0001717D02*
Y0001671D01*
Y0002217D02*
Y0002171D01*
Y0002717D02*
Y0002671D01*
Y0003217D02*
Y0003171D01*
Y0003717D02*
Y0003671D01*
X-0002041Y0004747D02*
Y0004484D01*
X-0002221Y0004717D02*
Y0004671D01*
X-0003031Y0001209D02*
Y0001194D01*
X0002909Y-0000283D02*
Y-0001849D01*
X-0001141Y-0000721D02*
Y-0000976D01*
X0004279Y0004811D02*
X0003467D01*
X0006869Y0004543D02*
Y0004319D01*
X0006779Y0004543D02*
Y0004296D01*
X0006896Y0004451D02*
X0006736D01*
X0011761Y0003551D02*
X0009849D01*
X0006736Y0004543D02*
Y0004346D01*
X0005059Y0004493D02*
X0004570D01*
X0007499Y0004543D02*
Y0004402D01*
X0007409Y0004543D02*
Y0004357D01*
X0007675Y0005103D02*
Y0004543D01*
X0007859Y0005223D02*
Y0004306D01*
X0007769Y0005223D02*
Y0004310D01*
X0006249Y0004811D02*
X0005239D01*
X0007319Y0004543D02*
Y0004221D01*
X0008669Y0002819D02*
Y-0001849D01*
X0007675Y0005223D02*
Y0005123D01*
X0008309Y0005394D02*
Y0004232D01*
X0003467Y0004231D02*
Y0004111D01*
X0008129Y0005235D02*
Y0004403D01*
X0007949Y0005223D02*
Y0004383D01*
X0003899Y0004231D02*
Y0003872D01*
X0009762Y0004361D02*
X0008218D01*
X0009762Y0004271D02*
X0008294D01*
X0009762Y0004181D02*
X0008320D01*
X0009762Y0004091D02*
X0008321D01*
X0009762Y0004001D02*
X0008321D01*
X0009252Y0003435D02*
X0008107D01*
X0009728Y0003911D02*
X0008321D01*
X0006148Y0002651D02*
X0005239D01*
X0006058Y0002561D02*
X0005239D01*
X0005769Y0001661D02*
X0005239D01*
X0005769Y0001571D02*
X0005239D01*
X0005769Y0002111D02*
X0005239D01*
X0005769Y0002021D02*
X0005239D01*
X0005769Y0001931D02*
X0005239D01*
X0005968Y0002471D02*
X0005239D01*
X0005878Y0002381D02*
X0005239D01*
X0005769Y0001841D02*
X0005239D01*
X0010805Y0006881D02*
X0005144D01*
X0010643Y0006791D02*
X0005226D01*
X0010549Y0006701D02*
X0005239D01*
X0010485Y0006611D02*
X0005239D01*
X0010442Y0006521D02*
X0005239D01*
X0006249Y0005351D02*
X0005239D01*
X0010415Y0006431D02*
X0005239D01*
X0010402Y0006341D02*
X0005239D01*
X0008443Y0006251D02*
X0005239D01*
X0008271Y0006161D02*
X0005239D01*
X-0007379Y0003415D02*
X-0008524D01*
X-0009151Y0005173D02*
Y0004042D01*
X-0008938Y0004001D02*
X-0009110D01*
X-0008938Y0004361D02*
X-0009152D01*
X-0008938Y0004271D02*
X-0009152D01*
X-0007046Y0005081D02*
X-0009330D01*
X-0007046Y0004991D02*
X-0009240D01*
X-0007046Y0003551D02*
X-0008660D01*
X-0009241Y0005537D02*
Y0004992D01*
X-0009331Y0005590D02*
Y0005082D01*
X-0009492Y0004763D02*
Y0003973D01*
X-0005731Y0000694D02*
Y0000150D01*
X-0002491Y-0000210D02*
Y-0000381D01*
X-0000331Y0000727D02*
Y-0000381D01*
X-0000421Y0000696D02*
Y-0000381D01*
X-0000511Y0000694D02*
Y-0000381D01*
X-0002311Y-0000341D02*
Y-0000381D01*
X-0002401Y-0000210D02*
Y-0000381D01*
X-0003391Y-0000359D02*
Y-0000381D01*
X-0002851Y-0000359D02*
Y-0000381D01*
X-0002941Y-0000359D02*
Y-0000381D01*
X-0003031Y-0000359D02*
Y-0000381D01*
X-0003121Y-0000359D02*
Y-0000381D01*
X0007925Y0000349D02*
X0007708D01*
X0006779Y0001331D02*
Y0000406D01*
X0006689Y0001139D02*
Y0000406D01*
X0006599Y0001049D02*
Y0000406D01*
X0006509Y0000959D02*
Y0000406D01*
X0006419Y0000869D02*
Y0000406D01*
X0006329Y0000779D02*
Y0000406D01*
X0006239Y0000689D02*
Y0000406D01*
X0005879Y0000420D02*
Y0000406D01*
X0005789Y0000420D02*
Y0000406D01*
X0005699Y0000420D02*
Y0000406D01*
X0005609Y0000420D02*
Y0000406D01*
X0005519Y0000420D02*
Y0000406D01*
X0005429Y0000420D02*
Y0000406D01*
X0005339Y0000420D02*
Y0000406D01*
X0005249Y0000420D02*
Y0000406D01*
X0005159Y0000420D02*
Y0000406D01*
X0005069Y0000420D02*
Y0000406D01*
X0004979Y0000420D02*
Y0000406D01*
X0004889Y0000420D02*
Y0000406D01*
X0004799Y0000420D02*
Y0000406D01*
X0004709Y0000420D02*
Y0000406D01*
X0004619Y0000420D02*
Y0000406D01*
X0004529Y0000420D02*
Y0000406D01*
X0004439Y0000420D02*
Y0000406D01*
X0004349Y0000420D02*
Y0000406D01*
X0004259Y0000420D02*
Y0000406D01*
X0004169Y0000420D02*
Y0000406D01*
X0004079Y0000420D02*
Y0000406D01*
X0003989Y0000420D02*
Y0000406D01*
X0003899Y0000420D02*
Y0000406D01*
X0003809Y0000420D02*
Y0000406D01*
X0003719Y0000420D02*
Y0000406D01*
X0003629Y0000422D02*
Y0000406D01*
X0003539Y0000468D02*
Y0000406D01*
X0003449Y0000558D02*
Y0000406D01*
X0003359Y0000648D02*
Y0000406D01*
X0006785Y0000401D02*
X0003225D01*
X0003257Y0000066D02*
X0002521Y-0000674D01*
X0003146Y0000401D02*
X0002002D01*
X0003269Y0000738D02*
Y0000406D01*
X0000839Y-0000725D02*
Y-0001849D01*
X0002999Y0000774D02*
Y0000289D01*
X0002909Y0000774D02*
Y0000199D01*
X0002819Y0000774D02*
Y0000108D01*
X0002729Y0000774D02*
Y0000018D01*
X0009119Y0005376D02*
Y0003435D01*
X0004349Y0007041D02*
Y0006865D01*
X0008939Y0005592D02*
Y0003435D01*
X0008849Y0005485D02*
Y0003435D01*
X0008759Y0005424D02*
Y0003435D01*
X0008669Y0005390D02*
Y0003435D01*
X0008579Y0005377D02*
Y0003435D01*
X0008489Y0005382D02*
Y0003435D01*
X0008399Y0005405D02*
Y0003435D01*
X0008309Y0003610D02*
Y0003435D01*
X0002639Y-0000555D02*
Y-0001849D01*
X0009299Y0005376D02*
Y0003482D01*
X-0002131Y0002787D02*
Y0002614D01*
X0009749Y0004406D02*
Y0003932D01*
X0009659Y0004496D02*
Y0003842D01*
X0009569Y0004586D02*
Y0003752D01*
X0009479Y0004676D02*
Y0003662D01*
X0009389Y0004817D02*
Y0003572D01*
X0009209Y0005376D02*
Y0003435D01*
X0009029Y0007041D02*
Y0003435D01*
X0011761Y0003371D02*
X0009669D01*
X0004279Y0004683D02*
X0004167Y0004571D01*
X0004439Y0007041D02*
Y0006901D01*
X0004349Y0004273D02*
Y0003673D01*
X0004259Y0007041D02*
Y0004663D01*
X0003719Y0007041D02*
Y0004571D01*
X0007675Y0005683D02*
Y0005563D01*
X0007679Y0005223D02*
Y0004385D01*
X-0007379Y0003415D02*
Y0003356D01*
X-0006451Y0002891D02*
Y0002246D01*
X0006311Y0003731D02*
X0004291D01*
X0000299Y0001274D02*
Y0000641D01*
X-0004111Y0004396D02*
Y0004114D01*
X-0006451Y0000402D02*
Y-0000976D01*
X0006779Y0003547D02*
Y0002805D01*
X0006689Y0003463D02*
Y0002805D01*
X0006599Y0003433D02*
Y0002805D01*
X0007031Y0003191D02*
X0005239D01*
X0007229Y0002993D02*
Y0002805D01*
X0007139Y0003083D02*
Y0002805D01*
X0007049Y0003173D02*
Y0002805D01*
X0007859Y0002819D02*
Y0002764D01*
X0009794Y0002839D02*
X0009673D01*
X0004979Y0004493D02*
Y0003453D01*
X0006946Y0003276D02*
X0007351Y0002871D01*
X0006869Y0003524D02*
Y0002805D01*
X0011761Y0003281D02*
X0009579D01*
X0006239Y0007041D02*
Y0002743D01*
X0004279Y0003191D02*
X0003467D01*
X0010002Y0003705D02*
X0009444Y0003147D01*
X0006311Y0001661D02*
X0006109D01*
X0006311Y0001571D02*
X0006109D01*
X0006311Y0002111D02*
X0006109D01*
X0006311Y0002021D02*
X0006109D01*
X0006311Y0001931D02*
X0006109D01*
X0006311Y0001841D02*
X0006109D01*
X0006311Y0002201D02*
X0006178D01*
X0006329Y0001331D02*
Y0001260D01*
X0006396Y0001326D02*
X0005830Y0000760D01*
X0006396Y0001331D02*
X0006311D01*
X0007465Y0001031D02*
X0006582D01*
X0007834Y0001481D02*
X0007805D01*
X0006785Y0000941D02*
X0006492D01*
X0006785Y0000761D02*
X0006312D01*
X0011761Y0001391D02*
X0010635D01*
X0006149Y0000066D02*
Y-0001849D01*
X0005769Y0001447D02*
X0005397Y0001075D01*
X0006821Y0001331D02*
X0006736D01*
X0005879Y0001076D02*
Y0000810D01*
X0005789Y0000986D02*
Y0000760D01*
X0005830D02*
X0005557D01*
X0005699Y0007041D02*
Y0001377D01*
X0005609Y0000806D02*
Y0000760D01*
X0005789Y0007041D02*
Y0002283D01*
X0005609Y0007041D02*
Y0001287D01*
X0005339Y0007041D02*
Y0001075D01*
X0006249Y0005531D02*
X0005239D01*
X0004280Y0001211D02*
X0003710D01*
X0005534D02*
X0005239D01*
X0005714Y0001391D02*
X0005239D01*
X0004279Y0001751D02*
X0002554D01*
X0003719Y0000066D02*
Y-0001849D01*
X0003269Y0001171D02*
Y0001114D01*
X0003719Y0003532D02*
Y0001202D01*
X0004079Y0003462D02*
Y0001075D01*
X0006785Y0000671D02*
X0006222D01*
X0003629Y0003532D02*
Y0001292D01*
X0003359Y0002852D02*
Y0001562D01*
X0003269Y0002852D02*
Y0001611D01*
X0003449Y0002852D02*
Y0001472D01*
X-0005961Y0004631D02*
X-0006330D01*
X-0005942Y0002741D02*
X-0006005D01*
X-0001179Y0005171D02*
X-0001430D01*
X-0001321Y0005659D02*
Y0005114D01*
X-0001501Y0005659D02*
Y0005242D01*
X-0005821Y0007041D02*
Y0005693D01*
X-0002131Y0005809D02*
Y0005614D01*
X-0004291Y0007041D02*
Y0005559D01*
X-0001411Y0005659D02*
Y0005152D01*
X-0001321Y0004774D02*
Y0004492D01*
X-0006361Y0000299D02*
Y-0000976D01*
X-0006991Y0001873D02*
Y0001598D01*
X-0006631Y0002551D02*
Y0002426D01*
X-0006811Y0001693D02*
Y0001676D01*
X-0006901Y0001783D02*
Y0001658D01*
X-0007379Y0002262D02*
Y0002155D01*
X-0006468Y0000839D02*
Y0000477D01*
X-0006869Y0001751D02*
X-0007379D01*
X0000659Y0005409D02*
Y0002086D01*
X0001289Y0001757D02*
Y0000839D01*
X0005249Y0007041D02*
Y0001075D01*
X0001019Y0007041D02*
Y0002137D01*
X0000929Y0007041D02*
Y0002179D01*
X0000839Y0007041D02*
Y0002186D01*
X0001589Y0002111D02*
X0001049D01*
X0001109Y0005409D02*
Y0002097D01*
X0001289Y0005409D02*
Y0002097D01*
X-0003211Y0000774D02*
Y0000281D01*
X-0003571Y0003733D02*
Y0001701D01*
X-0003661Y0003685D02*
Y0001668D01*
X-0003751Y0003674D02*
Y0001579D01*
X-0003069Y0001661D02*
X-0003386D01*
X-0005955Y0001751D02*
X-0006388D01*
X-0003037Y0001211D02*
X-0003413D01*
X-0000151Y0007041D02*
Y0006109D01*
X-0003841Y0007041D02*
Y0005460D01*
X-0003931Y0007041D02*
Y0005594D01*
X-0004021Y0007041D02*
Y0005639D01*
X-0004111Y0007041D02*
Y0005648D01*
X-0003976Y0005114D02*
X-0004992D01*
X-0003559Y0005531D02*
X-0003873D01*
X-0003649Y0005441D02*
X-0003836D01*
X-0003739Y0005351D02*
X-0003833D01*
X0000209Y0003757D02*
Y0003619D01*
X0000119Y0003700D02*
Y0003683D01*
X-0000151Y0003756D02*
Y0003642D01*
X-0000061Y0003700D02*
Y0003692D01*
X0001738Y0003191D02*
X0000079D01*
X0001621Y0003641D02*
X0000187D01*
X-0003841Y0003695D02*
Y0000502D01*
X-0003301Y0005309D02*
Y0004547D01*
X-0003111Y0004631D02*
X-0003359D01*
X-0003391Y0005219D02*
Y0004657D01*
X-0003481Y0005129D02*
Y0004697D01*
X-0003841Y0004787D02*
Y0004172D01*
X-0003181Y0004361D02*
X-0003293D01*
X-0003126Y0004271D02*
X-0003345D01*
X0001609Y0004631D02*
X0000219D01*
X0001544Y0004541D02*
X0000280D01*
X-0000061Y0005769D02*
Y0004684D01*
X0001539Y0004361D02*
X0000285D01*
X0001594Y0004271D02*
X0000233D01*
X0001635Y0002651D02*
X0000228D01*
X0000299Y0005409D02*
Y0002576D01*
X0000119Y0003205D02*
Y0002695D01*
X0001554Y0002561D02*
X0000308D01*
X0001526Y0002471D02*
X0000337D01*
X0001533Y0002381D02*
X0000332D01*
X0001577Y0002291D02*
X0000293D01*
X0001714Y0002201D02*
X0000185D01*
X-0003301Y0003774D02*
Y0001614D01*
X-0004381Y0004774D02*
Y0004704D01*
X-0004561Y0004774D02*
Y0004617D01*
X0002009Y-0000360D02*
Y-0000385D01*
X-0003211Y0005399D02*
Y0004114D01*
X0000749Y-0000360D02*
Y-0000385D01*
X-0003077Y0003731D02*
X-0003573D01*
X-0003734Y0004271D02*
X-0004172D01*
X0000029Y0005409D02*
Y0004704D01*
X0000209Y0004248D02*
Y0004131D01*
X-0006406Y0002891D02*
X-0006485D01*
X-0006349Y0004181D02*
X-0007380D01*
X-0006345Y0004001D02*
X-0006406D01*
X0006889Y0004543D02*
X0006736D01*
X0007121Y0003101D02*
X0005239D01*
X0004279D02*
X0003467D01*
X0005069Y0004493D02*
Y0003452D01*
X0007301Y0002921D02*
X0005239D01*
X0004889Y0004493D02*
Y0003453D01*
X0003899Y0003532D02*
Y0001075D01*
X0004259Y0004232D02*
Y0003763D01*
X0005159Y0007041D02*
Y0006872D01*
X0009119Y0002819D02*
Y-0001849D01*
X0008129Y0002819D02*
Y0002495D01*
X0009749Y0003452D02*
Y0002839D01*
X0004279Y0005351D02*
X-0001610D01*
X0006249Y0005261D02*
X0005239D01*
X0004279Y0004901D02*
X0003467D01*
X0004279Y0005171D02*
X0003467D01*
X0011761Y0005441D02*
X0010003D01*
X0004279D02*
X0001795D01*
X0001829Y0007041D02*
Y0005194D01*
X0004889Y0007041D02*
Y0006903D01*
X0004799Y0007041D02*
Y0006903D01*
X0002909Y0007041D02*
Y0005251D01*
X0004619Y0007041D02*
Y0006903D01*
X0006898Y0003371D02*
X0005210D01*
X0006396Y0004541D02*
X0005182D01*
X0010649Y0002476D02*
Y0001362D01*
X0010559Y0002345D02*
Y0001494D01*
X0010469Y0002273D02*
Y0001566D01*
X0010379Y0002230D02*
Y0001608D01*
X0010289Y0002209D02*
Y0001630D01*
X0010199Y0002205D02*
Y0001633D01*
X0010109Y0002220D02*
Y0001619D01*
X0010019Y0002253D02*
Y0001585D01*
X0009929Y0002312D02*
Y0001526D01*
X0009839Y0002413D02*
Y0001426D01*
X0005969Y0007041D02*
Y0002473D01*
X0011761Y0001301D02*
X0010672D01*
X0011761Y0001211D02*
X0010689D01*
X0011761Y0001121D02*
X0010689D01*
X0011761Y0001031D02*
X0010670D01*
X0011761Y0000941D02*
X0010631D01*
X0011761Y0000851D02*
X0010565D01*
X0011761Y0002021D02*
X0008321D01*
X0011761Y0001571D02*
X0010460D01*
X0011761Y0001661D02*
X0008321D01*
X0006149Y0007041D02*
Y0002653D01*
X0011761Y0003101D02*
X0010398D01*
X0011761Y0003011D02*
X0010541D01*
X0011761Y0002921D02*
X0010617D01*
X0011761Y0002831D02*
X0010662D01*
X0010649Y0003705D02*
Y0002862D01*
X0010559Y0003705D02*
Y0002994D01*
X0010469Y0003705D02*
Y0003066D01*
X0010379Y0003705D02*
Y0003108D01*
X0010289Y0003705D02*
Y0003130D01*
X0010199Y0003705D02*
Y0003133D01*
X0010109Y0003705D02*
Y0003119D01*
X0010019Y0003705D02*
Y0003085D01*
X0002819Y0004274D02*
Y0004114D01*
X0009929Y0003632D02*
Y0003026D01*
X0011761Y0000761D02*
X0010449D01*
X0011761Y0002561D02*
X0010679D01*
X0011761Y0002471D02*
X0010647D01*
X0010649Y0005801D02*
Y0004634D01*
X0010559Y0005884D02*
Y0004634D01*
X0010469Y0006014D02*
Y0004634D01*
X0011761Y0002651D02*
X0010691D01*
X0010379Y0007041D02*
Y0004634D01*
X0010289Y0007041D02*
Y0004634D01*
X0010199Y0007041D02*
Y0004634D01*
X0010109Y0007041D02*
Y0004634D01*
X0009388Y0005376D02*
X0009113D01*
X0009929D02*
Y0004707D01*
X0011761Y0003191D02*
X0009489D01*
X0011761Y0004541D02*
X0010691D01*
X0011761Y0004451D02*
X0010691D01*
X0011761Y0004721D02*
X0009915D01*
X-0009061Y0003224D02*
Y0001889D01*
X-0009151Y0003143D02*
Y0001970D01*
X-0009241Y0003106D02*
Y0002007D01*
X-0009331Y0003096D02*
Y0002017D01*
X-0009421Y0003112D02*
Y0002001D01*
X-0009511Y0003157D02*
Y0001956D01*
X-0009601Y0003255D02*
Y0001858D01*
X-0008859Y0001931D02*
X-0009099D01*
X-0008859Y0001841D02*
X-0009030D01*
X-0008859Y0001751D02*
X-0008999D01*
X-0006901Y0001174D02*
Y-0000976D01*
X-0006786Y0001157D02*
X-0006468Y0000839D01*
X-0007013Y0001571D02*
X-0009016D01*
X-0007056Y0001481D02*
X-0009069D01*
X-0008881Y0003785D02*
Y0003771D01*
X-0009061Y0005173D02*
Y0003952D01*
X0007411Y0002831D02*
X0005239D01*
X-0009452Y0005711D02*
X-0009553D01*
X0005059Y0002253D02*
X0004459D01*
X0005059Y0002163D02*
X0004459D01*
X0005059Y0002073D02*
X0004459D01*
X0005059Y0001983D02*
X0004459D01*
X0005059Y0001893D02*
X0004459D01*
X0005059Y0001803D02*
X0004459D01*
X0005059Y0001713D02*
X0004459D01*
X0005059Y0001623D02*
X0004459D01*
X0005059Y0001533D02*
X0004459D01*
X0005059Y0001443D02*
X0004459D01*
X0005059Y0001353D02*
X0004459D01*
X0005059Y0003243D02*
X0004459D01*
X0005059Y0003153D02*
X0004459D01*
X0005059Y0003063D02*
X0004459D01*
X0005059Y0002973D02*
X0004459D01*
X0005059Y0002883D02*
X0004459D01*
X0005059Y0002793D02*
X0004459D01*
X0005059Y0002703D02*
X0004459D01*
X0005059Y0002613D02*
X0004459D01*
X0005059Y0002523D02*
X0004459D01*
X0005059Y0002433D02*
X0004459D01*
X0005059Y0002343D02*
X0004459D01*
Y0003273D02*
Y0001223D01*
X0005059Y0003273D02*
X0004459D01*
X0005059D02*
Y0001223D01*
X0005039Y0003273D02*
Y0001223D01*
X0004949Y0003273D02*
Y0001223D01*
X0004859Y0003273D02*
Y0001223D01*
X0004769Y0003273D02*
Y0001223D01*
X0004679Y0003273D02*
Y0001223D01*
X0004589Y0003273D02*
Y0001223D01*
X0004499Y0003273D02*
Y0001223D01*
X0005059Y0001263D02*
X0004459D01*
X0005059Y0001223D02*
X0004459D01*
X0005059Y0005703D02*
X0004459D01*
X0005059Y0005613D02*
X0004459D01*
X0005059Y0005523D02*
X0004459D01*
X0005059Y0005433D02*
X0004459D01*
X0005059Y0005343D02*
X0004459D01*
X0005059Y0005253D02*
X0004459D01*
X0005059Y0005163D02*
X0004459D01*
X0005059Y0005073D02*
X0004459D01*
X0005059Y0004983D02*
X0004459D01*
X0005059Y0004893D02*
X0004459D01*
X0005059Y0004803D02*
X0004459D01*
X0005059Y0006693D02*
X0004459D01*
X0005059Y0006603D02*
X0004459D01*
X0005059Y0006513D02*
X0004459D01*
X0005059Y0006423D02*
X0004459D01*
X0005059Y0006333D02*
X0004459D01*
X0005059Y0006243D02*
X0004459D01*
X0005059Y0006153D02*
X0004459D01*
X0005059Y0006063D02*
X0004459D01*
X0005059Y0005973D02*
X0004459D01*
X0005059Y0005883D02*
X0004459D01*
X0005059Y0005793D02*
X0004459D01*
X0005059Y0006723D02*
X0004459D01*
Y0004673D01*
X0005059D02*
X0004459D01*
X0005039Y0006723D02*
Y0004673D01*
X0004949Y0006723D02*
Y0004673D01*
X0004859Y0006723D02*
Y0004673D01*
X0004769Y0006723D02*
Y0004673D01*
X0004679Y0006723D02*
Y0004673D01*
X0004589Y0006723D02*
Y0004673D01*
X0004499Y0006723D02*
Y0004673D01*
X0005059Y0004713D02*
X0004459D01*
X0005059Y0006723D02*
Y0004673D01*
G01X-0011023Y0005677D02*
G03X-0010401Y0006299I0000000J0000622D01*
G03X-0011023Y0006921I0000622J0000000D01*
G03X-0011645Y0006299I0000000J0000622D01*
G01X0010401D02*
G03X0011023Y0005677I0000622J0000000D01*
G03X0011645Y0006299I0000000J0000622D01*
G03X0011023Y0006921I0000622J0000000D01*
G03X0010401Y0006299I0000000J0000622D01*
Y-0001027D02*
G03X0011023Y-0001649I0000622J0000000D01*
G03X0011645Y-0001027I0000000J0000622D01*
G03X0011023Y-0000405I0000622J0000000D01*
G03X0010401Y-0001027I0000000J0000622D01*
G01X-0011645D02*
G03X-0011023Y-0001649I0000622J0000000D01*
G03X-0010401Y-0001027I0000000J0000622D01*
G03X-0011023Y-0000405I0000622J0000000D01*
G03X-0011645Y-0001027I0000000J0000622D01*
G01X0008558Y0005376D02*
G03X0009003Y0005821I0000000J0000445D01*
G03X0008558Y0006266I0000445J0000000D01*
G03X0008113Y0005821I0000000J0000445D01*
G01X-0002394Y-0000210D02*
G03X-0002270Y-0000381I0000411J0000170D01*
G01X-0001697D02*
G03X-0001538Y-0000040I0000286J0000341D01*
G01X-0009324Y0006064D02*
G03X-0009445Y0006114I0000121J0000120D01*
G01X-0001325Y0000944D02*
G03X-0001075Y0000694I0000250J0000000D01*
G01X-0000455Y0001194D02*
G03X-0000272Y0001274I0000000J0000250D01*
G01X-0001075Y0001194D02*
G03X-0001325Y0000944I0000000J0000250D01*
G01X-0000205Y0001944D02*
G03X-0000455Y0002194I0000250J0000000D01*
Y0001694D02*
G03X-0000205Y0001944I0000000J0000250D01*
G01X-0000455Y0002194D02*
G03X-0000277Y0002269I0000000J0000250D01*
G01X0000079Y0002699D02*
G03X-0000118Y0002609I0000000J0000260D01*
G01X0000277Y0003444D02*
G03X0000094Y0003692I0000260J0000000D01*
G01X-0000205Y0002944D02*
G03X-0000455Y0003194I0000250J0000000D01*
Y0002694D02*
G03X-0000205Y0002944I0000000J0000250D01*
G01X0000289Y0003944D02*
G03X0000105Y0004192I0000260J0000000D01*
G01X-0000048Y0003696D02*
G03X-0000179Y0003614I0000065J0000252D01*
G01X0000094Y0003692D02*
G03X0000289Y0003944I0000065J0000252D01*
G01X-0000158Y0004274D02*
G03X-0000038Y0004195I0000197J0000170D01*
G01X-0000037D02*
G03X-0000168Y0004114I0000066J0000251D01*
G01X-0001075Y0003694D02*
G03X-0001325Y0003444I0000000J0000250D01*
G01X0000039Y0004704D02*
G03X-0000158Y0004614I0000000J0000260D01*
G01X-0000168Y0003774D02*
G03X-0000048Y0003696I0000197J0000170D01*
G01X-0001075Y0004194D02*
G03X-0001325Y0003944I0000000J0000250D01*
G01X-0000205Y0004944D02*
G03X-0000455Y0005194I0000250J0000000D01*
G01X-0005979Y0002274D02*
G03X-0005795Y0002193I0000184J0000170D01*
G01X-0000455Y0004694D02*
G03X-0000205Y0004944I0000000J0000250D01*
G01X0002645D02*
G03X0002395Y0005194I0000250J0000000D01*
G01X0001775D02*
G03X0001525Y0004944I0000000J0000250D01*
G01X0002395Y0004694D02*
G03X0002645Y0004944I0000000J0000250D01*
G01X0002395Y0004194D02*
G03X0002578Y0004274I0000000J0000250D01*
G01X0001525Y0004944D02*
G03X0001775Y0004694I0000250J0000000D01*
G01X0002645Y0003444D02*
G03X0002395Y0003694I0000250J0000000D01*
Y0003194D02*
G03X0002645Y0003444I0000000J0000250D01*
G01X-0001075Y0002694D02*
G03X-0001285Y0002580I0000000J0000250D01*
G01X0002645Y0002944D02*
G03X0002395Y0003194I0000250J0000000D01*
Y0002694D02*
G03X0002645Y0002944I0000000J0000250D01*
G01X0001775Y0003194D02*
G03X0001525Y0002944I0000000J0000250D01*
G01X0002645Y0002444D02*
G03X0002395Y0002694I0000250J0000000D01*
Y0002194D02*
G03X0002645Y0002444I0000000J0000250D01*
Y0001944D02*
G03X0002395Y0002194I0000250J0000000D01*
Y0001694D02*
G03X0002645Y0001944I0000000J0000250D01*
G01X0001525Y0002444D02*
G03X0001775Y0002194I0000250J0000000D01*
G01X0002395Y0001194D02*
G03X0002578Y0001274I0000000J0000250D01*
G01X-0003709Y0004192D02*
G03X-0003737Y0004194I0000028J0000259D01*
G01X-0005175Y0000694D02*
G03X-0004925Y0000944I0000000J0000250D01*
G01X-0006045D02*
G03X-0005795Y0000694I0000250J0000000D01*
G01X-0004925Y0000944D02*
G03X-0005175Y0001194I0000250J0000000D01*
G01X-0005795D02*
G03X-0006045Y0000944I0000000J0000250D01*
G01X-0004925Y0001444D02*
G03X-0005175Y0001694I0000250J0000000D01*
Y0003194D02*
G03X-0004925Y0003444I0000000J0000250D01*
G01X-0006005Y0002808D02*
G03X-0005795Y0002694I0000210J0000136D01*
G01X-0005175Y0002194D02*
G03X-0004925Y0002444I0000000J0000250D01*
Y0002944D02*
G03X-0005175Y0003194I0000250J0000000D01*
G01X-0004925Y0003444D02*
G03X-0005175Y0003694I0000250J0000000D01*
G01X-0005795Y0003194D02*
G03X-0006005Y0003080I0000000J0000250D01*
Y0003308D02*
G03X-0005795Y0003194I0000210J0000136D01*
Y0005694D02*
G03X-0006045Y0005444I0000000J0000250D01*
G01X-0002093Y0004536D02*
G03X-0002325Y0004694I0000232J0000092D01*
Y0003694D02*
G03X-0002075Y0003944I0000000J0000250D01*
G01X-0002325Y0003194D02*
G03X-0002176Y0003243I0000000J0000250D01*
G01X-0002325Y0002194D02*
G03X-0002172Y0002246I0000000J0000250D01*
G01X-0002075Y0001944D02*
G03X-0002325Y0002194I0000250J0000000D01*
Y0001694D02*
G03X-0002075Y0001944I0000000J0000250D01*
G01X-0003195Y0002444D02*
G03X-0002945Y0002194I0000250J0000000D01*
G01X-0002075Y0001444D02*
G03X-0002325Y0001694I0000250J0000000D01*
Y0001194D02*
G03X-0002075Y0001444I0000000J0000250D01*
G01X0006311Y0003686D02*
G03X0006566Y0003431I0000255J0000000D01*
G01X0006396Y0004346D02*
G03X0006311Y0004156I0000170J0000190D01*
G01X0006566Y0003431D02*
G03X0006816Y0003636I0000000J0000255D01*
G01X0006896Y0004346D02*
G03X0006816Y0004206I0000170J0000190D01*
G01X0009403Y0003109D02*
G03X0009399Y0003113I0000120J0000120D01*
G01X0007566Y0004411D02*
G03X0007316Y0004206I0000000J0000255D01*
G01X0006946Y0004664D02*
G03X0006896Y0004544I0000120J0000120D01*
G01X0007816Y0004206D02*
G03X0007566Y0004411I0000250J0000050D01*
G01X0008321Y0004156D02*
G03X0008066Y0004411I0000255J0000000D01*
G03X0007816Y0004206I0000000J0000255D01*
G01X0008066Y0001331D02*
G03X0008321Y0001586I0000000J0000255D01*
G01X0007566Y0002311D02*
G03X0007316Y0002106I0000000J0000255D01*
G01X0008113Y0005821D02*
G03X0008131Y0005696I0000445J0000000D01*
G01X0007816Y0002106D02*
G03X0007566Y0002311I0000250J0000050D01*
G01X0007316Y0001536D02*
G03X0007465Y0001352I0000250J0000050D01*
G01X0007816Y0001536D02*
G03X0008066Y0001331I0000250J0000050D01*
G01X0007066Y0002311D02*
G03X0006821Y0002127I0000000J0000255D01*
G01X0007316Y0002106D02*
G03X0007066Y0002311I0000250J0000050D01*
Y0001331D02*
G03X0007316Y0001536I0000000J0000255D01*
G01X-0006805Y0001156D02*
G03X-0006786Y0001157I0000000J0000260D01*
G01X-0003737Y0004193D02*
G03X-0003924Y0004114I0000000J0000260D01*
G01X0002578Y0004614D02*
G03X0002395Y0004694I0000183J0000170D01*
G01X-0001538Y-0000040D02*
G03X-0001718Y0000317I0000445J0000000D01*
G01X0010227Y0003134D02*
G03X0009794Y0002839I0000000J0000465D01*
G01X0008107Y0003435D02*
G03X0008320Y0003686I0000041J0000251D01*
G01X0007353Y0002869D02*
G03X0007473Y0002819I0000120J0000120D01*
G01X-0000272Y0004614D02*
G03X-0000455Y0004694I0000183J0000170D01*
G01X0005900Y0000420D02*
G03X0006020Y0000470I0000000J0000170D01*
G01X-0005795Y0005194D02*
G03X-0006045Y0004944I0000000J0000250D01*
G01X-0003195Y0002944D02*
G03X-0002945Y0002694I0000250J0000000D01*
G01X-0006545Y0001416D02*
G03X-0006545Y0001427I0000260J0000000D01*
G01X-0005795Y0002194D02*
G03X-0005979Y0002114I0000000J0000250D01*
G01X-0005795Y0001694D02*
G03X-0005979Y0001614I0000000J0000250D01*
G01X-0006468Y0000477D02*
G03X-0006418Y0000356I0000170J0000000D01*
G01X0004237Y0004231D02*
G03X0004357Y0004280I0000000J0000170D01*
G01X0008068Y0005223D02*
G03X0008188Y0005273I0000000J0000170D01*
G01X-0000267Y0002609D02*
G03X-0000455Y0002694I0000188J0000165D01*
G01X0007869Y0002755D02*
G03X0007749Y0002805I0000120J0000120D01*
G01X0000525Y0001564D02*
G03X0000405Y0001614I0000120J0000120D01*
G01X0001060Y0000548D02*
G03X0001091Y0000524I0000120J0000121D01*
G01X0001775Y0002194D02*
G03X0001577Y0002097I0000000J0000250D01*
G01X-0003737Y0003673D02*
G03X-0003484Y0003873I0000000J0000260D01*
G01X0007355Y0000066D02*
G03X0007475Y0000116I0000000J0000170D01*
G01X0009388Y0004838D02*
G03X0009438Y0004718I0000170J0000000D01*
G01X-0003906Y0004774D02*
G03X-0003786Y0004824I0000000J0000170D01*
G01X-0005175Y0004694D02*
G03X-0004992Y0004774I0000000J0000250D01*
G01X-0002871Y0006149D02*
G03X-0002991Y0006099I0000000J0000170D01*
G01X-0002142Y0002614D02*
G03X-0002325Y0002694I0000183J0000170D01*
G01X-0001259Y0002774D02*
G03X-0001075Y0002693I0000184J0000170D01*
Y0003194D02*
G03X-0001246Y0003126I0000000J0000250D01*
G01X-0002945Y0005194D02*
G03X-0003195Y0004944I0000000J0000250D01*
G01X-0002325Y0004694D02*
G03X-0002172Y0004747I0000000J0000250D01*
G01X-0005795Y0004694D02*
G03X-0006045Y0004444I0000000J0000250D01*
G01X-0001328Y0001324D02*
G03X-0001268Y0001285I0000120J0000120D01*
G01X-0001328Y0001324D02*
G03X-0001268Y0001285I0000120J0000120D01*
G01X-0001309Y0001855D02*
G03X-0001075Y0001694I0000234J0000089D01*
G01X-0003195Y0004444D02*
G03X-0002945Y0004194I0000250J0000000D01*
G01X-0002195Y0004157D02*
G03X-0002325Y0004194I0000130J0000213D01*
G01X-0001201Y0002228D02*
G03X-0001075Y0002194I0000126J0000216D01*
G01X-0002325Y0004194D02*
G03X-0002245Y0004207I0000000J0000250D01*
G01X-0002945Y0003694D02*
G03X-0003195Y0003444I0000000J0000250D01*
G01X-0001986Y0003564D02*
G03X-0002107Y0003614I0000121J0000120D01*
G01X0004200Y0003822D02*
G03X0004080Y0003872I0000120J0000120D01*
G01X0009482Y0002549D02*
G03X0009603Y0002499I0000121J0000120D01*
G01X-0009324Y0005583D02*
G03X-0009205Y0005533I0000120J0000120D01*
G01X-0009324Y0006064D02*
G03X-0009445Y0006114I0000121J0000120D01*
G01X-0005175Y0001194D02*
G03X-0004925Y0001444I0000000J0000250D01*
G01X0006816Y0004206D02*
G03X0006736Y0004346I0000250J0000050D01*
G01X0004237Y0004231D02*
G03X0004357Y0004280I0000000J0000170D01*
G01X-0006441Y0001324D02*
G03X-0006321Y0001274I0000120J0000120D01*
G01X-0005979Y0001774D02*
G03X-0005795Y0001693I0000184J0000170D01*
G01X-0005979Y0001274D02*
G03X-0005795Y0001193I0000184J0000170D01*
G01X-0002945Y0002194D02*
G03X-0003195Y0001944I0000000J0000250D01*
G01X-0001846Y0005037D02*
G03X-0001967Y0005087I0000121J0000120D01*
G01X-0001075Y0004694D02*
G03X-0001325Y0004444I0000000J0000250D01*
G01X-0006737Y0002533D02*
G03X-0006726Y0002533I0000011J0000260D01*
G01X-0001443Y0004563D02*
G03X-0001492Y0004683I0000170J0000000D01*
G01X-0005175Y0005194D02*
G03X-0005067Y0005219I0000000J0000250D01*
G01X0008236Y0002318D02*
G03X0008186Y0002438I0000170J0000000D01*
G01X-0002120Y0005087D02*
G03X-0002325Y0005194I0000205J0000143D01*
G01X0006372Y0002805D02*
G03X0006252Y0002755I0000000J0000170D01*
G01X-0003129Y0001274D02*
G03X-0002945Y0001193I0000184J0000170D01*
G01X0007869Y0002755D02*
G03X0007749Y0002805I0000120J0000120D01*
G01X0006059Y0001256D02*
G03X0006109Y0001377I0000120J0000121D01*
G01X0005819Y0002323D02*
G03X0005769Y0002203I0000120J0000120D01*
G01X0005557Y0000760D02*
G03X0005587Y0000784I0000090J0000145D01*
G01X0005557Y0000760D02*
G03X0005587Y0000784I0000090J0000145D01*
G01X0003357Y0001564D02*
G03X0003237Y0001614I0000120J0000120D01*
G01X-0000455Y0003694D02*
G03X-0000272Y0003774I0000000J0000250D01*
G01X-0002945Y0001694D02*
G03X-0003129Y0001614I0000000J0000250D01*
G01X0006686Y0001136D02*
G03X0006736Y0001256I0000120J0000120D01*
G01X0007805Y0001498D02*
G03X0007816Y0001536I0000239J0000088D01*
G01X0003538Y0000470D02*
G03X0003658Y0000420I0000120J0000120D01*
G01X0005900D02*
G03X0006020Y0000470I0000000J0000170D01*
G01X0001525Y0000836D02*
G03X0001495Y0000839I0000030J0000167D01*
G01X0003357Y0001564D02*
G03X0003237Y0001614I0000120J0000120D01*
G01X0005162Y0001075D02*
G03X0005239Y0001223I0000103J0000148D01*
G01X-0001268Y0001285D02*
G03X-0001075Y0001194I0000193J0000159D01*
G01X-0006286Y0004599D02*
G03X-0006406Y0004649I0000121J0000120D01*
G01X-0005175Y0001694D02*
G03X-0004925Y0001944I0000000J0000250D01*
G01X-0006005Y0004248D02*
G03X-0006055Y0004368I0000170J0000000D01*
G01X-0005795Y0002694D02*
G03X-0005979Y0002614I0000000J0000250D01*
G01X-0006345Y0002517D02*
G03X-0006295Y0002397I0000170J0000000D01*
G01X-0005175Y0002694D02*
G03X-0004925Y0002944I0000000J0000250D01*
G01X-0006222Y0002324D02*
G03X-0006102Y0002274I0000120J0000120D01*
G01X-0001563Y0004824D02*
G03X-0001443Y0004774I0000120J0000120D01*
G01X-0002325Y0005194D02*
G03X-0002142Y0005274I0000000J0000250D01*
G01X-0001443Y0004563D02*
G03X-0001492Y0004683I0000170J0000000D01*
G01X-0001075Y0005194D02*
G03X-0001259Y0005114I0000000J0000250D01*
G01X-0001823Y0005564D02*
G03X-0001943Y0005614I0000120J0000120D01*
G01X-0007065Y0001416D02*
G03X-0006805Y0001156I0000260J0000000D01*
Y0001676D02*
G03X-0007065Y0001416I0000000J0000260D01*
G01X0000605Y0001927D02*
G03X0000865Y0001667I0000260J0000000D01*
G03X0001062Y0001757I0000000J0000260D01*
G01X0000865Y0002187D02*
G03X0000605Y0001927I0000000J0000260D01*
G01X-0003789Y0001444D02*
G03X-0003529Y0001184I0000260J0000000D01*
G03X-0003332Y0001274I0000000J0000260D01*
G01X-0003529Y0001704D02*
G03X-0003789Y0001444I0000000J0000260D01*
G01X-0004091Y0005129D02*
G03X-0003831Y0005389I0000000J0000260D01*
G03X-0004091Y0005649I0000260J0000000D01*
G01X-0004287Y0005219D02*
G03X-0004091Y0005130I0000196J0000170D01*
G01X0000017Y0003184D02*
G03X0000277Y0003444I0000000J0000260D01*
G01X-0003799Y0004444D02*
G03X-0003709Y0004247I0000260J0000000D01*
G01X-0003279Y0004444D02*
G03X-0003539Y0004704I0000260J0000000D01*
G03X-0003799Y0004444I0000000J0000260D01*
G01X0000299D02*
G03X0000039Y0004704I0000260J0000000D01*
G01X-0000179Y0003274D02*
G03X0000017Y0003185I0000196J0000170D01*
G01X0000079Y0002179D02*
G03X0000339Y0002439I0000000J0000260D01*
G03X0000079Y0002699I0000260J0000000D01*
G01X-0000118Y0002269D02*
G03X0000079Y0002179I0000197J0000170D01*
G01X-0004993Y0004615D02*
G03X-0005175Y0004694I0000182J0000171D01*
G01X-0004366Y0004185D02*
G03X-0004106Y0004445I0000000J0000260D01*
G03X-0004366Y0004705I0000260J0000000D01*
G01X-0004563Y0004275D02*
G03X-0004366Y0004185I0000197J0000170D01*
G01X-0003369Y0004247D02*
G03X-0003279Y0004444I0000170J0000197D01*
G01X-0003942Y0003774D02*
G03X-0003737Y0003674I0000205J0000159D01*
G01X-0006726Y0002533D02*
G03X-0006466Y0002793I0000000J0000260D01*
G03X-0006485Y0002891I0000260J0000000D01*
G01X0009762Y0001169D02*
G03X0010227Y0000704I0000465J0000000D01*
Y0000705D02*
G03X0010691Y0001169I0000000J0000464D01*
G03X0010227Y0001633I0000464J0000000D01*
Y0001634D02*
G03X0009762Y0001169I0000000J0000465D01*
G01X0010227Y0002205D02*
G03X0010691Y0002669I0000000J0000464D01*
G03X0010227Y0003133I0000464J0000000D01*
G01X-0009647Y0001691D02*
G03X-0009320Y0001364I0000327J0000000D01*
G03X-0008993Y0001691I0000000J0000327D01*
G01X-0008994D02*
G03X-0009320Y0002017I0000326J0000000D01*
G03X-0009646Y0001691I0000000J0000326D01*
G01X-0009647Y0003423D02*
G03X-0009320Y0003096I0000327J0000000D01*
G03X-0008994Y0003404I0000000J0000327D01*
G01X-0009338Y0003749D02*
G03X-0009646Y0003423I0000018J0000326D01*
G01X-0006413Y0001776D02*
G03X-0006389Y0001774I0000024J0000168D01*
G01X0006946Y0004664D02*
G03X0006896Y0004544I0000120J0000120D01*
G01X-0011645Y0006299D02*
G03X-0011023Y0005677I0000622J0000000D01*
G01X0009794Y0002499D02*
G03X0010227Y0002204I0000433J0000170D01*
G01X-0005795Y0004194D02*
G03X-0006005Y0004080I0000000J0000250D01*
G01X-0005795Y0003694D02*
G03X-0006005Y0003580I0000000J0000250D01*
G01X-0006045Y0004444D02*
G03X-0005795Y0004194I0000250J0000000D01*
G01X-0006005Y0003808D02*
G03X-0005795Y0003694I0000210J0000136D01*
G01X-0003195Y0004944D02*
G03X-0002945Y0004694I0000250J0000000D01*
G01X-0004925Y0001944D02*
G03X-0005175Y0002194I0000250J0000000D01*
G01X-0002871Y0006149D02*
G03X-0002991Y0006099I0000000J0000170D01*
G01X-0006045Y0004944D02*
G03X-0005795Y0004694I0000250J0000000D01*
G01X-0006045Y0005444D02*
G03X-0005795Y0005194I0000250J0000000D01*
G01X-0006793Y0001676D02*
G03X-0006805Y0001676I0000012J0000260D01*
G01X-0001325Y0004444D02*
G03X-0001075Y0004194I0000250J0000000D01*
G01X-0001325Y0003944D02*
G03X-0001075Y0003694I0000250J0000000D01*
G01X-0001325Y0003444D02*
G03X-0001075Y0003194I0000250J0000000D01*
G01X-0004992Y0004114D02*
G03X-0005175Y0004194I0000183J0000170D01*
G01X-0001075Y0002194D02*
G03X-0001154Y0002181I0000000J0000250D01*
G01X-0001075Y0001694D02*
G03X-0001190Y0001666I0000000J0000250D01*
G01X-0003195Y0001944D02*
G03X-0002945Y0001694I0000250J0000000D01*
G01X-0004925Y0002444D02*
G03X-0005175Y0002694I0000250J0000000D01*
G01X0001525Y0001444D02*
G03X0001775Y0001194I0000250J0000000D01*
G01X-0006222Y0002324D02*
G03X-0006102Y0002274I0000120J0000120D01*
G01X0006821Y0001516D02*
G03X0007066Y0001331I0000245J0000070D01*
G01X-0002142Y0005614D02*
G03X-0002325Y0005694I0000183J0000170D01*
G01X0004279Y0001223D02*
G03X0004357Y0001075I0000180J0000000D01*
G01X0005239Y0003273D02*
G03X0005059Y0003453I0000180J0000000D01*
G01X0004459Y0006903D02*
G03X0004279Y0006723I0000000J0000180D01*
G01X0005239D02*
G03X0005059Y0006903I0000180J0000000D01*
Y0004493D02*
G03X0005239Y0004673I0000000J0000180D01*
G01X-0003422Y0001114D02*
G03X-0003542Y0001064I0000000J0000170D01*
G01X-0009152Y0004833D02*
G03X-0009202Y0004953I0000170J0000000D01*
G01X-0009492Y0003973D02*
G03X-0009442Y0003852I0000170J0000000D01*
G01X-0005901Y-0000160D02*
G03X-0005781Y-0000210I0000120J0000120D01*
G01X-0003892Y0000553D02*
G03X-0004012Y0000603I0000120J0000120D01*
G01X-0006128Y0000909D02*
G03X-0006178Y0001029I0000170J0000000D01*
G01X-0006468Y0000477D02*
G03X-0006418Y0000356I0000170J0000000D01*
G01X0000323Y0000555D02*
G03X0000273Y0000675I0000170J0000000D01*
G01X-0000116Y0001064D02*
G03X-0000236Y0001114I0000120J0000120D01*
G01X-0003743Y0000863D02*
G03X-0003793Y0000743I0000120J0000120D01*
G01X-0000272Y0001114D02*
G03X-0000455Y0001194I0000183J0000170D01*
G01X-0003422Y0001114D02*
G03X-0003542Y0001064I0000000J0000170D01*
G01X0000105Y0004192D02*
G03X0000299Y0004444I0000066J0000252D01*
G01X0000113Y-0000721D02*
G03X0000153Y-0000726I0000040J0000166D01*
G01X-0004997Y-0000671D02*
G03X-0004877Y-0000721I0000120J0000120D01*
G01X-0005280Y-0000360D02*
G03X-0005238Y-0000430I0000162J0000050D01*
G01X-0005280Y-0000360D02*
G03X-0005238Y-0000430I0000162J0000050D01*
G01X-0000272Y0004114D02*
G03X-0000455Y0004194I0000183J0000170D01*
G01X0002399Y-0000725D02*
G03X0002520Y-0000675I0000000J0000170D01*
G01X-0003892Y0000553D02*
G03X-0004012Y0000603I0000120J0000120D01*
G01X-0004995D02*
G03X-0005115Y0000553I0000000J0000170D01*
G01X-0005238Y0000430D02*
G03X-0005288Y0000310I0000120J0000120D01*
G01X0003186Y0000406D02*
G03X0003065Y0000356I0000000J0000170D01*
G01X0007355Y0000066D02*
G03X0007475Y0000116I0000000J0000170D01*
G01X0001060Y0000548D02*
G03X0001091Y0000524I0000120J0000121D01*
G01X0002399Y-0000725D02*
G03X0002520Y-0000675I0000000J0000170D01*
G01X-0005175Y0003694D02*
G03X-0004992Y0003774I0000000J0000250D01*
G01X-0003434Y0003824D02*
G03X-0003314Y0003774I0000120J0000120D01*
G01X0001525Y0003444D02*
G03X0001775Y0003194I0000250J0000000D01*
G01X0003025Y0004064D02*
G03X0002938Y0004111I0000120J0000120D01*
G01X0003025Y0004064D02*
G03X0002938Y0004111I0000120J0000120D01*
G01X0002395Y0003694D02*
G03X0002578Y0003774I0000000J0000250D01*
G01X-0002058Y0000399D02*
G03X-0002394Y0000130I0000075J0000439D01*
G01X-0001259Y0004774D02*
G03X-0001075Y0004693I0000184J0000170D01*
G01X-0002009Y0002564D02*
G03X-0002129Y0002614I0000120J0000120D01*
G01X-0003195Y0003444D02*
G03X-0002945Y0003194I0000250J0000000D01*
G03X-0003195Y0002944I0000000J0000250D01*
G01X-0002009Y0002564D02*
G03X-0002129Y0002614I0000120J0000120D01*
G01X0006896Y0003397D02*
G03X0006946Y0003276I0000170J0000000D01*
G01X0006816Y0003636D02*
G03X0006896Y0003496I0000250J0000050D01*
G01X0009399Y0003113D02*
G03X0009442Y0003144I0000077J0000152D01*
G01X0007353Y0002869D02*
G03X0007473Y0002819I0000120J0000120D01*
G01X0009482Y0002549D02*
G03X0009603Y0002499I0000121J0000120D01*
G01X-0009492Y0003973D02*
G03X-0009442Y0003852I0000170J0000000D01*
G01X-0000455Y0003194D02*
G03X-0000272Y0003274I0000000J0000250D01*
G01X-0001823Y0005564D02*
G03X-0001943Y0005614I0000120J0000120D01*
G01X-0000272Y0001614D02*
G03X-0000455Y0001694I0000183J0000170D01*
G01X-0002176Y0003144D02*
G03X-0002325Y0003193I0000149J0000200D01*
G01X0001608Y0001757D02*
G03X0001775Y0001693I0000167J0000187D01*
G01X-0000455Y0004194D02*
G03X-0000272Y0004274I0000000J0000250D01*
G01X0002578Y0001614D02*
G03X0002395Y0001694I0000183J0000170D01*
G01X-0004992Y0005114D02*
G03X-0005175Y0005194I0000183J0000170D01*
G01X0001775Y0004694D02*
G03X0001525Y0004444I0000000J0000250D01*
G01X-0004953Y0005559D02*
G03X-0005175Y0005694I0000222J0000115D01*
G01X0001775Y0004194D02*
G03X0001525Y0003944I0000000J0000250D01*
G01X0001775Y0003694D02*
G03X0001525Y0003444I0000000J0000250D01*
G01X-0002075Y0003944D02*
G03X-0002112Y0004074I0000250J0000000D01*
G01X0001525Y0004444D02*
G03X0001775Y0004194I0000250J0000000D01*
Y0002694D02*
G03X0001525Y0002444I0000000J0000250D01*
Y0003944D02*
G03X0001775Y0003694I0000250J0000000D01*
G01X0003328Y0001112D02*
G03X0003304Y0001114I0000024J0000168D01*
G01X-0000272Y0003614D02*
G03X-0000455Y0003694I0000183J0000170D01*
G01X-0005175Y0004194D02*
G03X-0004991Y0004275I0000000J0000250D01*
G01X-0001986Y0003564D02*
G03X-0002107Y0003614I0000121J0000120D01*
G01X-0002945Y0004694D02*
G03X-0003195Y0004444I0000000J0000250D01*
G01X-0002325Y0002694D02*
G03X-0002098Y0002841I0000000J0000250D01*
G01X0001525Y0002944D02*
G03X0001775Y0002694I0000250J0000000D01*
G01X-0002945D02*
G03X-0003195Y0002444I0000000J0000250D01*
G01X0001062Y0002097D02*
G03X0000865Y0002187I0000197J0000170D01*
G01X0001775Y0001694D02*
G03X0001525Y0001444I0000000J0000250D01*
G01X-0003332Y0001614D02*
G03X-0003529Y0001704I0000197J0000170D01*
G01X-0005238Y0000430D02*
G03X-0005288Y0000310I0000120J0000120D01*
G01X-0000116Y0001064D02*
G03X-0000236Y0001114I0000120J0000120D01*
G01X0002578Y0004114D02*
G03X0002395Y0004194I0000183J0000170D01*
G01X0008321Y0002056D02*
G03X0008236Y0002246I0000255J0000000D01*
G01X0007896D02*
G03X0007816Y0002106I0000170J0000190D01*
G01X0005819Y0002323D02*
G03X0005769Y0002203I0000120J0000120D01*
G01X0003328Y0001112D02*
G03X0003304Y0001114I0000024J0000168D01*
G01X0008345Y0005430D02*
G03X0008558Y0005376I0000213J0000391D01*
G01X0007316Y0004206D02*
G03X0007236Y0004346I0000250J0000050D01*
G01X-0000455Y0000694D02*
G03X-0000289Y0000757I0000000J0000250D01*
G01X-0003129Y0003774D02*
G03X-0002945Y0003693I0000184J0000170D01*
G01X-0004366Y0004705D02*
G03X-0004563Y0004615I0000000J0000260D01*
G01X-0002945Y0004194D02*
G03X-0003129Y0004114I0000000J0000250D01*
G01X-0003194Y0005416D02*
G03X-0002945Y0005193I0000249J0000028D01*
G01X-0002142Y0003614D02*
G03X-0002325Y0003694I0000183J0000170D01*
G01X-0004091Y0005649D02*
G03X-0004287Y0005559I0000000J0000260D01*
G01X-0006545Y0001397D02*
G03X-0006544Y0001416I0000260J0000019D01*
G01X-0006005Y0004248D02*
G03X-0006055Y0004368I0000170J0000000D01*
G54D29*
G01X0000029Y0003944D02*
X-0000765D01*
X-0003737Y0003933D02*
X-0003833D01*
X-0003844Y0003944D01*
X-0005485D01*
X-0008119Y0003186D02*
X-0006731D01*
X-0006726Y0003181D01*
X-0008119Y0003186D02*
X-0008536D01*
X-0009322Y0003973D01*
Y0004833D01*
X-0009873Y0005384D01*
X-0005118Y-0000040D02*
X-0005781D01*
X-0006298Y0000477D01*
Y0000909D01*
X-0006805Y0001416D01*
X0000153Y-0000040D02*
Y0000555D01*
X-0000236Y0000944D01*
X-0000765D01*
X-0003623Y-0000039D02*
Y0000743D01*
X-0003422Y0000944D01*
X-0002635D01*
X0001608Y-0000040D02*
Y-0000035D01*
X0001219Y0000354D01*
X0000157D01*
X0000153Y0000349D01*
Y-0000040D01*
Y-0000546D01*
X0000157Y-0000551D01*
X-0004877D01*
X-0005118Y-0000310D01*
Y-0000040D01*
X-0003623Y-0000039D02*
Y0000044D01*
X-0004012Y0000433D01*
X-0004995D01*
X-0005118Y0000310D01*
Y-0000040D01*
X0007635Y0000669D02*
Y0000516D01*
X0007355Y0000236D01*
X0003186D01*
X0002399Y-0000555D01*
X0000153D01*
Y-0000040D01*
X-0007198Y0005703D02*
X-0007725D01*
X0006569Y0005393D02*
X0006062D01*
X-0006726Y0004091D02*
Y0003741D01*
X-0004759Y0000944D02*
X-0005485D01*
X0007075Y0001175D02*
Y0000669D01*
X0001102Y-0000040D02*
X0000713D01*
X-0004208D02*
X-0004558D01*
X-0010463Y0002793D02*
X-0010482Y0002774D01*
Y0000805D01*
X0007066Y0001821D02*
X0007075Y0001812D01*
Y0001175D01*
X-0010482Y0004308D02*
Y0002812D01*
X-0010463Y0002793D01*
X0001416Y0005231D02*
X0001703Y0004944D01*
X0002085D01*
X0001440Y0005939D02*
X0001416Y0005916D01*
Y0005231D01*
X-0006726Y0005039D02*
Y0005349D01*
X-0006608Y0005467D01*
Y0005507D01*
X-0000983Y-0000040D02*
X-0000355D01*
Y-0000039D01*
X-0000433D01*
X-0008457Y0001927D02*
X-0009007D01*
X-0009243Y0002163D01*
X-0004366Y0004445D02*
X-0005485D01*
Y0004444D01*
X-0002635Y0003944D02*
X-0003314D01*
X-0003539Y0004169D01*
Y0004444D01*
X0002085Y0001944D02*
X0002068Y0001927D01*
X0000865D01*
X-0005485Y0005444D02*
X-0005430Y0005389D01*
X-0004091D01*
X0002085Y0003944D02*
X0002905D01*
X0003147Y0003702D01*
X-0001983Y-0000040D02*
X-0001888Y0000039D01*
Y0002203D01*
X-0002129Y0002444D01*
X-0002635D01*
X0007066Y0003921D02*
Y0003397D01*
X0007473Y0002989D01*
X0009283D01*
X0009603Y0002669D01*
X0010227D01*
X0007566Y0003921D02*
Y0003447D01*
X0007749Y0003265D01*
X0009322D01*
X0010227Y0004169D01*
X0002085Y0004444D02*
X0003103D01*
X0003147Y0004401D01*
X0004759Y0004923D02*
X0004237Y0004401D01*
X0003147D01*
X0007355Y0005393D02*
X0008068D01*
X0008558Y0005883D01*
Y0005821D01*
X0007566Y0001821D02*
X0007635Y0001752D01*
Y0000669D01*
X-0000765Y0001444D02*
X0000405D01*
X0001180Y0000669D01*
X0001495D01*
X0002168Y-0000005D01*
Y-0000040D01*
X0009558Y0005821D02*
Y0004838D01*
X0010227Y0004169D01*
X-0005485Y0004944D02*
X-0003906D01*
X-0002871Y0005979D01*
X-0001263D01*
X-0000765Y0001944D02*
X-0001157D01*
X-0001455Y0002242D01*
Y0002793D01*
X-0001770Y0003107D01*
Y0003973D01*
X-0002241Y0004444D01*
X-0002635D01*
X-0000765Y0001444D02*
X-0001208D01*
X-0001691Y0001927D01*
Y0002675D01*
X-0002006Y0002989D01*
Y0003343D01*
X-0002107Y0003444D01*
X-0002635D01*
X-0000703Y0005979D02*
X-0000664Y0005939D01*
X0000315D01*
X0007355Y0004833D02*
X0007066Y0004544D01*
Y0003921D01*
X0003147Y0003702D02*
X0004080D01*
X0004759Y0003023D01*
X-0008850Y0005703D02*
X-0009204D01*
X-0009445Y0005944D01*
X-0009873D01*
X0006569Y0004833D02*
X0006566Y0004831D01*
Y0003921D01*
X-0005485Y0001944D02*
X-0006389D01*
X-0007316Y0002871D01*
X-0008119D01*
X0000017Y0003444D02*
X-0000765D01*
X-0005485Y0001444D02*
X-0006321D01*
X-0007434Y0002557D01*
X-0008119D01*
X-0002635Y0001444D02*
X-0003529D01*
X-0002635Y0004944D02*
X-0002608Y0004917D01*
X-0001967D01*
X-0001613Y0004563D01*
Y0003253D01*
X-0001304Y0002944D01*
X-0000765D01*
Y0002444D02*
X-0000760Y0002439D01*
X0000079D01*
X0008066Y0001821D02*
Y0002318D01*
X0007749Y0002635D01*
X0006372D01*
X0005939Y0002203D01*
Y0001377D01*
X0005467Y0000905D01*
X0003776D01*
X0003237Y0001444D01*
X0002085D01*
X0000039Y0004444D02*
X-0000765D01*
X-0006726Y0003181D02*
Y0002793D01*
X0006566Y0001821D02*
Y0001256D01*
X0005900Y0000590D01*
X0003658D01*
X0003304Y0000944D01*
X0002085D01*
X-0003063Y-0000039D02*
Y-0000040D01*
X-0001983D01*
X-0006726Y0004479D02*
X-0006407D01*
X-0006175Y0004248D01*
Y0002517D01*
X-0006102Y0002444D01*
X-0005485D01*
X-0000765Y0004944D02*
X-0001443D01*
X-0001943Y0005444D01*
X-0002635D01*
G54D30*
G01X-0000274Y-0001307D02*
X-0000108D01*
X-0000080Y-0001363D01*
Y-0001418D01*
X-0000108Y-0001474D01*
X-0000274D01*
X-0000302Y-0001418D01*
Y-0001363D01*
X-0000191Y-0001140D01*
X-0000470Y-0001474D02*
X-0000581D01*
X-0000526D02*
Y-0001140D01*
X-0000581Y-0001196D01*
X-0000943Y-0001474D02*
X-0000999Y-0001418D01*
X-0001027Y-0001363D01*
Y-0001252D01*
X-0000999Y-0001196D01*
X-0000943Y-0001140D01*
X-0000888D01*
X-0000832Y-0001196D01*
X-0000804Y-0001252D01*
Y-0001363D01*
X-0000832Y-0001418D01*
X-0000888Y-0001474D01*
X-0000943D01*
X-0001194D02*
X-0001417D01*
X-0001194Y-0001252D01*
Y-0001196D01*
X-0001222Y-0001140D01*
X-0001389D01*
X-0001417Y-0001196D01*
X-0002127Y-0001252D02*
X-0002294D01*
X-0002322Y-0001307D01*
X-0002294Y-0001363D01*
X-0002127D01*
X-0002099Y-0001418D01*
X-0002127Y-0001474D01*
X-0002294D01*
X-0002489Y-0001252D02*
X-0002601Y-0001474D01*
X-0002656Y-0001585D02*
X-0002601Y-0001474D01*
X-0002712Y-0001252D01*
X-0003046D02*
X-0002935D01*
X-0002907Y-0001307D01*
Y-0001418D01*
X-0002879Y-0001474D01*
X-0003074D01*
X-0003102Y-0001418D01*
X-0003074Y-0001363D01*
X-0002907D01*
X-0003464Y-0001474D02*
Y-0001140D01*
X-0003492Y-0001474D02*
X-0003325D01*
X-0003269Y-0001363D01*
Y-0001252D01*
X-0003325Y-0001140D01*
X-0003492D01*
X-0003659Y-0001307D02*
X-0003882D01*
X-0003659Y-0001474D02*
Y-0001140D01*
X-0003882Y-0001474D02*
Y-0001140D01*
X-0004272Y-0001307D02*
X-0004105D01*
X-0004049Y-0001252D01*
Y-0001196D01*
X-0004105Y-0001140D01*
X-0004272D01*
Y-0001474D01*
X-0004954Y-0001252D02*
X-0005065D01*
X-0005093Y-0001307D01*
X-0005149D01*
Y-0001252D02*
Y-0001474D01*
X-0005511D02*
X-0005539Y-0001418D01*
Y-0001307D01*
X-0005511Y-0001252D01*
X-0005344D01*
X-0005317Y-0001307D01*
Y-0001418D01*
X-0005344Y-0001474D01*
X-0005511D01*
X-0005707Y-0001307D02*
X-0005873D01*
X-0005790Y-0001474D02*
Y-0001196D01*
X-0005762Y-0001140D01*
X-0005707D01*
X-0006556Y-0001474D02*
X-0006778D01*
X-0006556Y-0001252D01*
Y-0001196D01*
X-0006584Y-0001140D01*
X-0006750D01*
X-0006778Y-0001196D01*
X-0007085Y-0001474D02*
X-0007140Y-0001418D01*
X-0007168Y-0001363D01*
Y-0001252D01*
X-0007140Y-0001196D01*
X-0007085Y-0001140D01*
X-0007029D01*
X-0006974Y-0001196D01*
X-0006946Y-0001252D01*
Y-0001363D01*
X-0006974Y-0001418D01*
X-0007029Y-0001474D01*
X-0007085D01*
X-0007391D02*
X-0007336D01*
Y-0001418D01*
X-0007391D01*
Y-0001474D01*
X-0007615Y-0001252D02*
X-0007726Y-0001474D01*
X-0007837Y-0001252D01*
X-0008033Y-0001474D02*
X-0008199D01*
X-0008227Y-0001418D01*
Y-0001307D01*
X-0008199Y-0001252D01*
X-0008033D01*
X-0008005Y-0001307D01*
Y-0001363D01*
X-0008227D01*
X-0008395Y-0001252D02*
X-0008506D01*
X-0008534Y-0001307D01*
X-0008589D01*
Y-0001252D02*
Y-0001474D01*
X-0009328Y-0001307D02*
X-0009494D01*
X-0009272Y-0001474D02*
X-0009494D01*
Y-0001140D01*
X-0009272D01*
X-0009662Y-0001196D02*
X-0009690Y-0001140D01*
X-0009856D01*
X-0009884Y-0001196D01*
Y-0001252D01*
X-0009856Y-0001307D01*
X-0009690D01*
X-0009662Y-0001363D01*
Y-0001418D01*
X-0009690Y-0001474D01*
X-0009856D01*
X-0009884Y-0001418D01*
G54D10*
X0002168Y-0000040D03*
X0001608D03*
X-0000703Y0005979D03*
X-0001263D03*
X-0003063Y-0000039D03*
X-0003623D03*
X0007635Y0000669D03*
X0007075D03*
X0000153Y-0000040D03*
X0000713D03*
X-0005118D03*
X-0004558D03*
G54D11*
X0006569Y0005393D03*
Y0004833D03*
X0007355Y0005393D03*
Y0004833D03*
X-0009873Y0005944D03*
Y0005384D03*
X-0006726Y0003741D03*
Y0003181D03*
X0003147Y0004961D03*
Y0004401D03*
Y0003142D03*
Y0003702D03*
X-0006726Y0004479D03*
Y0005039D03*
G54D12*
X0007066Y0001821D03*
X0007566D03*
X0008066D03*
Y0003921D03*
X0007566D03*
X0007066D03*
X0006566D03*
G54D13*
Y0001821D03*
G54D14*
X0002085Y0001444D03*
Y0001944D03*
Y0002444D03*
Y0002944D03*
Y0003444D03*
Y0003944D03*
Y0004444D03*
Y0004944D03*
X-0000765D03*
Y0004444D03*
Y0003944D03*
Y0003444D03*
Y0002944D03*
Y0002444D03*
Y0001944D03*
Y0001444D03*
Y0000944D03*
X-0002635Y0001444D03*
Y0001944D03*
Y0002444D03*
Y0002944D03*
Y0003444D03*
Y0003944D03*
Y0004444D03*
Y0004944D03*
Y0005444D03*
X-0005485D03*
Y0004944D03*
Y0004444D03*
Y0003944D03*
Y0003444D03*
Y0002944D03*
Y0002444D03*
Y0001944D03*
Y0001444D03*
Y0000944D03*
G54D15*
X0002085D03*
X-0002635D03*
G54D16*
X0000315Y0005939D03*
X0001440D03*
X-0008850Y0005703D03*
X-0007725D03*
G54D17*
X0008558Y0005821D03*
X-0001983Y-0000040D03*
G54D18*
X0009558Y0005821D03*
X-0000983Y-0000040D03*
G54D19*
X-0011023Y0006299D03*
X0011023D03*
Y-0001027D03*
X-0011023D03*
G54D20*
X-0009320Y0003423D03*
Y0001691D03*
G54D21*
X-0008159Y0004308D03*
Y0000805D03*
G54D22*
X-0010482Y0004308D03*
Y0000805D03*
G54D23*
X-0008119Y0003186D03*
Y0002871D03*
Y0002557D03*
Y0002242D03*
Y0001927D03*
G54D24*
X0010227Y0002669D03*
Y0001169D03*
G54D25*
Y0004169D03*
G54D26*
X0004759Y0004923D03*
Y0003023D03*
G54D27*
X-0006805Y0001416D03*
X0006062Y0005393D03*
X0001416Y0005231D03*
X0007075Y0001175D03*
X0000865Y0001927D03*
X-0003529Y0001444D03*
X-0004091Y0005389D03*
X0000017Y0003444D03*
X-0003539Y0004444D03*
X0000039D03*
X0000079Y0002439D03*
X-0004366Y0004445D03*
X-0003737Y0003933D03*
X0000029Y0003944D03*
X-0000433Y-0000039D03*
X0001102Y-0000040D03*
X-0004208D03*
X-0006726Y0002793D03*
Y0004091D03*
X-0009243Y0002163D03*
X-0004759Y0000944D03*
X-0010463Y0002793D03*
X-0007198Y0005703D03*
X-0006608Y0005507D03*
M02*
