*
G04 Mass Parameters ***
*
G04 Image ***
*
%INC:\DOLGUNOV\USBTIN\HW\TRUNK\USBTIN.SST*%
%ICAS*%
%MOIN*%
%IPPOS*%
%ASAXBY*%
G74*%FSLAN2X34Y34*%
*
G04 Aperture Definitions ***
*
%ADD10R,0.0320X0.0380*%
%ADD11R,0.0380X0.0320*%
%ADD12O,0.0250X0.0720*%
%ADD13R,0.0250X0.0720*%
%ADD14O,0.0860X0.0240*%
%ADD15R,0.0860X0.0240*%
%ADD16R,0.0450X0.0800*%
%ADD17C,0.0630*%
%ADD18R,0.0630X0.0630*%
%ADD19C,0.0984*%
%ADD20C,0.0394*%
%ADD21R,0.1299X0.0787*%
%ADD22R,0.0984X0.0787*%
%ADD23R,0.1220X0.0197*%
%ADD24C,0.0670*%
%ADD25R,0.0670X0.0670*%
%ADD26C,0.0480*%
%ADD27C,0.0260*%
%ADD28C,0.0100*%
%ADD29C,0.0080*%
%ADD30C,0.0070*%
%ADD31R,0.0380X0.0440*%
%ADD32R,0.0360X0.0440*%
%ADD33R,0.0440X0.0380*%
%ADD34R,0.0440X0.0360*%
%ADD35O,0.0290X0.0760*%
%ADD36R,0.0290X0.0760*%
%ADD37O,0.0920X0.0300*%
%ADD38R,0.0920X0.0300*%
%ADD39R,0.0513X0.0863*%
%ADD40C,0.0680*%
%ADD41R,0.0680X0.0680*%
%ADD42C,0.1134*%
%ADD43R,0.1338X0.0827*%
%ADD44R,0.1023X0.0827*%
%ADD45R,0.1260X0.0236*%
%ADD46C,0.0720*%
%ADD47C,0.0530*%
%ADD48C,0.0098*%
*
G04 Plot Data ***
*
G54D28*
G01X0011014Y0000429D02*
Y0004917D01*
X-0007051Y0004036D02*
Y0002886D01*
X-0006406D01*
Y0004036D01*
X-0007051D01*
X0006316Y0002271D02*
Y0003471D01*
X0008316D01*
Y0002271D01*
X0006316D01*
X-0006401Y0004184D02*
Y0005334D01*
X-0007046D01*
Y0004184D01*
X-0006401D01*
X-0005413Y-0000365D02*
X-0004263D01*
Y0000280D01*
X-0005413D01*
Y-0000365D01*
X0002822Y0005256D02*
Y0004106D01*
X0003467D01*
Y0005256D01*
X0002822D01*
X0003472Y0002847D02*
Y0003997D01*
X0002827D01*
Y0002847D01*
X0003472D01*
X-0002763Y0000281D02*
X-0003923D01*
Y-0000359D01*
X-0002763D01*
Y0000281D01*
X-0000483Y-0000540D02*
X-0002483D01*
Y0000460D01*
X-0000483D01*
Y-0000540D01*
X-0010193Y0006244D02*
Y0005084D01*
X-0009553D01*
Y0006244D01*
X-0010193D01*
X0002468Y0000280D02*
X0001308D01*
Y-0000360D01*
X0002468D01*
Y0000280D01*
X-0009250Y0006203D02*
Y0005203D01*
X-0007350D01*
Y0006203D01*
X-0009250D01*
X0007035Y0005693D02*
Y0004533D01*
X0007675D01*
Y0005693D01*
X0007035D01*
X0010058Y0005321D02*
X0008058D01*
Y0006321D01*
X0010058D01*
Y0005321D01*
X-0000085Y0006439D02*
Y0005439D01*
X0001815D01*
Y0006439D01*
X-0000085D01*
X-0000403Y0006299D02*
X-0001563D01*
Y0005659D01*
X-0000403D01*
Y0006299D01*
X0006249Y0005693D02*
Y0004533D01*
X0006889D01*
Y0005693D01*
X0006249D01*
X0007930Y0000994D02*
X0006780D01*
Y0000349D01*
X0007930D01*
Y0000994D01*
X-0000142Y-0000365D02*
X0001008D01*
Y0000280D01*
X-0000142D01*
Y-0000365D01*
X-0010875Y0001021D02*
X-0010245D01*
Y0001848D01*
X-0011643Y0001041D02*
Y0004092D01*
X-0011052D01*
Y0004801D01*
X-0009930D01*
Y0004072D01*
X-0008887D01*
Y0004801D01*
X-0007430D01*
Y0000332D01*
X-0008887D01*
Y0001041D01*
X-0009930D01*
Y0000332D01*
X-0011052D01*
Y0001041D01*
X-0011643D01*
X-0010875Y0001021D02*
X-0010245D01*
Y0001848D01*
Y0003265D02*
Y0004092D01*
X-0010875D01*
X0005759Y0005873D02*
Y0002073D01*
X0003759D02*
Y0005873D01*
X0009439Y0000429D02*
Y0004917D01*
X0011427Y0000429D02*
Y0004917D01*
X0008849D02*
Y0000429D01*
X0011723D01*
Y0004917D01*
X0008849D01*
G01X0006716Y0002371D02*
G03X0006866Y0002521I0000000J0000150D01*
G01X0006566D02*
G03X0006716Y0002371I0000150J0000000D01*
Y0002671D02*
G03X0006566Y0002521I0000000J0000150D01*
G01X0006866D02*
G03X0006716Y0002671I0000150J0000000D01*
G01X0005759Y0002071D02*
G03X0005759Y0002073I0001000J0000000D01*
G01X0004759Y0001071D02*
G03X0005759Y0002071I0000000J0001000D01*
G01X0003759D02*
G03X0004759Y0001071I0001000J0000000D01*
G01X0003759Y0002073D02*
G03X0003759Y0002071I0001000J0000002D01*
G01X0004759Y0006873D02*
G03X0003759Y0005873I0000000J0001000D01*
G01X0005759D02*
G03X0004759Y0006873I0001000J0000000D01*
G54D29*
G01X-0008475Y0005453D02*
Y0005953D01*
X-0008100Y0005453D02*
Y0005953D01*
X-0008475Y0005453D02*
X-0008100Y0005703D01*
X-0008475Y0005953D02*
X-0008100Y0005703D01*
X0000690Y0005689D02*
Y0006189D01*
X0001065Y0005689D02*
Y0006189D01*
X0000690Y0005689D02*
X0001065Y0005939D01*
X0000690Y0006189D02*
X0001065Y0005939D01*
X-0004810Y0000694D02*
Y0005694D01*
X-0003310D01*
Y0000694D01*
X-0004810D01*
Y0000944D02*
X-0003310D01*
X-0000090Y0000694D02*
Y0005194D01*
X0001410D01*
Y0000694D01*
X-0000090D01*
Y0000944D02*
X0001410D01*
G54D30*
G01X-0010339Y0005109D02*
X-0010450D01*
X-0010395D02*
Y0005443D01*
X-0010450Y0005387D01*
X-0010757Y0005276D02*
X-0010673Y0005109D01*
X-0010896Y0005276D02*
X-0010729D01*
X-0010673Y0005332D01*
Y0005387D01*
X-0010729Y0005443D01*
X-0010896D01*
Y0005109D01*
X-0001270Y-0000981D02*
X-0001381D01*
X-0001325D02*
Y-0000647D01*
X-0001381Y-0000703D01*
X-0001799Y-0000870D02*
Y-0000925D01*
X-0001771Y-0000981D01*
X-0001660D01*
X-0001632Y-0000925D01*
Y-0000647D01*
X-0001604D02*
X-0001715D01*
X0002266Y-0000743D02*
X0002044D01*
X0002155Y-0000521D01*
X0002211D01*
Y-0000854D01*
X0001793Y-0000688D02*
X0001876Y-0000854D01*
X0001654Y-0000688D02*
X0001821D01*
X0001876Y-0000632D01*
Y-0000576D01*
X0001821Y-0000521D01*
X0001654D01*
Y-0000854D01*
X-0008163Y0006408D02*
X-0008274D01*
X-0008219D02*
Y0006741D01*
X-0008274Y0006685D01*
X-0008497Y0006408D02*
X-0008692D01*
Y0006741D01*
X-0008860Y0006574D02*
X-0009082D01*
X-0008860Y0006408D02*
Y0006741D01*
X-0009082Y0006408D02*
Y0006741D01*
X0003787Y0006452D02*
X0003675D01*
X0003731D02*
Y0006786D01*
X0003675Y0006730D01*
X0003341Y0006564D02*
X0003452Y0006452D01*
X0003230Y0006508D02*
X0003258Y0006452D01*
X0003369D01*
X0003397Y0006508D01*
X0003452Y0006564D01*
Y0006730D01*
X0003424Y0006786D01*
X0003258D01*
X0003230Y0006730D01*
Y0006508D01*
X0003062Y0006452D02*
X0002895D01*
X0003062Y0006786D01*
X0002895D01*
X-0003643Y0005891D02*
X-0003754D01*
X-0003699D02*
Y0006224D01*
X-0003754Y0006168D01*
X-0004172Y0005891D02*
Y0006224D01*
X-0004200Y0005891D02*
X-0004033D01*
X-0003977Y0006002D01*
Y0006113D01*
X-0004033Y0006224D01*
X-0004200D01*
X-0004562Y0005891D02*
Y0006224D01*
X-0004590Y0005891D02*
X-0004423D01*
X-0004367Y0006002D01*
Y0006113D01*
X-0004423Y0006224D01*
X-0004590D01*
X0007530Y0005872D02*
X0007558Y0005817D01*
X0007725D01*
X0007752Y0005872D01*
Y0005983D01*
X0007697Y0006039D01*
X0007530D01*
Y0006150D01*
X0007752D01*
X0007279Y0005983D02*
X0007362Y0005817D01*
X0007140Y0005983D02*
X0007307D01*
X0007362Y0006039D01*
Y0006094D01*
X0007307Y0006150D01*
X0007140D01*
Y0005817D01*
X0009170Y0006454D02*
X0008947D01*
X0009170Y0006676D01*
Y0006732D01*
X0009142Y0006787D01*
X0008975D01*
X0008947Y0006732D01*
X0008585Y0006565D02*
Y0006509D01*
X0008613Y0006454D01*
X0008724D01*
X0008752Y0006509D01*
Y0006787D01*
X0008780D02*
X0008669D01*
X0003305Y0002403D02*
X0003332Y0002347D01*
X0003499D01*
X0003527Y0002403D01*
Y0002514D01*
X0003471Y0002569D01*
X0003305D01*
Y0002680D01*
X0003527D01*
X0003137Y0002403D02*
X0003109Y0002347D01*
X0002942D01*
X0002915Y0002403D01*
Y0002625D01*
X0002942Y0002680D01*
X0003109D01*
X0003137Y0002625D01*
X-0000273Y0005233D02*
X-0000495D01*
X-0000273Y0005455D01*
Y0005510D01*
X-0000301Y0005566D01*
X-0000467D01*
X-0000495Y0005510D01*
X-0000857Y0005233D02*
Y0005566D01*
X-0000885Y0005233D02*
X-0000718D01*
X-0000663Y0005344D01*
Y0005455D01*
X-0000718Y0005566D01*
X-0000885D01*
X-0001247Y0005233D02*
Y0005566D01*
X-0001275Y0005233D02*
X-0001108D01*
X-0001053Y0005344D01*
Y0005455D01*
X-0001108Y0005566D01*
X-0001275D01*
X0001214Y0006565D02*
X0000992D01*
X0001214Y0006787D01*
Y0006843D01*
X0001187Y0006898D01*
X0001020D01*
X0000992Y0006843D01*
X0000824Y0006565D02*
X0000630D01*
Y0006898D01*
X0000462Y0006732D02*
X0000240D01*
X0000462Y0006565D02*
Y0006898D01*
X0000240Y0006565D02*
Y0006898D01*
X-0000945Y0006495D02*
X-0000889Y0006439D01*
X-0000778D01*
X-0000723Y0006495D01*
Y0006550D01*
X-0000834Y0006661D01*
X-0000723Y0006772D01*
X-0000945D01*
X-0001196Y0006606D02*
X-0001113Y0006439D01*
X-0001335Y0006606D02*
X-0001168D01*
X-0001113Y0006661D01*
Y0006717D01*
X-0001168Y0006772D01*
X-0001335D01*
Y0006439D01*
X0006632Y0006023D02*
X0006799D01*
X0006826Y0005968D01*
Y0005912D01*
X0006799Y0005857D01*
X0006632D01*
X0006604Y0005912D01*
Y0005968D01*
X0006715Y0006190D01*
X0006353Y0006023D02*
X0006436Y0005857D01*
X0006214Y0006023D02*
X0006381D01*
X0006436Y0006079D01*
Y0006134D01*
X0006381Y0006190D01*
X0006214D01*
Y0005857D01*
X0003249Y0005523D02*
X0003416D01*
X0003444Y0005468D01*
Y0005412D01*
X0003416Y0005357D01*
X0003249D01*
X0003222Y0005412D01*
Y0005468D01*
X0003333Y0005690D01*
X0003054Y0005412D02*
X0003026Y0005357D01*
X0002859D01*
X0002832Y0005412D01*
Y0005634D01*
X0002859Y0005690D01*
X0003026D01*
X0003054Y0005634D01*
X0006446Y0000469D02*
X0006613Y0000802D01*
X0006391D01*
X0006223Y0000525D02*
X0006195Y0000469D01*
X0006029D01*
X0006001Y0000525D01*
Y0000747D01*
X0006029Y0000802D01*
X0006195D01*
X0006223Y0000747D01*
X-0006444Y0002385D02*
X-0006416Y0002440D01*
Y0002496D01*
X-0006444Y0002551D01*
X-0006611D01*
X-0006638Y0002496D01*
Y0002440D01*
X-0006611Y0002385D01*
X-0006444D01*
X-0006416Y0002329D01*
Y0002274D01*
X-0006444Y0002218D01*
X-0006611D01*
X-0006638Y0002274D01*
Y0002329D01*
X-0006611Y0002385D01*
X-0006806Y0002274D02*
X-0006834Y0002218D01*
X-0007001D01*
X-0007028Y0002274D01*
Y0002496D01*
X-0007001Y0002551D01*
X-0006834D01*
X-0006806Y0002496D01*
X-0003083Y-0000814D02*
X-0003305D01*
X-0003083Y-0000592D01*
Y-0000536D01*
X-0003111Y-0000481D01*
X-0003277D01*
X-0003305Y-0000536D01*
X-0003556Y-0000648D02*
X-0003473Y-0000814D01*
X-0003695Y-0000648D02*
X-0003528D01*
X-0003473Y-0000592D01*
Y-0000536D01*
X-0003528Y-0000481D01*
X-0003695D01*
Y-0000814D01*
X0000850Y-0000683D02*
X0000628D01*
X0000739Y-0000461D01*
X0000795D01*
Y-0000795D01*
X0000460Y-0000739D02*
X0000432Y-0000795D01*
X0000266D01*
X0000238Y-0000739D01*
Y-0000517D01*
X0000266Y-0000461D01*
X0000432D01*
X0000460Y-0000517D01*
X-0007806Y-0000132D02*
X-0007917D01*
X-0007862D02*
Y0000201D01*
X-0007917Y0000146D01*
X-0008141D02*
X-0008168Y0000201D01*
X-0008335D01*
X-0008363Y0000146D01*
Y0000090D01*
X-0008335Y0000034D01*
X-0008168D01*
X-0008141Y-0000021D01*
Y-0000077D01*
X-0008168Y-0000132D01*
X-0008335D01*
X-0008363Y-0000077D01*
X-0008531Y-0000132D02*
X-0008697Y0000201D01*
X-0008531D02*
X-0008697Y-0000132D01*
X-0009989Y0001776D02*
X-0010045Y0001748D01*
Y0001581D01*
X-0009989Y0001553D01*
X-0009878D01*
X-0009823Y0001609D01*
Y0001776D01*
X-0009712D01*
Y0001553D01*
X-0010036Y0003241D02*
Y0003352D01*
Y0003297D02*
X-0009703D01*
X-0009758Y0003352D01*
X0008769Y0004424D02*
X0008658D01*
X0008713D02*
Y0004757D01*
X0008658Y0004701D01*
X0008434Y0004535D02*
X0008212D01*
X0008434Y0004424D02*
Y0004590D01*
X0008351Y0004757D01*
X0008296D01*
X0008212Y0004590D01*
Y0004424D01*
X0007850D02*
Y0004757D01*
X0007822Y0004424D02*
X0007989D01*
X0008044Y0004535D01*
Y0004646D01*
X0007989Y0004757D01*
X0007822D01*
X-0006555Y0005715D02*
X-0006500Y0005659D01*
X-0006389D01*
X-0006333Y0005715D01*
Y0005770D01*
X-0006444Y0005881D01*
X-0006333Y0005992D01*
X-0006555D01*
X-0006723Y0005715D02*
X-0006751Y0005659D01*
X-0006918D01*
X-0006945Y0005715D01*
Y0005937D01*
X-0006918Y0005992D01*
X-0006751D01*
X-0006723Y0005937D01*
X-0000289Y0000127D02*
X-0000178D01*
X-0000233D02*
Y-0000206D01*
X-0000178Y-0000150D01*
X-0004578Y-0000834D02*
X-0004800D01*
X-0004578Y-0000612D01*
Y-0000556D01*
X-0004606Y-0000501D01*
X-0004772D01*
X-0004800Y-0000556D01*
X-0004968Y-0000778D02*
X-0004996Y-0000834D01*
X-0005162D01*
X-0005190Y-0000778D01*
Y-0000556D01*
X-0005162Y-0000501D01*
X-0004996D01*
X-0004968Y-0000556D01*
X0009884Y-0000097D02*
X0009773D01*
X0009829D02*
Y0000236D01*
X0009773Y0000181D01*
X0009439Y-0000097D02*
Y0000236D01*
X0009550D02*
X0009328D01*
X0009160Y-0000097D02*
X0008993Y0000236D01*
X0009160D02*
X0008993Y-0000097D01*
G54D48*
G01X0011023Y0005599D02*
G03X0011723Y0006299I0000000J0000700D01*
G01X0010323D02*
G03X0011023Y0005599I0000700J0000000D01*
Y0006999D02*
G03X0010323Y0006299I0000000J0000700D01*
G01X0011723D02*
G03X0011023Y0006999I0000700J0000000D01*
Y-0001727D02*
G03X0011723Y-0001027I0000000J0000700D01*
G01X0010323D02*
G03X0011023Y-0001727I0000700J0000000D01*
Y-0000327D02*
G03X0010323Y-0001027I0000000J0000700D01*
G01X0011723D02*
G03X0011023Y-0000327I0000700J0000000D01*
G01X-0011023Y-0001727D02*
G03X-0010323Y-0001027I0000000J0000700D01*
G01X-0011723D02*
G03X-0011023Y-0001727I0000700J0000000D01*
Y-0000327D02*
G03X-0011723Y-0001027I0000000J0000700D01*
G01X-0010323D02*
G03X-0011023Y-0000327I0000700J0000000D01*
Y0005599D02*
G03X-0010323Y0006299I0000000J0000700D01*
G01X-0011723D02*
G03X-0011023Y0005599I0000700J0000000D01*
Y0006999D02*
G03X-0011723Y0006299I0000000J0000700D01*
G01X-0010323D02*
G03X-0011023Y0006999I0000700J0000000D01*
G54D43*
X-0008159Y0004308D03*
Y0000805D03*
M02*
