*
G04 Mass Parameters ***
*
G04 Image ***
*
%INC:\DOLGUNOV\USBTIN\HW\TRUNK\USBTIN.SMT*%
%ICAS*%
%MOIN*%
%IPPOS*%
%ASAXBY*%
G74*%FSLAN2X34Y34*%
*
G04 Aperture Definitions ***
*
%ADD10R,0.0320X0.0380*%
%ADD11R,0.0380X0.0320*%
%ADD12O,0.0250X0.0720*%
%ADD13R,0.0250X0.0720*%
%ADD14O,0.0860X0.0240*%
%ADD15R,0.0860X0.0240*%
%ADD16R,0.0450X0.0800*%
%ADD17C,0.0630*%
%ADD18R,0.0630X0.0630*%
%ADD19C,0.0984*%
%ADD20C,0.0394*%
%ADD21R,0.1299X0.0787*%
%ADD22R,0.0984X0.0787*%
%ADD23R,0.1220X0.0197*%
%ADD24C,0.0670*%
%ADD25R,0.0670X0.0670*%
%ADD26C,0.0480*%
%ADD27C,0.0260*%
%ADD28C,0.0100*%
%ADD29C,0.0080*%
%ADD30C,0.0070*%
%ADD31R,0.0380X0.0440*%
%ADD32R,0.0360X0.0440*%
%ADD33R,0.0440X0.0380*%
%ADD34R,0.0440X0.0360*%
%ADD35O,0.0290X0.0760*%
%ADD36R,0.0290X0.0760*%
%ADD37O,0.0920X0.0300*%
%ADD38R,0.0920X0.0300*%
%ADD39R,0.0513X0.0863*%
%ADD40C,0.0680*%
%ADD41R,0.0680X0.0680*%
%ADD42C,0.1134*%
%ADD43R,0.1338X0.0827*%
%ADD44R,0.1023X0.0827*%
%ADD45R,0.1260X0.0236*%
%ADD46C,0.0720*%
%ADD47C,0.0530*%
*
G04 Plot Data ***
*
G54D28*
G01X0005109Y0002203D02*
X0004409D01*
X0005109Y0002113D02*
X0004409D01*
X0005109Y0002023D02*
X0004409D01*
X0005109Y0001933D02*
X0004409D01*
X0005109Y0001843D02*
X0004409D01*
X0005109Y0001753D02*
X0004409D01*
X0005109Y0001663D02*
X0004409D01*
X0005109Y0001573D02*
X0004409D01*
X0005109Y0001483D02*
X0004409D01*
X0005109Y0001393D02*
X0004409D01*
X0005109Y0001303D02*
X0004409D01*
X0005109Y0003193D02*
X0004409D01*
X0005109Y0003103D02*
X0004409D01*
X0005109Y0003013D02*
X0004409D01*
X0005109Y0002923D02*
X0004409D01*
X0005109Y0002833D02*
X0004409D01*
X0005109Y0002743D02*
X0004409D01*
X0005109Y0002653D02*
X0004409D01*
X0005109Y0002563D02*
X0004409D01*
X0005109Y0002473D02*
X0004409D01*
X0005109Y0002383D02*
X0004409D01*
X0005109Y0002293D02*
X0004409D01*
X0005109Y0001173D02*
X0004409D01*
X0005079Y0003323D02*
Y0001173D01*
X0004989Y0003323D02*
Y0001173D01*
X0004899Y0003323D02*
Y0001173D01*
X0004809Y0003323D02*
Y0001173D01*
X0004719Y0003323D02*
Y0001173D01*
X0004629Y0003323D02*
Y0001173D01*
X0004539Y0003323D02*
Y0001173D01*
X0004449Y0003323D02*
Y0001173D01*
X0005109Y0003283D02*
X0004409D01*
X0005109Y0001213D02*
X0004409D01*
X0005109Y0003323D02*
Y0001173D01*
Y0003323D02*
X0004409D01*
Y0001173D01*
X0005109Y0005653D02*
X0004409D01*
X0005109Y0005563D02*
X0004409D01*
X0005109Y0005473D02*
X0004409D01*
X0005109Y0005383D02*
X0004409D01*
X0005109Y0005293D02*
X0004409D01*
X0005109Y0005203D02*
X0004409D01*
X0005109Y0005113D02*
X0004409D01*
X0005109Y0005023D02*
X0004409D01*
X0005109Y0004933D02*
X0004409D01*
X0005109Y0004843D02*
X0004409D01*
X0005109Y0004753D02*
X0004409D01*
X0005109Y0006643D02*
X0004409D01*
X0005109Y0006553D02*
X0004409D01*
X0005109Y0006463D02*
X0004409D01*
X0005109Y0006373D02*
X0004409D01*
X0005109Y0006283D02*
X0004409D01*
X0005109Y0006193D02*
X0004409D01*
X0005109Y0006103D02*
X0004409D01*
X0005109Y0006013D02*
X0004409D01*
X0005109Y0005923D02*
X0004409D01*
X0005109Y0005833D02*
X0004409D01*
X0005109Y0005743D02*
X0004409D01*
X0005109Y0006773D02*
Y0004623D01*
X0005079Y0006773D02*
Y0004623D01*
X0004989Y0006773D02*
Y0004623D01*
X0004899Y0006773D02*
Y0004623D01*
X0004809Y0006773D02*
Y0004623D01*
X0004719Y0006773D02*
Y0004623D01*
X0004629Y0006773D02*
Y0004623D01*
X0004539Y0006773D02*
Y0004623D01*
X0004449Y0006773D02*
Y0004623D01*
X0005109Y0006733D02*
X0004409D01*
X0005109Y0004663D02*
X0004409D01*
X0005109Y0004623D02*
X0004409D01*
Y0006773D02*
Y0004623D01*
X0005109Y0006773D02*
X0004409D01*
G54D31*
X0007075Y0000669D03*
X0000713Y-0000040D03*
X-0004558D03*
G54D32*
X0002168D03*
X0001608D03*
X-0000703Y0005979D03*
X-0001263D03*
X-0003063Y-0000039D03*
X-0003623D03*
X0007635Y0000669D03*
X0000153Y-0000040D03*
X-0005118D03*
G54D33*
X-0006726Y0003181D03*
X0003147Y0004401D03*
Y0003702D03*
X-0006726Y0005039D03*
G54D34*
X0006569Y0005393D03*
Y0004833D03*
X0007355Y0005393D03*
Y0004833D03*
X-0009873Y0005944D03*
Y0005384D03*
X-0006726Y0003741D03*
X0003147Y0004961D03*
Y0003142D03*
X-0006726Y0004479D03*
G54D35*
X0007066Y0001821D03*
X0007566D03*
X0008066D03*
Y0003921D03*
X0007566D03*
X0007066D03*
X0006566D03*
G54D36*
Y0001821D03*
G54D37*
X0002085Y0001444D03*
Y0001944D03*
Y0002444D03*
Y0002944D03*
Y0003444D03*
Y0003944D03*
Y0004444D03*
Y0004944D03*
X-0000765D03*
Y0004444D03*
Y0003944D03*
Y0003444D03*
Y0002944D03*
Y0002444D03*
Y0001944D03*
Y0001444D03*
Y0000944D03*
X-0002635Y0001444D03*
Y0001944D03*
Y0002444D03*
Y0002944D03*
Y0003444D03*
Y0003944D03*
Y0004444D03*
Y0004944D03*
Y0005444D03*
X-0005485D03*
Y0004944D03*
Y0004444D03*
Y0003944D03*
Y0003444D03*
Y0002944D03*
Y0002444D03*
Y0001944D03*
Y0001444D03*
Y0000944D03*
G54D38*
X0002085D03*
X-0002635D03*
G54D39*
X0000315Y0005939D03*
X0001440D03*
X-0008850Y0005703D03*
X-0007725D03*
G54D40*
X0008558Y0005821D03*
X-0001983Y-0000040D03*
G54D41*
X0009558Y0005821D03*
X-0000983Y-0000040D03*
G54D42*
X-0011023Y0006299D03*
X0011023D03*
Y-0001027D03*
X-0011023D03*
G54D43*
X-0008159Y0004308D03*
Y0000805D03*
G54D44*
X-0010482Y0004308D03*
Y0000805D03*
G54D45*
X-0008119Y0003186D03*
Y0002871D03*
Y0002557D03*
Y0002242D03*
Y0001927D03*
G54D46*
X0010227Y0004169D03*
Y0002669D03*
Y0001169D03*
G54D47*
X0004759Y0004923D03*
Y0003023D03*
M02*
